<svg width="433" height="235" xmlns="http://www.w3.org/2000/svg" xmlns:xlink="http://www.w3.org/1999/xlink" xml:space="preserve" overflow="hidden"><defs><clipPath id="clip0"><rect x="0" y="0" width="433" height="235"/></clipPath></defs><g clip-path="url(#clip0)"><path d="M3.937 540.368 3.35729 540.483 2.77758 540.598 2.31382 540.716 1.73411 540.946 1.27034 541.18 0.690635 541.528 0.342808 541.991-0.120957 542.455-0.352839 542.918-0.700665 543.382-0.932546 543.963-1.04849 544.542-1.16443 545.12-1.16443 545.702-1.04849 546.28-0.932546 546.859-0.816604 547.44-0.584723 547.904-0.236898 548.367 0.110926 548.831 0.574692 549.294 0.922516 549.642 1.50222 549.991 1.96599 550.221 2.5457 550.454 3.1254 550.569 3.7051 550.688 4.28481 550.688 4.86452 550.569 5.44423 550.454 6.02395 550.221 6.48771 549.991 6.95147 549.642 7.41523 549.294 7.87899 548.831 8.22684 548.367 8.45871 547.904 8.6906 547.44 8.92247 546.859 9.03842 546.28 9.03842 545.702 9.03842 545.12 9.03842 544.542 8.80655 543.963 8.57465 543.382 8.34279 542.918 7.99494 542.455 7.64713 541.991 7.18337 541.528 6.71961 541.18 6.25584 540.946 5.67613 540.716 5.09642 540.598 4.51671 540.483 3.937 540.368M11.2413 548.482-3.36731 542.57" stroke="#808080" stroke-width="0.591303" stroke-miterlimit="10" fill="none" transform="matrix(1.003 0 0 1 3.8933 -429.563)"/><text fill="#808080" font-family="Century Gothic,Century Gothic_MSFontService,sans-serif" font-weight="400" font-size="5" transform="matrix(2.01846e-16 -3.28653 3.2964 2.01242e-16 13.586 107)">1</text><text fill="#808080" font-family="Century Gothic,Century Gothic_MSFontService,sans-serif" font-weight="400" font-size="5" transform="matrix(2.01846e-16 -3.28653 3.2964 2.01242e-16 13.586 99)">4</text><text fill="#808080" font-family="Century Gothic,Century Gothic_MSFontService,sans-serif" font-weight="400" font-size="5" transform="matrix(2.01846e-16 -3.28653 3.2964 2.01242e-16 13.586 90)">,</text><text fill="#808080" font-family="Century Gothic,Century Gothic_MSFontService,sans-serif" font-weight="400" font-size="5" transform="matrix(2.01846e-16 -3.28653 3.2964 2.01242e-16 13.586 86)">0</text><text fill="#808080" font-family="Century Gothic,Century Gothic_MSFontService,sans-serif" font-weight="400" font-size="5" transform="matrix(2.01846e-16 -3.28653 3.2964 2.01242e-16 13.586 78)">0</text><text fill="#808080" font-family="Century Gothic,Century Gothic_MSFontService,sans-serif" font-weight="400" font-size="5" transform="matrix(2.01846e-16 -3.28653 3.2964 2.01242e-16 13.586 69)"> </text><text fill="#808080" font-family="Century Gothic,Century Gothic_MSFontService,sans-serif" font-weight="400" font-size="5" transform="matrix(2.01846e-16 -3.28653 3.2964 2.01242e-16 168.217 207)">0</text><text fill="#808080" font-family="Century Gothic,Century Gothic_MSFontService,sans-serif" font-weight="400" font-size="5" transform="matrix(2.01846e-16 -3.28653 3.2964 2.01242e-16 168.217 199)"> </text><text fill="#808080" font-family="Century Gothic,Century Gothic_MSFontService,sans-serif" font-weight="400" font-size="5" transform="matrix(2.01846e-16 -3.28653 3.2964 2.01242e-16 143.312 229)">6</text><text fill="#808080" font-family="Century Gothic,Century Gothic_MSFontService,sans-serif" font-weight="400" font-size="5" transform="matrix(2.01846e-16 -3.28653 3.2964 2.01242e-16 143.312 220)">,</text><text fill="#808080" font-family="Century Gothic,Century Gothic_MSFontService,sans-serif" font-weight="400" font-size="5" transform="matrix(2.01846e-16 -3.28653 3.2964 2.01242e-16 143.312 216)">4</text><text fill="#808080" font-family="Century Gothic,Century Gothic_MSFontService,sans-serif" font-weight="400" font-size="5" transform="matrix(2.01846e-16 -3.28653 3.2964 2.01242e-16 143.312 207)">6</text><text fill="#808080" font-family="Century Gothic,Century Gothic_MSFontService,sans-serif" font-weight="400" font-size="5" transform="matrix(2.01846e-16 -3.28653 3.2964 2.01242e-16 143.312 199)"> </text><text fill="#808080" font-family="Century Gothic,Century Gothic_MSFontService,sans-serif" font-weight="400" font-size="5" transform="matrix(2.01846e-16 -3.28653 3.2964 2.01242e-16 105.423 229)">9</text><text fill="#808080" font-family="Century Gothic,Century Gothic_MSFontService,sans-serif" font-weight="400" font-size="5" transform="matrix(2.01846e-16 -3.28653 3.2964 2.01242e-16 105.423 220)">,</text><text fill="#808080" font-family="Century Gothic,Century Gothic_MSFontService,sans-serif" font-weight="400" font-size="5" transform="matrix(2.01846e-16 -3.28653 3.2964 2.01242e-16 105.423 216)">5</text><text fill="#808080" font-family="Century Gothic,Century Gothic_MSFontService,sans-serif" font-weight="400" font-size="5" transform="matrix(2.01846e-16 -3.28653 3.2964 2.01242e-16 105.423 207)">1</text><text fill="#808080" font-family="Century Gothic,Century Gothic_MSFontService,sans-serif" font-weight="400" font-size="5" transform="matrix(2.01846e-16 -3.28653 3.2964 2.01242e-16 105.423 199)"> </text><text fill="#808080" font-family="Century Gothic,Century Gothic_MSFontService,sans-serif" font-weight="400" font-size="5" transform="matrix(2.01846e-16 -3.28653 3.2964 2.01242e-16 73.1648 237)">1</text><text fill="#808080" font-family="Century Gothic,Century Gothic_MSFontService,sans-serif" font-weight="400" font-size="5" transform="matrix(2.01846e-16 -3.28653 3.2964 2.01242e-16 73.1648 229)">8</text><text fill="#808080" font-family="Century Gothic,Century Gothic_MSFontService,sans-serif" font-weight="400" font-size="5" transform="matrix(2.01846e-16 -3.28653 3.2964 2.01242e-16 73.1648 220)">,</text><text fill="#808080" font-family="Century Gothic,Century Gothic_MSFontService,sans-serif" font-weight="400" font-size="5" transform="matrix(2.01846e-16 -3.28653 3.2964 2.01242e-16 73.1648 216)">3</text><text fill="#808080" font-family="Century Gothic,Century Gothic_MSFontService,sans-serif" font-weight="400" font-size="5" transform="matrix(2.01846e-16 -3.28653 3.2964 2.01242e-16 73.1648 207)">2</text><text fill="#808080" font-family="Century Gothic,Century Gothic_MSFontService,sans-serif" font-weight="400" font-size="5" transform="matrix(2.01846e-16 -3.28653 3.2964 2.01242e-16 73.1648 199)"> </text><text fill="#808080" font-family="Century Gothic,Century Gothic_MSFontService,sans-serif" font-weight="400" font-size="5" transform="matrix(2.01846e-16 -3.28653 3.2964 2.01242e-16 37.5067 237)">1</text><text fill="#808080" font-family="Century Gothic,Century Gothic_MSFontService,sans-serif" font-weight="400" font-size="5" transform="matrix(2.01846e-16 -3.28653 3.2964 2.01242e-16 37.5067 229)">9</text><text fill="#808080" font-family="Century Gothic,Century Gothic_MSFontService,sans-serif" font-weight="400" font-size="5" transform="matrix(2.01846e-16 -3.28653 3.2964 2.01242e-16 37.5067 220)">,</text><text fill="#808080" font-family="Century Gothic,Century Gothic_MSFontService,sans-serif" font-weight="400" font-size="5" transform="matrix(2.01846e-16 -3.28653 3.2964 2.01242e-16 37.5067 216)">8</text><text fill="#808080" font-family="Century Gothic,Century Gothic_MSFontService,sans-serif" font-weight="400" font-size="5" transform="matrix(2.01846e-16 -3.28653 3.2964 2.01242e-16 37.5067 207)">3</text><text fill="#808080" font-family="Century Gothic,Century Gothic_MSFontService,sans-serif" font-weight="400" font-size="5" transform="matrix(2.01846e-16 -3.28653 3.2964 2.01242e-16 37.5067 199)"> </text><text font-family="Century Gothic,Century Gothic_MSFontService,sans-serif" font-weight="700" font-size="4" transform="matrix(3.2964 0 0 3.28653 17.4511 14)">M</text><text font-family="Century Gothic,Century Gothic_MSFontService,sans-serif" font-weight="700" font-size="4" transform="matrix(3.2964 0 0 3.28653 30.0014 14)">1</text><text font-family="Century Gothic,Century Gothic_MSFontService,sans-serif" font-weight="700" font-size="4" transform="matrix(3.2964 0 0 3.28653 37.8106 14)">2</text><text font-family="Century Gothic,Century Gothic_MSFontService,sans-serif" font-weight="700" font-size="4" transform="matrix(3.2964 0 0 3.28653 45.6194 14)"> </text><text font-family="Century Gothic,Century Gothic_MSFontService,sans-serif" font-weight="700" font-size="4" transform="matrix(3.2964 0 0 3.28653 49.524 14)">P</text><text font-family="Century Gothic,Century Gothic_MSFontService,sans-serif" font-weight="700" font-size="4" transform="matrix(3.2964 0 0 3.28653 57.3332 14)">0</text><text font-family="Century Gothic,Century Gothic_MSFontService,sans-serif" font-weight="700" font-size="4" transform="matrix(3.2964 0 0 3.28653 65.142 14)">.</text><text font-family="Century Gothic,Century Gothic_MSFontService,sans-serif" font-weight="700" font-size="4" transform="matrix(3.2964 0 0 3.28653 69.0466 14)">5</text><text fill="#808080" font-family="Century Gothic,Century Gothic_MSFontService,sans-serif" font-weight="400" font-size="5" transform="matrix(3.2964 0 0 3.28653 274.588 203)">2</text><text fill="#808080" font-family="Century Gothic,Century Gothic_MSFontService,sans-serif" font-weight="400" font-size="5" transform="matrix(3.2964 0 0 3.28653 283.113 203)">0</text><text fill="#808080" font-family="Century Gothic,Century Gothic_MSFontService,sans-serif" font-weight="400" font-size="5" transform="matrix(3.2964 0 0 3.28653 291.638 203)">,</text><text fill="#808080" font-family="Century Gothic,Century Gothic_MSFontService,sans-serif" font-weight="400" font-size="5" transform="matrix(3.2964 0 0 3.28653 295.9 203)">0</text><text fill="#808080" font-family="Century Gothic,Century Gothic_MSFontService,sans-serif" font-weight="400" font-size="5" transform="matrix(3.2964 0 0 3.28653 304.425 203)">0</text><text fill="#808080" font-family="Century Gothic,Century Gothic_MSFontService,sans-serif" font-weight="400" font-size="5" transform="matrix(3.2964 0 0 3.28653 312.95 203)"> </text><text fill="#808080" font-family="Century Gothic,Century Gothic_MSFontService,sans-serif" font-weight="400" font-size="5" transform="matrix(3.2964 0 0 3.28653 274.588 221)">2</text><text fill="#808080" font-family="Century Gothic,Century Gothic_MSFontService,sans-serif" font-weight="400" font-size="5" transform="matrix(3.2964 0 0 3.28653 283.113 221)">6</text><text fill="#808080" font-family="Century Gothic,Century Gothic_MSFontService,sans-serif" font-weight="400" font-size="5" transform="matrix(3.2964 0 0 3.28653 291.638 221)">,</text><text fill="#808080" font-family="Century Gothic,Century Gothic_MSFontService,sans-serif" font-weight="400" font-size="5" transform="matrix(3.2964 0 0 3.28653 295.9 221)">5</text><text fill="#808080" font-family="Century Gothic,Century Gothic_MSFontService,sans-serif" font-weight="400" font-size="5" transform="matrix(3.2964 0 0 3.28653 304.425 221)">0</text><text fill="#808080" font-family="Century Gothic,Century Gothic_MSFontService,sans-serif" font-weight="400" font-size="5" transform="matrix(3.2964 0 0 3.28653 312.95 221)"> </text><text fill="#808080" font-family="Century Gothic,Century Gothic_MSFontService,sans-serif" font-weight="400" font-size="5" transform="matrix(2.01846e-16 -3.28653 3.2964 2.01242e-16 407.076 111)">2</text><text fill="#808080" font-family="Century Gothic,Century Gothic_MSFontService,sans-serif" font-weight="400" font-size="5" transform="matrix(2.01846e-16 -3.28653 3.2964 2.01242e-16 407.076 103)">0</text><text fill="#808080" font-family="Century Gothic,Century Gothic_MSFontService,sans-serif" font-weight="400" font-size="5" transform="matrix(2.01846e-16 -3.28653 3.2964 2.01242e-16 407.076 94)">,</text><text fill="#808080" font-family="Century Gothic,Century Gothic_MSFontService,sans-serif" font-weight="400" font-size="5" transform="matrix(2.01846e-16 -3.28653 3.2964 2.01242e-16 407.076 90)">0</text><text fill="#808080" font-family="Century Gothic,Century Gothic_MSFontService,sans-serif" font-weight="400" font-size="5" transform="matrix(2.01846e-16 -3.28653 3.2964 2.01242e-16 407.076 82)">0</text><text fill="#808080" font-family="Century Gothic,Century Gothic_MSFontService,sans-serif" font-weight="400" font-size="5" transform="matrix(2.01846e-16 -3.28653 3.2964 2.01242e-16 407.076 73)"> </text><text fill="#808080" font-family="Century Gothic,Century Gothic_MSFontService,sans-serif" font-weight="400" font-size="5" transform="matrix(2.01846e-16 -3.28653 3.2964 2.01242e-16 425.72 111)">2</text><text fill="#808080" font-family="Century Gothic,Century Gothic_MSFontService,sans-serif" font-weight="400" font-size="5" transform="matrix(2.01846e-16 -3.28653 3.2964 2.01242e-16 425.72 103)">6</text><text fill="#808080" font-family="Century Gothic,Century Gothic_MSFontService,sans-serif" font-weight="400" font-size="5" transform="matrix(2.01846e-16 -3.28653 3.2964 2.01242e-16 425.72 94)">,</text><text fill="#808080" font-family="Century Gothic,Century Gothic_MSFontService,sans-serif" font-weight="400" font-size="5" transform="matrix(2.01846e-16 -3.28653 3.2964 2.01242e-16 425.72 90)">5</text><text fill="#808080" font-family="Century Gothic,Century Gothic_MSFontService,sans-serif" font-weight="400" font-size="5" transform="matrix(2.01846e-16 -3.28653 3.2964 2.01242e-16 425.72 82)">0</text><text fill="#808080" font-family="Century Gothic,Century Gothic_MSFontService,sans-serif" font-weight="400" font-size="5" transform="matrix(2.01846e-16 -3.28653 3.2964 2.01242e-16 425.72 73)"> </text><path d="M94.7191 482.397 87.8785 473.816 90.8932 472.077 94.7191 482.397" stroke="#000000" stroke-width="0.591303" stroke-miterlimit="10" fill="none" transform="matrix(1.003 0 0 1 3.8933 -429.563)"/><path d="M160.226 620.947 160.226 620.599 160.11 620.25 159.878 619.902 159.646 619.554 159.414 619.323 159.067 619.09 158.719 618.86 158.371 618.742 158.023 618.742 157.56 618.742 157.211 618.86 156.864 619.09 156.516 619.323 156.284 619.554 156.052 619.902 155.936 620.25 155.82 620.599 155.704 620.947 155.82 621.41 155.936 621.759 156.052 622.107 156.284 622.452 156.516 622.686 156.864 622.919 157.211 623.034 157.56 623.149 158.023 623.149 158.371 623.149 158.719 623.034 159.067 622.919 159.414 622.686 159.646 622.452 159.878 622.107 160.11 621.759 160.226 621.41 160.226 620.947M133.096 620.947 143.994 619.323 143.994 622.686 133.096 620.947M95.4149 620.947 106.197 619.323 106.197 622.686 95.4149 620.947M63.1832 620.947 74.0817 619.323 74.0817 622.686 63.1832 620.947M27.705 620.947 38.4876 619.323 38.4876 622.686 27.705 620.947" stroke="#808080" stroke-width="0.591303" stroke-miterlimit="10" fill="none" transform="matrix(1.003 0 0 1 3.8933 -429.563)"/><path d="M223.182 636.134 234.081 634.396 234.081 637.758 223.182 636.134M354.659 636.134 343.876 637.758 343.876 634.396 354.659 636.134M201.849 654.105 212.748 652.481 212.748 655.843 201.849 654.105M375.992 654.105 365.209 655.843 365.209 652.481 375.992 654.105" stroke="#808080" stroke-width="0.591303" stroke-miterlimit="10" fill="none" transform="matrix(1.003 0 0 1 3.8933 -429.563)"/><path d="M405.209 587.208 403.586 576.309 406.948 576.309 405.209 587.208M405.209 455.73 406.948 466.628 403.586 466.628 405.209 455.73M423.877 608.54 422.138 597.642 425.5 597.642 423.877 608.54M423.877 434.397 425.5 445.18 422.138 445.18 423.877 434.397" stroke="#808080" stroke-width="0.591303" stroke-miterlimit="10" fill="none" transform="matrix(1.003 0 0 1 3.8933 -429.563)"/><path d="M13.0964 475.439 11.4732 464.541 14.8355 464.541 13.0964 475.439M13.0964 567.498 14.8355 578.281 11.4732 578.281 13.0964 567.498" stroke="#808080" stroke-width="0.591303" stroke-miterlimit="10" fill="none" transform="matrix(1.003 0 0 1 3.8933 -429.563)"/><path d="M23.0487 521.395 174.605 521.395" stroke="#000000" stroke-width="0.591303" stroke-linecap="round" stroke-linejoin="round" stroke-miterlimit="10" stroke-dasharray="50.0867 4.17389 4.17389 4.17389" fill="none" transform="matrix(1.003 0 0 1 3.8933 -429.563)"/><path d="M380.297 521.395 196.702 521.395" stroke="#000000" stroke-width="0.591303" stroke-linecap="round" stroke-linejoin="round" stroke-miterlimit="10" stroke-dasharray="50.0867 4.17389 4.17389 4.17389" fill="none" transform="matrix(1.003 0 0 1 3.8933 -429.563)"/><path d="M289.006 429.858 289.006 615.179" stroke="#000000" stroke-width="0.591303" stroke-linecap="round" stroke-linejoin="round" stroke-miterlimit="10" stroke-dasharray="50.0867 4.17389 4.17389 4.17389" fill="none" transform="matrix(1.003 0 0 1 3.8933 -429.563)"/><path d="M15.0674 446.57 74.4294 446.57M74.4294 446.57 94.7191 482.397" stroke="#000000" stroke-width="0.591303" stroke-linecap="round" stroke-linejoin="round" stroke-miterlimit="10" fill="none" transform="matrix(1.003 0 0 1 3.8933 -429.563)"/><path d="M158.023 611.787 158.023 624.309M133.096 607.844 133.096 624.309M158.023 620.947 133.096 620.947M133.096 607.844 115.473 591.496M115.473 591.496 115.473 590.455M95.4149 607.844 95.4149 624.309M133.096 620.947 95.4149 620.947M95.4149 607.844 95.4149 591.496M95.4149 591.496 95.4149 577.7M63.1832 607.844 63.1832 624.309M95.4149 620.947 63.1832 620.947M63.1832 607.844 37.5601 591.496M37.5601 591.496 37.5601 569.585M27.705 525.062 27.705 624.309M63.1832 620.947 27.705 620.947" stroke="#808080" stroke-width="0.591303" stroke-linecap="round" stroke-linejoin="round" stroke-miterlimit="10" fill="none" transform="matrix(1.003 0 0 1 3.8933 -429.563)"/><path d="M158.023 620.947 158.023 620.947" stroke="#808080" stroke-width="0.591303" stroke-linecap="round" stroke-linejoin="round" stroke-miterlimit="10" fill="none" transform="matrix(1.003 0 0 1 3.8933 -429.563)"/><path d="M223.182 570.745 223.182 639.381M354.659 570.745 354.659 639.381M223.182 636.134 354.659 636.134M201.849 597.409 201.849 657.467M375.992 597.409 375.992 657.467M201.849 654.105 375.992 654.105" stroke="#808080" stroke-width="0.591303" stroke-linecap="round" stroke-linejoin="round" stroke-miterlimit="10" fill="none" transform="matrix(1.003 0 0 1 3.8933 -429.563)"/><path d="M338.197 587.208 408.572 587.208M338.197 455.73 408.572 455.73M405.209 587.208 405.209 455.73M364.864 608.54 427.124 608.54M364.864 434.397 427.124 434.397M423.877 608.54 423.877 434.397" stroke="#808080" stroke-width="0.591303" stroke-linecap="round" stroke-linejoin="round" stroke-miterlimit="10" fill="none" transform="matrix(1.003 0 0 1 3.8933 -429.563)"/><path d="M37.5601 475.439 9.84999 475.439M37.5601 567.498 9.84999 567.498M13.0964 475.439 13.0964 454.57M13.0964 475.439 13.0964 567.498M13.0964 567.498 13.0964 588.368" stroke="#808080" stroke-width="0.591303" stroke-linecap="round" stroke-linejoin="round" stroke-miterlimit="10" fill="none" transform="matrix(1.003 0 0 1 3.8933 -429.563)"/><path d="M94.7191 482.397 87.8785 473.816 90.8932 472.077" transform="matrix(1.003 0 0 1 3.8933 -429.563)"/><path d="M133.096 620.947 143.994 619.323 143.994 622.686M95.4149 620.947 106.197 619.323 106.197 622.686M63.1832 620.947 74.0817 619.323 74.0817 622.686M27.705 620.947 38.4876 619.323 38.4876 622.686" fill="#808080" transform="matrix(1.003 0 0 1 3.8933 -429.563)"/><path d="M223.182 636.134 234.081 634.396 234.081 637.758M354.659 636.134 343.876 637.758 343.876 634.396M201.849 654.105 212.748 652.481 212.748 655.843M375.992 654.105 365.209 655.843 365.209 652.481" fill="#808080" transform="matrix(1.003 0 0 1 3.8933 -429.563)"/><path d="M405.209 587.208 403.586 576.309 406.948 576.309M405.209 455.73 406.948 466.628 403.586 466.628M423.877 608.54 422.138 597.642 425.5 597.642M423.877 434.397 425.5 445.18 422.138 445.18" fill="#808080" transform="matrix(1.003 0 0 1 3.8933 -429.563)"/><path d="M13.0964 475.439 11.4732 464.541 14.8355 464.541M13.0964 567.498 14.8355 578.281 11.4732 578.281" fill="#808080" transform="matrix(1.003 0 0 1 3.8933 -429.563)"/><path d="M27.705 521.122 27.705 521.122M27.705 521.815 27.705 521.815M55.1831 567.498 62.0237 558.802M62.0237 484.135 55.1831 475.439M55.1831 475.439 40.8065 475.439M40.8065 567.498 55.1831 567.498M40.8065 475.788 37.5601 476.599M37.5601 566.223 40.8065 567.15M95.4149 482.397 94.6031 482.397M95.2988 558.687 95.4149 559.15M94.6031 482.397 94.1394 483.324 93.5596 484.135M93.5596 484.135 62.0237 484.135M94.8351 558.802 95.2988 558.802M62.0237 558.802 91.9367 558.802M91.9367 558.687 92.5161 559.614 92.9802 560.541M34.7774 555.67 37.5601 557.178M37.5601 485.759 34.7774 487.267M167.415 511.614 158.835 511.614M158.835 531.323 167.415 531.323M158.835 511.614 158.023 512.541M158.023 530.397 158.835 531.323M167.415 531.323 168.458 530.282M168.458 512.656 167.415 511.614M107.589 516.251 106.545 516.251M106.545 526.686 107.589 526.686M106.545 516.251 105.386 517.293M105.386 525.526 106.545 526.686M115.473 468.485 115.357 469.527 115.125 470.572 114.661 471.499 113.965 472.31 113.154 472.889 112.226 473.352 111.299 473.701 110.255 473.816M110.255 473.816 95.4149 473.816M158.023 448.309 158.255 448.309M158.255 441.7 158.023 441.7M158.255 501.179 158.023 501.179M158.023 507.789 158.255 507.789M158.023 560.656 158.255 560.656M158.023 560.541 158.255 560.541M158.255 554.05 158.023 554.05M158.139 563.554 158.023 563.554M158.023 570.164 158.255 570.164M27.705 521.467 27.705 521.352 27.705 521.237 27.705 521.122M27.705 521.815 27.705 521.7 27.705 521.585 27.705 521.467M27.705 521.467 27.705 521.352 27.705 521.237 27.705 521.119M27.705 521.815 27.705 521.7 27.705 521.585 27.705 521.467M62.0237 484.135 62.0237 484.135 62.0237 484.25 62.0237 484.599 62.0237 485.18 62.0237 485.874 62.0237 486.801 62.0237 487.846 62.0237 489.121 62.0237 490.63 62.0237 492.135 62.0237 493.873 62.0237 495.845 62.0237 497.817 62.0237 500.019 62.0237 502.221 62.0237 504.541 62.0237 506.977 62.0237 509.527 62.0237 512.077 62.0237 514.743 62.0237 517.411 62.0237 520.077 62.0237 522.746 62.0237 525.526 62.0237 528.195 62.0237 530.745 62.0237 533.41 62.0237 535.846 62.0237 538.281 62.0237 540.716 62.0237 542.918 62.0237 545.12 62.0237 547.092 62.0237 548.946 62.0237 550.684 62.0237 552.308 62.0237 553.816 62.0237 554.977 62.0237 556.137 62.0237 557.063 62.0237 557.757 62.0237 558.224 62.0237 558.569 62.0237 558.802M55.1831 567.498 55.1831 567.383 55.1831 567.035 55.1831 566.571 55.1831 565.875 55.1831 565.063 55.1831 564.018 55.1831 562.743 55.1831 561.352 55.1831 559.729 55.1831 557.99 55.1831 556.018 55.1831 553.931 55.1831 551.844 55.1831 549.409 55.1831 546.977 55.1831 544.427 55.1831 541.758 55.1831 539.093 55.1831 536.194 55.1831 533.41 55.1831 530.397 55.1831 527.498 55.1831 524.484 55.1831 521.47 55.1831 518.453 55.1831 515.44 55.1831 512.426 55.1831 509.527 55.1831 506.628 55.1831 503.845 55.1831 501.064 55.1831 498.396 55.1831 495.845 55.1831 493.41 55.1831 491.093 55.1831 488.888 55.1831 486.919 55.1831 484.947 55.1831 483.209 55.1831 481.585 55.1831 480.195 55.1831 478.92 55.1831 477.875 55.1831 477.063 55.1831 476.366 55.1831 475.788 55.1831 475.554 55.1831 475.439M40.8065 475.439 40.8065 475.554 40.8065 475.788 40.8065 476.366 40.8065 477.063 40.8065 477.875 40.8065 478.92 40.8065 480.195 40.8065 481.585 40.8065 483.209 40.8065 484.947 40.8065 486.919 40.8065 488.888 40.8065 491.093 40.8065 493.41 40.8065 495.845 40.8065 498.396 40.8065 501.064 40.8065 503.845 40.8065 506.628 40.8065 509.527 40.8065 512.426 40.8065 515.44 40.8065 518.453 40.8065 521.47 40.8065 524.484 40.8065 527.498 40.8065 530.397 40.8065 533.41 40.8065 536.194 40.8065 539.093 40.8065 541.758 40.8065 544.427 40.8065 546.977 40.8065 549.409 40.8065 551.844 40.8065 553.931 40.8065 556.018 40.8065 557.99 40.8065 559.729 40.8065 561.352 40.8065 562.743 40.8065 564.018 40.8065 565.063 40.8065 565.875 40.8065 566.571 40.8065 567.035 40.8065 567.383 40.8065 567.498M37.5601 521.47 37.5601 524.366 37.5601 527.383 37.5601 530.282 37.5601 533.18 37.5601 535.961 37.5601 538.744 37.5601 541.41 37.5601 544.078 37.5601 546.629 37.5601 548.946 37.5601 551.266 37.5601 553.353 37.5601 555.44 37.5601 557.294 37.5601 558.917 37.5601 560.541 37.5601 561.816 37.5601 563.091 37.5601 564.018 37.5601 564.83 37.5601 565.526 37.5601 565.99 37.5601 566.223M37.5601 476.599 37.5601 476.714 37.5601 476.948 37.5601 477.411 37.5601 477.99 37.5601 478.801 37.5601 479.846 37.5601 481.007 37.5601 482.397 37.5601 483.905 37.5601 485.644 37.5601 487.497 37.5601 489.469 37.5601 491.671 37.5601 493.992 37.5601 496.309 37.5601 498.859 37.5601 501.409 37.5601 504.193 37.5601 506.862 37.5601 509.757 37.5601 512.656 37.5601 515.555 37.5601 518.453 37.5601 521.47M94.8351 558.802 94.2554 559.729 93.7916 560.541M95.5309 482.397 95.5309 482.397M95.4149 509.875 95.2988 509.875M95.2988 509.875 95.2988 505.468 95.1828 501.294 95.0668 497.354 95.0668 493.873M95.0668 493.873 94.9511 490.511 94.9511 487.731 94.8351 485.411 94.8351 483.787 94.7191 482.745 94.6031 482.397M94.4871 521.47 94.4871 526.338 94.6031 531.093 94.6031 535.731 94.7191 540.135 94.8351 544.193 94.8351 547.789 94.9511 551.033 94.9511 553.816 95.0668 555.903 95.0668 557.527 95.1828 558.454 95.2988 558.687M94.4874 521.47 94.8351 527.149 95.4149 531.787M115.473 543.845 115.473 540.598 115.357 537.933M95.2988 509.875 94.6031 515.673 94.4874 521.47M93.5596 484.135 93.6756 484.484 93.7916 485.411 93.7916 487.034 93.9077 489.121 93.9077 491.905 94.0233 495.034 94.1394 498.744 94.1394 502.803 94.2554 507.207 94.2554 511.847 94.3714 516.6 94.4874 521.47M93.6756 555.44 94.1394 556.948 94.4874 557.875 94.7191 558.569 94.8351 558.802M92.7482 555.44 93.2119 555.44 93.6756 555.44M91.9367 558.687 92.0524 558.569 92.1684 557.99 92.4005 556.948 92.7482 555.44M93.7916 560.541 93.7916 560.311 93.7916 559.847 93.6756 559.035 93.6756 557.527 93.6756 555.44M93.5599 560.541 93.6756 560.541 93.7916 560.541M93.4439 560.541 93.5599 560.541M92.9802 560.541 93.2119 560.541 93.4439 560.541M92.7482 555.44 92.8642 557.178 92.8642 558.569 92.8642 559.614 92.9802 560.311 92.9802 560.541M34.7774 555.673 34.7774 555.555 34.7774 555.207 34.7774 554.743 34.7774 553.931 34.7774 553.005 34.7774 551.963 34.7774 550.569 34.7774 549.064 34.7774 547.44 34.7774 545.584 34.7774 543.615 34.7774 541.528 34.7774 539.323 34.7774 537.006 34.7774 534.57 34.7774 532.02 34.7774 529.47 34.7774 526.801 34.7774 524.136 34.7774 521.47M34.7774 521.47 34.7774 518.802 34.7774 516.136 34.7774 513.468 34.7774 510.917 34.7774 508.367 34.7774 505.932 34.7774 503.615 34.7774 501.413 34.7774 499.207 34.7774 497.239 34.7774 495.497 34.7774 493.758 34.7774 492.368 34.7774 490.978 34.7774 489.933 34.7774 489.006 34.7774 488.194 34.7774 487.731 34.7774 487.382 34.7774 487.267M34.7774 487.267 33.2702 491.093 31.879 495.034 30.7196 498.977 29.6761 503.033 28.8645 507.092 28.2848 511.151 27.937 515.21 27.7051 519.383 27.7051 523.557 27.937 527.613 28.2848 531.787 28.8645 535.846 29.6761 539.904 30.7196 543.96 31.879 547.904 33.2702 551.844 34.7774 555.673M95.4149 509.875 95.2988 509.875M95.2988 509.875 94.6031 515.788 94.4874 521.467 94.8351 527.149 95.6466 533.062M158.835 511.614 158.835 511.729 158.835 511.962 158.835 512.541 158.835 513.123 158.835 514.049 158.835 514.976 158.835 516.136 158.835 517.411 158.835 518.687 158.835 520.077 158.835 521.47 158.835 522.861 158.835 524.251 158.835 525.526 158.835 526.801 158.835 527.961 158.835 528.888 158.835 529.7 158.835 530.397 158.835 530.86 158.835 531.208 158.835 531.323M167.415 511.614 167.415 511.729 167.415 511.962 167.415 512.541 167.415 513.123 167.415 514.049 167.415 514.976 167.415 516.136 167.415 517.411 167.415 518.687 167.415 520.077 167.415 521.47 167.415 522.861 167.415 524.251 167.415 525.526 167.415 526.801 167.415 527.961 167.415 528.888 167.415 529.7 167.415 530.397 167.415 530.86 167.415 531.208 167.415 531.323M168.458 512.659 168.458 512.659 168.458 512.889 168.458 513.238 168.458 513.816 168.458 514.513 168.458 515.44 168.458 516.485 168.458 517.645 168.458 518.802 168.458 520.195 168.458 521.47 168.458 522.746 168.458 524.021 168.458 525.296 168.458 526.456 168.458 527.498 168.458 528.31 168.458 529.121 168.458 529.7 168.458 530.048 168.458 530.282M106.545 516.251 106.545 516.251 106.545 516.6 106.545 517.063 106.545 517.76 106.545 518.572 106.545 519.498 106.545 520.425 106.545 521.467 106.545 522.512 106.545 523.439 106.545 524.366 106.545 525.178 106.545 525.874 106.545 526.338 106.545 526.571 106.545 526.686M105.386 517.296 105.386 517.411 105.386 517.76 105.386 518.223 105.386 518.917 105.386 519.729 105.386 520.54 105.386 521.47 105.386 522.397 105.386 523.209 105.386 524.021 105.386 524.714 105.386 525.178 105.386 525.411 105.386 525.526M107.589 515.44 115.473 515.44M107.589 515.44 107.589 509.294M107.589 509.294 115.473 509.294M107.589 527.498 115.473 527.498M107.589 527.498 107.589 515.44M107.589 533.644 115.473 533.644M107.589 533.644 107.589 527.498M147.356 535.267 115.473 535.267M115.473 507.673 115.473 507.789 115.473 508.019 115.473 508.6 115.473 509.179 115.473 510.106 115.473 511.151 115.473 512.311 115.473 513.586 115.473 515.091 115.473 516.6 115.473 518.108 115.473 519.847 115.473 521.47 115.473 523.091 115.473 524.714 115.473 526.338 115.473 527.846 115.473 529.351 115.473 530.63 115.473 531.787 115.473 532.832 115.473 533.644 115.473 534.337 115.473 534.804 115.473 535.149 115.473 535.267M147.356 507.673 115.473 507.673M147.356 504.308 115.473 504.308M115.473 507.673 115.473 507.555 115.473 507.44 115.473 507.092 115.473 506.743 115.473 506.165 115.473 505.587 115.473 505.005 115.473 504.308M115.473 538.511 147.356 538.511M115.473 538.511 115.473 537.933 115.473 537.236 115.473 536.772 115.473 536.194 115.473 535.846 115.473 535.497 115.473 535.267M115.473 567.498 147.356 567.498M115.473 567.498 115.473 538.511M115.473 587.208 147.356 587.208M115.473 587.208 115.473 567.498M115.473 475.439 147.356 475.439M115.473 455.73 147.356 455.73M115.473 475.439 115.473 455.73M115.473 504.311 115.473 475.439M115.473 573.411 115.357 572.369 115.125 571.439 114.661 570.512 113.965 569.585 113.154 569.007 112.226 568.425 111.299 568.195 110.255 568.077M110.255 568.077 95.4149 568.077M95.4149 568.077 95.4149 567.383 95.4149 566.453 95.4149 565.296 95.4149 564.021 95.4149 562.513 95.4149 560.889 95.4149 559.15 95.4149 557.178 95.4149 555.092 95.4149 552.775 95.4149 550.454 95.4149 547.904 95.4149 545.354 95.4149 542.57 95.4149 539.789 95.4149 536.891 95.4149 533.992 95.4149 530.975 95.4149 527.961 95.4149 524.948 95.4149 521.815 95.4149 518.802 95.4149 515.788 95.4149 512.659 95.4149 509.642 95.4149 506.743 95.4149 503.845 95.4149 501.064 95.4149 498.281 95.4149 495.73 95.4149 493.18 95.4149 490.745 95.4149 488.424 95.4149 486.337 95.4149 484.25 95.4149 482.512 95.4149 480.773 95.4149 479.268 95.4149 477.875 95.4149 476.714 95.4149 475.788 95.4149 474.976 95.4149 474.397 95.4149 474.049 95.4149 473.819M95.4149 574.337 115.473 574.337M95.4149 574.337 95.4149 568.077M161.154 532.253 161.038 532.253M161.27 531.323 161.27 532.253M161.27 532.253 161.27 532.253 161.154 532.253M158.023 537.354 158.023 536.194M161.154 536.194 158.023 536.194M161.154 536.194 161.154 537.354M161.154 537.354 158.023 537.354M158.023 536.194 158.023 536.194M158.023 536.194 158.023 536.194M161.154 536.194 158.023 536.194M161.154 536.194 161.154 536.194 161.27 536.194M161.27 536.194 161.27 536.194 161.154 536.194M161.154 536.194 158.023 536.194M161.27 537.354 161.27 536.194M161.154 537.354 161.154 537.354 161.27 537.354M158.023 537.354 158.023 537.354M161.154 537.354 161.154 537.469M158.023 537.469 161.154 537.469M158.023 537.469 158.023 537.469 158.023 537.354M161.27 537.354 161.27 537.469 161.154 537.469M158.023 537.469 158.023 537.469 158.023 537.354M158.023 536.194 158.023 536.194M161.154 532.253 161.154 532.599M161.154 535.846 161.154 536.194M158.023 434.397 158.023 434.512 158.023 434.745 158.023 435.324 158.023 436.021 158.023 436.947 158.023 437.992 158.023 439.268 158.023 440.658 158.023 442.048 158.023 443.672 158.023 445.413 158.023 447.034 158.023 448.776M158.023 448.776 147.356 448.776M147.356 434.397 147.356 434.512 147.356 434.745 147.356 435.324 147.356 436.021 147.356 436.947 147.356 437.992 147.356 439.268 147.356 440.658 147.356 442.051 147.356 443.672 147.356 445.413 147.356 447.034 147.356 448.776M158.023 434.397 147.356 434.397M158.023 608.54 147.356 608.54M147.356 594.05 147.356 595.789 147.356 597.527 147.356 599.266 147.356 600.774 147.356 602.28 147.356 603.673 147.356 604.948 147.356 605.99 147.356 606.92 147.356 607.614 147.356 608.077 147.356 608.425 147.356 608.54M158.023 594.05 147.356 594.05M158.023 594.05 158.023 595.789 158.023 597.527 158.023 599.266 158.023 600.774 158.023 602.28 158.023 603.673 158.023 604.948 158.023 605.99 158.023 606.92 158.023 607.614 158.023 608.077 158.023 608.425 158.023 608.54M147.356 448.776 147.356 594.05M158.023 448.776 158.023 594.05M163.125 540.601 163.125 540.601 163.241 540.716 163.241 540.831M163.241 540.831 163.241 545.354M163.241 547.674 163.241 553.238M163.241 555.44 163.241 559.847M163.241 559.847 163.241 559.962 163.125 560.077M163.241 540.831 163.241 540.716 163.125 540.601M158.023 543.152 158.023 543.152M163.125 447.267 163.125 447.267 163.241 447.382 163.241 447.5M163.241 447.5 163.241 448.661M158.255 456.775 158.255 454.688M163.241 447.5 163.241 447.382 163.125 447.267M158.023 449.817 158.023 449.817M158.023 459.674 158.023 459.674M158.951 463.963 158.951 465.586M158.023 465.586 158.951 465.586M158.951 457.353 158.951 456.775M158.951 456.775 158.023 456.775M158.023 459.44 158.023 459.44M159.067 456.775 158.951 456.775M159.067 453.18 159.067 450.514M158.951 450.514 158.951 453.18M158.951 450.514 159.067 450.514M158.951 453.18 159.067 453.18M158.023 450.514 158.951 450.514M158.023 453.18 158.951 453.18M158.951 465.586 159.067 465.586M159.067 465.586 159.067 465.586 159.183 465.586 159.298 465.586 159.414 465.586M159.414 450.514 159.414 453.18M159.067 450.514 159.067 450.514 159.183 450.514 159.298 450.514 159.414 450.514M159.067 453.18 159.067 453.18 159.183 453.18 159.298 453.18 159.414 453.18M159.414 456.775 159.298 456.775 159.183 456.775 159.067 456.775M163.357 463.036 163.357 465.586M163.357 463.036 161.27 463.036M159.414 465.586 163.357 465.586M163.357 459.44 163.357 456.775M163.357 456.775 159.414 456.775M161.154 459.44 163.357 459.44M163.357 450.514 163.357 453.18M159.414 450.514 163.357 450.514M159.414 453.18 163.357 453.18M164.748 456.775 164.748 459.44M164.748 456.775 164.748 456.775 164.632 456.775 164.516 456.775 164.284 456.775 164.168 456.775 163.936 456.775 163.704 456.775 163.356 456.775M163.356 459.44 163.704 459.44 163.936 459.44 164.168 459.44 164.284 459.44 164.516 459.44 164.632 459.44 164.748 459.44M164.748 450.514 164.748 453.18M163.357 450.514 163.704 450.514 163.936 450.514 164.168 450.514 164.284 450.514 164.516 450.514 164.632 450.514 164.748 450.514M163.357 453.18 163.704 453.18 163.936 453.18 164.168 453.18 164.284 453.18 164.516 453.18 164.632 453.18 164.748 453.18M164.748 463.036 164.748 465.586M164.748 463.036 164.748 463.036 164.632 463.036 164.516 463.036 164.284 463.036 164.168 463.036 163.936 463.036 163.704 463.036 163.357 463.036M163.357 465.586 163.704 465.586 163.936 465.586 164.168 465.586 164.284 465.586 164.516 465.586 164.632 465.586 164.748 465.586M163.704 456.775 163.704 453.18M163.704 450.514 163.704 448.542M163.704 448.542 166.023 449.239M166.023 449.239 166.023 466.976M163.704 467.558 163.704 465.586M163.704 463.036 163.704 459.44M166.023 466.976 163.704 467.558M163.704 448.542 159.067 449.239M163.704 467.558 160.226 467.095M158.951 466.513 158.951 465.586M158.951 456.775 158.951 453.18M158.951 450.514 158.951 449.354M158.951 449.354 158.951 449.239 159.067 449.239M159.067 449.239 159.067 449.239M166.139 449.354 166.139 449.239M166.139 449.354 166.139 466.861M166.139 466.976 166.139 466.976 166.139 466.861M166.139 449.239 166.139 449.239 166.023 449.239M166.023 466.976 166.139 466.976M163.125 473.586 163.125 473.586 163.241 473.586 163.241 473.704 163.241 473.819M158.255 485.877 158.255 480.658M163.241 473.819 163.241 478.341M163.241 480.658 163.241 485.992M163.241 488.194 163.241 492.832M163.241 492.832 163.241 492.95 163.125 493.065M163.241 473.819 163.241 473.704 163.241 473.586 163.125 473.586M158.023 473.122 158.023 473.122M158.023 473.122 158.023 473.122M158.023 476.021 158.023 476.021M158.255 485.877 158.023 485.877M158.023 490.515 158.023 490.515M158.023 490.515 158.023 490.515M161.27 503.266 163.473 503.266M163.473 486.804 163.473 503.151M163.589 486.804 163.589 503.151M163.473 486.804 163.241 486.804M163.589 488.079 163.589 488.079 163.473 488.079M163.589 490.863 163.589 490.745 163.473 490.745M163.704 468.252 163.704 467.558M166.023 467.673 163.704 468.252M163.704 468.252 163.241 468.252M166.139 466.861 166.139 467.443M166.139 467.558 166.139 467.558 166.139 467.443M166.023 467.673 166.139 467.673 166.139 467.558M158.255 445.413 158.255 445.877 158.255 446.689 158.255 447.267 158.255 447.849 158.255 448.194 158.255 448.312M158.255 441.703 158.255 441.818 158.255 442.166M158.023 571.209 158.023 571.209M158.023 571.209 158.023 571.209 158.023 571.327M160.226 566.341 160.226 566.341M160.226 566.341 160.226 566.341M160.226 566.341 160.226 566.341M160.226 566.341 160.226 566.456M158.023 571.327 158.023 571.327M158.023 571.209 158.023 571.209 158.023 571.327M158.023 571.209 158.023 571.209M160.226 566.341 160.226 566.341M158.255 566.341 160.226 566.341M158.023 571.327 158.023 571.327 158.023 571.209M158.023 571.327 158.023 571.327M158.023 571.327 158.023 571.327M160.226 566.456 160.226 566.456M160.226 566.456 160.226 566.456 160.226 566.341M160.226 566.341 160.226 566.341 160.226 566.456M160.226 566.456 160.226 566.456M158.023 571.327 158.023 571.327M158.023 571.327 158.023 571.327M158.023 571.327 158.023 571.327M158.255 566.341 160.226 566.341M160.226 566.341 160.226 566.341 160.226 566.456M158.023 571.327 158.023 571.327M158.023 472.544 158.023 472.544M158.023 472.544 158.023 472.544M160.226 440.543 160.226 440.543M160.226 440.543 160.226 440.543M160.226 440.543 160.226 440.543M160.226 440.543 158.023 440.543M158.023 440.543 160.226 440.543M158.023 440.543 158.023 440.543M160.226 440.543 160.226 442.166M158.023 440.543 158.023 440.543M158.023 440.543 158.023 440.543M160.226 440.543 160.226 440.543M160.226 440.543 160.226 440.543M160.226 496.427 160.226 496.89M158.023 490.4 158.023 490.4M158.023 490.4 158.023 490.4M158.023 490.4 158.023 490.4M158.023 490.4 158.023 490.4M160.226 466.513 158.023 466.513M160.226 466.513 160.226 466.513M158.023 466.513 160.226 466.513M158.023 466.513 158.023 466.513M160.226 469.76 160.226 469.76 160.226 469.875M160.226 469.875 160.226 469.875 160.226 469.76M160.226 469.76 160.226 469.76M160.226 466.513 160.226 466.513M160.226 466.513 160.226 466.513M158.023 469.76 160.226 469.76M160.226 469.875 158.023 469.875M158.023 469.76 158.023 469.76 158.023 469.875M160.226 466.513 160.226 469.76M160.226 469.76 160.226 466.513M158.023 466.513 158.023 469.76M158.023 469.878 158.023 469.878 158.023 469.76M158.023 469.76 158.023 469.76M158.023 466.513 158.023 466.513M158.023 466.513 158.023 466.513M160.226 469.875 160.226 469.76M160.226 466.513 160.226 466.513M160.226 469.875 160.226 469.875M160.226 466.513 160.226 466.513M158.023 477.644 158.023 477.644M158.023 477.644 158.023 477.644 158.023 477.76M158.023 477.76 158.023 477.76M158.023 477.644 158.023 477.644 158.023 477.76M158.023 477.644 158.023 477.644M158.023 477.76 158.023 477.76 158.023 477.644M161.154 566.456 161.154 566.456M161.27 566.456 161.27 566.456 161.154 566.456M161.154 566.456 161.154 566.456 161.27 566.456M161.154 567.732 161.154 566.456M161.27 566.456 161.27 567.732M161.27 567.732 161.27 567.732 161.154 567.732M161.154 567.732 158.255 567.732M161.27 572.369 161.27 571.672M161.27 571.672 161.27 571.672 161.154 571.672M161.154 571.672 158.023 571.672M158.023 571.672 158.023 571.672M158.023 571.672 158.023 571.672M161.154 571.672 158.023 571.672M161.154 571.672 161.154 571.672 161.27 571.672M161.154 571.672 158.023 571.672M161.154 566.456 158.255 566.456M161.27 566.456 161.27 566.456 161.154 566.456M158.023 570.167 158.023 571.672M161.154 567.732 161.154 571.672M163.125 539.441 163.125 537.239M163.125 537.239 163.241 537.239M163.241 537.239 163.241 539.441M163.241 539.441 163.241 539.441 163.125 539.441M163.125 539.441 161.27 539.441M163.125 537.239 163.125 537.239M163.241 537.239 163.241 537.239 163.125 537.239M163.125 545.354 161.154 545.354M163.125 545.354 163.125 547.674M158.023 545.354 158.023 545.354M158.023 545.354 158.023 545.354M163.125 545.354 161.154 545.354M163.125 545.354 163.241 545.354M163.241 545.354 163.241 545.354 163.125 545.354M163.125 545.354 161.154 545.354M163.241 547.674 163.241 545.354M163.125 547.674 163.241 547.674M163.125 547.674 163.125 547.674M161.27 547.674 163.125 547.674M163.241 547.674 163.241 547.674 163.125 547.674M163.241 537.239 163.241 537.239 163.125 537.239M163.125 537.239 161.27 537.239M163.125 539.441 163.125 545.354M163.125 553.238 163.125 553.238 163.125 553.123M163.125 553.238 163.125 555.44M163.241 553.238 163.241 553.238 163.125 553.238M163.241 555.44 163.241 553.238M163.125 555.44 163.241 555.44M163.125 555.44 161.038 555.44M163.241 553.238 163.241 553.238 163.241 553.123 163.125 553.123M163.125 563.558 163.125 561.356M163.125 561.356 161.27 561.356M163.241 561.356 163.241 563.558M163.241 563.558 163.241 563.558 163.125 563.558M163.125 561.356 163.241 561.356M163.241 561.356 163.241 561.356 163.125 561.356M163.125 561.356 161.27 561.356M161.27 561.356 163.125 561.356M163.241 563.558 163.241 563.673 163.125 563.673M163.125 563.558 163.125 563.673M163.125 563.673 160.226 563.673M163.241 553.238 163.241 553.238 163.241 553.123 163.125 553.123M161.27 553.123 163.125 553.123M163.125 561.356 163.125 555.44M158.023 573.644 158.023 572.369M158.023 572.369 161.154 572.369M161.154 572.369 161.154 573.644M161.154 573.644 158.023 573.644M161.154 572.369 161.154 572.369M161.27 572.369 161.27 572.369 161.154 572.369M161.27 572.369 161.27 572.369 161.154 572.369M158.023 572.369 158.023 572.369M161.154 572.369 158.023 572.369M161.27 573.644 161.27 572.369M161.154 573.644 161.154 573.644 161.27 573.644M158.023 572.369 158.023 572.369M158.023 573.644 158.023 573.644M158.023 572.369 158.023 572.369M161.27 577.585 161.27 578.863M161.27 578.863 161.27 578.863 161.154 578.863M161.154 578.863 161.154 577.585M161.154 577.585 161.154 577.585 161.27 577.585M161.154 577.585 158.603 577.585M161.27 577.585 161.27 577.585 161.154 577.585M161.154 577.585 158.603 577.585M158.603 577.585 161.154 577.585M161.154 578.863 158.603 578.863M161.154 578.863 161.154 578.863M161.27 578.863 161.27 578.863 161.154 578.863M158.023 572.369 161.154 572.369M161.27 572.369 161.27 572.369 161.154 572.369M158.023 572.369 158.023 572.369M158.023 577.469 158.023 573.644M161.154 577.585 161.154 573.644M158.023 472.659 158.023 472.659 158.023 472.544M158.023 472.659 158.023 472.659M161.154 458.747 161.154 457.472M161.154 458.747 158.023 458.747M158.023 457.472 158.023 458.747M161.154 457.472 158.023 457.472M161.154 457.472 161.154 457.472 161.27 457.472M161.27 457.472 161.27 458.747M161.27 458.747 161.27 458.747 161.154 458.747M158.023 457.353 161.154 457.353M161.154 457.472 161.154 457.472 161.154 457.353M158.023 457.353 158.023 457.353 158.023 457.472M161.27 457.472 161.27 457.472 161.27 457.353 161.154 457.353M158.023 457.472 158.023 457.472M158.023 458.747 158.023 458.747M158.023 457.353 158.023 457.353 158.023 457.472M161.27 463.848 161.27 462.688M161.154 463.848 161.154 463.848 161.27 463.848M161.154 462.688 161.154 463.848M161.27 462.688 161.27 462.688 161.154 462.688M158.023 463.848 158.023 462.688M161.154 462.688 158.023 462.688M161.154 463.848 158.023 463.848M158.023 462.688 158.023 462.688M158.023 462.688 158.023 462.688M161.154 462.688 158.023 462.688M161.154 462.688 161.154 462.688 161.27 462.688M161.154 462.688 158.023 462.688M158.023 463.848 158.023 463.848M161.154 463.848 161.154 463.963M158.023 463.963 161.154 463.963M158.023 463.963 158.023 463.963 158.023 463.848M161.27 463.848 161.27 463.963 161.154 463.963M158.023 463.963 158.023 463.963 158.023 463.848M161.154 457.353 158.023 457.353M161.269 457.472 161.269 457.472 161.269 457.353 161.154 457.353M158.023 457.353 158.023 457.353 158.023 457.472M158.023 458.747 158.023 462.688M161.154 458.747 161.154 462.688M161.269 553.935 161.269 553.935M161.269 553.935 161.269 554.05 161.154 554.05M161.154 554.05 158.255 554.05M158.023 554.05 158.023 554.05 158.023 553.935M158.023 459.907 158.023 459.907M158.023 459.789 158.023 459.789 158.023 459.907M163.241 468.022 163.241 468.022 163.125 468.022M163.125 468.022 163.241 468.022M163.125 468.022 161.27 468.022M163.125 468.022 161.27 468.022M161.27 468.022 163.125 468.022M163.241 468.022 163.241 470.224M158.023 459.789 158.023 459.789 158.023 459.907M163.125 468.022 163.125 467.558M158.023 461.761 158.023 461.761M158.023 461.761 158.023 461.761M161.27 468.255 161.27 467.21M161.154 468.255 161.154 468.255 161.27 468.255M161.27 468.255 161.27 468.255 161.154 468.255M161.154 468.255 161.154 468.255M160.226 468.255 161.154 468.255M158.023 461.761 158.023 461.761M158.023 465.586 158.023 466.513M163.125 446.574 163.125 444.253M163.125 444.253 163.241 444.253M163.241 444.253 163.241 446.574M163.241 446.574 163.241 446.574 163.125 446.574M163.125 444.253 163.125 444.253M163.241 444.253 163.241 444.253 163.125 444.253M163.125 446.574 158.255 446.574M158.023 454.688 158.023 454.688M158.023 454.688 158.951 454.688M158.023 454.688 158.023 454.688M158.023 454.688 158.023 454.688M163.241 444.253 163.241 444.253 163.125 444.253M163.125 444.253 161.27 444.253M158.023 448.312 158.023 450.514M163.125 446.574 163.125 448.661M161.154 442.281 158.023 442.281M158.023 442.281 158.023 442.281 158.023 442.166M158.023 442.166 161.154 442.166M161.154 442.166 161.154 442.166 161.154 442.281M161.27 442.281 161.27 442.281 161.154 442.281M161.27 442.281 161.27 442.281 161.27 442.166 161.154 442.166M161.154 445.413 161.154 442.281M158.023 445.413 161.154 445.413M158.023 442.281 158.023 445.413M161.27 442.281 161.27 445.413M161.27 445.413 161.27 445.413 161.154 445.413M158.023 442.281 158.023 442.281M158.023 442.166 158.023 442.166 158.023 442.281M158.023 445.413 158.023 445.413M161.154 445.413 161.154 445.413M161.154 445.413 161.154 445.413 161.27 445.413M161.154 445.413 158.023 445.413M158.023 445.413 158.023 445.413M158.023 445.413 158.023 445.413M161.154 442.166 161.154 442.166 161.27 442.166 161.27 442.281M161.154 442.166 158.023 442.166M158.023 442.281 158.023 442.281 158.023 442.166M161.154 497.005 161.154 500.137M161.27 497.005 161.27 497.005 161.154 497.005M161.27 500.137 161.27 497.005M161.27 500.137 161.27 500.137 161.154 500.137M158.023 500.253 161.154 500.253M158.023 500.137 158.023 500.137 158.023 500.253M161.154 500.137 158.023 500.137M161.154 500.253 161.154 500.253 161.154 500.137M161.27 500.137 161.27 500.137 161.27 500.253 161.154 500.253M161.154 496.89 161.154 496.89 161.154 497.009M161.154 496.89 161.154 496.89 161.27 496.89 161.27 497.009M158.023 497.009 161.154 497.009M158.023 500.137 158.023 497.009M161.154 496.89 158.023 496.89M158.023 497.009 158.023 497.009 158.023 496.89M158.023 500.253 158.023 500.253 158.023 500.137M158.023 500.137 158.023 500.137M158.023 497.005 158.023 497.005 158.023 496.89M158.023 497.005 158.023 497.005M158.023 485.992 163.125 485.992M163.125 485.992 163.125 488.194M163.125 488.194 161.27 488.194M163.125 485.992 163.125 485.992 163.125 485.877M163.241 485.992 163.241 485.992 163.241 485.877 163.125 485.877M163.241 485.992 163.241 485.992 163.125 485.992M158.023 485.877 158.023 485.877 158.023 485.992M163.125 485.877 158.023 485.877M163.241 488.194 163.241 485.992M163.125 488.194 163.241 488.194M158.023 485.992 158.023 485.992M158.023 485.877 158.023 485.877 158.023 485.992M163.125 496.427 163.125 494.11M158.023 496.427 163.125 496.427M163.125 494.11 161.27 494.11M163.241 494.11 163.241 494.11 163.125 494.11M163.125 494.11 163.241 494.11M163.125 494.11 161.27 494.11M161.27 494.11 163.125 494.11M163.241 494.11 163.241 496.427M163.241 496.427 163.241 496.427 163.125 496.427M158.023 496.427 158.023 496.427M163.125 496.427 158.023 496.427M158.023 496.427 158.023 496.427M163.125 496.427 163.125 496.427M163.241 496.427 163.241 496.427 163.125 496.427M158.023 496.427 158.023 496.427M163.241 485.992 163.241 485.992 163.241 485.877 163.125 485.877M158.023 485.877 163.125 485.877M158.023 485.877 158.023 485.877 158.023 485.992M163.125 494.11 163.125 488.194M158.023 487.964 161.154 487.964M161.154 487.964 161.154 487.964M161.154 487.964 158.023 487.964M158.023 487.964 158.023 487.964M161.154 489.239 161.154 487.964M161.154 489.239 158.023 489.239M158.023 487.964 158.023 489.239M161.154 487.964 161.154 487.964 161.27 487.964M161.27 487.964 161.27 489.239M161.27 489.239 161.27 489.239 161.154 489.239M161.27 487.964 161.27 487.964 161.154 487.964M158.023 487.964 158.023 487.964M158.023 487.964 158.023 487.964M158.023 489.239 158.023 489.239M158.023 493.18 158.023 493.18M158.023 493.18 158.023 493.18M161.154 493.18 158.023 493.18M161.154 493.18 161.154 493.18 161.27 493.18M161.27 493.18 161.27 493.18 161.154 493.18M161.154 493.18 158.023 493.18M161.154 493.18 158.023 493.18M158.023 494.455 158.023 493.18M161.154 493.18 161.154 494.455M161.154 494.455 158.023 494.455M161.27 494.455 161.27 493.18M161.154 494.455 161.154 494.455 161.27 494.455M158.023 494.455 158.023 494.455M161.27 494.455 161.27 494.455 161.27 494.573 161.154 494.573M161.154 494.455 161.154 494.455 161.154 494.573M158.023 494.573 161.154 494.573M158.023 494.573 158.023 494.573 158.023 494.455M158.023 494.573 158.023 494.573 158.023 494.455M161.154 487.964 158.023 487.964M161.27 487.964 161.27 487.964 161.154 487.964M158.023 487.964 158.023 487.964M158.023 489.239 158.023 493.18M161.154 489.239 161.154 493.18M163.125 472.429 163.125 470.224M163.125 470.224 163.241 470.224M163.241 470.224 163.241 472.429M163.241 472.429 163.241 472.429 163.125 472.429M158.023 470.108 163.125 470.108M163.125 470.224 163.125 470.224 163.125 470.108M163.125 470.224 158.023 470.224M158.023 470.108 158.023 470.108 158.023 470.224M163.241 470.224 163.241 470.224 163.241 470.108 163.125 470.108M163.125 472.429 158.023 472.429M158.023 470.224 158.023 472.429M158.023 470.224 158.023 470.224M158.023 470.108 158.023 470.108 158.023 470.224M158.023 472.429 158.023 472.429M158.023 480.658 158.023 478.341M163.125 478.341 158.023 478.341M163.125 478.341 163.125 480.658M163.125 480.658 158.023 480.658M163.241 480.658 163.241 478.341M163.125 480.658 163.241 480.658M163.241 478.341 163.241 478.341 163.125 478.341M158.023 478.341 158.023 478.341M158.023 478.341 158.023 478.341M163.125 478.341 158.023 478.341M163.125 478.341 163.241 478.341M163.125 478.341 158.023 478.341M158.023 480.658 158.023 480.658M163.125 480.658 163.125 480.658M158.023 480.658 163.125 480.658M158.023 480.658 158.023 480.658M163.241 480.658 163.241 480.658 163.125 480.658M158.023 480.658 158.023 480.658M163.125 470.108 158.023 470.108M163.241 470.224 163.241 470.224 163.241 470.108 163.125 470.108M158.023 470.108 158.023 470.108 158.023 470.224M158.023 472.429 158.023 478.341M163.125 472.429 163.125 478.341M161.27 552.656 161.27 553.931M161.27 553.931 161.27 553.931 161.154 553.931M161.154 553.931 161.154 552.656M161.154 552.656 161.154 552.656 161.27 552.656M161.27 552.656 161.27 552.656 161.154 552.656M161.154 552.656 158.023 552.656M158.023 552.656 158.023 552.656M158.023 552.656 158.023 552.656M161.154 552.656 158.023 552.656M158.023 552.656 161.154 552.656M158.023 553.931 161.154 553.931M158.023 552.656 158.023 553.931M158.023 553.931 158.023 553.931M161.154 554.05 158.023 554.05M158.023 554.05 158.023 554.05 158.023 553.931M161.154 553.931 161.154 553.931 161.154 554.05M161.27 553.931 161.27 553.931 161.27 554.05 161.154 554.05M158.023 554.05 158.023 554.05 158.023 553.931M158.023 552.656 158.023 548.946M161.154 552.656 161.154 548.946M158.255 504.426 158.023 504.426M158.255 501.179 158.255 501.294 158.255 501.643 158.255 502.106 158.255 502.803 158.255 503.615 158.255 504.426M158.255 504.426 158.255 505.353 158.255 506.05 158.255 506.743 158.255 507.325 158.255 507.67 158.255 507.789M158.255 557.412 158.255 558.224 158.255 559.035 158.255 559.729 158.255 560.192 158.255 560.541 158.255 560.656M158.255 557.294 158.023 557.294M158.255 557.294 158.255 558.105 158.255 558.917 158.255 559.614 158.255 560.192 158.255 560.426 158.255 560.541M158.255 554.05 158.255 554.165 158.255 554.398 158.255 554.977 158.255 555.673 158.255 556.485 158.255 557.297M158.023 561.237 158.139 561.237M160.226 564.833 160.226 564.833M160.226 560.541 160.226 560.541M158.023 561.237 158.023 561.237M160.226 566.108 160.226 566.108M158.023 566.108 160.226 566.108M160.226 566.108 160.226 566.108M158.023 566.108 158.023 566.108M160.226 564.833 160.226 564.833M160.226 564.833 160.226 564.833M158.255 511.729 158.255 511.729 158.255 512.311M158.255 566.92 158.023 566.92M158.255 566.108 158.255 566.92M158.255 566.92 158.255 567.732 158.255 568.54 158.255 569.237 158.255 569.7 158.255 570.049 158.255 570.164M161.27 549.758 161.27 549.758 161.154 549.758M161.154 549.758 161.154 549.758 161.27 549.758M161.27 552.656 161.27 549.758M158.023 549.758 158.023 549.758M158.023 549.758 158.023 549.758M160.226 510.687 160.226 511.614M158.023 511.614 158.023 511.614M158.023 511.729 158.719 511.729M158.023 511.614 158.023 511.729M158.023 511.729 158.023 511.729 158.023 511.614M160.11 560.541 160.226 560.541M160.226 560.541 160.11 560.541M160.226 560.541 160.226 560.541M160.11 559.729 158.139 559.729M160.11 560.541 160.11 559.729M160.11 564.948 160.11 560.774M160.11 564.948 160.11 565.178M160.11 565.99 160.11 565.178M158.139 565.99 160.11 565.99M158.139 564.484 158.139 565.99M158.139 564.484 158.139 561.237M160.11 560.541 160.11 560.774M160.226 560.541 160.226 559.614M158.139 561.237 158.023 561.237M158.023 561.237 158.023 561.237M158.139 561.237 158.023 561.237M160.11 565.178 160.226 565.178M160.226 566.108 160.226 565.178M158.023 566.108 160.226 566.108M158.023 564.484 158.023 566.108M158.023 564.484 158.139 564.484M158.139 564.484 158.023 564.484M158.023 564.484 158.023 564.484M160.226 565.178 160.226 565.178M160.226 565.178 160.11 565.178M160.226 564.833 160.11 564.948M160.226 560.889 160.226 564.833M160.11 560.774 160.226 560.889M160.226 559.614 160.226 559.614M160.226 559.614 160.226 559.614M160.226 559.614 160.226 559.614M160.226 559.614 160.226 560.541M160.226 560.541 160.226 560.541M158.023 561.237 158.023 561.237M160.226 560.541 160.226 560.541M158.023 561.237 158.023 561.237M158.023 564.484 158.023 564.484M158.023 564.484 158.023 564.484M158.023 566.108 158.023 566.108M160.226 565.178 160.226 565.178M160.226 565.178 160.226 565.178M160.226 565.178 160.226 566.108M160.226 566.108 160.226 566.108M160.226 566.108 158.023 566.108M158.023 566.108 158.023 566.108M160.226 566.108 160.226 566.108M160.226 566.108 160.226 566.108M158.023 566.108 158.023 566.108M158.023 564.484 158.139 564.484M160.226 565.178 160.11 565.178M160.226 559.614 160.226 559.614M158.255 559.614 160.226 559.614M158.023 564.484 158.023 564.484M160.226 560.541 160.226 560.889M160.226 560.541 160.226 560.889M160.226 564.833 160.226 565.178M160.226 564.833 160.226 565.178M158.023 564.366 158.139 564.366M158.139 564.366 158.023 564.366M158.023 564.366 158.023 564.366M160.226 559.384 160.226 559.384M160.226 559.384 160.226 559.384M160.226 559.384 160.226 559.384M160.226 559.384 160.226 559.614M158.023 564.366 158.023 564.366M158.023 564.366 158.023 564.366M158.023 564.366 158.139 564.366M158.255 559.38 160.226 559.38M160.226 559.38 160.226 559.38M158.023 564.366 158.023 564.366M158.139 531.208 158.835 531.208M158.139 534.455 160.69 534.455M158.139 531.208 158.139 534.455M161.038 531.323 161.038 534.455M161.038 531.323 161.038 534.455M158.139 531.208 158.023 531.208 157.907 531.208M158.139 531.208 158.139 531.208M160.69 534.455 160.806 534.455 160.922 534.455 161.038 534.455M161.038 534.455 161.038 534.455 161.038 534.57M160.69 534.57 160.806 534.57 160.922 534.57 161.038 534.57M160.69 534.455 160.69 534.455 160.69 534.57M158.023 534.455 158.023 534.455 158.139 534.455M158.139 534.455 158.139 534.455 158.139 534.57M158.835 531.208 158.139 531.208M158.139 534.455 160.69 534.455M158.139 534.57 160.69 534.57M160.69 534.57 160.69 535.846M161.038 534.57 161.038 535.846M160.69 535.846 160.806 535.846 160.922 535.846 161.038 535.846M158.139 534.57 158.139 535.846M158.139 535.846 160.69 535.846M161.038 535.846 161.038 535.846 161.038 535.961 160.922 536.079 160.806 536.194 160.69 536.194M160.69 535.846 160.69 535.846 160.69 535.961 160.69 536.079 160.69 536.194M158.139 536.194 160.69 536.194M158.139 535.846 158.139 535.846 158.139 535.964 158.139 536.079 158.139 536.194M158.139 536.194 158.023 536.194 158.023 536.079M161.038 534.455 161.038 534.455 160.922 534.455 160.806 534.455 160.69 534.455M158.139 534.455 158.023 534.455M161.038 534.455 161.038 534.455 161.038 534.57M161.038 534.57 161.038 535.846M161.038 535.846 161.038 535.846 161.038 535.964 160.922 536.079M160.69 557.297 158.255 557.297M161.038 557.297 161.038 554.05M160.69 557.412 160.806 557.412 160.922 557.412 161.038 557.412M160.69 557.297 160.69 557.297 160.69 557.412M160.69 557.297 160.806 557.297 160.922 557.297 161.038 557.297M161.038 557.297 161.038 557.297 161.038 557.412M158.255 557.297 160.69 557.297M160.69 557.412 160.69 558.687M161.038 557.412 161.038 558.687M160.69 558.687 160.806 558.687 160.922 558.687 161.038 558.687M161.038 558.687 161.038 558.687 161.038 558.802 160.922 558.92M161.038 557.297 161.038 557.297 160.922 557.297 160.806 557.297 160.69 557.297M161.038 557.297 161.038 557.297M161.154 501.298 158.255 501.298M161.27 501.298 161.27 500.137M161.154 501.298 161.154 501.298 161.27 501.298M161.154 501.413 161.154 501.298M161.154 558.92 158.255 558.92M161.154 558.92 161.154 558.92 161.154 559.035M158.023 562.282 158.139 562.282M160.226 562.282 161.154 562.282M158.023 562.164 158.023 562.164 158.023 562.282M161.154 562.282 161.154 562.282 161.154 562.164M161.27 559.035 161.27 559.035 161.154 559.035M161.154 558.92 161.154 558.92 161.27 558.92 161.27 559.035M161.27 562.164 161.27 562.164 161.154 562.164M161.27 562.164 161.27 562.164 161.27 562.282 161.154 562.282M161.154 559.035 161.154 562.164M161.27 562.164 161.27 559.035M158.023 562.164 158.023 562.164M158.023 562.282 158.023 562.282 158.023 562.164M161.154 542.106 158.023 542.106M161.27 541.643 161.27 542.106M161.27 542.106 161.27 542.106 161.154 542.106M158.023 542.106 158.023 542.106M158.023 542.106 158.023 545.587M161.154 542.106 161.154 545.587M161.154 501.413 158.255 501.413M161.154 501.413 161.154 501.413 161.154 501.528M161.27 501.528 161.27 501.528 161.154 501.528M161.154 501.413 161.154 501.413 161.27 501.413 161.27 501.528M161.27 504.196 161.27 501.528M161.154 510.687 161.154 510.687 161.154 510.572M161.27 510.572 161.27 510.572 161.154 510.572M161.27 510.572 161.27 510.572 161.27 510.687 161.154 510.687M158.023 510.687 161.154 510.687M158.023 510.572 158.023 510.572 158.023 510.687M161.154 510.572 158.023 510.572M161.27 507.44 161.27 507.44 161.154 507.44M161.27 507.325 161.27 507.325 161.27 507.44M161.154 507.44 161.154 510.572M161.27 510.572 161.27 507.44M158.023 510.687 158.023 510.687 158.023 510.572M158.023 510.572 158.023 510.572M161.154 532.602 161.154 535.731M161.154 535.846 161.154 535.846 161.154 535.731M161.27 535.731 161.27 535.731 161.154 535.731M161.27 535.731 161.27 535.846 161.154 535.846M161.154 532.602 161.038 532.602M161.154 532.602 161.154 532.602M161.038 535.846 161.154 535.846M161.27 532.602 161.27 532.602 161.154 532.602M161.154 532.602 161.154 532.602 161.27 532.602M161.27 535.731 161.27 532.602M161.27 545.702 161.27 545.702 161.154 545.702M161.154 545.587 161.154 545.587 161.154 545.702M161.154 545.587 161.154 545.587 161.27 545.587 161.27 545.702M158.023 545.702 161.154 545.702M161.154 545.702 161.154 548.834M161.154 548.834 158.023 548.834M158.023 548.834 158.023 545.702M161.27 548.834 161.27 545.702M161.27 548.834 161.27 548.834 161.154 548.834M161.154 545.587 158.023 545.587M158.023 545.702 158.023 545.702 158.023 545.587M158.023 548.949 161.154 548.949M158.023 548.834 158.023 548.834 158.023 548.949M161.154 548.949 161.154 548.949 161.154 548.834M161.27 548.834 161.27 548.834 161.27 548.949 161.154 548.949M158.023 545.702 158.023 545.702M158.023 548.834 158.023 548.834M158.023 545.702 158.023 545.702 158.023 545.587M158.023 548.949 158.023 548.949 158.023 548.834M158.023 538.514 161.154 538.514M161.154 538.514 161.154 541.643M161.154 541.643 158.023 541.643M158.023 541.643 158.023 538.514M161.154 541.643 161.154 541.643M161.27 541.643 161.27 541.643 161.154 541.643M161.27 541.643 161.27 541.643 161.154 541.643M158.023 541.643 161.154 541.643M158.023 541.643 158.023 541.643M161.27 538.514 161.27 538.514 161.154 538.514M161.27 541.643 161.27 538.514M161.154 538.399 158.023 538.399M161.154 538.399 161.154 538.399 161.154 538.514M158.023 538.514 158.023 538.514 158.023 538.399M161.154 538.399 161.154 538.399 161.27 538.399 161.27 538.514M158.023 538.514 158.023 538.514M158.023 541.643 158.023 541.643M158.023 541.643 158.023 541.643M158.023 538.514 158.023 538.514 158.023 538.399M161.154 507.325 161.154 504.196M161.27 504.196 161.27 504.196 161.154 504.196M161.154 504.078 161.154 504.078 161.154 504.196M161.27 504.196 161.27 504.196 161.27 504.078 161.154 504.078M161.27 504.196 161.27 507.325M161.27 507.325 161.27 507.325 161.154 507.325M161.154 507.325 161.154 507.325M161.154 507.325 158.255 507.325M161.154 507.325 161.154 507.325 161.27 507.325M161.154 504.078 158.255 504.078M161.154 504.078 161.154 504.078 161.27 504.078 161.27 504.196M161.27 532.253 161.27 532.602M161.27 532.602 161.27 532.602 161.154 532.602M161.27 532.602 161.27 532.602M161.154 536.079 161.154 536.079 161.27 536.079M161.27 536.079 161.27 536.079 161.154 536.079M161.27 536.194 161.27 536.079M165.096 592.66 165.444 592.89M165.096 581.758 165.096 592.657M165.096 581.758 165.444 581.413M165.444 592.89 165.444 581.413M165.444 581.413 165.096 581.065M158.255 581.758 165.096 581.758M158.255 581.643 158.255 581.758M158.951 581.643 158.255 581.643M158.951 581.065 158.951 581.643M165.096 581.065 158.951 581.065M158.255 592.657 158.255 581.758M158.255 592.657 165.096 592.657M165.096 593.238 165.444 592.89M165.096 593.238 158.951 593.238M158.951 593.238 158.951 592.775M158.951 592.775 158.255 592.775M158.255 592.775 158.255 592.657M158.255 581.643 158.951 581.643M158.255 581.643 158.255 581.643M165.096 581.065 165.444 581.41M165.444 581.41 165.444 581.41M165.444 589.758 165.444 591.845M165.444 584.542 165.444 589.758M165.444 584.542 165.444 582.455M165.444 584.542 165.444 582.455M165.444 589.758 165.444 584.542M165.444 591.845 165.444 589.758M165.444 581.41 165.444 592.89M158.951 581.065 159.646 581.065M158.951 581.065 159.646 581.065M158.951 581.065 159.646 581.065M158.951 581.065 159.646 581.065M158.951 581.065 159.646 581.065M158.951 581.065 159.646 581.065M158.951 581.065 159.646 581.065M158.951 581.065 159.646 581.065M158.951 581.065 159.646 581.065M158.951 581.065 159.646 581.065M158.951 581.065 159.646 581.065M158.951 581.065 159.646 581.065M158.951 581.065 159.646 581.065M158.951 581.065 159.646 581.065M158.951 581.065 159.646 581.065M158.951 581.065 159.646 581.065M158.951 581.065 159.646 581.065M158.951 581.065 159.646 581.065M158.951 581.065 159.646 581.065M158.951 581.065 159.646 581.065M158.951 581.065 159.646 581.065M158.951 581.065 159.646 581.065M158.951 581.065 159.646 581.065M158.951 581.065 159.646 581.065M158.951 581.065 159.646 581.065M158.951 581.065 159.646 581.065M158.951 581.065 159.646 581.065M158.951 581.065 159.646 581.065M158.951 581.065 159.646 581.065M158.951 581.065 159.646 581.065M158.951 581.065 159.646 581.065M158.951 581.065 165.096 581.065M158.951 581.065 159.646 581.065M158.951 580.483 158.951 580.368 158.951 580.253 158.835 580.253 158.835 580.135M158.835 580.135 158.487 580.02M158.023 579.093 158.023 579.208 158.023 579.441 158.023 579.556 158.139 579.672 158.139 579.79 158.255 579.905 158.371 579.905 158.487 580.02M158.023 577.469 158.603 577.469M158.603 577.469 158.603 579.093M158.603 579.093 158.603 579.208 158.719 579.208 158.719 579.326 158.719 579.441 158.835 579.441M158.835 579.441 159.067 579.556M159.646 580.483 159.646 580.368 159.53 580.135 159.53 580.02 159.53 579.905 159.414 579.79 159.298 579.79 159.183 579.672 159.067 579.556M159.646 580.483 159.646 581.065M158.951 581.065 158.951 580.483M158.603 577.469 158.023 577.469M158.603 579.093 158.603 577.469M159.646 580.483 159.646 580.368 159.53 580.135 159.53 580.02 159.53 579.905 159.414 579.786 159.298 579.786 159.182 579.672 159.067 579.556M159.067 579.556 158.835 579.438M158.603 579.093 158.603 579.208 158.719 579.208 158.719 579.323 158.719 579.441 158.835 579.441M159.646 581.062 159.646 580.483M159.646 593.932 159.646 593.238M159.646 593.932 159.646 594.05 159.53 594.165 159.53 594.28 159.53 594.395 159.414 594.513 159.298 594.628 159.182 594.744 159.067 594.744M158.835 594.977 159.067 594.744M158.603 595.207 158.603 595.207 158.603 595.092 158.719 595.092 158.719 594.977 158.835 594.977M158.603 596.949 158.603 595.207M158.023 596.949 158.603 596.949M158.023 595.207 158.023 595.092 158.023 594.977 158.023 594.862 158.139 594.744 158.139 594.628 158.255 594.513 158.371 594.395 158.487 594.395M158.835 594.165 158.487 594.395M158.951 593.932 158.951 593.932 158.951 594.05 158.835 594.165M158.951 593.238 158.951 593.932M159.646 593.238 159.646 593.932M159.646 593.932 159.646 594.05 159.53 594.165 159.53 594.28 159.53 594.395 159.414 594.513 159.298 594.628M158.835 594.165 158.835 594.165M158.487 594.395 158.835 594.165M158.255 594.513 158.255 594.513 158.371 594.395 158.487 594.395M158.603 595.207 158.603 595.207 158.603 595.092 158.719 595.092 158.719 594.977M158.603 595.207 158.603 596.949M158.951 581.065 158.951 580.483M158.951 593.238 158.951 593.932M34.7774 521.467 37.5601 521.467M110.255 568.077 110.255 567.38 110.255 566.453 110.255 565.293 110.255 564.018 110.255 562.513 110.255 560.889 110.255 559.15 110.255 557.178 110.255 555.092 110.255 552.771 110.255 550.454 110.255 547.904 110.255 545.354 110.255 542.57 110.255 539.786 110.255 536.887 110.255 533.989 110.255 533.644M110.255 509.294 110.255 506.743 110.255 503.845 110.255 501.064 110.255 498.281 110.255 495.73 110.255 493.18 110.255 490.745 110.255 488.424 110.255 486.337 110.255 484.25 110.255 482.512 110.255 480.773 110.255 479.265 110.255 477.875 110.255 476.714 110.255 475.788 110.255 474.976 110.255 474.397 110.255 474.049 110.255 473.816M161.154 532.25 161.154 531.323M163.241 540.831 163.241 540.831 163.125 540.831M163.125 559.844 163.125 559.844 163.241 559.844M162.893 547.671 162.893 553.12M163.241 447.497 163.241 447.497 163.125 447.497M159.067 457.353 159.067 456.775M159.067 465.586 159.067 463.963M159.414 463.963 159.414 465.586M159.414 456.775 159.414 457.353M159.067 466.513 159.067 465.586M159.067 456.775 159.067 453.18M159.067 450.514 159.067 449.236M163.241 473.816 163.241 473.816 163.125 473.816M162.893 480.658 162.893 485.874M163.125 492.832 163.125 492.832 163.241 492.832M163.472 503.151 161.27 503.151M163.241 486.919 163.472 486.919M166.023 466.976 166.023 467.673M160.226 566.338 160.226 566.338M160.226 566.338 158.255 566.338M158.023 571.324 158.023 571.324M158.023 571.324 158.023 571.324M158.255 566.338 160.226 566.338M160.226 566.453 160.226 566.453M160.226 566.453 158.255 566.453M158.023 571.324 158.023 571.672M158.023 571.324 158.023 571.324M158.255 566.338 160.226 566.338M158.023 472.541 158.023 472.541M158.023 472.541 158.023 472.541M160.226 442.166 160.226 440.543M158.023 440.543 158.023 441.7M160.226 496.89 160.226 496.427M158.023 496.427 158.023 496.89M158.023 490.396 158.023 490.396M158.023 490.396 158.023 489.236M158.023 477.76 158.023 478.338M158.023 477.76 158.023 477.76M158.255 566.453 161.154 566.453M161.154 566.453 158.255 566.453M161.154 571.672 161.154 572.366M158.023 572.366 158.023 571.672M158.023 537.469 158.023 538.396M163.125 537.236 161.27 537.236M161.27 537.236 163.125 537.236M163.125 547.671 161.27 547.671M161.27 553.238 163.125 553.238M163.125 553.12 161.27 553.12M160.226 563.554 163.125 563.554M158.023 562.279 158.023 563.554M158.603 578.86 161.154 578.86M161.27 553.931 161.27 553.931M161.154 554.05 161.154 554.05M163.125 470.105 163.125 468.018M158.023 469.875 158.023 470.108M161.154 467.21 161.154 468.252M161.154 468.252 160.226 468.252M161.27 444.253 163.125 444.253M163.125 444.253 161.27 444.253M158.023 454.688 158.023 453.18M158.951 454.688 158.023 454.688M158.023 487.961 158.023 485.992M158.023 494.57 158.023 496.427M158.023 561.237 158.023 561.237M160.226 566.108 160.226 566.108M158.023 566.108 158.023 566.108M160.226 511.614 160.226 510.687M158.835 511.614 158.023 511.614M158.023 510.687 158.023 511.614M158.139 560.541 158.139 561.237M158.023 560.656 158.023 561.237M160.226 559.614 158.255 559.614M158.255 559.614 160.226 559.614M160.226 559.614 160.226 559.38M160.226 559.38 158.255 559.38M158.023 564.366 158.023 564.484M158.255 559.38 160.226 559.38M160.69 531.323 160.69 534.455M158.139 531.208 158.023 531.208M158.023 534.57 158.023 534.57 158.139 534.57M158.719 531.208 158.139 531.208M158.139 530.512 158.139 531.208M158.023 535.846 158.023 535.846 158.139 535.846M160.69 557.294 160.69 554.05M158.255 557.412 160.69 557.412M158.255 558.687 160.69 558.687M160.69 558.687 160.69 558.687 160.69 558.802 160.69 558.917M158.023 501.179 158.023 500.253M161.154 500.253 161.154 501.294M158.255 559.035 161.154 559.035M161.154 562.164 160.226 562.164M158.139 562.164 158.023 562.164M158.023 562.164 158.023 561.237M161.154 542.106 161.154 541.643M158.023 541.643 158.023 542.106M158.255 501.528 161.154 501.528M161.154 501.528 161.154 504.078M161.154 507.325 161.154 507.325 161.154 507.44M158.255 507.44 161.154 507.44M158.023 510.572 158.023 507.789M161.038 532.599 161.154 532.599M161.154 535.731 161.038 535.731M161.154 504.193 158.255 504.193M158.255 507.325 161.154 507.325M158.255 504.078 161.154 504.078" stroke="#000000" stroke-width="0.822024" stroke-linecap="round" stroke-linejoin="round" stroke-miterlimit="10" fill="none" transform="matrix(1.003 0 0 1 3.8933 -429.563)"/><path d="M160.922 536.076 160.922 536.076M161.038 557.294 161.038 557.294M159.298 594.628 159.298 594.628M158.255 594.51 158.255 594.51M161.27 536.194 161.27 536.194M161.154 536.194 161.154 536.194M158.023 536.194 158.023 536.194M161.27 571.672 161.27 571.672M161.154 571.672 161.154 571.672M158.023 571.672 158.023 571.672M161.154 566.453 161.154 566.453M161.27 566.453 161.27 566.453M163.241 545.354 163.241 545.354M163.125 545.354 163.125 545.354M163.241 537.236 163.241 537.236M163.125 537.236 163.125 537.236M163.241 561.352 163.241 561.352M163.125 561.352 163.125 561.352M163.125 553.12 163.125 553.12M163.241 553.238 163.241 553.238M161.27 577.585 161.27 577.585M161.154 577.585 161.154 577.585M161.154 572.366 161.154 572.366M158.023 572.366 158.023 572.366M161.27 572.366 161.27 572.366M161.27 462.688 161.27 462.688M161.154 462.688 161.154 462.688M158.023 462.688 158.023 462.688M161.154 457.353 161.154 457.353M158.023 457.353 158.023 457.353M161.27 457.469 161.27 457.469M161.27 552.771 161.27 552.771M163.241 468.018 163.241 468.018M163.125 468.018 163.125 468.018M163.241 444.25 163.241 444.25M163.125 444.25 163.125 444.25M161.27 442.281 161.27 442.281M161.154 442.163 161.154 442.163M158.023 442.163 158.023 442.163M161.154 442.163 161.154 442.163M158.023 442.163 158.023 442.163M163.241 494.107 163.241 494.107M163.125 494.107 163.125 494.107M163.125 485.874 163.125 485.874M163.241 485.989 163.241 485.989M158.023 485.874 158.023 485.874M161.269 493.18 161.269 493.18M161.154 493.18 161.154 493.18M158.023 493.18 158.023 493.18M161.154 487.961 161.154 487.961M158.023 487.961 158.023 487.961M161.269 487.961 161.269 487.961M163.241 478.338 163.241 478.338M163.125 478.338 163.125 478.338M158.023 478.338 158.023 478.338M163.125 470.105 163.125 470.105M158.023 470.105 158.023 470.105M163.241 470.224 163.241 470.224M161.269 552.656 161.269 552.656M161.154 552.656 161.154 552.656M158.023 552.656 158.023 552.656M160.226 564.83 160.226 564.83M161.038 534.455 161.038 534.455M161.038 557.294 161.038 557.294M161.154 504.078 161.154 504.078M161.269 504.193 161.269 504.193M161.154 504.078 161.154 504.078M161.269 536.076 161.269 536.076M165.096 581.062 165.096 581.062M165.443 589.758 165.443 589.758M165.443 584.542 165.443 584.542M165.443 582.455 165.443 582.455M165.443 584.542 165.443 584.542M165.443 589.758 165.443 589.758M165.443 591.845 165.443 591.845M159.646 581.062 159.646 581.062M159.646 581.062 159.646 581.062M159.646 581.062 159.646 581.062M159.646 581.062 159.646 581.062M159.646 581.062 159.646 581.062M159.646 581.062 159.646 581.062M159.646 581.062 159.646 581.062M159.646 581.062 159.646 581.062M159.646 581.062 159.646 581.062M159.646 581.062 159.646 581.062M159.646 581.062 159.646 581.062M159.646 581.062 159.646 581.062M159.646 581.062 159.646 581.062M159.646 581.062 159.646 581.062M159.646 581.062 159.646 581.062M159.646 581.062 159.646 581.062M159.646 581.062 159.646 581.062M159.646 581.062 159.646 581.062M159.646 581.062 159.646 581.062M159.646 581.062 159.646 581.062M159.646 581.062 159.646 581.062M159.646 581.062 159.646 581.062M159.646 581.062 159.646 581.062M159.646 581.062 159.646 581.062M159.646 581.062 159.646 581.062M159.646 581.062 159.646 581.062M159.646 581.062 159.646 581.062M159.646 581.062 159.646 581.062M159.646 581.062 159.646 581.062M159.646 581.062 159.646 581.062M159.646 581.062 159.646 581.062M159.646 581.062 159.646 581.062M158.951 581.062 158.951 581.062M158.951 581.062 158.951 581.062M158.951 581.062 158.951 581.062M158.951 581.062 158.951 581.062M158.951 581.062 158.951 581.062M158.951 581.062 158.951 581.062M158.951 581.062 158.951 581.062M158.951 581.062 158.951 581.062M158.951 581.062 158.951 581.062M158.951 581.062 158.951 581.062M158.951 581.062 158.951 581.062M158.951 581.062 158.951 581.062M158.951 581.062 158.951 581.062M158.951 581.062 158.951 581.062M158.951 581.062 158.951 581.062M158.951 581.062 158.951 581.062M158.951 581.062 158.951 581.062M158.951 581.062 158.951 581.062M158.951 581.062 158.951 581.062M158.951 581.062 158.951 581.062M158.951 581.062 158.951 581.062M158.951 581.062 158.951 581.062M158.951 581.062 158.951 581.062M158.951 581.062 158.951 581.062M158.951 581.062 158.951 581.062M158.951 581.062 158.951 581.062M158.951 581.062 158.951 581.062M158.951 581.062 158.951 581.062M158.951 581.062 158.951 581.062M158.951 581.062 158.951 581.062M158.951 581.062 158.951 581.062M158.951 581.062 158.951 581.062M158.951 581.062 158.951 581.062M158.603 577.469 158.603 577.469M158.603 579.093 158.603 579.093M159.067 579.556 159.067 579.556M159.646 580.483 159.646 580.483M158.835 579.438 158.835 579.438M159.646 593.932 159.646 593.932M158.835 594.165 158.835 594.165M158.487 594.395 158.487 594.395M158.603 595.207 158.603 595.207M158.603 596.945 158.603 596.945" stroke="#000000" stroke-width="0.822024" stroke-linecap="round" stroke-linejoin="round" stroke-miterlimit="10" fill="none" transform="matrix(1.003 0 0 1 3.8933 -429.563)"/><path d="M289.269 521.467 289.269 521.352 289.153 521.237 289.037 521.122 288.921 521.122 288.805 521.122 288.689 521.237 288.689 521.352 288.573 521.467 288.689 521.585 288.689 521.7 288.805 521.7 288.921 521.815 289.037 521.7 289.153 521.7 289.269 521.585 289.269 521.467M331.124 521.467 331.124 524.366 330.776 527.149 330.313 530.048 329.616 532.832 328.689 535.612 327.646 538.281 326.486 540.831 324.979 543.382 323.472 545.817 321.733 548.134 319.762 550.339 317.791 552.308 315.588 554.165 313.269 555.903 310.834 557.527 308.399 558.917 305.733 560.192 303.066 561.237 300.399 562.164 297.501 562.861 294.718 563.324 291.82 563.554 288.921 563.673 286.022 563.554 283.24 563.324 280.341 562.861 277.559 562.164 274.776 561.237 272.11 560.192 269.559 558.917 267.008 557.527 264.574 555.903 262.255 554.165 260.168 552.308 258.081 550.339 256.226 548.134 254.486 545.817 252.863 543.382 251.472 540.831 250.197 538.281 249.153 535.612 248.226 532.832 247.646 530.048 247.066 527.149 246.834 524.366 246.718 521.467 246.834 518.572 247.066 515.673 247.646 512.889 248.226 510.106 249.153 507.325 250.197 504.656 251.472 501.991 252.863 499.556 254.486 497.12 256.226 494.803 258.081 492.598 260.168 490.63 262.255 488.658 264.574 486.919 267.008 485.411 269.559 483.902 272.11 482.745 274.776 481.7 277.559 480.773 280.341 480.077 283.24 479.613 286.022 479.265 288.921 479.265 291.82 479.265 294.718 479.613 297.501 480.077 300.399 480.773 303.066 481.7 305.733 482.745 308.399 483.902 310.834 485.411 313.269 486.919 315.588 488.658 317.791 490.63 319.762 492.598 321.733 494.803 323.472 497.12 324.979 499.556 326.486 501.991 327.646 504.656 328.689 507.325 329.616 510.106 330.313 512.889 330.776 515.673 331.124 518.572 331.124 521.467M333.79 521.467 333.675 524.366 333.326 527.383 332.863 530.282 332.166 533.18 331.354 535.961 330.313 538.744 329.037 541.41 327.645 544.078 326.022 546.629 324.283 548.946 322.428 551.266 320.341 553.353 318.138 555.44 315.819 557.294 313.5 558.917 310.95 560.541 308.283 561.816 305.617 563.091 302.834 564.018 299.936 564.83 297.037 565.526 294.138 565.99 291.124 566.223 288.225 566.223 285.211 566.105 282.312 565.76 279.414 565.178 276.515 564.481 273.733 563.554 270.95 562.513 268.283 561.237 265.733 559.729 263.182 558.105 260.863 556.367 258.66 554.395 256.457 552.308 254.486 550.106 252.747 547.786 251.008 545.354 249.501 542.803 248.226 540.135 247.066 537.351 246.139 534.57 245.327 531.787 244.747 528.773 244.399 525.874 244.167 522.976 244.167 519.962 244.399 517.063 244.747 514.049 245.327 511.151 246.139 508.367 247.066 505.468 248.226 502.803 249.501 500.134 251.008 497.584 252.747 495.149 254.486 492.832 256.457 490.511 258.66 488.543 260.863 486.571 263.182 484.832 265.733 483.209 268.283 481.7 270.95 480.425 273.733 479.383 276.515 478.453 279.414 477.641 282.312 477.178 285.211 476.829 288.225 476.714 291.124 476.714 294.138 476.948 297.037 477.411 299.936 477.99 302.834 478.801 305.617 479.846 308.283 481.003 310.95 482.397 313.5 483.902 315.819 485.644 318.138 487.497 320.341 489.469 322.428 491.671 324.283 493.988 326.022 496.309 327.645 498.859 329.037 501.409 330.313 504.193 331.354 506.858 332.166 509.757 332.863 512.656 333.326 515.555 333.675 518.453 333.79 521.467M243.24 521.467 243.356 518.453 243.704 515.44 244.168 512.541 244.863 509.642 245.675 506.743 246.718 503.96 247.994 501.294 249.385 498.629 251.008 496.079 252.747 493.643 254.603 491.323 256.689 489.121 258.776 487.149 261.095 485.177 263.53 483.439 266.081 481.933 268.747 480.425 271.414 479.265 274.312 478.223 277.095 477.293 279.994 476.599 283.008 476.136 285.907 475.903 288.921 475.788 291.936 475.903 294.95 476.136 297.849 476.599 300.747 477.293 303.646 478.223 306.428 479.265 309.095 480.425 311.762 481.933 314.312 483.439 316.747 485.177 319.066 487.149 321.269 489.121 323.24 491.323 325.211 493.643 326.95 496.079 328.457 498.629 329.964 501.294 331.124 503.96 332.166 506.743 333.096 509.642 333.79 512.541 334.253 515.44 334.487 518.453 334.602 521.467 334.487 524.484 334.253 527.38 333.79 530.397 333.096 533.295 332.166 536.194 331.124 538.974 329.964 541.643 328.457 544.308 326.95 546.859 325.211 549.294 323.24 551.614 321.269 553.701 319.066 555.788 316.747 557.642 314.312 559.38 311.762 561.004 309.095 562.394 306.428 563.669 303.646 564.714 300.747 565.526 297.849 566.223 294.95 566.801 291.936 567.035 288.921 567.15 285.907 567.035 283.008 566.801 279.994 566.223 277.095 565.526 274.312 564.714 271.414 563.669 268.747 562.394 266.081 561.004 263.53 559.38 261.095 557.642 258.776 555.788 256.689 553.701 254.603 551.614 252.747 549.294 251.008 546.859 249.385 544.308 247.994 541.643 246.718 538.974 245.675 536.194 244.863 533.295 244.168 530.397 243.704 527.38 243.356 524.484 243.24 521.467M242.892 521.467 243.008 518.453 243.356 515.44 243.82 512.426 244.516 509.527 245.327 506.628 246.486 503.845 247.646 501.061 249.153 498.396 250.66 495.845 252.4 493.41 254.37 491.093 256.457 488.888 258.66 486.919 260.979 484.947 263.414 483.209 265.965 481.585 268.631 480.192 271.298 478.916 274.196 477.875 277.095 477.063 279.994 476.366 282.892 475.788 285.907 475.554 288.921 475.439 291.936 475.554 294.95 475.788 297.965 476.366 300.863 477.063 303.762 477.875 306.544 478.916 309.327 480.192 311.994 481.585 314.544 483.209 316.979 484.947 319.298 486.919 321.501 488.888 323.588 491.093 325.443 493.41 327.182 495.845 328.804 498.396 330.198 501.061 331.473 503.845 332.515 506.628 333.441 509.527 334.023 512.426 334.602 515.44 334.835 518.453 334.95 521.467 334.835 524.484 334.602 527.498 334.023 530.397 333.441 533.41 332.515 536.194 331.473 539.093 330.198 541.758 328.804 544.423 327.182 546.974 325.443 549.409 323.588 551.844 321.501 553.931 319.298 556.018 316.979 557.99 314.544 559.729 311.994 561.352 309.327 562.743 306.544 564.018 303.762 565.063 300.863 565.875 297.965 566.568 294.95 567.035 291.936 567.38 288.921 567.498 285.907 567.38 282.892 567.035 279.994 566.568 277.095 565.875 274.196 565.063 271.298 564.018 268.631 562.743 265.965 561.352 263.414 559.729 260.979 557.99 258.66 556.018 256.457 553.931 254.37 551.844 252.4 549.409 250.66 546.974 249.153 544.423 247.646 541.758 246.486 539.093 245.327 536.194 244.516 533.41 243.82 530.397 243.356 527.498 243.008 524.484 242.892 521.467M331.009 521.467 330.891 518.568 330.543 515.67 330.079 512.889 329.386 510.106 328.573 507.322 327.53 504.656 326.254 502.106 324.863 499.556 323.24 497.235 321.616 494.918 319.646 492.713 317.675 490.745 315.472 488.888 313.153 487.149 310.834 485.526 308.283 484.135 305.733 482.86 303.066 481.815 300.283 481.003 297.501 480.31 294.718 479.846 291.82 479.498 288.921 479.38 286.022 479.498 283.24 479.846 280.341 480.31 277.559 481.003 274.892 481.815 272.226 482.86 269.559 484.135 267.124 485.526 264.689 487.149 262.371 488.888 260.284 490.745 258.197 492.713 256.341 494.918 254.603 497.235 252.979 499.556 251.588 502.106 250.429 504.656 249.385 507.322 248.457 510.106 247.762 512.889 247.298 515.67 246.95 518.568 246.95 521.467M252.979 521.467 253.095 524.136 253.443 526.801 253.907 529.466 254.603 532.02 255.53 534.57 256.573 537.006 257.849 539.438 259.24 541.643 260.863 543.845 262.602 545.932 264.458 547.786 266.544 549.527 268.747 551.148 270.95 552.541 273.385 553.816 275.82 554.858 278.37 555.788 280.921 556.482 283.588 556.945 286.254 557.294 288.921 557.409 291.588 557.294 294.254 556.945 296.921 556.482 299.588 555.788 302.023 554.858 304.573 553.816 306.892 552.541 309.211 551.148 311.298 549.527 313.385 547.786 315.24 545.932 317.095 543.845 318.602 541.643 320.109 539.438 321.385 537.006 322.428 534.57 323.24 532.02 323.935 529.466 324.515 526.801 324.747 524.136 324.863 521.467M324.863 521.467 324.747 518.802 324.515 516.136 323.935 513.468 323.24 510.917 322.428 508.367 321.385 505.817 320.109 503.496 318.602 501.179 317.095 499.092 315.24 497.005 313.385 495.149 311.298 493.41 309.211 491.786 306.892 490.281 304.573 489.121 302.023 487.961 299.588 487.149 296.921 486.452 294.254 485.874 291.588 485.644 288.921 485.526 286.254 485.644 283.588 485.874 280.921 486.452 278.37 487.149 275.82 487.961 273.385 489.121 270.95 490.281 268.747 491.786 266.544 493.41 264.458 495.149 262.602 497.005 260.863 499.092 259.24 501.179 257.849 503.496 256.573 505.817 255.53 508.367 254.603 510.917 253.907 513.468 253.443 516.136 253.095 518.802 252.979 521.467M246.95 521.467 246.95 524.366 247.298 527.149 247.762 530.048 248.457 532.832 249.385 535.497 250.429 538.163 251.588 540.831 252.979 543.267 254.603 545.699 256.341 548.019 258.197 550.106 260.284 552.193 262.371 554.046 264.689 555.788 267.124 557.409 269.559 558.802 272.226 559.962 274.892 561.119 277.559 561.931 280.341 562.628 283.24 563.091 286.022 563.439 288.921 563.554 291.82 563.439 294.718 563.091 297.501 562.628 300.283 561.931 303.066 561.119 305.733 559.962 308.283 558.802 310.834 557.409 313.153 555.788 315.472 554.046 317.675 552.193 319.646 550.106 321.616 548.019 323.24 545.699 324.863 543.267 326.254 540.831 327.53 538.163 328.573 535.497 329.386 532.832 330.079 530.048 330.543 527.149 330.891 524.366 331.009 521.467M288.921 555.67 291.588 555.555 294.254 555.207 296.921 554.743 299.472 553.931 302.023 553.005 304.457 551.959 306.776 550.569 309.095 549.061 311.182 547.44 313.153 545.584 314.892 543.612 316.631 541.525 318.138 539.323 319.414 537.006 320.573 534.57 321.501 532.02 322.196 529.466 322.66 526.801 323.008 524.136 323.124 521.467M323.124 521.467 323.008 518.802 322.66 516.136 322.196 513.468 321.501 510.917 320.573 508.367 319.414 505.932 318.138 503.615 316.631 501.409 314.892 499.207 313.153 497.235 311.182 495.497 309.095 493.758 306.776 492.368 304.457 490.975 302.023 489.933 299.472 489.006 296.921 488.194 294.254 487.728 291.588 487.382 288.921 487.264M254.719 521.467 254.834 524.136 255.182 526.801 255.762 529.466 256.457 532.02 257.385 534.57 258.544 537.003 259.82 539.323 261.327 541.525 262.95 543.612 264.805 545.584 266.776 547.437 268.863 549.061 271.066 550.569 273.385 551.959 275.82 553.005 278.37 553.931 280.921 554.743 283.588 555.207 286.254 555.555 288.921 555.67M288.921 487.264 286.254 487.382 283.588 487.728 280.921 488.194 278.37 489.006 275.82 489.933 273.385 490.975 271.066 492.368 268.863 493.758 266.776 495.497 264.805 497.235 262.95 499.207 261.327 501.409 259.82 503.615 258.544 505.932 257.385 508.367 256.457 510.917 255.762 513.468 255.182 516.136 254.834 518.802 254.719 521.467M212.516 521.467 212.632 520.54 212.98 519.729 213.443 518.917 214.139 518.223 214.835 517.757 215.762 517.411 216.689 517.293 217.501 517.411 218.429 517.757 219.24 518.223 219.82 518.917 220.4 519.729 220.632 520.54 220.748 521.467 220.632 522.397 220.4 523.206 219.82 524.017 219.24 524.714 218.429 525.178 217.501 525.411 216.689 525.526 215.762 525.411 214.835 525.178 214.139 524.714 213.443 524.017 212.98 523.206 212.632 522.397 212.516 521.467M211.356 521.467 211.472 520.425 211.82 519.498 212.284 518.568 212.98 517.757 213.675 517.063 214.602 516.6 215.646 516.251 216.689 516.251 217.617 516.251 218.661 516.6 219.588 517.063 220.4 517.757 220.979 518.568 221.559 519.498 221.791 520.425 221.907 521.467 221.791 522.512 221.559 523.439 220.979 524.366 220.4 525.178 219.588 525.874 218.661 526.338 217.617 526.571 216.689 526.686 215.646 526.571 214.602 526.338 213.675 525.874 212.98 525.178 212.284 524.366 211.82 523.439 211.472 522.512 211.356 521.467M357.095 521.467 357.21 520.54 357.558 519.729 358.021 518.917 358.718 518.223 359.415 517.757 360.342 517.411 361.268 517.293 362.195 517.411 363.007 517.757 363.819 518.223 364.516 518.917 364.979 519.729 365.209 520.54 365.327 521.467 365.209 522.397 364.979 523.206 364.516 524.017 363.819 524.714 363.007 525.178 362.195 525.411 361.268 525.526 360.342 525.411 359.415 525.178 358.718 524.714 358.021 524.017 357.558 523.206 357.21 522.397 357.095 521.467M355.934 521.467 356.053 520.425 356.398 519.498 356.861 518.568 357.558 517.757 358.37 517.063 359.182 516.6 360.227 516.251 361.268 516.251 362.314 516.251 363.24 516.6 364.167 517.063 364.979 517.757 365.676 518.568 366.139 519.498 366.369 520.425 366.487 521.467 366.369 522.512 366.139 523.439 365.676 524.366 364.979 525.178 364.167 525.874 363.24 526.338 362.314 526.571 361.268 526.686 360.227 526.571 359.182 526.338 358.37 525.874 357.558 525.178 356.861 524.366 356.398 523.439 356.053 522.512 355.934 521.467M361.268 533.64 371.818 527.498M350.719 527.498 361.268 533.64M361.268 509.294 350.719 515.44M371.818 527.498 371.818 515.44M350.719 515.44 350.719 527.498M371.818 515.44 361.268 509.294M227.124 527.498 227.124 515.44M216.689 533.64 227.124 527.498M206.139 527.498 216.689 533.64M206.139 515.44 206.139 527.498M216.689 509.294 206.139 515.44M227.124 515.44 216.689 509.294M279.066 574.337 298.776 574.337M298.776 574.337 298.776 568.077M298.776 568.077 301.79 567.38 304.689 566.453 307.588 565.293 310.37 564.018 313.037 562.513 315.704 560.889 318.138 559.15 320.573 557.178 322.776 555.092 324.863 552.771 326.834 550.454 328.573 547.904 330.198 545.354 331.703 542.57 332.978 539.786 334.023 536.887 334.95 533.989 335.647 530.975 336.11 527.961 336.458 524.948 336.574 521.815 336.574 518.802 336.225 515.788 335.762 512.656 335.183 509.642 334.253 506.743 333.211 503.845 332.051 501.061 330.661 498.281 329.037 495.73 327.298 493.18 325.327 490.745 323.356 488.424 321.153 486.337 318.834 484.25 316.399 482.512 313.733 480.773 311.066 479.265 308.283 477.875 305.501 476.714 302.602 475.788 299.588 474.976 296.573 474.397 293.559 474.049 290.428 473.816 287.414 473.816 284.4 474.049 281.269 474.397 278.255 474.976 275.356 475.788 272.458 476.714 269.559 477.875 266.776 479.265 264.11 480.773 261.559 482.512 259.124 484.25 256.805 486.337 254.603 488.424 252.516 490.745 250.661 493.18 248.921 495.73 247.298 498.281 245.907 501.061 244.632 503.845 243.588 506.743 242.777 509.642 242.081 512.656 241.617 515.788 241.385 518.802 241.269 521.815 241.385 524.948 241.733 527.961 242.313 530.975 243.008 533.989 243.936 536.887 244.979 539.786 246.255 542.57 247.646 545.354 249.269 547.904 251.124 550.454 253.095 552.771 255.182 555.092 257.385 557.178 259.704 559.15 262.255 560.889 264.805 562.513 267.472 564.018 270.255 565.293 273.153 566.453 276.052 567.38 279.066 568.077M279.066 568.077 279.066 574.337M279.066 573.411 275.936 572.714 272.805 571.902 269.791 570.742 266.892 569.585 263.994 568.077 261.211 566.453 258.429 564.714 255.878 562.743 253.443 560.656 251.124 558.454 248.921 556.133 246.95 553.583 244.979 550.918 243.356 548.252 241.733 545.354 240.342 542.455 239.182 539.438 238.255 536.424 237.327 533.295 236.747 530.163 236.284 526.916 236.052 523.787 236.052 520.54 236.168 517.293 236.516 514.049 237.096 510.917 237.791 507.789 238.719 504.656 239.878 501.643 241.153 498.744 242.661 495.845 244.284 493.062 246.139 490.396 248.11 487.846 250.197 485.411 252.4 483.209 254.835 481.003 257.385 479.035 260.052 477.178 262.719 475.439 265.617 473.931 268.515 472.656 271.53 471.499 274.661 470.569 277.791 469.757 280.921 469.178 284.167 468.715 287.298 468.6 290.544 468.6 293.791 468.715 296.921 469.178 300.168 469.757 303.298 470.569 306.312 471.499 309.327 472.656 312.341 473.931 315.124 475.439 317.907 477.178 320.573 479.035 323.008 481.003 325.443 483.209 327.762 485.411 329.849 487.846 331.821 490.396 333.56 493.062 335.298 495.845 336.689 498.744 338.079 501.643 339.124 504.656 340.051 507.789 340.747 510.917 341.326 514.049 341.674 517.293 341.908 520.54 341.789 523.787 341.559 526.916 341.096 530.163 340.514 533.295 339.702 536.424 338.66 539.438 337.5 542.455 336.11 545.354 334.602 548.252 332.863 550.918 331.009 553.583 328.922 556.133 326.834 558.454 324.399 560.656 321.965 562.743 319.414 564.714 316.747 566.453 313.964 568.077 311.066 569.585 308.051 570.742 305.037 571.902 301.907 572.714 298.776 573.411M216.689 507.67 219.936 507.67M223.182 504.308 223.182 505.005 222.95 505.583 222.719 506.165 222.255 506.743 221.791 507.092 221.211 507.44 220.516 507.555 219.936 507.67M223.182 475.439 223.182 504.308M242.892 455.73 223.182 475.439M334.95 455.73 242.892 455.73M354.659 475.439 334.95 455.73M354.659 504.308 354.659 475.439M358.021 507.67 357.328 507.555 356.746 507.44 356.168 507.092 355.586 506.743 355.241 506.165 354.893 505.583 354.774 505.005 354.659 504.308M358.021 507.67 361.268 507.67M361.268 507.67 362.892 507.789 364.516 508.019 366.139 508.6 367.644 509.179 369.038 510.106 370.428 511.151 371.588 512.311 372.63 513.586 373.442 515.091 374.139 516.6 374.602 518.105 374.95 519.847 375.065 521.47 374.95 523.091 374.602 524.714 374.139 526.338 373.442 527.846 372.63 529.351 371.588 530.627 370.428 531.787 369.038 532.832 367.644 533.644 366.139 534.337 364.516 534.801 362.892 535.149 361.268 535.267M361.268 535.267 358.021 535.267M354.659 538.511 354.774 537.933 354.893 537.236 355.241 536.772 355.586 536.194 356.168 535.846 356.746 535.497 357.328 535.267 358.021 535.267M354.659 567.498 354.659 538.511M334.95 587.208 354.659 567.498M242.892 587.208 334.95 587.208M223.182 567.498 242.892 587.208M223.182 538.511 223.182 567.498M219.936 535.267 220.516 535.267 221.211 535.497 221.791 535.846 222.255 536.194 222.719 536.772 222.95 537.236 223.182 537.933 223.182 538.511M219.936 535.264 216.689 535.264M216.689 535.264 214.951 535.149 213.327 534.801 211.704 534.337 210.197 533.644 208.806 532.832 207.53 531.787 206.255 530.627 205.327 529.351 204.4 527.846 203.704 526.338 203.24 524.714 202.893 523.091 202.893 521.467 202.893 519.847 203.24 518.105 203.704 516.6 204.4 515.091 205.327 513.586 206.255 512.307 207.53 511.151 208.806 510.106 210.197 509.179 211.704 508.6 213.327 508.019 214.951 507.789 216.689 507.67M216.342 608.54 214.602 608.425 212.864 608.077 211.24 607.614 209.617 606.917 208.11 605.99 206.719 604.945 205.443 603.67 204.4 602.28 203.472 600.771 202.777 599.266 202.313 597.527 201.965 595.785 201.849 594.047M201.849 594.047 201.849 448.772M201.849 448.772 201.965 447.034 202.313 445.41 202.777 443.672 203.472 442.048 204.4 440.658 205.443 439.268 206.719 437.989 208.11 436.947 209.617 436.021 211.24 435.324 212.864 434.745 214.602 434.512 216.342 434.397M216.342 434.397 361.617 434.397M361.617 434.397 363.355 434.512 365.094 434.745 366.718 435.324 368.341 436.021 369.85 436.947 371.125 437.989 372.4 439.268 373.442 440.658 374.369 442.048 375.065 443.672 375.644 445.41 375.992 447.034 375.992 448.772M375.992 448.772 375.992 594.047M368.456 449.121 368.341 447.961 368.108 446.804 367.644 445.759 366.951 444.717 366.139 443.787 365.209 443.093 364.167 442.511 363.007 442.163 361.847 441.933 360.69 441.933 359.53 442.163 358.37 442.511 357.328 443.093 356.398 443.787 355.586 444.717 354.893 445.759 354.429 446.804 354.081 447.961 353.966 449.121 354.081 450.396 354.429 451.556 354.893 452.598 355.586 453.643 356.398 454.455 357.328 455.151 358.37 455.73 359.53 456.193 360.69 456.308 361.847 456.308 363.007 456.193 364.167 455.73 365.209 455.151 366.139 454.455 366.951 453.643 367.644 452.598 368.108 451.556 368.341 450.396 368.456 449.121M368.456 593.702 368.341 592.542 368.108 591.381 367.644 590.336 366.951 589.294 366.139 588.483 365.209 587.671 364.167 587.092 363.007 586.744 361.847 586.511 360.69 586.511 359.53 586.744 358.37 587.092 357.328 587.671 356.398 588.483 355.586 589.294 354.893 590.336 354.429 591.381 354.081 592.542 353.966 593.702 354.081 594.977 354.429 596.134 354.893 597.179 355.586 598.221 356.398 599.032 357.328 599.844 358.37 600.426 359.53 600.771 360.69 601.004 361.847 601.004 363.007 600.771 364.167 600.426 365.209 599.844 366.139 599.032 366.951 598.221 367.644 597.179 368.108 596.134 368.341 594.977 368.456 593.702M375.992 594.047 375.992 595.789 375.644 597.527 375.065 599.266 374.369 600.771 373.442 602.28 372.4 603.67 371.125 604.945 369.85 605.99 368.341 606.917 366.718 607.614 365.094 608.077 363.355 608.425 361.617 608.54M223.878 449.121 223.762 447.961 223.53 446.804 222.95 445.759 222.371 444.717 221.559 443.787 220.632 443.093 219.588 442.511 218.429 442.163 217.269 441.933 215.994 441.933 214.835 442.163 213.791 442.511 212.632 443.093 211.704 443.787 210.892 444.717 210.313 445.759 209.849 446.804 209.501 447.961 209.385 449.121 209.501 450.396 209.849 451.556 210.313 452.598 210.892 453.643 211.704 454.455 212.632 455.151 213.791 455.73 214.835 456.193 215.994 456.308 217.269 456.308 218.429 456.193 219.588 455.73 220.632 455.151 221.559 454.455 222.371 453.643 222.95 452.598 223.53 451.556 223.762 450.396 223.878 449.121M361.617 608.54 216.342 608.54M223.878 593.702 223.762 592.542 223.53 591.381 222.95 590.336 222.371 589.294 221.559 588.483 220.632 587.671 219.588 587.092 218.429 586.744 217.269 586.511 215.994 586.511 214.835 586.744 213.791 587.092 212.632 587.671 211.704 588.483 210.892 589.294 210.313 590.336 209.849 591.381 209.501 592.542 209.385 593.702 209.501 594.977 209.849 596.134 210.313 597.179 210.892 598.221 211.704 599.032 212.632 599.844 213.791 600.426 214.835 600.771 215.994 601.004 217.269 601.004 218.429 600.771 219.588 600.426 220.632 599.844 221.559 599.032 222.371 598.221 222.95 597.179 223.53 596.134 223.762 594.977 223.878 593.702M288.921 487.267 288.921 491.093 288.921 495.034 288.921 498.977 288.921 503.033 288.921 507.092 288.921 511.151 288.921 515.206 288.921 519.38 288.921 521.122M288.921 521.815 288.921 523.554 288.921 527.613 288.921 531.787 288.921 535.846 288.921 539.904 288.921 543.96 288.921 547.904 288.921 551.844 288.921 555.67M323.124 521.467 324.863 521.467M254.719 521.467 252.979 521.467" stroke="#000000" stroke-width="0.822024" stroke-linecap="round" stroke-linejoin="round" stroke-miterlimit="10" fill="none" transform="matrix(1.003 0 0 1 3.8933 -429.563)"/></g></svg>