<svg width="120" height="120" xmlns="http://www.w3.org/2000/svg" xmlns:xlink="http://www.w3.org/1999/xlink" xml:space="preserve" overflow="hidden"><g><path d="M0 0 120 0 120 120 0 120Z" fill="#FFFFFF"/><path d="M22.5303 38.9233 97.4697 38.9233 97.4697 81.0767 22.5303 81.0767Z" fill="#696969"/><path d="M106.433 60C106.433 85.6444 85.6444 106.433 60 106.433 34.3556 106.433 13.5666 85.6444 13.5666 60 13.5666 34.3556 34.3556 13.5666 60 13.5666 85.6444 13.5666 106.433 34.3556 106.433 60Z" stroke="#FF0000" stroke-width="0.403769" fill="#FFFF00" fill-opacity="0.5"/><path d="M22.5303 38.9233 97.4697 38.9233 97.4697 81.0767 22.5303 81.0767Z" stroke="#000000" stroke-width="0.269179" fill="none"/><text fill="#0000CD" font-family="Arial,Arial_MSFontService,sans-serif" font-weight="400" font-size="45" transform="matrix(0.13459 0 0 0.13459 49.7039 60)">IMX</text><text fill="#0000CD" font-family="Arial,Arial_MSFontService,sans-serif" font-weight="400" font-size="45" transform="matrix(0.13459 0 0 0.13459 60.2019 60)">662</text><text fill="#0000CD" font-family="Arial,Arial_MSFontService,sans-serif" font-weight="400" font-size="45" transform="matrix(0.13459 0 0 0.13459 51.2517 66)">L</text><text fill="#0000CD" font-family="Arial,Arial_MSFontService,sans-serif" font-weight="400" font-size="45" transform="matrix(0.13459 0 0 0.13459 54.6164 66)">137</text><text fill="#0000CD" font-family="Arial,Arial_MSFontService,sans-serif" font-weight="400" font-size="45" transform="matrix(0.13459 0 0 0.13459 64.7106 66)">A</text></g></svg>