<svg width="120" height="120" xmlns="http://www.w3.org/2000/svg" xmlns:xlink="http://www.w3.org/1999/xlink" xml:space="preserve" overflow="hidden"><g><path d="M0 0 120 0 120 120 0 120Z" fill="#FFFFFF"/><path d="M22.5303 38.9233 97.4697 38.9233 97.4697 81.0767 22.5303 81.0767Z" fill="#696969"/><path d="M104.415 60C104.415 84.5295 84.5295 104.415 60 104.415 35.4705 104.415 15.5855 84.5295 15.5855 60 15.5855 35.4705 35.4705 15.5855 60 15.5855 84.5295 15.5855 104.415 35.4705 104.415 60Z" stroke="#FF0000" stroke-width="0.403769" fill="#FFFF00" fill-opacity="0.5"/><path d="M22.5303 38.9233 97.4697 38.9233 97.4697 81.0767 22.5303 81.0767Z" stroke="#000000" stroke-width="0.269179" fill="none"/><text fill="#0000CD" font-family="Arial,Arial_MSFontService,sans-serif" font-weight="400" font-size="45" transform="matrix(0.13459 0 0 0.13459 49.7039 60)">IMX</text><text fill="#0000CD" font-family="Arial,Arial_MSFontService,sans-serif" font-weight="400" font-size="45" transform="matrix(0.13459 0 0 0.13459 60.2019 60)">662</text><text fill="#0000CD" font-family="Arial,Arial_MSFontService,sans-serif" font-weight="400" font-size="45" transform="matrix(0.13459 0 0 0.13459 52.9341 66)">L</text><text fill="#0000CD" font-family="Arial,Arial_MSFontService,sans-serif" font-weight="400" font-size="45" transform="matrix(0.13459 0 0 0.13459 56.2988 66)">58</text><text fill="#0000CD" font-family="Arial,Arial_MSFontService,sans-serif" font-weight="400" font-size="45" transform="matrix(0.13459 0 0 0.13459 63.0283 66)">A</text></g></svg>