<?xml version="1.0" encoding="UTF-8"?>
<svg version="1.1" viewBox="0 0 2048 1048" width="1280" height="1280" xmlns="http://www.w3.org/2000/svg">
<path transform="translate(0)" d="m0 0h2048v1048h-2048z" fill="#FDFDFD"/>
<path transform="translate(1350,17)" d="m0 0 3 1v16h56l278-1 74-1h187l-1 2h-10l1 23v16h2v6l-2 1-1 3-1 11v350l-1 290h-2v-634l1-19-6-1 1-5 1-19 3-22-246 2-1 1 15 8 10 9 7 8 8 16 3 13v6h-3l-3-15-5-12-7-11-8-8-13-8-7-5h-329l-1 85h237l22 1 11 7 10 9 3 5 1 4v195h35l16 5 9 5 10 8 10 11 8 15 1 4 1-214 2-53h1l1 143v139h22v3l-2 1-21 1 1 13v267h112v1h-112l-1 30-1 10v51h204l-1-2-2-19-1-25 3-3 6 1 2 2-1 5-1 1 1 6-1 1-1 33h9v2l-217 1-1 210h-2v-5h-21l-13 1-1 2-5-1-4 1-3-3-656-1-1 5-5-1-1-3h2v-2l-9 1-33 2-1 4v-570l-1-16h-31l-1-3h32l1-248v-64l1-13 4-11 7-12 9-10 13-9 8-4 8-2 10-1h315l-1-16z" fill="#2F2F2F"/>
<path transform="translate(1552,411)" d="m0 0h65l1 22 2 4 18 11 16 9 8 4 10-3 21-11 14-10 2-2 2-24h13l1 1v8l-2 9-7 14-11 12-9 8-11 5-8 2-43 1 2 4 10-1 26-1 16-4 13-7 7-6 11-14 5-11 3-4 1 11v263l-2 29-3 13-7 12-8 10-10 9-13 7 5-1 13-8 8-7 9-13 5-8h1l1 41-1 1v201l-40-3-5-1-1 6h-656l-1-7-5 2-32 3h-9v-185l1-57 3 3 7 11 7 8 14 10 8 4 17 4 32 1 1 1-1 130h2v-13l34 2 9 1 5 2v-6l1-1h76l395 1v5l29-3 7-1h11l2 11-1-49-1 34-4 1-23-2-16-3h-3l-1 5h-470l-2-2v-3l-27 4-11 1h-10v-100l1-14 40-1h236l5 1v20h3v-20l2-1 279-1-2-1-277-1-2-1v-87l1-1 228-1-228-1-1-1v-82l35-4 25-7 17-6 17-8 19-12 14-11 10-9 16-16 11-15 8-13 9-17 7-19 6-22 2-12 2-26z" fill="#FEFEFE"/>
<path transform="translate(697,34)" d="m0 0h48l-1 21h-1l-2-17-42-1v58h42l2-22h1l1 9 15 2 1 1h8l-7-7-7-6-2-3 1-3 10 11h3l4 6v12l10 2 1 2v75l-2 5-9 3v4h-2v8l-1-3h-25v32l24-1-1-21h-22v-1h25v25l-25-1v8h25l-2 1v3h-2v2l-3-1h-15l-1 18 1 1-3 4h-2l-1-17v-144l-42-1 1 58-1 188h-2l-1-4v-158l1-27h-137v23l-1 84h-1l-1 14h-101l1-3v2h99v-33l-99 1-1 12-2 1v-14h-21v166h21v1h-46v-1l21-1v-35l1-123-29 1-1 44v272l30 1-1-6v-92h1l1 18 1-75h1v165h21l-1-28v-76l1-61 2-1h61l1 9 2-1 1-8 19-1-18-1 1-25h34l1 22 1-59h1v61h58v2l-5 1h-54l1 35v25l136-1v-34l1-25h-26l-1-3 26-1v-35l1-24 2 1v59h43v-49l1-12 15-1v-13l-3-1 3-2v-7l-1-1-12-1 2-2-2-4h15l-3-7-12-2v-4l15-1v-8h-17l2-5 17-1 1 2-1 40 4-1-1-24-1-17 1-19 2-4h4l1 61-2 5-9 1v16l-1 16 2 1 27 2v41l20 1-1 3h-19v42h-24v-1l19-1v-40h-36l1 38 6 3v1h-9v13l5 1 2-1 1-10 2-2h3l2 12v8l8 2 1 1v29l-1 87-1 1-9 1-2 6 3 1 1 6-1 47-8 3-1 5 27 1 1 55-4 1-27 2 1 11-3 3-1 29v20l-1 1h-47l-1-1v-90h-138l-1 144 18-2 14-2 16-1v6l136-1v-40l2 1v30l1 6 7 1 1 2-10 2-12 1h-125v5h-12l-17-1v-3h-9l-10-1v13h-2v-13h-50v-1l20-1h30v-108l1-39 1-88-65 1-1-1v-5l-34 1-1 2v236l21-2 1-1 7-1h15v4l-24 2h26l-1 7-8-1-19-1-1-2-17-2v15h-2v-15h-174v5l-29-1-1-2h-17v8l-3-1 1-241h2v229l34-4 12-1 1 5 174 1-1-8v-233l1-18h-24l-1-11h-29l-1 40h-161l-9-2 1-5-1-1-1-191h-16l-2-1v-2l17-1 1-61 1-135 1-1h169l1 19v18l29-1v-6l1-1 24-1-1-24h103v-30l1-60 39-1h101l-1-16v-72z" fill="#3E3E3E"/>
<path transform="translate(1100,126)" d="m0 0h250l1 84-28 3-20 4-27 9-16 8-14 8-14 10-14 12-14 14-9 11-12 17-8 14-9 20-6 18-4 16 2 5 2-1 6-25 7-19 9-19 10-15 12-16 14-15 7-7 17-13 20-12 15-7 27-9 25-5 20-1 1 2v9l-27 4-22 5-19 7-21 10-18 12-9 7-8 7v3l7-7 17-13 15-9 17-8 17-6 14-4 23-4 14-1 1 20 1 1 1-21 18 1 22 4 21 6 23 11 17 11 12 9 15 14 8 8 10 13 8 13 8 16 8 20 6 23 2 17v13l-29 1-1-1-2-24-5-21-6-15-8-15-11-16-9-11-9-9-13-10-13-8-15-7-21-7-15-3-10-1h-28l-21 4-21 7-17 8-13 9-9 7-7 8-13 13-10 15-8 14-8 20-5 20-1 6v33l4 21 6 18 8 17 9 14 11 13 14 15 10 8 18 10 17 8 14 4 15 3 9 1h29l20-3 20-6 20-10 15-10 10-9 8-7 12-13 7-10 11-21 5-15 4-19 2-22 1-1h27l2 1v16l-2 14-7 26-8 20-9 17-12 17-11 12-12 12-13 10-16 10-16 8-19 7-20 5-23 3h-9l-1-1-1-14h-3l1 2v12h-17l-22-4-20-6-16-6-17-9-16-11-13-11-3-1 5 5 13 11 19 12 16 8 21 7 20 5 30 3v11l-4 1-19-1-25-5-19-6-16-7-21-11v2l-4-2v2l17 10 15 7 30 10 14 3 25 3 6 2 1 1v80l-1 1h-238l-20-1-7-4-11-11-3-6-1-16v-179l1-5-38 1-12-3-12-6-9-7-8-8-9-14-1-6v-15l11-1 1 18 3 7 18 12 16 9 9 4 5-1 2-2h-10l-14-7-21-13-5-6-1-3v-15-3l-2-2 24-1h44-4-34l2-7 10-10v-2l-7 1-7 8-5 9-1 1h-19l-1-11 1-10-2 1-3 20h-10v-18l3-9 9-11 6-7 10-7 12-6 11-3h37v-184l1-12 4-10 7-8 9-5z" fill="#FEFEFE"/>
<path transform="translate(1354,37)" d="m0 0h329l9 6 11 7 10 10 8 14 5 16v7l4 1 1 12v13h132v2h-13l1 5 1 18v17l3 1 1 6-1 1h-6v472l8 2-2 4-2 2-1 28-1 10h12v2l-132-1-1-280 2-1 19-1 2-2-22-1-2-253-1 24-1 215-2-1-1-4-8-15-12-13-10-7-11-5-11-3-35-1-1-195-3-8-7-7-14-9-22-1-237-1v-85z" fill="#FDFDFD"/>
<path transform="translate(978,745)" d="m0 0 3 3 7 11 7 8 14 10 8 4 17 4 32 1 1 1-1 130h2v-13l34 2 9 1 5 2v-6l1-1h76l395 1v5l29-3 7-1h11l2 11-1-49v-32l1-47 3-1 50-1 36 1v201l-40-3-5-1-1 6h-656l-1-7-5 2-32 3h-9v-185z" fill="#FDFDFD"/>
<path transform="translate(1811,34)" d="m0 0h122l-1 16-1 6-1 19-2 5 6 1v654l-4 3 1 25 2 21-152 1h-52l-1-1v-51l1-10 1-25 1-5h132v-2h-12l1-39 5-5-8-1-1-1 1-472 6-1-1-6-2-1-2-40h13v-2h-132l-3-32-4-16-8-14-9-10-9-7-14-7 3-2z" fill="#FEFEFE"/>
<path transform="translate(560,155)" d="m0 0h137v189h3l-1 5h-1l-1 23v36h-27l1 2 26 1v59l-1 1h-136l-1-25v-35l59-1v-2h-58l-3-2v-22h-34v16l-1 9h34v1l-16 1h-19v12l-2-3-2 3v-12h-61v27h-1l-1 35v104h-21l-1-79h-1l-1-11v80h-30l-1-1v-272l1-44 1-1h29v159h3v-166l19-1 2 1 1 13 1-12 1-1h99v33h-99l-1 1h101v-34h1l1-64z" fill="#393939"/>
<path transform="translate(1339,265)" d="m0 0h11l1 21 2 1v-22h12l22 4 17 5 23 11 14 10 13 11 9 10 12 17 9 17 6 16 5 21 2 21-1 1-24-1 1 2 22 1 2 1-2 20-4 19-8 21-8 15-8 12-12 13-8 8-10 7-17 10-15 7-15 5-15 3-11 1h-9l-2-2v-9l1-4h-4l1 5v9l-2 1-19-1-23-5-15-6-17-9-11-8-10-9-7-6-9-11-10-14-9-17-6-17-5-25v-13l1-1 13-1v-1l-13-1-1-1v-11l2-15 4-15 6-16 8-15 10-14 8-10 15-15 18-12 19-9 19-6z" fill="#FEFEFE"/>
<path transform="translate(235,213)" d="m0 0h161l1 2v60l-1 332h-147l-13-1-1-1-1-74v-38l1-82 112-1 1-2h-113l-1-13v-130z" fill="#FEFEFE"/>
<path transform="translate(1354,126)" d="m0 0h245l13 1 12 8 7 7 2 3v203l5-1h34l12 3 13 7 10 9 8 9 8 16 2 12 1 4-17 1-1 1-19 1 18 1 1 12-1 10-7 7-16 10-16 8-6 1-16-8-13-8-10-7-3-5v-20l62-1 2-1-35-1h-3-25l-1-1v-22l4-4 25-14 10-6 6-2 15 8 13 8 11 7 3 5 1 4v15h2l-1-19-2-5-8-6-29-17-5-3-5 2-17 10-24 14-1 1-1 24-1 1h-64l-1-1-4-34-6-25-7-19-11-21-15-22-12-13-10-10-11-9-15-11-17-10-23-10-19-6-21-4-22-2-5-1v-83z" fill="#FEFEFE"/>
<path transform="translate(1035,37)" d="m0 0h314l1 1v85l-248 1-11 2-10 5-8 8-4 8-1 4-1 15v178l-35 1-16 5-12 7-8 6-7 8-8 12h-1l-1-21v-249l1-29 2-9 7-13 9-10 7-6 12-6 8-2z" fill="#FEFEFE"/>
<path transform="translate(988,411)" d="m0 0h4l1 18 3 7 18 12 16 9 9 4 5-1 25-13 14-9 2-2 1-24 1-1h66l2 26 4 20 5 16 7 19 10 19 8 12 10 13 12 13 8 7 12 11 17 12 21 11 28 10 21 5 25 3 6 2 1 1v80l-1 1h-238l-20-1-7-4-11-11-3-6-1-16v-179l1-5-38 1-12-3-12-6-9-7-8-8-9-14-1-6v-15z" fill="#FEFEFE"/>
<path transform="translate(1354,37)" d="m0 0h329l9 6 11 7 10 10 8 14 5 16 2 20v13h-43l6-9 6-12-1-10-6-11-7-8-7-4-4-1h-18l-10 5-8 9-3 8v15l5 12 5 6h-24v2h28l9 4h10 4l10-4h48v53l-1 215-2-1-1-4-8-15-12-13-10-7-11-5-11-3-35-1-1-195-3-8-7-7-14-9-22-1-237-1v-85z" fill="#FDFDFD"/>
<path transform="translate(1552,411)" d="m0 0h65l1 22 2 4 18 11 16 9 8 4 10-3 21-11 14-10 2-2 2-24h13l1 1v8l-2 9-7 14-11 12-9 8-11 5-8 2-30 1-13 1-1 123-1 84-4 3 5-1v10h-17l-28 1h-234l-1-1v-82l35-4 25-7 17-6 17-8 19-12 14-11 10-9 16-16 11-15 8-13 9-17 7-19 6-22 2-12 2-26z" fill="#FDFDFD"/>
<path transform="translate(1348,229)" d="m0 0h2l1 20 1 1 1-21 18 1 22 4 21 6 23 11 17 11 12 9 15 14 8 8 10 13 8 13 8 16 8 20 6 23 2 17v13l-29 1-1-1-2-24-5-21-6-15-8-15-11-16-9-11-9-9-13-10-13-8-15-7-21-7-15-3-10-1h-28l-21 4-21 7-17 8-13 9-9 7-7 8-13 13-10 15-8 14-8 20-5 20-1 6v33l4 21 6 18 8 17 9 14 11 13 14 15 10 8 18 10 17 8 14 4 15 3 9 1h29l20-3 20-6 20-10 15-10 10-9 8-7 12-13 7-10 11-21 5-15 4-19 2-22 1-1h27l2 1v16l-2 14-7 26-8 20-9 17-12 17-11 12-12 12-13 10-16 10-16 8-19 7-20 5-23 3h-9l-1-1-1-14h-3l1 2v12h-17l-22-4-20-6-16-6-17-9-16-11-13-11-12-12-12-16-10-16-8-16-8-22-5-21-3-22v-5l14-1 1-2-14-1-1-3 2-17 5-24 7-20 8-17 11-17 8-11 9-11 12-13 17-13 15-9 17-8 17-6 14-4 23-4z" fill="#FEFEFE"/>
<path transform="translate(560,155)" d="m0 0h137v189h-137l-1-31v-135z" fill="#FEFEFE"/>
<path transform="translate(560,474)" d="m0 0h137v29l-1 159-14 1h-44l-78-1z" fill="#FEFEFE"/>
<path transform="translate(1070,676)" d="m0 0 13 13 6 3 8 1 253 1v88l-1 1h-247l-33-1v-46l3-9 1-11-4-13v-21z" fill="#FEFEFE"/>
<path transform="translate(1613,693)" d="m0 0h21l2 1v6l-3 7v25l3 8-1 42-66 1h-214l-2-1v-87l1-1z" fill="#FEFEFE"/>
<path transform="translate(457,600)" d="m0 0h34l1 5h65v88l-1 39-1 108h-54v-6l-23 3-1 1-21 1-1-4v-232z" fill="#FEFEFE"/>
<path transform="translate(979,435)" d="m0 0 3 3 7 11 10 9 14 9 10 4 9 2 34 1 1 188 1 9 1 7-1 8v14l-5-2-11-7-9-3-10 1-12 6-7 7-4 8-2 7v10l5 10 7 8 10 6 6 2h9l14-7 8-6v42h-37l-10-2-10-4-14-11-9-11-6-11-1-4-1-13z" fill="#FEFEFE"/>
<path transform="translate(1726,427)" d="m0 0h1l1 11v58l-1 195h-49l-8-2h-11l-9 2h-14v-86l1-130 9-1 26-1 16-4 13-7 7-6 11-14 5-11z" fill="#FEFEFE"/>
<path transform="translate(697,34)" d="m0 0h48l-1 21h-1l-2-17-42-1v58h42l2-22h1l1 9 15 2 1 1h8l-7-7-7-6-2-3 1-3 10 11h3l4 6v12l10 2 1 2v75l-2 5-9 3v4h-2v8l-1-3h-25v32l24-1-1-21h-22v-1h25v25l-25-1v8h25l-2 1v3h-2v2l-3-1h-15l-1 18 1 1-3 4h-2l-1-17v-144l-42-1 1 58-1 188h-2l-1-4v-158l1-27h-137v23l-1 84h-1l-1 14h-101l1-3v2h99v-33l-99 1-1 12-2 1v-14h-21v166h21v1h-46v-1l21-1v-35l1-123-29 1-1 44v272l30 1-1-6v-92h1l1 18 1-75h1v165h19v1h-20l-1 2h23v1h-24l-1-11h-29l-1 40h-161l-9-2 1-5-1-1-1-191h-16l-2-1v-2l17-1 1-61 1-135 1-1h169l1 19v18l29-1v-6l1-1 24-1-1-24h103v-30l1-60 39-1h101l-1-16v-72zm-462 179-1 52v130l1 13h113l-1 2-112 1-1 82v38l1 74 1 1 13 1h147l1-332v-60l-1-2z" fill="#3F3F3F"/>
<path transform="translate(1350,17)" d="m0 0 3 1v16h56l278-1 74-1h187l-1 2h-10l1 23v16h2v6l-2 1-1 3-1 11v350l-1 290h-2v-634l1-19-6-1 1-5 1-19 3-22-246 2-1 1 15 8 10 9 7 8 8 16 3 13v6h-3l-3-15-5-12-7-11-8-8-13-8-7-5h-329l-1 85h237l22 1 11 7 10 9 3 5 1 4v195h35l16 5 9 5 10 8 10 11 8 15 1 4 1-214 2-53h1l1 143v139h22v3l-2 1-21 1 1 13v267h112v1h-112l-1 30-1 10v51h204l-1-2-2-19-1-25 3-3 6 1 2 2-1 5-1 1 1 6-1 1-1 33h9v2l-217 1-1 210h-2v-5h-21l-13 1-1 2-5-1-4 1-3-3-656-1-1 5-5-1-1-3h2v-2l-9 1-33 2-1 4v-570l-1-16h-31l-1-3h32l1-248v-64l1-13 4-11 7-12 9-10 13-9 8-4 8-2 10-1h315l-1-16zm-315 20-14 2-11 4-10 7-9 9-6 10-4 9-1 6-1 29v249l1 21 4-5 7-9 5-6 11-8 14-7 11-3 35-1v-178l1-15 4-10 7-8 9-6 6-2 8-1 248-1v-85l-1-1zm65 89-12 3-9 6-6 8-3 8-1 12v184h-37l-13 4-12 6-11 9-9 11-4 6-2 7v18h10l3-20 2-1-1 16 1 5h19l5-8 6-8 4-2 5-1v3l-8 7-3 4-1 5h34 1-42l-23 1 3 3-1 2v15l3 6 9 7 21 12 8 4h10l-4 3-6-1-19-10-21-14-3-7-1-18-11 1v15l2 8 9 13 4 5-4-1-7-9-5-8-1 2v289l1 13 3 9h-2l-3-3-1 57v185h9l32-3 5-2 1 7h656l1-6 18 2 21 2h6v-201l1-3-1-39-3 3-9 14-8 9-14 9-4 2h-3l13-7 12-11 10-14 4-9 2-10 2-29v-263l-1-11-4 5-4 10-12 15-11 8-11 5-13 3-26 1-11 1-1-4 43-1 13-4 10-6 13-13 6-9 5-11 1-7v-8l-1-1h-12v-3l14-1-3-16-8-16-9-10-9-8-16-8-9-2h-34l-5 1v-203l-9-10-12-8-13-1h-245-3z" fill="#3E3E3E"/>
<path transform="translate(767,264)" d="m0 0h4l1 61-2 5-9 1v16l-1 16 2 1 27 2v41l20 1-1 3h-19v42h-24v-1l19-1v-40h-36l1 38 6 3v1h-9v13l5 1 2-1 1-10 2-2h3l2 12v8l8 2 1 1v29l-1 87-1 1-9 1-2 6 3 1 1 6-1 47-8 3-1 5 27 1 1 55-4 1-27 2 1 11-3 3-1 29v20l-1 1h-47l-1-1v-90h-138l-1 144 18-2 14-2 16-1v6l136-1v-40l2 1v30l1 6 7 1 1 2-10 2-12 1h-125v5h-12l-17-1v-3h-9l-10-1v13h-2v-13h-50v-1l20-1h30v-108l1-39 1-86h1l1-133h1v188h136v-159h1v162h-137v27l137-1 1-194h1v224l43-1-1-120v-188h-41l-1 58h-3v-34l1-25h-26l-1-3 26-1v-35l1-24 2 1v59h43v-49l1-12 15-1v-13l-3-1 3-2v-7l-1-1-12-1 2-2-2-4h15l-3-7-12-2v-4l15-1v-8h-17l2-5 17-1 1 2-1 40 4-1-1-24-1-17 1-19z" fill="#646464"/>
<path transform="translate(560,347)" d="m0 0h136l1 1v60h-27l1 2 26 1v59l-1 1h-136l-1-25v-35l59-1v-2h-58z" fill="#FEFEFE"/>
<path transform="translate(1342,215)" d="m0 0h7l1 2v9l-27 4-22 5-19 7-21 10-18 12-9 7-8 7-2 7-9 10-13 18-11 19-8 19-6 20-4 22-1 13 12 1 2 1-1 3-13 1 2 21 4 19 8 24 7 16 9 15 10 14 9 11 7 7-2 1 5 5 13 11 19 12 16 8 21 7 20 5 30 3v11l-4 1-19-1-25-5-19-6-16-7-21-11v2l-4-2h-4l-10-8-12-11-13-12-11-13-10-15-10-18-7-17-6-18-4-17-2-16v-17l-66 1-1 24-7 6-23 13-6 3h-14l-14-7-21-13-5-6-1-3v-15-3l-2-2 24-1h44-4-34l2-7 10-10v-2l-7 1-7 8-5 9-1 1h-19l-1-11 1-10-1-3 8-7 21-13 15-8 5 1 28 16 14 9v25h67v-20l1-8h2l1-3 2 3 2-6 6-23 8-21 10-19 12-17 8-10 12-13 8-8 17-13 20-12 15-7 27-9 25-5z" fill="#313131"/>
<path transform="translate(699,98)" d="m0 0h42l1 1v309h-43z" fill="#FEFEFE"/>
<path transform="translate(700,411)" d="m0 0h41l1 1v308l-13 1h-30v-309z" fill="#FEFEFE"/>
<path transform="translate(558,466)" d="m0 0h1v5l140-1 1 1-1 26-1 192-1 2-9 1h-128v-27l132-1v-1h5v-189h-138v189h-1l-1-58-65 1-1-1v-5l-34 1-1 2v236l21-2 1-1 7-1h15v4l-24 2h26l-1 7-8-1-19-1-1-2-17-2v15h-2v-15h-174v5l-29-1-1-2h-17v8l-3-1 1-241h2v229l34-4 12-1 1 5 174 1-1-8v-233l1-19h-23l1-4v2l22-1v-52h2l1 16h99l1-46h-17v-1l16-1 1-22z" fill="#2E2E2E"/>
<path transform="translate(1633,472)" d="m0 0 3 3h1v130l-1 86 14-1 9-2h11l8 2 49 1v-195h1v205l-2 29-3 13-7 12-8 10-10 9-13 7 5-1 13-8 8-7 9-13 5-8h1l1 41-14 1h-34l-42 1v47h-1l-1-34-1-15-2-1-63-1v-1h66v-43l-3-7v-25l3-7 1-6h-54v-1l6-1v-1l29-1 16 1v-10l-7 2 3-3 2-1 1-84z" fill="#787878"/>
<path transform="translate(994,452)" d="m0 0 6 3 10 7 10 5 12 3h38v184l1 16 4 7 9 9 7 4 20 1 64 1 174 1v1h-252l-11-2-10-9-5-6-1 5v21l4 13-1 11-3 9-1 46h164l17 1 54 1v1l-143 1-52 1h-40l-1 114 29-3 14-2h5l2 4h262l208 1v-5l4-1 24 4 18 1 1-100h1l2 116-2 1-1-5v-8l-25 3-22 1v-5h-471l-1 6-14-2-31-2-3-1v13h-2v-130l-32-1-17-4-10-5-14-11-10-13-1-5 3 1 7 10 6 7 14 10 11 4 7 1 37 1-1-41-10 8-11 5h-9l-10-4-9-7-7-9-3-7v-10l4-12 9-10 8-5 10-3 9 1 12 6 9 6-1-4v-10l1-13-1-2-1-9v-188h-34l-15-4-11-6-12-9z" fill="#4E4E4E"/>
<path transform="translate(1350,25)" d="m0 0h1v10h-256v2l-60 1-14 2-11 4-10 7-8 8-6 10-4 9-1 6-1 29v249l1 19 8-11 7-8 11-8 14-7 11-3h35l-1-4v-174l1-15 4-10 7-8 8-6 5-2 3 1v2l-10 4-7 6-5 10-1 3-1 12v184l-2 1h-36l-13 4-12 6-10 8-9 11-4 6-2 7-1 18h10l1-16 2-6h3l-1 17v5l19-1 8-13 5-5 8-1 1 4-6 4-6 7-2 5 34-1 4-1v2l-3 1h-42l-21 1 2 2-1 2v15l3 6 10 7 19 11 8 4h10l2 2-6 3-6-1-19-10-21-14-3-4-1-4v-18l-4 1h-7l2 21 7 11 8 9-4 1-6-5-8-13v290l1 13 3 10-3 1-2-4-1 56-1 185 41-4 5-1 1 7h177l239 1v1h-417l-1 5-5-1-1-3h2v-2l-9 1-33 2-1 4v-570l-1-16h-31l-1-3h32l1-248v-64l1-13 4-11 7-12 9-10 13-9 8-4 8-2 10-1h315z" fill="#585858"/>
<path transform="translate(1350,17)" d="m0 0 3 1v16h56l278-1 74-1h187l-1 2h-10l1 23v16h2v6l-2 1-1 3-1 11v350l-1 290h-2v-634l1-19-6-1 1-5 1-19 3-22-246 2-1 1 15 8 10 9 7 8 8 16 3 13v6h-3l-3-15-5-12-7-11-8-8-13-8-7-5h-329l-1 85h237l22 1 1 3h-261v80h-1v-81l-258 1 1-3 8-1h248l-1-85-254-1v-2h256l-2-17z" fill="#4E4E4E"/>
<path transform="translate(1654,67)" d="m0 0h18l8 3 9 8 6 10 3 8v6l-7 14-5 6 42 1-1-13v-13l3 1 1 12v13h132v2h-13l1 5 1 18v17l3 1 1 6-1 1h-6v472l8 2-2 4-2 2-1 28-1 10h12v2l-132-1v-1h115l-2-31v-9l-5-2v-3h7v-472l-6-2 1-5 1 2h2v-4l-3-1 1-2h2l2-37h-115v138h-1l-1-109h-1v-29l-48 1-14 5v-2l-3 1h-7l-9-4-28-1v-2l23-1-6-7-4-10v-15l4-9 7-8 8-5z" fill="#5D5D5D"/>
<path transform="translate(767,264)" d="m0 0h4l1 61-2 5-9 1v16l-1 16 2 1 27 2v41l20 1-1 3h-19v42h-24v-1l19-1v-40h-36l1 38 6 3v1h-9v13l5 1 2-1 1-10 2-2h3l2 12v8l8 2 1 1v29l-2 34h-1l-1-9 1-9-6-1v21l1 6h-6l5 2v2h-8l-7-1-1-3 1-2 10-1 2-17h-9v-1l8-1v-8l-12-3v9h-1l-1-15 7 3 6 1 1-15h-13v-6l13 2v-12l5 1v35l5 1v-6l-5-2v-1h5l-1-30-16-4-6-2v4h-2l-1-66h-41l-1 58h-3v-34l1-25h-26l-1-3 26-1v-35l1-24 2 1v59h43v-49l1-12 15-1v-13l-3-1 3-2v-7l-1-1-12-1 2-2-2-4h15l-3-7-12-2v-4l15-1v-8h-17l2-5 17-1 1 2-1 40 4-1-1-24-1-17 1-19z" fill="#4E4E4E"/>
<path transform="translate(741,471)" d="m0 0h1v7h2v-4l10 2 12 3 1 1v30l-4 1 4 2v6l-4 1-2-2v-35l-4-1 1 5-1 7h-10l-3-2v6h13v16l-11-2-2-2v5l11 1 3 2v8 2 9l-1 8-1 1h-10v4l15 2v-2l-6-1 1-2 6 1-2-6v-11l1-10 6 1v11l1-15h1v75l-1 1-9 1-2 6 3 1 1 6-1 47-8 3-1 6-8 1 1 7 3 1 1-2h25l1 41-1 1-14 1h-10l-2-1-1-23h-2l-1 30h-1l-1-120z" fill="#797979"/>
<path transform="translate(1336,260)" d="m0 0h28l21 3 20 6 18 8 12 7 12 9 12 11 9 10 14 21 9 17 6 18 3 14 1 9v33l-3 19-4 14-5 13-10 19-9 11-12 13-13 12-15 10-23 12-24 7-16 2h-29l-20-3-15-4-12-5-21-11-13-9-12-12-7-8-10-12-10-17-8-18-5-17-3-17v-33l5-23 6-16 8-16 9-14 7-9 16-16 4-5 17-12 16-8 18-7 21-5zm3 5-22 4-24 8-19 10-14 10-17 17-13 18-9 16-6 15-4 13-2 10-1 10v11l1 1 13 1v1l-13 1-1 1v13l5 25 6 17 9 17 10 14 12 14 11 10 14 10 21 11 15 5 19 4 19 1 2-1v-9l-1-5h4l-1 4v9l2 2h9l17-2 19-5 16-7 18-10 14-10 15-15 9-12 10-18 8-20 4-16 3-22v-4l-2-1-22-1-1-2 24 1 1-4-3-24-6-21-8-18-7-12-12-16-9-10-13-11-16-10-19-9-21-6-18-3h-12v22l-2-1-1-21z" fill="#2D2D2D"/>
<path transform="translate(401,249)" d="m0 0h29v159l-30 1-1-17v-98l1-44z" fill="#FEFEFE"/>
<path transform="translate(400,411)" d="m0 0h29l1 1v155h-30l-1-1v-80z" fill="#FEFEFE"/>
<path transform="translate(456,496)" d="m0 0h101v45l-1 1h-97l-2-1-1-5z" fill="#FEFEFE"/>
<path transform="translate(456,324)" d="m0 0h100l1 3v29l-36 1-1 21h-63l-1-1z" fill="#FEFEFE"/>
<path transform="translate(234,213)" d="m0 0h1v195h113l-1 3h-112v120l1 74 13 1 147 1v-332h1l1 114 2 3v174l30 1-1-6v-92h1l1 18 1-75h1v165h19v1h-20l-1 2h23v1h-24l-1-11h-29l-1 40h-161l-9-2 1-5-1-1-1-191h-16l-2-1v-2l17-1 1-61 1-131 2 3z" fill="#424242"/>
<path transform="translate(489,441)" d="m0 0h30l1 1 1 20h35l1 1v30l-1 1h-99l-1-1v-50l1-1z" fill="#FEFEFE"/>
<path transform="translate(457,278)" d="m0 0h20l79 1 1 42h-101v-42z" fill="#FEFEFE"/>
<path transform="translate(1682,693)" d="m0 0h45l1 1-1 26-2 16-4 11-8 12-9 10-11 8-7 3h-4v2h-45v-41l4 2 14 8 6 2h8l12-6 9-9 6-12 1-8-5-11-4-6-6-6z" fill="#FEFEFE"/>
<path transform="translate(753,66)" d="m0 0 11 11h3l4 6v12l10 2 1 2v75l-2 5-9 3v4h-2v8l-1-3h-25v32l24-1-1-21h-22v-1h25v25l-25-1v8h25l-2 1v3h-2v2l-3-1h-15l-1 18 1 1-3 4h-2l-1-17v-58l1-86h1l1 34h2v3h8l1-2-3-1 3-3-4-1-2-9 1-1h11l5 2 6 1v-21h-7l1 6v10l-3 1-13-1-1-1v-9l2 4v2h4l-1-7-2 4v-5l1-1-4-1v-2h-2l-1-6-5 1 2-23h1l1 9 15 2 1 1h8l-7-7-7-6-2-3z" fill="#676767"/>
<path transform="translate(560,665)" d="m0 0h137v26l-9 1h-128z" fill="#FEFEFE"/>
<path transform="translate(562,126)" d="m0 0h135v26l-134 1-3-1v-25z" fill="#FEFEFE"/>
<path transform="translate(1353,215)" d="m0 0 20 1 23 4 17 5 16 6 16 8 14 8 19 14 15 14 10 11 11 15 11 19 8 18 6 19 5 25 2 18v7l-1 1h-11l-3-31-4-17-5-15-10-22-11-18-8-10-11-12-10-10-11-9-18-12-19-10-15-6-25-6-31-4z" fill="#FEFEFE"/>
<path transform="translate(433,411)" d="m0 0h20l1 1v165h-21z" fill="#FEFEFE"/>
<path transform="translate(451,241)" d="m0 0 3 1v166h-21v-166z" fill="#FEFEFE"/>
<path transform="translate(1342,215)" d="m0 0h7l1 2v9l-27 4-22 5-19 7-21 10-18 12-9 7-10 9-7 7-13 17-13 21-7 15-8 22-5 22-2 15v8h-10l-1-1 1-21 5-25 8-24 10-21 10-15 12-16 14-15 7-7 17-13 20-12 15-7 27-9 25-5z" fill="#FEFEFE"/>
<path transform="translate(1535,411)" d="m0 0h9l2 1v11l-3 24-7 26-8 20-10 18-8 12-11 14-22 22-18 13-18 10-18 8-23 7-18 4-20 2h-7l-2-2-1-9 2-1 26-2 26-6 19-7 16-8 12-7 14-10 13-12 12-12 12-16 9-16 7-15 5-15 6-24 2-14 1-15z" fill="#FEFEFE"/>
<path transform="translate(457,242)" d="m0 0h99v33h-99l-1-2v-30z" fill="#FEFEFE"/>
<path transform="translate(1166,410)" d="m0 0h2l3 26 5 21 9 25 10 20 11 16 9 11 9 10 10 9 13 10 18 11 14 7 21 7 20 5 30 3v11l-4 1-19-1-25-5-19-6-16-7-19-10-14-10-15-14-16-16-10-13-10-16-8-15-9-25-4-17-3-17-1-19z" fill="#FEFEFE"/>
<path transform="translate(769,186)" d="m0 0h1l1 78-5 2-1 28 2 27v7l-5 1v-41l-17 1-2 4h17l1 8-1 1h-15v4l12 1 3 4v4l-14 1 2 4 9 1 2 2v7l-2 2 1 1v13l-2 1h-13v12h-1l-1-75v-29h1v5l3-3h-1v-18l2 2 1-4 2-1h13l3 2v-2h2v-3l-23-1v-8h24l1-24-3 1 1 2v19l-3 1h-21v-32h25z" fill="#797979"/>
<path transform="translate(456,545)" d="m0 0h101v31h-100l-1-1z" fill="#FEFEFE"/>
<path transform="translate(1729,125)" d="m0 0h1l1 143v139h22v3l-2 1-21 1 1 13v266h-1l-1-190h-1l-1-63-1-9-4 9-7 11-8 9-11 8-11 5-13 3-26 1-11 1-1-5 13-1 30-1 13-4 10-6 12-12 6-9 5-11 1-7v-8l-12-1-1-4h15l-2-4-2-12-8-16-9-10-8-7-16-8-9-2h-39l-1-203-9-10-11-7 1-2 5 2 9 6 7 7 3 8v195h35l16 5 9 5 10 8 10 11 8 15 1 4 1-214z" fill="#585858"/>
<path transform="translate(1383,839)" d="m0 0h12l6 5 5 12 6-11 5-5 2-1h11l6 3 5 8 2 7v13l-3 8-5 6-5 3-7 1-7-3-7-9-3-9-1-5v9l-3 9-7 6-2 1h-9l-6-4-5-7-2-6v-14l4-10 4-5z" fill="#525252"/>
<path transform="translate(1350,221)" d="m0 0h1v5l18 1 25 4 17 5 17 7 17 9 16 11 15 13 15 15 11 14 9 15 8 16 7 17 5 19 2 12 1 24h9l1 3-9 1-2 24-6 25-5 16-7 16-8 15-10 14-12 13-13 13-13 10-16 10-16 8-15 6-18 5-14 3-26 2h-2l2 9 1 2h-6l1-12h-13l-21-3-23-6-16-6-16-8-18-12-13-11-4-3v-2l4 1 13 11 17 11 19 10 28 9 19 4 7 1 17 1-1-14 3-1 1 1 1 14h9l23-3 23-6 16-6 16-8 16-10 10-8 10-9 12-12 11-15 10-17 7-15 7-21 5-21 2-25h-30l1-4h29l-2-25-6-25-8-21-8-16-7-12-9-12-11-12-8-8-11-9-16-11-16-9-18-8-22-6-18-3-18-2v22l-3-2v-20l-2 1-18 2-20 4-18 5-23 10-11 6-12 8-16 13-4 4-2-1 3-5 10-9 21-14 19-10 21-8 19-5 17-3 16-1z" fill="#3E3E3E"/>
<path transform="translate(1032,70)" d="m0 0h17l8 4 6 5 6 9 2 6v10l-3 8-6 8-10 6-9 3-11-1-6-3-9-8-5-10-1-5v-8l4-10 9-10z" fill="#FEFEFE"/>
<path transform="translate(1035,691)" d="m0 0h9l9 3 9 6 4 5 3 9v11l-2 9-7 8-8 6-7 3h-8l-11-4-7-5-6-10-2-8v-11l6-12 7-6z" fill="#FEFEFE"/>
<path transform="translate(1657,693)" d="m0 0h19l5 3 8 10 5 9 1 7-4 11-7 9-7 6-7 3-11-1-9-4-11-7-2-8v-26l5-6 7-5z" fill="#FEFEFE"/>
<path transform="translate(1654,70)" d="m0 0h18l7 3 8 7 7 12 1 10-7 14-4 5-11 4h-19l-9-3-6-7-3-8-1-7v-8l3-9 5-7 8-5z" fill="#FEFEFE"/>
<path transform="translate(976,430)" d="m0 0h1l2 7h1v289l1 13 3 10-3 1-2-4-1 56-1 185 41-4 5-1 1 7h177l239 1v1h-417l-1 5-5-1-1-3h2v-2l-9 1-33 2-1 4v-552z" fill="#707070"/>
<path transform="translate(699,37)" d="m0 0h42l1 40v18l-1 1h-26l-16-1z" fill="#FEFEFE"/>
<path transform="translate(719,724)" d="m0 0h23v31l-1 27-28 1h-13l-1-1v-57z" fill="#FEFEFE"/>
<path transform="translate(754,558)" d="m0 0h2l2 7 1 4 1 2-1 4h2l2 5h-5l1 3-2 18 3 1 1 6-1 47-8 3-1 6-8 1 1 7 3 1 1-2h25l1 41-1 1-14 1h-10l-2-1-1-23h-2l-1 30h-1v-66l1-31 1-13h1l1 14 1 1h10l-1-3v-13l-8-1-3-1v-6l5-1 1-27h-7v26h-2v-27l1-9 1 3 5-2 2 1v-6z" fill="#626262"/>
<path transform="translate(1352,609)" d="m0 0h1l1 82 256 1v1l-28 1-228 1-1 87 279 1 3 3-282 1v20h-3v-20l-189-1v-1l89-1v-1l99-1v-88l-174-1v-1l174-1 1-78z" fill="#5C5C5C"/>
<path transform="translate(997,411)" d="m0 0h18l2 1 5 10 7 7 9 5h6l9-6 8-8 5-9h17v23l-5 5-20 12-14 7h-8l-14-7-21-13-5-6-1-3v-15z" fill="#FEFEFE"/>
<path transform="translate(1663,359)" d="m0 0 6 2 14 8 20 12 3 3 1 3v20l-4 1h-14l-5-8-6-8-8-5-3-1h-7l-10 5-6 7-4 9-1 1h-18l-1-1v-22l4-4 25-14 10-6z" fill="#FEFEFE"/>
<path transform="translate(1620,411)" d="m0 0h20l5 10 9 10 6 3h7l10-6 7-8 4-8 7-1h12l1 12-1 10-7 7-16 10-16 8-6 1-16-8-13-8-10-7-3-5z" fill="#FEFEFE"/>
<path transform="translate(1039,360)" d="m0 0 6 1 20 11 16 10 2 4v21l-5 1h-12l-5-8-7-9-6-4-3-1h-7l-10 4-7 8-5 9-1 1h-19l-1-11 2-11 9-8 24-14z" fill="#FEFEFE"/>
<path transform="translate(1761,32)" d="m0 0h187l-1 2h-10l1 23v16h2v6l-2 1-1 3-1 11v350l-1 290h-2v-634l1-19-6-1 1-5 1-19 3-22-122 1h-120l-4-2z" fill="#6D6D6D"/>
<path transform="translate(457,578)" d="m0 0h99l1 1v21h-65l-6-1-29-1-1-7v-12z" fill="#FEFEFE"/>
<path transform="translate(1066,786)" d="m0 0h43v1h-40l-1 114 29-3 14-2h5l2 4h262l208 1v-5l4-1 24 4 18 1 1-100h1l2 116-2 1-1-5v-8l-25 3-22 1v-5h-471l-1 6-14-2-31-2-3-1v13h-2z" fill="#5F5F5F"/>
<path transform="translate(455,601)" d="m0 0 1 2v236l21-2 1-1 7-1h15v4l-24 2h26l-1 7-8-1-19-1-1-2-17-2v15h-2v-15h-174v5l-29-1-1-2h-17v8l-3-1 1-241h2v229l34-4 12-1 1 5 174 1-1-8v-208l1-22z" fill="#5F5F5F"/>
<path transform="translate(697,34)" d="m0 0h48l-1 21h-1l-2-17-42-1v58h47l1 6h2v2h5v2h1v8h-4l-1-2v5l15 1v-16h7l1 2v12l-1 7h-6l-5-2h-11l1 9h5l-3 4 2 1-1 3-8-1v-3l-3 1v-35l-44-1 1 58-1 188h-2l-1-4v-158l1-27h-137v-1l9-1v-1h128v-26h-36v-1l-65-1v-1h101l-1-16v-72z" fill="#5A5A5A"/>
<path transform="translate(456,219)" d="m0 0h100v20h-100z" fill="#FEFEFE"/>
<path transform="translate(745,87)" d="m0 0 13 1 3 1 1-2 4 1 4 5v2l-20 2 22 2 2-2 4 1 1 1v39h-2v2h2v35h-15l-9-1-2-4h2l1-9 2 1-1 9h5l1-4h-2l-2-5 3-4 5 1v7l-2 4 7 4v-19l-11-1-1-7-2-3v11l-2 1h-10l-1-1v-15l2-4h7l1-2-3-1 3-3-4-1-2-9 1-1h11l5 2 6 1v-21h-7l1 6v10l-3 1-13-1-1-1v-9l2 4v2h4l-1-7-2 4v-5l1-1-4-1v-2h-2l-2-6z" fill="#FEFEFE"/>
<path transform="translate(1350,25)" d="m0 0h1v10h-256v2l-60 1-14 2-11 4-10 7-8 8-6 10-4 9-1 6-1 29v271h-4v9h-1v-297l1-13 4-11 7-12 9-10 13-9 8-4 8-2 10-1h315z" fill="#797979"/>
<path transform="translate(1293,839)" d="m0 0h12l6 7 6 12 1-7 5-9 5-3h11l5 3 4 5 2 5 1 7v8l-3 11-5 6-6 3h-9l-7-6-4-9-2-14-5 4-7 8-12 11-1 2h24l-2 4h-33l1-3 8-5 21-21v-6l-4-6-4-3h-7l-5 4-4 6-4 1 1-5 7-8z" fill="#3F3F3F"/>
<path transform="translate(159,122)" d="m0 0h2v43l7 2-1 3-4 1 1 4-1 10-1 24-1 2h60v2h-60l1 393 60 1-1 2h-23l-36-1 2 38 4 2v4l-2 1h-13l-2-1v-4l5-1v-15l1-21 1-2h-11l-2-2 14-1v-393h-13v-2h12l-1-3-1-34-1-3-5-2 1-3 8-1z" fill="#717171"/>
<path transform="translate(1350,17)" d="m0 0 3 1v16h338l-4 2-1 1 15 8 10 9 7 8 8 16 3 13v6h-3l-3-15-5-12-7-11-8-8-13-8-7-5h-329l-4 1-1-1-254-1v-2h256l-2-17z" fill="#2B2B2B"/>
<path transform="translate(456,380)" d="m0 0h62l2 1-2 12-1 3-1 12h-59l-1-2z" fill="#FEFEFE"/>
<path transform="translate(1660,385)" d="m0 0h7l8 4 7 6 7 12h18v-16h1v15h2l1-2v3l-3 2-19 1 6 1v1l-7 1-5 10-10 9-6 3h-7l-8-5-9-10-3-9 42-1 2-1-35-1h-3-7l4-10 7-8z" fill="#5D5D5D"/>
<path transform="translate(458,411)" d="m0 0h58l1 15 2 8v3l-9 1h-53v-26z" fill="#FEFEFE"/>
<path transform="translate(121,480)" d="m0 0 10 2 8 7 3 6 2 14 2 3-5 1-8 7-7 3h-14l-6-4-6-7-4-8-2-10-2-4 5 2v2l5-6 10-6z" fill="#F7F7F7"/>
<path transform="translate(1658,691)" d="m0 0h19l9 7 6 7 5 10 1 8-5 12-9 10-8 6-7 3h-8l-12-5-12-8v41h45v-2l6 1 14-8 9-8 9-13 5-8h1l1 41-14 1h-34l-42 1v47h-1l-1-34-1-15-2-1-63-1v-1h66v-43l-2-5v-6h1l1-11h1l3 22 4 2 10 6 11 3 9-1 9-6 7-8 4-9 1-7-4-10-10-13-4-2-20-1z" fill="#6B6B6B"/>
<path transform="translate(1503,533)" d="m0 0v3l-4 8-16 16-13 10-15 10-16 9-17 7-19 6-15 4-25 3h-11v11h-1l-2-9-6-2-31-4-21-6-24-9-19-10-7-5 1-3 4 3v-2l5 2 24 12 20 7 25 6 7 1 26 1 21-1 17-3 23-6 21-8 21-11 17-12 12-11 15-15z" fill="#2D2D2D"/>
<path transform="translate(1726,786)" d="m0 0h1l1 26v185h-2v-5h-21l-13 1-1 2-5-1-4 1-3-3-478-2v-1h479v-6l2-1 4 1 27 2 13 2z" fill="#525252"/>
<path transform="translate(748,368)" d="m0 0h29l7 1v38l-1 1h-35z" fill="#FEFEFE"/>
<path transform="translate(748,411)" d="m0 0h36v39h-35l-1-1z" fill="#FEFEFE"/>
<path transform="translate(1848,173)" d="m0 0h1v472l8 2-2 4-2 2-1 28-1 10h12v2l-132-1v-1h115l-2-31v-9l-5-2v-3h7v-40l1-320z" fill="#797979"/>
<path transform="translate(743,515)" d="m0 0 12 1 3 2v8 2 9l-1 8-1 1h-10v4l15 2v-2l-6-1 1-2 6 1-2-6v-11l1-10 6 1v11l1-15h1v75l-1 1-10 1v-15l4-1-1-4h-2v-5l-2-2-1-10-5 1v6l-7 1-1 6h-1v-48z" fill="#545454"/>
<path transform="translate(745,664)" d="m0 0h33l1 55-4 1-27 2 1 11-3 3-1 29v20l-1 1h-47v-61h1v58l15-1h28v-27l1-31h-11v-1l7-1-9-1v-1h14v-35h1v5l3-1v24h12l14-1v-41h-25l-1 3-1-2h-2l-1 2v-9z" fill="#4A4A4A"/>
<path transform="translate(1350,304)" d="m0 0 4 1-1 102 104 1-1 3h-103l1 109h-4v-109h-111l-1-3 111-1z" fill="#2D2D2D"/>
<path transform="translate(767,264)" d="m0 0h4l1 61-2 5-9 1v16l-1 16 2 2-3 1 12 1v1h-23v39h-1l-1-12h-1l-2-7h-1v-29l1-12 15-1v-13l-3-1 3-2v-7l-1-1-12-1 2-2-2-4h15l-3-7-12-2v-4l15-1v-8h-17l2-5 17-1 1 2-1 40 4-1-1-24-1-17 1-19z" fill="#5E5E5E"/>
<path transform="translate(1350,221)" d="m0 0h1v5l18 1 25 4 17 5 17 7 17 9 16 11 15 13 15 15 11 14 9 15 8 16 7 17v4l-3 1-8-21-8-16-7-12-9-12-11-12-8-8-11-9-16-11-16-9-18-8-22-6-18-3-18-2v22l-3-2v-20l-2 1-18 2-20 4-18 5-23 10-11 6-12 8-16 13-4 4-2-1 3-5 10-9 21-14 19-10 21-8 19-5 17-3 16-1z" fill="#3F3F3F"/>
<path transform="translate(556,693)" d="m0 0 2 2-1 144 18-2 14-2 16-1v6l136-1v-40l2 1v30l1 6 7 1 1 2-10 2-12 1h-125v5h-12l-17-1v-3h-9l-10-1v13h-2v-13h-50v-1l20-1h30v-108z" fill="#686868"/>
<path transform="translate(748,671)" d="m0 0h25l1 41-1 1-14 1h-10l-1-1z" fill="#FEFEFE"/>
<path transform="translate(741,255)" d="m0 0h1v5l3-1 1 9 16 1 1 2-2 15-3-2v-10h-12l-1 13h13v1l-13 1-2 4h17l1 8-1 1h-15v4l12 1 3 4v4l-14 1 2 4 9 1 2 2v7l-2 2 1 1v13l-2 1h-13v12h-1l-1-75z" fill="#747474"/>
<path transform="translate(1224,279)" d="m0 0 1 3-2 4-8 9-13 18-11 19-8 19-6 20-4 22-1 13 12 1 2 1-1 3-13 1 2 21 4 19 8 24 7 16 9 15 10 14 9 11 7 7-3 2-9-9-11-14-9-13-12-23-9-25-5-21-2-14v-12l-2 1h-6v-2l-2-1 1-2 10 1-1-8 3-20 5-20 9-24 9-17 12-18 13-16z" fill="#535353"/>
<path transform="translate(1896,355)" d="m0 0h9l9 6 4 6 1 6-4 9-6 4-8 1-17-6-14-3-2-2v-18l2-2 4 1v15l1 2 10 2v-7l3-8 4-4z" fill="#5C5C5C"/>
<path transform="translate(231,610)" d="m0 0h2v229l34-4 12-1 1 5 28 1 6 1v1h-34v5l-29-1-1-2h-17v8l-3-1z" fill="#6F6F6F"/>
<path transform="translate(741,411)" d="m0 0h2v44h2l1-2v13l5 1 2-1 1-10 2-2h3l2 12v8l8 2 1 1v29l-2 34h-1l-1-9 1-9-6-1v21l1 6h-6l5 2v2h-8l-7-1-1-3 1-2 10-1 2-17h-9v-1l8-1v-8l-12-3v9h-1l-1-15 7 3 6 1 1-15h-13v-6l13 2v-12l5 1v35l5 1v-6l-5-2v-1h5l-1-30-16-4-6-2v4h-2z" fill="#696969"/>
<path transform="translate(230,210)" d="m0 0h169v38h7v1l-5 1-1 44-1 96-2-1-1-176h-162l-2 5-1 6h-1l-1-13z" fill="#343434"/>
<path transform="translate(1761,32)" d="m0 0h187l-1 2h-10l1 23v16h2v6l-2 1-1 3-1 11-1 24h-1v-37l-6-1 1-5 1-19 3-22-122 1h-120l-4-2z" fill="#5A5A5A"/>
<path transform="translate(1352,609)" d="m0 0h1l1 82 256 1v1l-28 1-228 1-3 4-2-5-174-1v-1l174-1 1-78z" fill="#383838"/>
<path transform="translate(114,303)" d="m0 0h10l9 3 5 6 1 2v8l-6 5-10 3h-12l-9-4-4-5v-10l6-5z" fill="#FEFEFE"/>
<path transform="translate(446,971)" d="m0 0h17l6 3 4 4 1 3v7l-5 6-6 3-5 1h-8l-8-2-8-7-1-2v-7l5-6z" fill="#FEFEFE"/>
<path transform="translate(1260,233)" d="m0 0h2l2 4-14 8-12 8-16 13-12 12-9 11-13 18-9 16-7 16-7 21-5 25-3-3-2-3 1-10 6-21 10-24 8-15 9-13 9-12 14-15 10-10 14-11 15-10z" fill="#303030"/>
<path transform="translate(1613,126)" d="m0 0 5 2 9 6 7 7 3 8v195h10v1l-11 1 2 2h-5l-1-203-9-10-11-7z" fill="#777"/>
<path transform="translate(735,877)" d="m0 0h15l7 3 4 4 1 3v8l-8 7-5 2h-12l-11-4-4-6v-9l5-5z" fill="#FEFEFE"/>
<path transform="translate(1423,842)" d="m0 0 8 2 5 6 2 5v16l-4 8-5 4-6 1-6-4-5-9-2-12 3-8 7-8z" fill="#FEFEFE"/>
<path transform="translate(1420,931)" d="m0 0h8l6 4 4 8v16l-4 8-6 5h-6l-6-5-4-8-1-5v-7l3-9 4-6z" fill="#FEFEFE"/>
<path transform="translate(1801,320)" d="m0 0h14l8 3 4 5 1 2v8l-5 5-10 3h-12l-9-3-4-5-1-2v-7l4-5z" fill="#FEFEFE"/>
<path transform="translate(1019,982)" d="m0 0h4l1 7h177l239 1v1h-417l-1 5-5-1-1-3h2v-2l-9 1-33 2-1 4v-7l10-1h-8v-1l9-2 32-3z" fill="#6B6B6B"/>
<path transform="translate(160,314)" d="m0 0h1l1 292 60 1-1 2h-23l-36-1 2 38 4 2v4l-2 1h-13l-2-1v-4l5-1v-15l1-21 1-2h-11l-2-2 14-1v-144z" fill="#5A5A5A"/>
<path transform="translate(1886,320)" d="m0 0h15l7 3 5 6 1 2v7l-6 5-7 3h-15l-8-3-4-4-1-9 4-6z" fill="#FEFEFE"/>
<path transform="translate(113,342)" d="m0 0h12l10 5 4 6v6l-5 6-8 3h-16l-7-3-5-6v-8l4-5z" fill="#FEFEFE"/>
<path transform="translate(224,916)" d="m0 0h15l5 2 6 7 1 7-4 6-11 4h-13l-10-5-4-8 2-6 6-5z" fill="#FEFEFE"/>
<path transform="translate(1802,414)" d="m0 0h12l9 3 4 5 1 2v7l-5 5-5 3-4 1h-12l-9-3-5-5-1-8 3-5 8-4z" fill="#FEFEFE"/>
<path transform="translate(1388,842)" d="m0 0 7 2 6 9 1 4v9l-2 9-7 8-7 1-7-6-3-7v-16l5-10z" fill="#FEFEFE"/>
<path transform="translate(1329,843)" d="m0 0h9l5 4 3 6v17l-3 8-4 4-5 2-5-1-6-7-3-11v-9l5-10z" fill="#FEFEFE"/>
<path transform="translate(1800,359)" d="m0 0h15l7 3 5 5 1 2v7l-8 7-8 2h-9l-10-3-5-6-1-2v-6l5-5z" fill="#FEFEFE"/>
<path transform="translate(994,452)" d="m0 0 6 3 10 7 10 5 12 3h38l-1 198-2-3-1-3v-188h-34l-15-4-11-6-12-9z" fill="#454545"/>
<path transform="translate(1726,408)" d="m0 0 3 1h-2v2l4-1v281h-1l-1-190h-1l-1-63-1-9-4 9-7 11-8 9-11 8-11 5-13 3-26 1-11 1-1-5 13-1 30-1 13-4 10-6 12-12 6-9 5-11 1-7v-11z" fill="#686868"/>
<path transform="translate(524,411)" d="m0 0h32v24h-33l-1-3v-20z" fill="#FEFEFE"/>
<path transform="translate(698,497)" d="m0 0h1v224h39l1 2-20 2h-20l1 58h-2l-2 2v-90l-138-1 2-2 137-1z" fill="#535353"/>
<path transform="translate(1901,410)" d="m0 0 9 1 5 4 3 6v10l-4 6-5 3h-11l-8-4-11-8-8-6-5-5v-2l5 2 12 9 6 4 2-9 7-9z" fill="#484848"/>
<path transform="translate(523,385)" d="m0 0h33v23h-33l-1-1z" fill="#FEFEFE"/>
<path transform="translate(697,348)" d="m0 0 2 1v59h42l4 3h3l1 38 6 3v1h-10v2h-2v-44l-43 1-1 58h-3v-34l1-25h-26l-1-3 26-1v-35z" fill="#444"/>
<path transform="translate(562,912)" d="m0 0h8l6 5 2 5v13l-4 5-5 2h-10l-7-3-9-6-11-10-2-6 4 2 10 9 8 7 1-13 4-6z" fill="#3A3A3A"/>
<path transform="translate(1341,927)" d="m0 0h5l-6 7-4 2-2 4-4 5-1 4h8l7 2 5 6 1 8-3 5-5 4-6 2h-6l-8-6-2-4-1-8 4-8 7-11 8-10z" fill="#393939"/>
<path transform="translate(563,967)" d="m0 0h7l6 5 3 9-2 10-5 5-9 2-10-3-11-8-10-9-2-6 4 2 10 10 8 5 1-11 5-8z" fill="#404040"/>
<path transform="translate(544,438)" d="m0 0h12l1 1v21l-20 1h-12l-2-1v-21z" fill="#FEFEFE"/>
<path transform="translate(523,360)" d="m0 0h34v21l-1 1h-17l-16-1z" fill="#FEFEFE"/>
<path transform="translate(742,175)" d="m0 0 2 2 2-2 5 1 3 7 3-1h14v4h-2v8l-1-3h-25v32l24-1-1-21h-22v-1h25v25l-25-1v8h25l-2 1v3h-2v2l-3-1h-15l-1 18 1 1-3 4h-2l-1-17v-58z" fill="#626262"/>
<path transform="translate(558,466)" d="m0 0h1v5l140-1 1 1-1 26-1 192h-1v-25h-5v-1h5v-189h-138v11l-2 1v-15z" fill="#202020"/>
<path transform="translate(1410,783)" d="m0 0h222l3 3h-220l-38-1v-1z" fill="#323232"/>
<path transform="translate(1726,786)" d="m0 0h1l1 26v185h-2v-5h-21l-13 1-1 2-6-1v-3h-2v-6l3-1h13l21 2 6 1z" fill="#6D6D6D"/>
<path transform="translate(399,229)" d="m0 0h1v18l29-1v-6l1-1h6v1h-5v2h2v166h21v1h-46v-1l21-1v-35l1-123h-24l-7-1z" fill="#505050"/>
<path transform="translate(1847,538)" d="m0 0h1l1 107 8 2-2 4-2 2-1 28-1 10h12v2l-132-1v-1h115l-2-31v-9l-5-2v-3h7v-40z" fill="#606060"/>
<path transform="translate(1725,744)" d="m0 0h1l1 40h-34l-7-1 4-3 13-8 8-7 9-13z" fill="#FEFEFE"/>
<path transform="translate(454,357)" d="m0 0h2l1 20 13 1v1h-14v30l64-1 2-1v2h34v1l-16 1h-19v12l-2-3-2 3v-12h-61v27h-1v-26h-22l-1 86h-1l-1-11-1-75-29-1v-2h54z" fill="#1B1B1B"/>
<path transform="translate(1350,25)" d="m0 0h1v10h-256v2l-60 1-14 2-11 4-10 7-8 8-6 10-5 10-3 1 1-6 6-11 8-10 11-9 13-7 8-2 10-1h315z" fill="#626262"/>
<path transform="translate(559,347)" d="m0 0h1v61h58v2l-5 1h-54l1 35v25h-3l-1-8h-35v-3h36l-1-21-2-2h-31v-2h33v-24h-16v-1l-18-1 1-2 33 1v-23h-33v-1h34l1 22z" fill="#4D4D4D"/>
<path transform="translate(1727,496)" d="m0 0h1v196l-1 1h-45l-1 2-4-3h-19l-1 2-8 1-10 8-1 2-1 19h-1l-1 6-3 2v-25l3-7 1-6h-54v-1l73-2v-2l4-1h11l8 2 49 1z" fill="#737373"/>
<path transform="translate(1066,786)" d="m0 0h43v1h-40l-1 114 29-3 14-2h5l2 5-1 2-1 6-14-2-31-2-3-1v13h-2z" fill="#717171"/>
<path transform="translate(1654,67)" d="m0 0h18l8 3 9 8 6 10 3 8v6l-7 14-5 6-6 4-14 5v-2l-3 1h-7l-9-4-28-1v-2l23-1-6-7-4-10v-15l4-9 7-8 8-5zm0 3-8 4-5 4-5 9-1 5v8l2 11 6 9 4 3 7 2h19l11-4 7-10 4-9-1-10-7-12-9-8-6-2z" fill="#3D3D3D"/>
<path transform="translate(1646,406)" d="m0 0 3 1 38 1-3 2-2 1h-62l1 20 3 5 14 9 21 12 6 1 12-5 14-8 11-8 4-4 1-16v-6h-19l1-2 19-1h4l-2 27-8 7-13 8-17 9-10 3-16-8-20-12-7-5-2-4v-6h2l-1-17 3-2h25z" fill="#434343"/>
<path transform="translate(1031,67)" d="m0 0h18l10 5 7 6 6 10 2 5v12l-4 9-7 8-9 6-7 3-10 1-9-3-8-6-5-5-6-8-2-5v-11l4-11 7-9 10-6zm1 3-8 4-7 7-5 9-1 4v8l3 10 6 8 9 7 8 2 10-1 12-6 5-5 6-9 1-4v-10l-4-9-7-9-8-5-3-1z" fill="#494949"/>
<path transform="translate(130,391)" d="m0 0h1v7l13 1-1 3-2 1h-9l-1 23-4-2-14-10-11-9-8-5v-1l35-1z" fill="#363636"/>
<path transform="translate(745,259)" d="m0 0 20 1 1 2-1 32 2 27v7l-5 1v-41l-17-1v-13l1-1 12 1 1 10 1 1 2-15-16-1-1-1z" fill="#FEFEFE"/>
<path transform="translate(743,95)" d="m0 0h3l1 6h2v2h5v2h1v8h-4l-1-2v5l15 1v-16h7l1 2v12l-1 7h-6l-5-2h-11l1 9h5l-3 4 2 1-1 3-8-1v-3l-3 1v-35l-45-2v-1z" fill="#363636"/>
<path transform="translate(1226,540)" d="m0 0 4 1 13 11 17 11 19 10 28 9 19 4 7 1 17 1-1-14 3-1 1 1 1 14h9l17-2h5l1 3-14 2-20 1 2 9 1 2h-6l1-12h-13l-21-3-23-6-16-6-16-8-18-12-13-11-4-3z" fill="#414141"/>
<path transform="translate(758,334)" d="m0 0 3 3-1 26 2 2-3 1 12 1v1h-23v39h-1l-1-12h-1l-2-7h-1v-29l1-12 15-1z" fill="#5A5A5A"/>
<path transform="translate(1932,735)" d="m0 0 6 1 2 2-1 5-1 1 1 6-1 1-1 33h9v2h-33l-132-1v-1h152l-1-2-2-19-1-25z" fill="#595959"/>
<path transform="translate(753,66)" d="m0 0 11 11h3l4 6v12l10 2 1 2v75l-3 1v-35h-2v-2h2l-1-8v-31l-4-1-2 2-22-2-2-2 22-1-5-7-3-1-1 3-13-2-3-1v8l-4 1 2-23h1l1 9 15 2 1 1h8l-7-7-7-6-2-3z" fill="#787878"/>
<path transform="translate(751,128)" d="m0 0h22v12l-2 10-3-4-1-2h-9v11l-2 1h-10l-1-1v-15l2-4h7l1-2-3-1 3-3z" fill="#5F5F5F"/>
<path transform="translate(1889,315)" d="m0 0h8l9 2 6 4 5 6 2 4v6l-4 6-8 5-6 2h-15l-10-4-5-4-3-5v-7l6-9 10-5zm-3 5-9 4-4 6 1 9 6 5 6 2h15l10-5 3-3v-7l-4-6-5-4-4-1z" fill="#545454"/>
<path transform="translate(1800,354)" d="m0 0h15l12 6 5 7v10l-6 7-10 4-7 1h-8l-9-3-7-6-2-4v-9l4-6 10-6zm0 5-10 5-3 4v6l4 6 4 3 8 2h9l9-3 7-6v-7l-4-6-5-3-4-1z" fill="#383838"/>
<path transform="translate(741,38)" d="m0 0h1l1 11 2-4 1 10 5 3 9 10 5 6-1 4-7-7-3-4 2 5 14 13v1h-9l-6-2-10-1-3-3-1-3z" fill="#696969"/>
<path transform="translate(745,664)" d="m0 0h33l1 55h-12l4-1-2-4h4v-43h-25l-1 3-1-2h-2l-1 2v-9z" fill="#2B2B2B"/>
<path transform="translate(1420,927)" d="m0 0h10l5 3 5 6 3 8v14l-3 8-6 7-6 3h-8l-8-7-4-8v-17l3-9 6-7zm0 4-5 5-3 6-1 5v7l3 9 4 6 4 3h6l7-6 3-7v-16l-4-8-6-4z" fill="#4C4C4C"/>
<path transform="translate(226,911)" d="m0 0h11l9 3 7 7 2 4v8l-4 6-8 5-10 2h-10l-9-3-5-4-4-8v-6l4-6 6-5zm-2 5-8 3-5 4-2 6 4 8 10 5h13l11-4 4-6-1-7-7-8-4-1z" fill="#464646"/>
<path transform="translate(432,412)" d="m0 0h1v165h19v1h-20l-1 2h23v1h-24l-1-13h-28v-1h29l-1-6v-92h1l1 18z" fill="#6D6D6D"/>
<path transform="translate(113,337)" d="m0 0h9l10 3 7 5 4 7v8l-7 8-6 3-6 1h-15l-10-5-5-7v-11l5-6 10-5zm0 5-11 4-4 5v8l6 7 6 2h16l8-3 5-6v-6l-4-6-10-5z" fill="#363636"/>
<path transform="translate(557,124)" d="m0 0h138v1l-34 1-101 1v25l135 1v1l-135 1-1 13-2 1z" fill="#1A1A1A"/>
<path transform="translate(1354,124)" d="m0 0h258l1 3-224-1-35-1z" fill="#1C1C1C"/>
<path transform="translate(235,971)" d="m0 0 9 1 5 4 1 3v11l-4 5-4 2h-7l-5-4-4-9 1-7 5-5z" fill="#FEFEFE"/>
<path transform="translate(1635,800)" d="m0 0h1l2 116-2 1-1-5v-8l-25 3-19 1 3-4-3-1-3-2v-5l4-1 24 4 18 1z" fill="#585858"/>
<path transform="translate(236,877)" d="m0 0 9 2 5 6 1 9-3 5-6 4-9-1-5-6-2-6 1-7 6-5z" fill="#FEFEFE"/>
<path transform="translate(741,799)" d="m0 0 2 1v30l1 6 7 1 1 2-10 2-12 1h-125v3h-5v-2h-20l-4-3 11-1 8-2h9v-2l-3-1h4v6l136-1z" fill="#646464"/>
<path transform="translate(1091,125)" d="m0 0 3 1v2l-10 4-7 6-5 10-1 3-1 12-1 172h-1l-1 5h-1v-174l1-15 4-10 7-8 8-6z" fill="#5E5E5E"/>
<path transform="translate(1799,410)" d="m0 0h18l9 4 5 6 1 3v9l-3 5-6 4-7 2h-20l-9-6-3-4-1-10 5-8 7-4zm3 4-9 3-5 5-1 7 3 5 5 4 7 2h12l8-3 5-4 1-2v-7l-4-6-5-3-5-1z" fill="#313131"/>
<path transform="translate(444,967)" d="m0 0h20l8 4 5 6 2 9-3 6-7 6-8 3h-17l-8-4-5-6-2-4v-8l4-6 8-5zm2 4-8 3-5 6v7l7 8 4 2 6 1h8l9-3 6-5 1-2v-7l-3-5-5-4-3-1z" fill="#373737"/>
<path transform="translate(1913,448)" d="m0 0 5 1 1 32-4-2-10-9-11-11-9-5-7 1-3 3-1 9 4 6 8 5v2h-6l-6-4-5-6-1-2v-8l5-8 6-3 9 1 9 6 16 16h1l-1-5z" fill="#373737"/>
<path transform="translate(744,202)" d="m0 0h22l1 1v19l-3 1h-17l-3-1z" fill="#FEFEFE"/>
<path transform="translate(733,873)" d="m0 0h19l8 4 5 6 1 2v10l-4 6-8 5-8 2h-10l-9-3-7-7-2-5v-7l5-8zm2 4-8 3-5 5v9l4 6 11 4h12l8-4 5-5v-8l-3-5-5-4-4-1z" fill="#363636"/>
<path transform="translate(1895,360)" d="m0 0h9l5 3 5 6v7l-6 7-2 1h-7l-7-3-2-4v-9l3-7z" fill="#FEFEFE"/>
<path transform="translate(1799,316)" d="m0 0h19l10 6 4 7v10l-5 6-6 3-5 1h-20l-9-6-3-4-1-3v-7l4-7 6-4zm2 4-10 4-4 5v7l4 6 5 3 5 1h12l10-3 5-5v-8l-4-6-5-3-4-1z" fill="#343434"/>
<path transform="translate(1224,279)" d="m0 0 1 3-2 4-8 9-13 18-11 19-8 19-6 20-4 22-1 14h-3l-1-8 3-20 5-20 9-24 9-17 12-18 13-16z" fill="#676767"/>
<path transform="translate(1830,446)" d="m0 0h2v35l-4-2-19-19-8-6-7 1-5 5-1 6 3 6 8 5-1 4-6-2-6-5-2-3-1-9 3-7 6-5 4-2h5l9 7 17 17 1-23z" fill="#373737"/>
<path transform="translate(745,87)" d="m0 0 13 1 3 1 1-2 4 1 4 5v2l-20 2 19 2 1 2h-5l1 6v10l-3 1-13-1-1-1v-9l2 4v2h4l-1-7-2 4v-5l1-1-4-1v-2h-2l-2-6z" fill="#F9F9F9"/>
<path transform="translate(743,309)" d="m0 0h1v5l4 1-2 1 2 4 9 1 2 2v7l-2 2 1 1v13l-2 1h-13v12h-1v-40z" fill="#6C6C6C"/>
<path transform="translate(1040,390)" d="m0 0 7 1 8 7 5 8-3 2h-34l2-7 8-8z" fill="#FEFEFE"/>
<path transform="translate(112,299)" d="m0 0h14l10 4 6 8 1 3v8l-6 7-11 4h-19l-8-6-4-4-1-3v-8l4-6 5-4zm2 4-10 3-6 5v10l4 5 9 4h12l10-3 6-5v-8l-4-6-6-4-5-1z" fill="#353535"/>
<path transform="translate(976,430)" d="m0 0h1l2 7h1l-1 213h-1l-1-138-1-1-1-9v-57z" fill="#797979"/>
<path transform="translate(473,911)" d="m0 0h4l1 15v18l-5-3-21-21-7-3-6 1-4 5-1 2v6l5 6 8 5-1 2-6-1-9-8-3-9 5-10 7-4h7l8 5 17 17 1 2z" fill="#333"/>
<path transform="translate(1031,411)" d="m0 0h30l-3 5-8 8-8 4h-6l-6-4-8-9v-3z" fill="#FEFEFE"/>
<path transform="translate(1659,391)" d="m0 0h10l8 6 5 8 2 2-9 1h-26l-1-1v-6l5-6z" fill="#FEFEFE"/>
<path transform="translate(1351,410)" d="m0 0h105v1h-103l1 109h-4v-109z" fill="#5C5C5C"/>
<path transform="translate(396,275)" d="m0 0h1l1 114 2 3v94h-1l-1-46-1 90h-1z" fill="#797979"/>
<path transform="translate(1663,355)" d="m0 0 5 2 16 9 20 12 5 5 1 4v19h-2l-1-15-3-8-13-8-20-12-6-3-6 2-35 20-3 1v25h-5l1-25 10-7 18-10z" fill="#404040"/>
<path transform="translate(1654,411)" d="m0 0h27l1 3-5 8-8 6h-7l-8-4-7-8v-4z" fill="#FEFEFE"/>
<path transform="translate(1658,691)" d="m0 0h19l9 7 6 7 5 10 1 8-5 12-9 10-8 6-7 3h-8l-12-5-12-8v19h-1l-1-21-2-5v-6h1l1-11h1l3 22 4 2 10 6 11 3 9-1 9-6 7-8 4-9 1-7-4-10-10-13-4-2-20-1z" fill="#414141"/>
<path transform="translate(1190,782)" d="m0 0h43l17 1 54 1v1l-143 1h-66v-1l7-1z" fill="#232323"/>
<path transform="translate(1442,251)" d="m0 0 9 5 11 8 14 12 15 15 11 14 9 15 8 16 7 17v4l-3 1-8-21-8-16-7-12-9-12-11-12-8-8-11-9-16-11-2-2 1-1-2-1z" fill="#4B4B4B"/>
<path transform="translate(1391,927)" d="m0 0h11l3 1v3l-18 1-2 5-1 6 14 2 4 4 2 5v12l-6 7-7 3-8-1-7-6-5-8 5 1 6 7 7 3 7-3 4-6v-8l-4-6h-17l-2 4-1-2 4-9 2-13 1-1z" fill="#3E3E3E"/>
<path transform="translate(233,967)" d="m0 0h10l6 3 5 6 1 3v9l-3 6-6 5-5 2h-7l-6-4-5-6-1-3v-8l4-8 4-4zm2 4-6 3-3 6 1 7 4 7 4 3h7l6-4 2-3v-11l-3-5-7-3z" fill="#4B4B4B"/>
<path transform="translate(1504,284)" d="m0 0 4 1 8 11 10 16 9 17 7 19 1 6-4 1-1 2-8-24-9-19-12-19-6-7z" fill="#303030"/>
<path transform="translate(754,558)" d="m0 0h2l2 7 1 4 1 2-1 4h2l2 5h-5l1 3-1 13-3 3h-3l-1-25-7-1v26h-2v-27l1-9 1 3 5-2 2 1v-6z" fill="#454545"/>
<path transform="translate(1250,783)" d="m0 0h78l22 1 3 2v21h-3v-20l-189-1v-1l89-1z" fill="#474747"/>
<path transform="translate(1328,228)" d="m0 0h19v1l-34 6-21 6-23 10-11 6-12 8-16 13-4 4-2-1 3-5 10-9 21-14 19-10 21-8 19-5z" fill="#3A3A3A"/>
<path transform="translate(234,873)" d="m0 0h8l8 4 5 8v11l-4 6-8 4h-8l-8-4-4-5-1-14 9-9zm2 4-6 3-4 5 1 8 3 6 3 3 9 1 6-4 3-5-1-9-5-6z" fill="#515151"/>
<path transform="translate(1e3 410)" d="m0 0h13l15 1v1h-9l4 7 8 7 2 1 9-1 8-6 7-8 1-2h3l1 4-5 8-9 9-7 4-9-1-9-7-7-8-2-4v-3l-14-1z" fill="#595959"/>
<path transform="translate(1327,952)" d="m0 0h9l8 4 2 4-1 7-4 4-3 1h-7l-5-3-3-4v-8l2-4z" fill="#FEFEFE"/>
<path transform="translate(758,287)" d="m0 0 5 1-1 43-2 14h-1l-1-11-3-2 3-2v-7l-1-1-12-1 2-2-2-4h15l-3-7-12-2v-4l15-1v-8h-17l2-5z" fill="#666"/>
<path transform="translate(1294,927)" d="m0 0h10l6 5 2 4v10l-6 9-8 8-7 6v2h23l-2 4h-33l1-3 6-3 5-4 14-14 3-5v-9l-5-5-8-1-6 4-5 7h-3l1-5 6-7z" fill="#353535"/>
<path transform="translate(458,598)" d="m0 0h28l6 1 65 1v5l-65 1-1-1v-5h-34z" fill="#4C4C4C"/>
<path transform="translate(1727,97)" d="m0 0 3 1 1 12v13h17v1l-17 1v138h-1l-1-109h-1v-29h-46l3-3 43 1-1-13z" fill="#4B4B4B"/>
<path transform="translate(397,226)" d="m0 0h1v22h8v1l-5 1-1 44-1 96-2-1z" fill="#3A3A3A"/>
<path transform="translate(565,915)" d="m0 0 5 2 4 6 1 10-5 5-2 1h-8l-4-3v-11l4-7z" fill="#FEFEFE"/>
<path transform="translate(1748,123)" d="m0 0h115v2h-13v19h-1l-1-5-1 24-4-1 1-2 2-35h-113v-1z" fill="#5A5A5A"/>
<path transform="translate(745,515)" d="m0 0 10 1 3 2v8 2 9l-1 8h-11l-1-1v-16-2z" fill="#FEFEFE"/>
<path transform="translate(1491,525)" d="m0 0 1 3-20 20-13 10-16 10-16 8-15 6-18 5-10 1 2-3 23-6 16-6 16-8 16-10 10-8 10-9 12-12z" fill="#3A3A3A"/>
<path transform="translate(1433,844)" d="m0 0 6 2 4 11v13l-3 8-5 6-5 3-7 1-7-3-7-9-2-5 1-6h2l1-3 3 11 5 8 4 2 6-1 5-4 3-7v-16l-4-8z" fill="#4A4A4A"/>
<path transform="translate(564,971)" d="m0 0 6 1 4 6 1 7-2 5-5 4h-9l-4-5 2-11 5-6z" fill="#FEFEFE"/>
<path transform="translate(982,748)" d="m0 0 3 1 7 10 6 7 14 10 11 4 23 4h28l13-1h60v1l-45 1-7 1h-61l-17-4-10-5-14-11-10-13z" fill="#3F3F3F"/>
<path transform="translate(145,607)" d="m0 0h15l2 3 2 36 4 2v4l-2 1h-13l-2-1v-4l5-1v-15l1-21 1-2h-11z" fill="#434343"/>
<path transform="translate(1902,414)" d="m0 0 6 1 5 6 1 7-2 5-4 4h-8l-7-6 2-7 5-8z" fill="#FEFEFE"/>
<path transform="translate(1448,236)" d="m0 0 6 2 17 12 11 9 12 11 11 11 1 3-4 2-14-15-11-10-18-13-14-8 1-3z" fill="#323232"/>
<path transform="translate(1936,36)" d="m0 0h1l1 21v16h2v6l-2 1-1 3-1 11-1 24h-1v-37l-6-1 1-5 1-19 2-14 2 4 1 1z" fill="#5E5E5E"/>
<path transform="translate(1350,304)" d="m0 0 4 1-1 102 3 1-5 1-2-2z" fill="#5A5A5A"/>
<path transform="translate(1647,344)" d="m0 0h25l16 5 9 5 10 8 10 11 8 15 2 6v11h-2l-1-2-2-12-8-16-9-10-8-7-16-8-9-2-38-1 2-2z" fill="#313131"/>
<path transform="translate(159,122)" d="m0 0h2v43l7 2-1 3-4 1 1 4-2 26-4 1-1-7-1-21-1-3-5-2 1-3 8-1z" fill="#464646"/>
<path transform="translate(758,144)" d="m0 0 2 1 1 2v7h11l1 4v14l-1 2-6-2-2-2 2-4v-7l-5 1-1 3 1 4h2l-1 4h-5v-9l-2 8h-2v2h-7l-2-6v-6h2v2l3 1 1 7h2l-1-5 4-1-1-7h-7v-1l11-1z" fill="#676767"/>
<path transform="translate(994,386)" d="m0 0h3l-1 17v5l19-1 8-13 5-5 8-1 1 4-6 4-6 7-2 5 34-1 4-1v2l-3 1h-78v-16h1v15h10l1-16z" fill="#5E5E5E"/>
<path transform="translate(455,835)" d="m0 0 1 4 21-2 1-1 7-1h15v4l-24 2h26l-1 7-8-1-19-1-1-2-12-1-3-2-4-2z" fill="#5F5F5F"/>
<path transform="translate(749,236)" d="m0 0h13l1 1v20h-14l-1-1v-19z" fill="#FEFEFE"/>
<path transform="translate(398,431)" d="m0 0h1v120h-2v56h-1v-77l1-90z" fill="#4B4B4B"/>
<path transform="translate(1524,357)" d="m0 0h3l4 15 2 12 1 24h9l1 3-9 1-1 15-3-2v-13h-30l1-4h29l-2-25-5-21z" fill="#424242"/>
<path transform="translate(1642,74)" d="m0 0 1 3-6 10-1 5v8l2 11 6 9 6 3 4 1 15 1 3 4-6 2v-2l-3 1h-7l-9-4-28-1v-2l23-1-6-7-4-10v-15l4-9z" fill="#575757"/>
<path transform="translate(744,200)" d="m0 0h25v25l-25-1v8h25l-2 1v3h-2v2l-3-1h-15l-1 18 1 1-3 4h-2v-37l25-1-1-21h-22z" fill="#5A5A5A"/>
<path transform="translate(279,835)" d="m0 0 1 4 28 1 6 1v1h-34v5l-29-1-1-6 18-2 2-1h9z" fill="#808080"/>
<path transform="translate(1683,35)" d="m0 0 4 1-1 1 15 8 10 9 7 8 8 16 3 13v6h-3l-3-15-5-12-7-11-8-8-13-8-7-5-66-1v-1z" fill="#3C3C3C"/>
<path transform="translate(756,554)" d="m0 0 8 1 3 2-1 35-3 1-5-1v-12l4-1-1-4h-2v-5l-2-2z" fill="#FEFEFE"/>
<path transform="translate(745,474)" d="m0 0 19 4 3 2v30l-4 1 4 2v6l-4 1-2-2v-35l-6-2-6-1v-2l-4-1z" fill="#FEFEFE"/>
<path transform="translate(1039,356)" d="m0 0 5 1 28 16 6 4v3l-5-2-24-14-6-3-6 1-14 7-20 12-7 6-1-3 8-7 21-13z" fill="#424242"/>
<path transform="translate(1188,520)" d="m0 0 5 5 6 8v2l4 2 9 10-2-4 4 1 14 14 14 11 5 4-1 2-4-2h-4l-10-8-12-11-13-12-11-13-4-6z" fill="#313131"/>
<path transform="translate(697,725)" d="m0 0h1v58l15-1h29v-21l1-5h1l1 29-1 1h-47z" fill="#353535"/>
<path transform="translate(397,551)" d="m0 0h2l1 15 1 1 28 1v1l-29 1-1 40h-128v-1h127l-1-3z" fill="#404040"/>
<path transform="translate(121,480)" d="m0 0 10 2 8 7 3 6 2 14 2 3-5 1-8 7-7 3h-14l-6-4-6-7-4-8-2-10-2-4 5 2v2l5-6 10-6zm-3 2-9 3-6 5-1 3v1l-4 1-1 1 1 8 5 9 4 5 5 3 11 1 10-4 6-6-1-3 3-1v-8l-3-9-4-5-8-4z" fill="#555"/>
<path transform="translate(1067,167)" d="m0 0h1l1 168 1 12-2 1-29-2 1-2h27z" fill="#1A1A1A"/>
<path transform="translate(434,1013)" d="m0 0h44l2 2-3 3h-27l-16-1 1 5-1 2-5-1v-9z" fill="#1A1A1A"/>
<path transform="translate(218,1013)" d="m0 0h37l2 2-1 2-5 1-40 1-1 4-4 1v-10z" fill="#484848"/>
<path transform="translate(757,482)" d="m0 0 5 1-1 35-6-1-10-2v9h-1l-1-15 7 3 6 1 1-15h-13v-6l13 2z" fill="#5F5F5F"/>
<path transform="translate(1727,756)" d="m0 0h1l1 28 184 1v1l-184 1-1 25h-1v-26h-14v-1h14z" fill="#3B3B3B"/>
<path transform="translate(745,664)" d="m0 0h33v42h-1v-41l-2 1v2l-2 2v1h-25l-1 3-1-2h-2l-1 2v-9z" fill="#454545"/>
<path transform="translate(95,445)" d="m0 0h48l1 2-2 3h-44v5l-3 1z" fill="#3E3E3E"/>
<path transform="translate(743,515)" d="m0 0h1l1 9 2 4h-2l1 16 10 1v1h-10v4l7 1v7l-2 7-7 1-1 6h-1v-48z" fill="#5B5B5B"/>
<path transform="translate(1936,741)" d="m0 0h3l-1 3 1 6-1 1-1 33h9v2h-33l-132-1v-1l154-1z" fill="#797979"/>
<path transform="translate(745,67)" d="m0 0 8 1 7 8 8 7 2 3h-9l-6-2-10-1z" fill="#FBFBFB"/>
<path transform="translate(1350,39)" d="m0 0h3v84h-3z" fill="#2F2F2F"/>
<path transform="translate(994,452)" d="m0 0 6 3 10 7 10 5 12 3h38v5l-1-4-5 1 2 2h-34l-15-4-11-6-12-9z" fill="#414141"/>
<path transform="translate(1158,406)" d="m0 0 26 1 2 1-1 3-13 1 2 21 3 15-1 4-2 1-5-23-1-8v-12l-2 1h-6v-2l-2-1z" fill="#535353"/>
<path transform="translate(1031,67)" d="m0 0h5v1l11 1v1l-15 1-8 4-8 9-4 10v8l3 10 2 5-4-1-5-8-1-3v-11l4-11 7-9 10-6z" fill="#636363"/>
<path transform="translate(1260,233)" d="m0 0h2l2 4-14 8-12 8-16 13-4 4-3-1 6-7 7-8 15-11z" fill="#2D2D2D"/>
<path transform="translate(113,337)" d="m0 0h9l10 3 1 3 5 5-1 3-5-5-7-3h-12l-11 4-3 4v10l-5-1v-11l5-6 10-5z" fill="#3F3F3F"/>
<path transform="translate(752,450)" d="m0 0h32l-2 2 6 1v1h-28v7h-1v-7l-4 2-1 10-3 2-5-1-1-1 1-13 8-1z" fill="#606060"/>
<path transform="translate(1352,609)" d="m0 0h1v82l-4 1 1-79z" fill="#5B5B5B"/>
<path transform="translate(697,34)" d="m0 0h48l-1 21h-1l-2-17-43-1v58h-1z" fill="#3F3F3F"/>
<path transform="translate(400,409)" d="m0 0h33l-1 89h-1l-1-11-1-75-29-1z" fill="#353535"/>
<path transform="translate(1851,665)" d="m0 0h1v16l-1 10h12v2l-132-1v-1h115v-8l2-7 2 1z" fill="#797979"/>
<path transform="translate(745,411)" d="m0 0h3l1 38 6 3v1h-10v2h-2v-42z" fill="#434343"/>
<path transform="translate(429,887)" d="m0 0h50l-1 4-44 1-1 4-3 1-2-6z" fill="#515151"/>
<path transform="translate(747,136)" d="m0 0 5 1 5 5 1 2v11l-2 1h-10l-1-1v-15z" fill="#FEFEFE"/>
<path transform="translate(1889,315)" d="m0 0h8l9 2 6 4 5 6 2 4v6l-4 6-6 4h-5l4-2v-3l5-4v-7l-4-6-4-3-8-2-9-1z" fill="#4B4B4B"/>
<path transform="translate(747,172)" d="m0 0h7l1 1 9 1h17l-1 5-7 3-16 1h-4l-2-6-2-1v-2h-2z" fill="#424242"/>
<path transform="translate(1399,901)" d="m0 0h192l3 3-1 3-5 1-1-5-188-1z" fill="#3E3E3E"/>
<path transform="translate(746,630)" d="m0 0 10 3 1 19-1 1-10-1z" fill="#FEFEFE"/>
<path transform="translate(531,887)" d="m0 0h49l-1 3-2 1h-43v6l-3 1z" fill="#313131"/>
<path transform="translate(1177,498)" d="m0 0h3l8 14 12 17 12 13v3l2 3-4-2-9-10-5-5-7-10-2 1-3-5-3-9-4-7z" fill="#3C3C3C"/>
<path transform="translate(1646,406)" d="m0 0 3 1 38 1-3 2-2 1h-62v19h-2l-1 3v-6h2l-1-17 3-2h25z" fill="#464646"/>
<path transform="translate(779,98)" d="m0 0 3 1v75l-3 1v-35h-2v-2h2l-1-8z" fill="#575757"/>
<path transform="translate(439,969)" d="m0 0 3 1v3l-6 4-2 3v7l6 7 4 2 6 1h12l-2 2 1 2h-17l-8-4-5-6-2-4v-8l4-6z" fill="#3B3B3B"/>
<path transform="translate(1226,540)" d="m0 0 4 1 13 11 17 11 19 10 6 2v2l11 3v1l-9-1-17-7-17-10-11-8-11-9-5-4z" fill="#3F3F3F"/>
<path transform="translate(758,517)" d="m0 0 10 3v20h-1l-1-9 1-9-6-1v21l1 6h-6l5 2v2h-8l-7-1-1-3 1-2 10-1 2-17h-9v-1l8-1z" fill="#5A5A5A"/>
<path transform="translate(1430,930)" d="m0 0 5 2 4 2 4 10v14l-3 8-6 7-3-4 4-5 2-5v-16l-4-8-5-4z" fill="#4B4B4B"/>
<path transform="translate(768,518)" d="m0 0h1v24h-6v4h4l-1 5-8-1-3-2 4-1 3 1-2-6v-11l1-10 6 1v11z" fill="#8B8B8B"/>
<path transform="translate(122,402)" d="m0 0h6l1 2-1 14-2 1-16-12-4-4z" fill="#FEFEFE"/>
<path transform="translate(1181,345)" d="m0 0 2 3-2 9-5 19-3 17-1 14h-3l-1-8 3-20 5-20z" fill="#6A6A6A"/>
<path transform="translate(1352,776)" d="m0 0h1v6l57 1v1l5 1v1l-62 1-3-2-22-1v-1l21-1 1-5z" fill="#585858"/>
<path transform="translate(1352,691)" d="m0 0h2l-1 5-2 3-2-5-174-1v-1z" fill="#2D2D2D"/>
<path transform="translate(744,610)" d="m0 0h1l1 14 1 1 12 1v3l-6 2h-6v21l2 1v6l-7-1 1-35z" fill="#5F5F5F"/>
<path transform="translate(745,87)" d="m0 0 13 1 3 1 1-2 4 1 4 5v2l-20 2 2 1v2l-5 1-2-6z" fill="#FBFBFB"/>
<path transform="translate(765,101)" d="m0 0h7l1 2v12l-1 7h-6l-5-2h-12l1-4 15 1z" fill="#5F5F5F"/>
<path transform="translate(1681,468)" d="m0 0 4 1v2l-13 3-26 1-11 1-1-5 13-1 30-1z" fill="#4E4E4E"/>
<path transform="translate(213,876)" d="m0 0h7l2 5h-8l-2 4v10l2 3 9 2v2l-5 2-6-1-5-5-1-2v-10l4-8z" fill="#535353"/>
<path transform="translate(1382,842)" d="m0 0 2 2-3 1-4 10v16l5 10-3 3-6-8-2-6v-14l4-10h3z" fill="#4A4A4A"/>
<path transform="translate(1068,737)" d="m0 0h1v45h33v1l-28 2h-28l-12-2v-1h33z" fill="#6B6B6B"/>
<path transform="translate(440,912)" d="m0 0h7l4 3-3 1-4-1-2 2-5 3-3 5v6l5 6 8 5-1 2-6-1-9-8-3-9 5-10z" fill="#4A4A4A"/>
<path transform="translate(726,876)" d="m0 0 2 1-1 2 2 1-5 2-1 3v9l3 5 11 4 11 1-3 2 1 2h-10l-9-3-7-7-2-5v-7l5-8z" fill="#3E3E3E"/>
<path transform="translate(397,389)" d="m0 0 3 3v94h-1l-1-46h-1z" fill="#686868"/>
<path transform="translate(1419,839)" d="m0 0h11l6 3 2 5-5-2-10-2-5 3-6 9-2 10h-2v2h-2v-9l4-10 4-6z" fill="#323232"/>
<path transform="translate(1640,411)" d="m0 0h14v1h-7l3 7 7 6 5 2-2 2 1 2 6 1v3h-7l-8-5-9-10z" fill="#777"/>
<path transform="translate(1686,984)" d="m0 0h13l14 1v1l-9 1 14 1v1l-12 1-1 2-13 1-1 2-6-1v-3h-2v-6z" fill="#5D5D5D"/>
<path transform="translate(1348,849)" d="m0 0 2 3 1 7v8l-3 11-5 6-6 3h-9v-1l6-1v-2l6-3 4-6 1-4v-19h3z" fill="#515151"/>
<path transform="translate(1038,385)" d="m0 0h7l6 3 7 6 6 10-1 3-4-1-6-9-6-5-7-1h-5v-2l-5 1v-2z" fill="#424242"/>
<path transform="translate(1033,688)" d="m0 0 4 1-3 1 1 2-11 4-6 5-6 12v11l2 10h-4l-3-7v-10l4-12 9-10 8-5z" fill="#474747"/>
<path transform="translate(1876,450)" d="m0 0 9 2-4 2-5 3-2 4v6l4 6 8 5v2h-6l-6-4-5-6-1-2v-8l5-8z" fill="#4B4B4B"/>
<path transform="translate(1350,126)" d="m0 0 3 1v83l-1 1h-13v-1l11-1z" fill="#595959"/>
<path transform="translate(212,970)" d="m0 0h8l2 3-10 2v14l3 3 6 1v3l-6 2-6-3-3-6v-8l3-8z" fill="#4C4C4C"/>
<path transform="translate(746,608)" d="m0 0 10 1 1 16-3 1h-7l-2-2z" fill="#FEFEFE"/>
<path transform="translate(745,191)" d="m0 0h21l1 8h-23v-7z" fill="#FEFEFE"/>
<path transform="translate(979,412)" d="m0 0h1l3 21 7 11 8 9-4 1-6-5-8-13-2 2-2-8v-9h1l1-8z" fill="#464646"/>
<path transform="translate(1730,110)" d="m0 0h1v13h17v1l-17 1v138h-1l-1-140z" fill="#797979"/>
<path transform="translate(1067,885)" d="m0 0h1v16l10-1h15v1l16-1-4 3-7 1v2h-12l-19-1z" fill="#585858"/>
<path transform="translate(744,225)" d="m0 0h23l2 1v5l-6 1h-19z" fill="#FEFEFE"/>
<path transform="translate(1410,862)" d="m0 0h1l3 11 5 8 4 2 6-1 4-3 2 1-2 5-7 3-9-2-6-7-4-8 1-6h2z" fill="#464646"/>
<path transform="translate(745,573)" d="m0 0h6v27l-5 1-1-1z" fill="#FEFEFE"/>
<path transform="translate(250,932)" d="m0 0h4l-1 5-6 5-7 3-7 1h-10l-9-3-1-3h7l3 1h13l11-4z" fill="#353535"/>
<path transform="translate(1791,413)" d="m0 0 2 1-1 5-3 3-1 7 3 5 6 4 16 2v1l-8 1v1h-9l-9-6-3-4-1-10 5-8z" fill="#3B3B3B"/>
<path transform="translate(765,236)" d="m0 0 1 4v19l2 1h-20l-3-2-1-1v-18l2 2 2-4 1 19 14 1v-19h2z" fill="#656565"/>
<path transform="translate(225,974)" d="m0 0h2v10l4 9 4 3h7l4-1v3l-2 2-3 1h-7l-6-4-5-6-1-3v-8z" fill="#434343"/>
<path transform="translate(1661,387)" d="m0 0 2 1-1 1 6 1v1l-9 1-8 6-2 3-1 6-2 1h-7l4-10 7-8 5-2z" fill="#5B5B5B"/>
<path transform="translate(994,431)" d="m0 0 3 1 4 5 25 15 10 5h10l2 2-6 3-6-1-19-10-21-14-2-3z" fill="#4F4F4F"/>
<path transform="translate(1437,567)" d="m0 0 2 1-1 3-20 9-19 6-9 2h-6l2-3 23-6 16-6z" fill="#3E3E3E"/>
<path transform="translate(746,499)" d="m0 0h11v15l-11-2-1-1v-10z" fill="#FEFEFE"/>
<path transform="translate(530,917)" d="m0 0 4 2 10 9 8 7h2l1-7h1l1 8 3 2 8 1 1 3h-10l-7-3-9-6-11-10z" fill="#3B3B3B"/>
<path transform="translate(455,547)" d="m0 0h1l1 32v12l1 8-3 3-2-1 1-21h-23l1-4v2l22-1v-16z" fill="#242424"/>
<path transform="translate(159,122)" d="m0 0h2v43l7 2-1 3h-6l-1 2v-2l-3 1-7-2 1-3 8-1z" fill="#535353"/>
<path transform="translate(1347,955)" d="m0 0 2 2 1 8-3 5-5 4-6 2h-6l-8-6-2-4v-5l3-2 2 8 3 3 3 1h7l5-3 3-8z" fill="#3B3B3B"/>
<path transform="translate(1618,430)" d="m0 0 3 1 3 5 14 9 21 12 8 2-3 3-7-2-24-14-14-9z" fill="#3B3B3B"/>
<path transform="translate(743,374)" d="m0 0h1l1 16 2 2 1 15 1 1 32 1v1l-27 1-10 1-3-4z" fill="#383838"/>
<path transform="translate(1654,67)" d="m0 0h18l8 3 9 8 3 4v2l-3 1-6-8-7-5-4-1h-18l-8 4-3 1 1-4z" fill="#3C3C3C"/>
<path transform="translate(1036,67)" d="m0 0h13l10 5 7 6 6 10 2 5v12h-2l-3-14-4-8-5-6-8-5-5-2-15-1z" fill="#464646"/>
<path transform="translate(1660,385)" d="m0 0h7l8 4 7 6 3 5-1 5h-3l-6-9-7-5-7-1v-2l-6 1v-2z" fill="#383838"/>
<path transform="translate(1032,344)" d="m0 0h8v1l17 1v1l-25 1-13 4-12 6-10 8-3-1 5-5 8-6 14-7z" fill="#3A3A3A"/>
<path transform="translate(742,666)" d="m0 0h1l1 6 4 1v40h-1l-1-23h-2l-1 30h-1z" fill="#646464"/>
<path transform="translate(519,384)" d="m0 0 2 4 1 19-4 2h-62l1-3v2h59v-14l2-4z" fill="#5C5C5C"/>
<path transform="translate(744,106)" d="m0 0h2l1 5v11l1 2 2-2 1 7h5l-3 4 2 1-1 3-8-1v-3l-3 1v-10l1-7z" fill="#434343"/>
<path transform="translate(1504,312)" d="m0 0 3 1 8 14 10 23 1 7-3 1-8-21-11-22z" fill="#424242"/>
<path transform="translate(746,334)" d="m0 0h12v12l-2 1h-9l-1-1z" fill="#FEFEFE"/>
<path transform="translate(366,211)" d="m0 0h33v37h-1l-2-35h-67v-1z" fill="#232323"/>
<path transform="translate(1328,839)" d="m0 0h11l5 3 4 5v4h-4l-4-6-2-1h-9l-5 5-2 4h-3l1-6 4-6z" fill="#343434"/>
<path transform="translate(401,840)" d="m0 0h57l5 1v1h-7v15h-2v-15h-54z" fill="#626262"/>
<path transform="translate(1402,957)" d="m0 0h1v11l-7 6-5 2-8-1-7-6-5-8 5 1 6 7 7 3 7-3 5-8z" fill="#3C3C3C"/>
<path transform="translate(1783,329)" d="m0 0 4 1 2 8 5 5 7 2h17l-3 2 1 2h-20l-9-6-3-4-1-3z" fill="#434343"/>
<path transform="translate(1087,783)" d="m0 0h60v1l-45 1-7 1h-52l-3-2h34z" fill="#3E3E3E"/>
<path transform="translate(1011,733)" d="m0 0 4 1 5 8 10 6 7 2h8l9-4h3l-1 3-11 5h-9l-10-4-9-7-6-7z" fill="#4E4E4E"/>
<path transform="translate(769,231)" d="m0 0h1l1 33-5 2-1 2v-8l1-1-1-9v-10l2-7h2z" fill="#787878"/>
<path transform="translate(1701,359)" d="m0 0 4 1 8 8 7 10 5 10 2 6v11h-2l-1-2-2-12-8-16-9-10-4-4z" fill="#414141"/>
<path transform="translate(1443,294)" d="m0 0h2l1 2h5l13 13 4 5v2l-3 1-5-3-9-10-9-7z" fill="#3D3D3D"/>
<path transform="translate(1683,35)" d="m0 0 4 1-1 1 15 8 7 6-3 2-8-6-13-8-1-1-66-1v-1z" fill="#494949"/>
<path transform="translate(1285,576)" d="m0 0 9 2 21 6 18 3 17 1v1l-22 1-17-3-18-5v-2l-8-3z" fill="#4B4B4B"/>
<path transform="translate(697,411)" d="m0 0 2 3v56h-3v-34z" fill="#3D3D3D"/>
<path transform="translate(1094,124)" d="m0 0h124v1l-112 1-13 1z" fill="#1E1E1E"/>
<path transform="translate(130,391)" d="m0 0h1v7l13 1-1 3-2 1h-9l-1 6h-2l-1-6-22-1 1-2 22-2z" fill="#2E2E2E"/>
<path transform="translate(745,315)" d="m0 0h16l1 16-2 14h-1l-1-11-3-2 3-2v-7l-1-1-12-1 2-2z" fill="#464646"/>
<path transform="translate(1420,927)" d="m0 0h10l5 3 3 3-1 2-5-4-12 1-4 4-3 6-3 9h-1v-11l4-8 4-4z" fill="#373737"/>
<path transform="translate(752,321)" d="m0 0h5l2 2v7l-2 2h-12v-10z" fill="#FEFEFE"/>
<path transform="translate(1720,436)" d="m0 0 1 4-8 11-6 7-11 8-8 4-4-1 1-2 14-7 13-13z" fill="#3A3A3A"/>
<path transform="translate(1069,654)" d="m0 0h1l1 16 4 7 9 9 7 4 20 1v1l-22 1-7-4-10-10-1-4h-2l-2-4v-6h1z" fill="#3A3A3A"/>
<path transform="translate(160,565)" d="m0 0h1l1 41 60 1-1 2h-23l-36-1-1 2-4-4h2z" fill="#787878"/>
<path transform="translate(747,480)" d="m0 0 1 2 9 1 1 4-1 7h-10l-2-2v-7z" fill="#FEFEFE"/>
<path transform="translate(975,908)" d="m0 0h1l1 56v23h6l2 1h13v1l-11 1h-12z" fill="#797979"/>
<path transform="translate(1866,415)" d="m0 0 5 2 12 9 5 4v2l6 1 7 4 6 1v1h-12l-15-10-9-7-5-5z" fill="#424242"/>
<path transform="translate(1721,745)" d="m0 0h2l-1 5-7 11-9 10-14 9-4 2h-5l3-3 12-6 12-11 10-15z" fill="#454545"/>
<path transform="translate(601,834)" d="m0 0h4l1 8-1 3h-5v-2h-20l-4-3 11-1 8-2h9v-2z" fill="#777"/>
<path transform="translate(995,985)" d="m0 0h8l6 2-3 2 3 2-33 2-1 4v-7l10-1h-8v-1l9-2z" fill="#5C5C5C"/>
<path transform="translate(1635,717)" d="m0 0h1l3 22 4 2 11 7 1 2-6-1-12-8v19h-1l-1-21-2-5v-6h1z" fill="#3F3F3F"/>
<path transform="translate(1199,504)" d="m0 0 4 4 9 13 9 11 7 7-3 2-9-9-11-14-8-11v-2z" fill="#595959"/>
<path transform="translate(744,573)" d="m0 0h1l1 28-1 6 3 1h-2v13l-2 2-1 31h-1v-55h2z" fill="#717171"/>
<path transform="translate(994,386)" d="m0 0h3l-1 17v5l19-1 2-1-1 3h-36v-16h1v15h10l1-16z" fill="#757575"/>
<path transform="translate(563,967)" d="m0 0h7l6 5 1 4-2 8h-1l-2-8-4-4-6 1-4 5-2 3-1-2-2 3 1-6 4-6z" fill="#484848"/>
<path transform="translate(1589,895)" d="m0 0 16 2 11 2 1 2-3 1h-23l-3-1v-5z" fill="#797979"/>
<path transform="translate(741,471)" d="m0 0h1v7h2l1-4v3l8 1 2 2 5 1-3 2-9-1-1 1-2 9-2 6h-2z" fill="#757575"/>
<path transform="translate(162,627)" d="m0 0h1l1 19 4 2v4l-2 1h-13l-2-1v-4l5-1v-15h1v15l4 1z" fill="#565656"/>
<path transform="translate(1789,452)" d="m0 0 2 1-3 4v9l3 6 8 5-1 4-6-2-6-5-2-3-1-9 3-7z" fill="#343434"/>
<path transform="translate(746,175)" d="m0 0 5 1 3 7 3-1h11v3l-1 1h-22v-10z" fill="#FEFEFE"/>
<path transform="translate(576,976)" d="m0 0h2l1 7-2 8-5 5-9 2-10-3 1-3 5 1h9l5-4z" fill="#373737"/>
<path transform="translate(434,1013)" d="m0 0h44l2 2-3 3h-27v-1l5-1v-1l-21-1z" fill="#535353"/>
<path transform="translate(756,454)" d="m0 0h3l1 12h-3l-1 2 4 1-1 4-12-1-2-2v-3h6l2-1 1-10z" fill="#494949"/>
<path transform="translate(212,916)" d="m0 0 4 2v2l-5 5-1 4 4 8 4 3-7 1-5-7-1-9 4-6z" fill="#494949"/>
<path transform="translate(741,411)" d="m0 0h2v44h2l1-2v14l-1 2 2 1 1 3-3 1-1 4h-2z" fill="#5D5D5D"/>
<path transform="translate(1786,374)" d="m0 0h2l4 6 6 3 14 2-1 3-2 1h-8l-9-3-7-6z" fill="#363636"/>
<path transform="translate(1913,448)" d="m0 0 5 1v27l-5-2 1-2-1-5z" fill="#5C5C5C"/>
<path transform="translate(1084,433)" d="m0 0h2l-1 4-8 6-21 12-6 3-4-1 24-14 11-7z" fill="#3E3E3E"/>
<path transform="translate(1585,408)" d="m0 0h36l16 1v1h-18v17h-2l-1-16-32-1z" fill="#202020"/>
<path transform="translate(1524,357)" d="m0 0h3l4 15 2 12v12l-3-1-2-17-4-16z" fill="#494949"/>
<path transform="translate(1799,356)" d="m0 0 4 1 8 1v1l-11 1-10 5-2 3-2 8-2 2-1-2v-9l4-6 4-3 5-1z" fill="#424242"/>
<path transform="translate(766,155)" d="m0 0h7v17l-1 2-6-2-2-2 2-4v-7l-2-3z" fill="#5F5F5F"/>
<path transform="translate(1668,689)" d="m0 0 10 1 50 1-1 2h-45l-1 2-4-3-10-1z" fill="#616161"/>
<path transform="translate(1350,221)" d="m0 0h1v5h7l-1 3h-4v22l-3-2v-20l-2 1h-6v-1l-8-1v-1l16-1z" fill="#414141"/>
<path transform="translate(743,73)" d="m0 0h1l1 9 15 2-2 1v2l3 1-9 1-7-2v8l-4 1z" fill="#555"/>
<path transform="translate(1688,369)" d="m0 0 11 6 8 6 2 2 1 4v19h-2l-1-15-3-8-13-8-2-2 1-1-2-1z" fill="#535353"/>
<path transform="translate(746,453)" d="m0 0 9 1-1 12-3 2-5-1-1-1z" fill="#FEFEFE"/>
<path transform="translate(759,365)" d="m0 0h21l8 2v33h-1v-27h-2l-1-3-13-2-13-1z" fill="#292929"/>
<path transform="translate(747,351)" d="m0 0h10v10l-2 1h-8l-1-1v-9z" fill="#FEFEFE"/>
<path transform="translate(1011,87)" d="m0 0h1v15l3 10 2 5-4-1-5-8-1-3v-11l2-6z" fill="#626262"/>
<path transform="translate(1635,702)" d="m0 0h3l-1 22h-1l-1 6-3 2v-25l1-4z" fill="#636363"/>
<path transform="translate(570,914)" d="m0 0 4 1 3 4 1 3v13l-4 5-2 1h-10v-1h6v-2l5-3 1-2-1-10-2-7z" fill="#303030"/>
<path transform="translate(1800,354)" d="m0 0h15l5 2 7 7-1 4-5-5-10-3-9-1-3-1-6 2v-2z" fill="#3B3B3B"/>
<path transform="translate(745,294)" d="m0 0h14l2 2v5l-1 1h-14l-1-2z" fill="#FEFEFE"/>
<path transform="translate(1851,665)" d="m0 0h1v16l-1 10h12v2h-20l3-1v-9l2-7 2 1z" fill="#727272"/>
<path transform="translate(1383,839)" d="m0 0h12l6 5 1 4-3 3-4-6-7-2h-6l-6 5 1-5z" fill="#343434"/>
<path transform="translate(1041,470)" d="m0 0h29v5l-1-4-5 1 2 2h-34v-1h7v-2z" fill="#575757"/>
<path transform="translate(1350,39)" d="m0 0h1l1 62h1v22h-3z" fill="#626262"/>
<path transform="translate(250,973)" d="m0 0h2l3 6v9l-3 6-4 4-4-1 5-7v-15z" fill="#4A4A4A"/>
<path transform="translate(746,306)" d="m0 0 11 1 3 4v4h-12l-3-1v-6z" fill="#FEFEFE"/>
<path transform="translate(444,967)" d="m0 0h20l5 2-1 3h-27v-4z" fill="#323232"/>
<path transform="translate(556,839)" d="m0 0h1v16h-2v-13h-50v-1z" fill="#646464"/>
<path transform="translate(1196,315)" d="m0 0h3l-1 5-8 14-6 14h-2l1-8 8-17z" fill="#5A5A5A"/>
<path transform="translate(744,200)" d="m0 0h25v25h-25l-1 7h-1v-9l25-1-1-21h-22z" fill="#575757"/>
<path transform="translate(1830,446)" d="m0 0h2v25l-1 4-4-1 1-25z" fill="#3B3B3B"/>
<path transform="translate(1016,408)" d="m0 0 34 1 9 1v1h-64l-2-2z" fill="#3E3E3E"/>
<path transform="translate(766,561)" d="m0 0h3v32l-1 1-10 1v-3h7z" fill="#676767"/>
<path transform="translate(1253,256)" d="m0 0 4 2-11 7-16 13-4 4-2-1 3-5 10-9z" fill="#3D3D3D"/>
<path transform="translate(1068,732)" d="m0 0h2l-1 5-1 46h-1l-1-42-7 6-4-2 8-7z" fill="#3E3E3E"/>
<path transform="translate(1188,520)" d="m0 0 5 5 6 8v2l4 2 9 10 5 3 5 6-3 1-17-16-9-11-5-7z" fill="#393939"/>
<path transform="translate(1870,356)" d="m0 0 4 1v17l-5 3-1-1v-18z" fill="#606060"/>
<path transform="translate(1357,227)" d="m0 0h12l25 4v2l2 1h-7l-18-3-14-2z" fill="#363636"/>
<path transform="translate(1847,126)" d="m0 0h3v18h-1l-1-5-1 24-4-1 1-2 2-33z" fill="#474747"/>
<path transform="translate(998,49)" d="m0 0h2l-2 4-9 10-8 16-3 1 1-6 6-11 8-10z" fill="#454545"/>
<path transform="translate(1704,986)" d="m0 0h16l3 2h4v5l-5-1-28-1v-1l12-1-4-2z" fill="#4A4A4A"/>
<path transform="translate(1038,687)" d="m0 0 9 1 12 6 5 4 1 4-4-2-9-6-8-2-11-1 1-2z" fill="#404040"/>
<path transform="translate(1707,391)" d="m0 0h1v15h2l1-2v3l-3 2-19 1 6 1v1l-8 1-6-1 3-3-9-1v-1l7-1 2-1 1-3 4 5h18z" fill="#676767"/>
<path transform="translate(758,287)" d="m0 0 5 1-2 7-1-2h-17l2-5z" fill="#404040"/>
<path transform="translate(1622,379)" d="m0 0 2 1-1 3h-2v25h-5l1-25z" fill="#565656"/>
<path transform="translate(1889,315)" d="m0 0h8l9 2 6 4 3 3-1 2-3-3-6-1-8-2-9-1z" fill="#373737"/>
<path transform="translate(756,465)" d="m0 0 5 1v8l6 1-1 4-16-3-5-2 3-2h11l1-3-4-1z" fill="#676767"/>
<path transform="translate(1663,355)" d="m0 0 5 2 16 9 4 3v2l3 1-3 1-19-11-8-3z" fill="#3A3A3A"/>
<path transform="translate(745,156)" d="m0 0 9 1 1 7-3 2v4h-2l-2-3v-4l-2-1v-2h-2l1 9 2 1-4 1v-12h2z" fill="#3A3A3A"/>
<path transform="translate(745,550)" d="m0 0 8 1v7l-2 7-6 1 1-7-1-1z" fill="#FEFEFE"/>
<path transform="translate(241,914)" d="m0 0h5l7 7 2 4v8l-4-1-3-9-5-5-4-2z" fill="#4B4B4B"/>
<path transform="translate(1906,343)" d="m0 0h2v2l-2 1 1 2-6 2h-15l-4-2v-3h19z" fill="#4C4C4C"/>
<path transform="translate(1391,927)" d="m0 0h11l3 1v3l-18 1-2 5-3-2v-6l1-1z" fill="#515151"/>
<path transform="translate(741,799)" d="m0 0 2 1v30l1 6 7 1 1 2-13 2-11-1v-1h13z" fill="#686868"/>
<path transform="translate(1226,540)" d="m0 0 4 1 13 11 14 9-4 2-11-8-11-9-5-4z" fill="#424242"/>
<path transform="translate(1067,335)" d="m0 0h2l1 12-2 1-29-2 1-2h27z" fill="#1D1D1D"/>
<path transform="translate(1222,259)" d="m0 0 2 1-8 8 1 3-12 12-2-5z" fill="#3D3D3D"/>
<path transform="translate(749,232)" d="m0 0h20l-2 1v3h-2v2l-3-1h-16v-3l-2-1z" fill="#434343"/>
<path transform="translate(1513,522)" d="m0 0 2 3-10 13-4 3v-4l1-2v-3l6-8 4-1z" fill="#434343"/>
<path transform="translate(757,499)" d="m0 0h1l1 15 2-4v8l-6-1-10-2v9h-1l-1-15 7 3 6 1z" fill="#6B6B6B"/>
<path transform="translate(1172,374)" d="m0 0h1v8h1l-1 11-1 14h-3l-1-8 3-20z" fill="#636363"/>
<path transform="translate(557,124)" d="m0 0h11l-2 2-6 1v25h-1l-1 16h-1z" fill="#505050"/>
<path transform="translate(251,882)" d="m0 0 3 1 1 2v11l-4 6-3 2-3-1 3-3 2-6v-11z" fill="#4B4B4B"/>
<path transform="translate(278,834)" d="m0 0 1 3-9 1-2 1-29 1 3-2z" fill="#606060"/>
<path transform="translate(159,193)" d="m0 0h1v8h2v8l-1 6-2-1-13-1v-2h12l-1-3v-13z" fill="#5C5C5C"/>
<path transform="translate(106,341)" d="m0 0m-2 1 5 1-9 6-1 2v10l-5-1v-11l5-6z" fill="#494949"/>
<path transform="translate(521,357)" d="m0 0h34v2l-31 1-1 1-1 16h-1z" fill="#1A1A1A"/>
<path transform="translate(1687,988)" d="m0 0h31v1l-12 1-1 2-13 1-1 2-6-1v-3h-2v-2z" fill="#6E6E6E"/>
<path transform="translate(1727,735)" d="m0 0h1v21l-1 27h-1l-1-38-2 2-1-4 2-7 1 3h2z" fill="#606060"/>
<path transform="translate(1019,367)" d="m0 0h2l1 3-19 11-7 6-1-3 8-7z" fill="#4D4D4D"/>
<path transform="translate(1505,503)" d="m0 0 3 3-7 11-8 10-3-1 2-4 10-14z" fill="#3E3E3E"/>
<path transform="translate(1869,466)" d="m0 0 5 1 4 6 8 5v2h-6l-6-4-5-6z" fill="#434343"/>
<path transform="translate(1634,693)" d="m0 0h14v3l-9 7h-5l2-9z" fill="#6B6B6B"/>
<path transform="translate(231,606)" d="m0 0h18l1 3h21v1h-33l-5-1v-2z" fill="#575757"/>
<path transform="translate(764,130)" d="m0 0 3 1 1 6-2 3-4-1-10-6 1-2h10z" fill="#FEFEFE"/>
<path transform="translate(473,911)" d="m0 0h4l1 15v14h-1l-1-12-1 10-2-1z" fill="#4C4C4C"/>
<path transform="translate(1936,741)" d="m0 0h3l-1 3 1 6-1 1-1 33h9v2h-13v-3h2z" fill="#777"/>
<path transform="translate(1912,361)" d="m0 0 3 1 4 8-2 9-4 5-4-1 3-5 1-2 1-11z" fill="#4C4C4C"/>
<path transform="translate(1630,681)" d="m0 0h3v10h-11l-1-4 3-1 4-4z" fill="#FEFEFE"/>
<path transform="translate(1518,480)" d="m0 0h1l-1 7-9 17h-3l1-5 8-15 1-3z" fill="#3B3B3B"/>
<path transform="translate(1796,448)" d="m0 0h5v2l7 6-2 2-5-4-7 1-6 5-1-3 3-5 4-3z" fill="#404040"/>
<path transform="translate(1680,745)" d="m0 0h2l-1 3-12 6h-8l-8-3 1-3 10 2 9-1z" fill="#494949"/>
<path transform="translate(1709,407)" d="m0 0 3 1-1 14-3-4-1-1v-6h-19l1-2 19-1z" fill="#474747"/>
<path transform="translate(1684,122)" d="m0 0 44 1v1l-10 1h-36z" fill="#626262"/>
<path transform="translate(589,835)" d="m0 0h15v2l-15 2-2 1h-11v-2l3-2z" fill="#5E5E5E"/>
<path transform="translate(1613,126)" d="m0 0 5 2 9 6 7 7 1 6-12-12-11-7z" fill="#414141"/>
<path transform="translate(226,895)" d="m0 0 3 1 4 5 9 1 7-4-2 4-1 3-3 1h-8l-7-3-2-4z" fill="#5A5A5A"/>
<path transform="translate(745,601)" d="m0 0h8l4 2v6l-9-1-3-1z" fill="#3F3F3F"/>
<path transform="translate(1e3 410)" d="m0 0h13l15 1v1h-9l1 6 10 10h-3l-6-5-4-4-3-4v-3l-14-1z" fill="#5C5C5C"/>
<path transform="translate(1291,971)" d="m0 0h23l-2 4h-18l-5-1v-2z" fill="#3C3C3C"/>
<path transform="translate(1328,228)" d="m0 0h19v1l-22 4h-9l1-3z" fill="#333"/>
<path transform="translate(1382,842)" d="m0 0 2 2-3 1-4 10-1 13-3 1v-15l-1-2 3-6h3z" fill="#4E4E4E"/>
<path transform="translate(399,229)" d="m0 0h1v18l29-1 3-1-2 4h-24l-7-1z" fill="#505050"/>
<path transform="translate(1008,713)" d="m0 0 3 2 2 14 1 5h-4l-3-7v-10z" fill="#656565"/>
<path transform="translate(1728,702)" d="m0 0h1v31l-2 6h-2v-9l1-10 1-2z" fill="#303030"/>
<path transform="translate(1038,385)" d="m0 0h7l3 1-1 4 2 1h-14v-2l-5 1v-2z" fill="#3E3E3E"/>
<path transform="translate(1016,349)" d="m0 0 2 1 1 2-12 6-10 8-3-1 5-5 8-6z" fill="#404040"/>
<path transform="translate(590,843)" d="m0 0h10v2h5v2h-12l-17-1v-2z" fill="#5E5E5E"/>
<path transform="translate(94,399)" d="m0 0h24v1l-11 1 15 1v1h-18v2l-6-2z" fill="#464646"/>
<path transform="translate(769,115)" d="m0 0h3v7h-6l-5-2h-12l1-4 16 1 1 4h3v-2h-2z" fill="#797979"/>
<path transform="translate(748,96)" d="m0 0h31l2 2-3 1-4-1-2 2-22-2z" fill="#5F5F5F"/>
<path transform="translate(1532,413)" d="m0 0h1v23l-3 12h-2l1-11 2-12z" fill="#3C3C3C"/>
<path transform="translate(1061,410)" d="m0 0h3l1 4-5 8-4 2v-3l-4 1 6-7z" fill="#484848"/>
<path transform="translate(698,141)" d="m0 0h1l1 15-1 18-2 1-1-20-1-2h2v-11z" fill="#282828"/>
<path transform="translate(430,929)" d="m0 0 4 2 5 6 8 5-1 2-6-1-9-8z" fill="#383838"/>
<path transform="translate(400,409)" d="m0 0h33l-1 4-3-1-29-1z" fill="#292929"/>
<path transform="translate(1448,236)" d="m0 0 6 2 7 5v2l-5 1-11-6 1-3z" fill="#303030"/>
<path transform="translate(1621,408)" d="m0 0h19v3h-20v19h-2l-1 3v-6h2l-1-17z" fill="#4E4E4E"/>
<path transform="translate(1056,365)" d="m0 0 5 2 16 9 1 4-5-2-19-11z" fill="#3D3D3D"/>
<path transform="translate(1650,124)" d="m0 0 19 1 3 4-6 2v-2l-3 1h-7l1-3-4-1z" fill="#525252"/>
<path transform="translate(114,481)" d="m0 0h4v2l-9 3-5 4-1 3 1 2h-5l-3 1-1 4-2-7v-3l4 2v2l5-6 10-6z" fill="#5C5C5C"/>
<path transform="translate(787,421)" d="m0 0h1v29h-3v-20l1-1z" fill="#1A1A1A"/>
<path transform="translate(485,835)" d="m0 0h15v4h-20l1-3z" fill="#5B5B5B"/>
<path transform="translate(984,437)" d="m0 0 4 4 7 9 3 4h-4l-6-5-6-9 1-2z" fill="#616161"/>
<path transform="translate(1021,36)" d="m0 0 4 1v2l-13 4-12 7v-3l11-7z" fill="#3B3B3B"/>
<path transform="translate(1346,875)" d="m0 0 2 1-2 5-6 5-3 1h-9v-1l6-1v-2l6-3 4-4z" fill="#515151"/>
<path transform="translate(278,842)" d="m0 0h1v5l-28-1v-2l23-1v2h4z" fill="#626262"/>
<path transform="translate(1871,335)" d="m0 0 3 1 3 5 5 3 3 4-7-1-7-5-2-5z" fill="#3C3C3C"/>
<path transform="translate(1321,874)" d="m0 0h2l4 6 4 3 5 1-2 2h-8l-6-7z" fill="#373737"/>
<path transform="translate(1291,840)" d="m0 0h4l-1 3-5 4-4 6-4 1 1-5 7-8z" fill="#303030"/>
<path transform="translate(743,738)" d="m0 0h1v18l-1 5-1 21h-1v-27l1-16z" fill="#555"/>
<path transform="translate(160,565)" d="m0 0h1l1 41 12 1v1h-12l-1 2-4-4h2z" fill="#737373"/>
<path transform="translate(758,334)" d="m0 0 3 3-1 26-3-2v-10l-3-1h2v-4h2z" fill="#5E5E5E"/>
<path transform="translate(1673,68)" d="m0 0 5 1 8 6 6 7v2l-3 1-6-8-7-5-4-2z" fill="#414141"/>
<path transform="translate(1694,722)" d="m0 0 1 2h2l-3 9-6 8-6 5v-3l7-8 4-9z" fill="#424242"/>
<path transform="translate(746,546)" d="m0 0h10v2l5 2v2h-8l-7-1-1-3z" fill="#505050"/>
<path transform="translate(1442,251)" d="m0 0 9 5 11 8-4 2-13-9-2-2 1-1-2-1z" fill="#4C4C4C"/>
<path transform="translate(429,1014)" d="m0 0 5 1 15 1v1h-15l1 5-1 2-5-1z" fill="#3E3E3E"/>
<path transform="translate(250,932)" d="m0 0h4l-1 5-6 5-6 2v-2h-5l12-6z" fill="#373737"/>
<path transform="translate(1724,411)" d="m0 0h2v3h2l-1 9h-2v3l2 1-4 8-2 3-2-1 2-6 2-4 1-7z" fill="#606060"/>
<path transform="translate(1903,356)" d="m0 0 6 1 4 4 2 6-2 2-6-7-8-3 1-2z" fill="#5B5B5B"/>
<path transform="translate(1350,265)" d="m0 0h3v22l-3-1z" fill="#3A3A3A"/>
<path transform="translate(1296,960)" d="m0 0m-2 1 2 1-3 5-3 4-1 3-10 1 1-3 6-3 5-4z" fill="#373737"/>
<path transform="translate(521,460)" d="m0 0 35 1v1l-10 1h-25z" fill="#434343"/>
<path transform="translate(1035,388)" d="m0 0 2 4-6 4-5 5h-2l2-4 3-4-5 3v-3l4-4z" fill="#5D5D5D"/>
<path transform="translate(1023,987)" d="m0 0 1 2h22v1h-23l-1 6-5-1-1-3h2l1-3z" fill="#606060"/>
<path transform="translate(1365,965)" d="m0 0h2l-2 4-5 9-1 1h-5l5-9z" fill="#505050"/>
<path transform="translate(1318,851)" d="m0 0 1 2h2v12l1 9-3 3-2-5 1-4v-10l-1-4z" fill="#494949"/>
<path transform="translate(595,837)" d="m0 0m-6 1h6l2 2-1 3h-16l-4-3 11-1z" fill="#C0C0C0"/>
<path transform="translate(430,571)" d="m0 0h3v6h19v1h-20l-1 2h23v1h-24z" fill="#6B6B6B"/>
<path transform="translate(1472,408)" d="m0 0h18l6 1-2 2h-21z" fill="#4A4A4A"/>
<path transform="translate(1078,378)" d="m0 0 5 2 3 2-1 20-2-1-1-15-1-3-3-2z" fill="#282828"/>
<path transform="translate(730,902)" d="m0 0 18 2-3 2 1 2h-10l-5-1 1-3h-2z" fill="#606060"/>
<path transform="translate(751,574)" d="m0 0h1v25l5-1v3l3 1v5h-2l-1-4-4-1-3-2z" fill="#6D6D6D"/>
<path transform="translate(431,555)" d="m0 0h1l1 16h-3l-1-3h-28v-1h29v-9z" fill="#595959"/>
<path transform="translate(759,526)" d="m0 0h1l1 16 1 6-6-1 2-20z" fill="#4C4C4C"/>
<path transform="translate(1682,412)" d="m0 0h5l-1 6-4 6h-2l-2-4z" fill="#4C4C4C"/>
<path transform="translate(742,294)" d="m0 0h3l1 12-1 8h-1l-1 5h-1z" fill="#777"/>
<path transform="translate(1103,897)" d="m0 0h7v3l-10 2h-9l-2-3z" fill="#717171"/>
<path transform="translate(1273,245)" d="m0 0h3l-1 3-17 9h-3l1-3z" fill="#393939"/>
<path transform="translate(1364,877)" d="m0 0h2l-2 6-4 7-6 1 3-6z" fill="#515151"/>
<path transform="translate(1709,416)" d="m0 0h1v19l-4 4-3-1 3-3 2-17z" fill="#303030"/>
<path transform="translate(1905,392)" d="m0 0 9 3 8 4 2 3-7-1-8-4z" fill="#404040"/>
<path transform="translate(745,626)" d="m0 0h14v3l-6 2h-6l-3-3z" fill="#404040"/>
<path transform="translate(1061,406)" d="m0 0 5 1v2h15v1l-17 2v-2l-5 1-9-1v-1l11-1z" fill="#1E1E1E"/>
<path transform="translate(1067,83)" d="m0 0 3 1 4 9v12h-2l-3-14-2-5z" fill="#3E3E3E"/>
<path transform="translate(1291,928)" d="m0 0 2 1v3l-5 5-4 5h-3l1-5 6-7z" fill="#3A3A3A"/>
<path transform="translate(225,883)" d="m0 0h1l2 10-1 6v3l-4-5v-13z" fill="#3A3A3A"/>
<path transform="translate(1524,357)" d="m0 0h3l3 11v9l-3-4-3-11z" fill="#404040"/>
<path transform="translate(442,996)" d="m0 0 16 1 4 1-2 1 1 2h-17v-2l-2-1z" fill="#525252"/>
<path transform="translate(1175,451)" d="m0 0 3 1 3 10 1 9h-2l-5-14z" fill="#494949"/>
<path transform="translate(1884,316)" d="m0 0h5v2l8 1v1l-11 1-9 1v-3z" fill="#4B4B4B"/>
<path transform="translate(753,66)" d="m0 0 11 11h3l3 4v3l-4-2-11-10-2-3z" fill="#575757"/>
<path transform="translate(469,951)" d="m0 0 13 4 2 1-1 3-13-3-2-1z" fill="#3D3D3D"/>
<path transform="translate(1109,902)" d="m0 0 1 2 5-1 1 6-14-2-3-3h8z" fill="#5D5D5D"/>
<path transform="translate(247,841)" d="m0 0 4 1-4 2h-14v8l-3-1 1-9z" fill="#686868"/>
<path transform="translate(1932,735)" d="m0 0 6 1 2 2v3l-5 1h-2l-4-1 1-4z" fill="#4D4D4D"/>
<path transform="translate(992,411)" d="m0 0 1 3h2l1 17h-2l-1 2-1-4z" fill="#696969"/>
<path transform="translate(1821,392)" d="m0 0 6 2 10 5v3l-6-1-9-6z" fill="#414141"/>
<path transform="translate(1873,374)" d="m0 0 9 3 7 3v1l-11-1-8-2v-2z" fill="#4C4C4C"/>
<path transform="translate(1519,338)" d="m0 0 2 2 5 13v4l-3 1-4-11z" fill="#595959"/>
<path transform="translate(108,329)" d="m0 0h20l2 3-4 1h-19l2-2z" fill="#4C4C4C"/>
<path transform="translate(1459,265)" d="m0 0 6 1 11 10-3 2-14-12z" fill="#464646"/>
<path transform="translate(1373,853)" d="m0 0 2 4 1 13-3 3-2-3v-14z" fill="#494949"/>
<path transform="translate(365,408)" d="m0 0h19v3h-16l-3-1z" fill="#555"/>
<path transform="translate(1203,280)" d="m0 0 2 4-6 8-3-2-3 2 2-4 6-7z" fill="#333"/>
<path transform="translate(244,995)" d="m0 0 2 1v3l-5 2h-7l-4-3 5-2h7z" fill="#535353"/>
<path transform="translate(243,949)" d="m0 0 16 8-1 3-8-3-7-6z" fill="#404040"/>
<path transform="translate(462,887)" d="m0 0h17v3h-19z" fill="#1A1A1A"/>
<path transform="translate(1401,848)" d="m0 0h2l3 8 1 2-3 7-2-4-2-8z" fill="#545454"/>
<path transform="translate(1721,745)" d="m0 0h2l-1 5-7 11-3 2v-4z" fill="#414141"/>
<path transform="translate(1640,408)" d="m0 0 25 1v1l-6 1h-19l-2-2z" fill="#2E2E2E"/>
<path transform="translate(1654,390)" d="m0 0 3 1-8 7-1 9-3 1-1-2 2-9z" fill="#7B7B7B"/>
<path transform="translate(747,101)" d="m0 0h2v2h5v2h1v8h-4l-2-2h-1z" fill="#6F6F6F"/>
<path transform="translate(555,928)" d="m0 0h1l1 8 3 2 8 1 1 3h-10l-6-2z" fill="#494949"/>
<path transform="translate(1690,706)" d="m0 0 4 2 4 10v5l-3 1-3-11-2-4z" fill="#3D3D3D"/>
<path transform="translate(750,657)" d="m0 0 2 1-1 6-9 2v-8h7z" fill="#646464"/>
<path transform="translate(1399,582)" d="m0 0h5v2l-10 3-10 1 2-3z" fill="#393939"/>
<path transform="translate(1891,421)" d="m0 0h3l2 1-2 9 3 4-9-3z" fill="#606060"/>
<path transform="translate(1642,414)" d="m0 0 3 3 6 9 5 4 7 3v1l-7-1-8-7-6-8z" fill="#535353"/>
<path transform="translate(1661,356)" d="m0 0 2 1v3l-13 7-3 1-1-3z" fill="#3D3D3D"/>
<path transform="translate(1091,125)" d="m0 0 3 1v2l-10 4-8 6v-3l8-7z" fill="#3E3E3E"/>
<path transform="translate(1015,116)" d="m0 0 5 3 9 7 6 3v1l-7-1-8-6-5-5z" fill="#3F3F3F"/>
<path transform="translate(209,929)" d="m0 0 2 3 3 5 4 3-7 1-4-5v-5h2z" fill="#474747"/>
<path transform="translate(1202,532)" d="m0 0 5 5 5 6v2l2 3-4-2-10-11 2-1z" fill="#4A4A4A"/>
<path transform="translate(1887,431)" d="m0 0 11 4 3 2 6 1v1h-12l-8-6z" fill="#2B2B2B"/>
<path transform="translate(1016,408)" d="m0 0 12 1-4 2h-29l-2-2z" fill="#2E2E2E"/>
<path transform="translate(133,376)" d="m0 0 5 2 9 5 1 3-6-1-6-4-3-3z" fill="#3E3E3E"/>
<path transform="translate(1684,348)" d="m0 0 6 2 10 6 2 3-2 1-14-8-2-2z" fill="#414141"/>
<path transform="translate(1237,267)" d="m0 0 2 1-3 5-10 9-2-1 3-5z" fill="#454545"/>
<path transform="translate(439,969)" d="m0 0 3 1v3l-6 4-3 3-3-1 2-5z" fill="#414141"/>
<path transform="translate(569,951)" d="m0 0 13 4 2 1-1 3-5-1-9-4z" fill="#3B3B3B"/>
<path transform="translate(1395,840)" d="m0 0 4 2 3 4-2 5-4-5-7-3 3-2z" fill="#424242"/>
<path transform="translate(96,496)" d="m0 0h1l3 11 7 10 4 4-4-1-7-8-4-8z" fill="#484848"/>
<path transform="translate(1896,355)" d="m0 0h9v3h-5l3 2-10 1-3-3z" fill="#6A6A6A"/>
<path transform="translate(1443,294)" d="m0 0h2l7 8 11 11-1 3-12-13-8-6z" fill="#363636"/>
<path transform="translate(1289,238)" d="m0 0 3 1v2l-14 6h-2l-1-3z" fill="#414141"/>
<path transform="translate(1681,982)" d="m0 0 5 1v2l-2 1-1 5h2l-1 4-4-2-1-3 1-7z" fill="#484848"/>
<path transform="translate(1347,955)" d="m0 0 2 2 1 8-3 5h-3l-2-1 3-5 1-8z" fill="#515151"/>
<path transform="translate(1589,895)" d="m0 0 16 2 4 2-4 1-14-1-2 1z" fill="#5F5F5F"/>
<path transform="translate(431,576)" d="m0 0 1 2 22-1v3h-23z" fill="#3E3E3E"/>
<path transform="translate(1030,456)" d="m0 0 6 1h10l2 2-6 3-6-1-6-3z" fill="#515151"/>
<path transform="translate(756,454)" d="m0 0h3l1 12-5-1v-10z" fill="#3E3E3E"/>
<path transform="translate(745,315)" d="m0 0 14 1-5 4-1 1h-8l2-2z" fill="#1A1A1A"/>
<path transform="translate(1723,79)" d="m0 0 1 2h3l2 10v6h-3l-3-15z" fill="#434343"/>
<path transform="translate(1402,957)" d="m0 0h1v11l-5 5-4-1 6-9z" fill="#303030"/>
<path transform="translate(760,896)" d="m0 0v3l-3 3 1 2-7 3h-7l1-2 12-6z" fill="#444"/>
<path transform="translate(1381,881)" d="m0 0 5 2 9 1v2l-2 1h-9l-4-2z" fill="#353535"/>
<path transform="translate(763,541)" d="m0 0 6 1v14l-1-3-4-2 2-1 1-4h-4l-1-4z" fill="#646464"/>
<path transform="translate(1522,465)" d="m0 0 1 2h2l-3 10-2 5-3-1 3-10z" fill="#454545"/>
<path transform="translate(1015,700)" d="m0 0 3 1-8 16h-1v-7l4-8z" fill="#535353"/>
<path transform="translate(1194,522)" d="m0 0 4 4 4 5v3l-3 1-8-11z" fill="#3F3F3F"/>
<path transform="translate(994,452)" d="m0 0 6 3 10 7-2 3-11-8-3-2z" fill="#424242"/>
<path transform="translate(1029,392)" d="m0 0 2 1-6 6-1 7-1 2-4-1 4-9 4-5z" fill="#777"/>
<path transform="translate(1800,354)" d="m0 0h15l-1 3h-15l-6 2v-2z" fill="#3F3F3F"/>
<path transform="translate(1433,879)" d="m0 0 2 1-2 5-3 2-9-1v-2l8-2z" fill="#333"/>
<path transform="translate(1408,853)" d="m0 0 1 2h2l-1 10h-2v2h-2v-9z" fill="#3A3A3A"/>
<path transform="translate(1054,746)" d="m0 0h3l-1 3-8 4-12-1-2-2h11z" fill="#4F4F4F"/>
<path transform="translate(1188,520)" d="m0 0 5 5 6 8v2l4 2 1 2-2 2-9-11-5-7z" fill="#343434"/>
<path transform="translate(747,365)" d="m0 0h12v1l12 1v1h-24z" fill="#454545"/>
<path transform="translate(1799,356)" d="m0 0 4 1 8 1v1l-11 1-7 2-3-1 1-3 5-1z" fill="#4E4E4E"/>
<path transform="translate(755,134)" d="m0 0 5 3v2h-2l1 2 7 1-1 2h-8l-3-5-2-2z" fill="#5F5F5F"/>
<path transform="translate(1436,962)" d="m0 0 4 1-1 4-5 6-3-4 4-5z" fill="#4F4F4F"/>
<path transform="translate(1307,950)" d="m0 0 1 3-10 10-3 1 2-5 8-8z" fill="#343434"/>
<path transform="translate(1391,927)" d="m0 0h11l3 1v2h-18l1-2z" fill="#333"/>
<path transform="translate(1085,688)" d="m0 0 6 2 20 1v1l-22 1-6-3z" fill="#575757"/>
<path transform="translate(1285,576)" d="m0 0 9 2 13 4-1 3-13-3v-2l-8-3z" fill="#505050"/>
<path transform="translate(1451,559)" d="m0 0h2v3l-14 8-1-2 3-3z" fill="#383838"/>
<path transform="translate(1682,450)" d="m0 0 3 1-3 3-13 6-4-2 12-5z" fill="#474747"/>
<path transform="translate(1675,393)" d="m0 0 4 2h3l3 5-1 5h-3l-4-9z" fill="#444"/>
<path transform="translate(1041,357)" d="m0 0 5 1 10 6v2l-5-1-9-5z" fill="#393939"/>
<path transform="translate(1701,359)" d="m0 0 4 1 8 8 1 3h-3l-10-10z" fill="#444"/>
<path transform="translate(1680,122)" d="m0 0 4 1-4 3-6 2-9-1 4-2z" fill="#343434"/>
<path transform="translate(1031,67)" d="m0 0h5v1l11 1v1l-15 1-5 2h-3v-3z" fill="#555"/>
<path transform="translate(1026,781)" d="m0 0 8 1 9 3v1h-9l-10-2z" fill="#515151"/>
<path transform="translate(743,515)" d="m0 0h1l1 9 2 4h-2v11h-1v-6h-2v-9z" fill="#616161"/>
<path transform="translate(121,480)" d="m0 0 10 2 8 7 1 5-9-9-5-2-8-1z" fill="#494949"/>
<path transform="translate(1172,438)" d="m0 0h3l2 10-1 4-2 1-2-8z" fill="#515151"/>
<path transform="translate(1707,391)" d="m0 0h1v15h2l1-2v3l-3 2h-18v-1l17-1z" fill="#6A6A6A"/>
<path transform="translate(106,341)" d="m0 0m-2 1 5 1-9 6-2 2-2-2v-3l3-3z" fill="#4D4D4D"/>
<path transform="translate(1706,52)" d="m0 0 4 1 8 9v2l-3 1-6-8-3-3z" fill="#404040"/>
<path transform="translate(749,566)" d="m0 0 4 1 1 1-1 7-7-3 1-5z" fill="#1A1A1A"/>
<path transform="translate(1181,465)" d="m0 0 2 3 3 8 1 8h-2l-4-10z" fill="#4F4F4F"/>
<path transform="translate(1015,448)" d="m0 0 6 1 11 6-4 2-12-7z" fill="#4B4B4B"/>
<path transform="translate(1640,411)" d="m0 0h14v1h-7l3 7 3 3-1 2-7-8-1-3-3 3z" fill="#656565"/>
<path transform="translate(1431,246)" d="m0 0 5 1 6 4v2l3 1-3 1-11-6z" fill="#3C3C3C"/>
<path transform="translate(1640,118)" d="m0 0 10 5v2l4 1 3 1v2l-5-1-8-4-4-4z" fill="#393939"/>
<path transform="translate(744,106)" d="m0 0h2l1 5v14l-3-1z" fill="#585858"/>
<path transform="translate(1642,74)" d="m0 0 1 3-6 10-1 5h-1l-1-8 6-8z" fill="#505050"/>
<path transform="translate(497,843)" d="m0 0h2l-1 4-24-1 1-2h12z" fill="#797979"/>
<path transform="translate(1038,687)" d="m0 0 9 1 1 3h-15l1-2z" fill="#313131"/>
<path transform="translate(1255,562)" d="m0 0 5 1 9 5 1 3-5-1-10-6z" fill="#3E3E3E"/>
<path transform="translate(1060,449)" d="m0 0 3 1-3 3-10 5-4-1z" fill="#444"/>
<path transform="translate(635,408)" d="m0 0h19l-1 3-18-1z" fill="#2A2A2A"/>
<path transform="translate(745,347)" d="m0 0h12l-1 3-2 1h-9z" fill="#353535"/>
<path transform="translate(760,138)" d="m0 0 7 1 1 4 3 1v6l-3-4-2-3-7-1-1-3z" fill="#797979"/>
<path transform="translate(745,723)" d="m0 0h3l1 10-3 3h-1z" fill="#606060"/>
<path transform="translate(1618,430)" d="m0 0 3 1 3 5 4 3v2l-5-1-5-5z" fill="#363636"/>
<path transform="translate(1176,366)" d="m0 0h1l-1 10-1 6-3 1 1-13z" fill="#646464"/>
<path transform="translate(1357,227)" d="m0 0h12l7 2v1h-15l-4-1z" fill="#343434"/>
<path transform="translate(1350,17)" d="m0 0 3 1v16h-2l-2-16z" fill="#3C3C3C"/>
<path transform="translate(212,970)" d="m0 0h8l2 3-13 2 2-4z" fill="#323232"/>
<path transform="translate(1338,950)" d="m0 0 6 1 3 3v6h-2l-2-4-4-2z" fill="#3C3C3C"/>
<path transform="translate(455,587)" d="m0 0 2 4 1 8-3 3-2-1 1-13z" fill="#313131"/>
<path transform="translate(1497,300)" d="m0 0 5 5 4 6-1 2-2 1-6-9z" fill="#4E4E4E"/>
<path transform="translate(1449,296)" d="m0 0 4 2 10 10-1 3-13-13z" fill="#383838"/>
<path transform="translate(1074,137)" d="m0 0h2l-1 4-4 10h-3l1-6z" fill="#474747"/>
<path transform="translate(1019,982)" d="m0 0h4v5h-3v-3l-3 3h-6l-4-3 11-1z" fill="#666"/>
<path transform="translate(1588,896)" d="m0 0 2 3 5-1 10 1 1 2h-18z" fill="#aaa"/>
<path transform="translate(478,836)" d="m0 0 7 1v1l5 1v1h-13l-13-1v-1l13-1z" fill="#797979"/>
<path transform="translate(1888,347)" d="m0 0h10l3 1v2h-15v-2z" fill="#484848"/>
<path transform="translate(229,211)" d="m0 0h10v2h-5l-2 5-1 6h-1z" fill="#212121"/>
<path transform="translate(1411,935)" d="m0 0 2 3-1 9-3 4v-11z" fill="#363636"/>
<path transform="translate(1383,933)" d="m0 0h1v10l6 1v1h-10l1-9z" fill="#474747"/>
<path transform="translate(213,876)" d="m0 0h7l2 5-11-1v-3z" fill="#383838"/>
<path transform="translate(739,843)" d="m0 0h4l2 7-5 1-1-1z" fill="#6A6A6A"/>
<path transform="translate(1305,583)" d="m0 0 10 1 5 1-1 3-12-2z" fill="#434343"/>
<path transform="translate(1652,454)" d="m0 0 5 2 10 3-3 3-7-2-5-4z" fill="#3E3E3E"/>
<path transform="translate(1678,364)" d="m0 0 6 2 4 3v2l3 1-3 1-10-6z" fill="#363636"/>
<path transform="translate(1913,338)" d="m0 0 2 1-1 5-5 3h-5l4-2v-3z" fill="#333"/>
<path transform="translate(1889,315)" d="m0 0h8l1 3 2 1h-12z" fill="#2D2D2D"/>
<path transform="translate(743,309)" d="m0 0h1v5l4 1-2 1 2 4 4 2h-8l-2-1z" fill="#555"/>
<path transform="translate(1313,231)" d="m0 0 4 1 2 2-9 2h-6l1-3z" fill="#393939"/>
<path transform="translate(743,34)" d="m0 0h2l-1 21h-1l-2-19z" fill="#383838"/>
<path transform="translate(226,984)" d="m0 0 2 3 4 7v3l-5-3-2-3z" fill="#636363"/>
<path transform="translate(1375,851)" d="m0 0 2 1-1 16-3 1v-14z" fill="#626262"/>
<path transform="translate(1226,540)" d="m0 0 4 1 10 8-3 2-11-9z" fill="#474747"/>
<path transform="translate(1350,538)" d="m0 0h4v14h-3z" fill="#434343"/>
<path transform="translate(1516,516)" d="m0 0 2 2-1 4-1 2h-4l-3 1 2-5z" fill="#2C2C2C"/>
<path transform="translate(1628,440)" d="m0 0 5 2 7 4-2 3-12-7z" fill="#424242"/>
<path transform="translate(1020,418)" d="m0 0 5 5 12 9-3 1-8-6-6-7z" fill="#444"/>
<path transform="translate(1020,412)" d="m0 0h2l1 6 10 10h-3l-6-5-5-7z" fill="#787878"/>
<path transform="translate(1712,408)" d="m0 0h14l-2 1v2h-12z" fill="#585858"/>
<path transform="translate(1724,391)" d="m0 0 3 3v11h-2l-1-2-1-11z" fill="#4D4D4D"/>
<path transform="translate(1172,374)" d="m0 0h1v8h1l-1 11-1-3h-2l1-11z" fill="#797979"/>
<path transform="translate(994,366)" d="m0 0h2l-2 4-6 7h-2l1-5z" fill="#545454"/>
<path transform="translate(1350,221)" d="m0 0h1l1 6-4 3h-6v-1l-8-1v-1l16-1z" fill="#5C5C5C"/>
<path transform="translate(1730,110)" d="m0 0h1v13h17v1l-17 1-1 2-1-4z" fill="#696969"/>
<path transform="translate(1071,98)" d="m0 0h1l1 10-3 6-4 1 2-5z" fill="#555"/>
<path transform="translate(553,992)" d="m0 0 6 1 8 2-3 3-9-2-2-1z" fill="#2E2E2E"/>
<path transform="translate(226,895)" d="m0 0 3 1 4 5 3 2h-2v2l-6-2-2-4z" fill="#595959"/>
<path transform="translate(576,841)" d="m0 0h10l4 3h-14l-9-1v-1z" fill="#797979"/>
<path transform="translate(236,839)" d="m0 0h21v1l-10 2h-12z" fill="#797979"/>
<path transform="translate(1680,745)" d="m0 0h2l-1 3-10 5-7-1v-1l9-2z" fill="#484848"/>
<path transform="translate(1505,503)" d="m0 0 3 3-5 8h-3v-3z" fill="#464646"/>
<path transform="translate(1726,408)" d="m0 0 3 1h-2v2l4-1-1 10h-3l1-6h-2v-3h-2v-2z" fill="#323232"/>
<path transform="translate(226,911)" d="m0 0h11l1 3h-12z" fill="#4F4F4F"/>
<path transform="translate(210,878)" d="m0 0 1 2 3 1-3 7-1 6h-1v-9h-2l2-6z" fill="#4D4D4D"/>
<path transform="translate(1349,860)" d="m0 0h1v12l-1 4h-3l-2 2v-4l2-1z" fill="#2F2F2F"/>
<path transform="translate(1635,717)" d="m0 0h1l1 13-2 7-2-3v-6h1z" fill="#454545"/>
<path transform="translate(757,605)" d="m0 0 1 2 3 1-2 2-1 12h-2v-13z" fill="#646464"/>
<path transform="translate(1532,413)" d="m0 0h1v18l-2 5h-1v-8l1-3z" fill="#292929"/>
<path transform="translate(1874,321)" d="m0 0h5v3l-6 6-1-2 1-2-2-1z" fill="#515151"/>
<path transform="translate(744,160)" d="m0 0h2v2l3 1 1 7-5-1z" fill="#5B5B5B"/>
<path transform="translate(758,144)" d="m0 0 2 1 1 2v7h11v1h-14z" fill="#797979"/>
<path transform="translate(1068,113)" d="m0 0 1 3-8 8-3-1 2-3h2l2-4z" fill="#454545"/>
<path transform="translate(745,57)" d="m0 0 4 4 3 4v2l-7-1z" fill="#FEFEFE"/>
<path transform="translate(225,974)" d="m0 0h2v4h-2l-1 10h-2v-8z" fill="#3B3B3B"/>
<path transform="translate(1239,568)" d="m0 0 5 2 3 3-1 2-4-2h-4l-1-4z" fill="#373737"/>
<path transform="translate(1021,414)" d="m0 0 5 5 8 7 2 2v3l-3-1-7-8-5-6z" fill="#676767"/>
<path transform="translate(1586,901)" d="m0 0 7 1 1 4-3 2h-3z" fill="#464646"/>
<path transform="translate(726,876)" d="m0 0 2 1-1 2 2 1-5 2-1 3-3-1 2-5z" fill="#424242"/>
<path transform="translate(1659,688)" d="m0 0h11l-3 3h-10l-2-2z" fill="#717171"/>
<path transform="translate(759,609)" d="m0 0h1v16h-3l1-15z" fill="#797979"/>
<path transform="translate(1350,591)" d="m0 0 3 3 1 7 1 2h-6z" fill="#616161"/>
<path transform="translate(756,547)" d="m0 0h11l-1 4-8-1-3-2z" fill="#FEFEFE"/>
<path transform="translate(1510,494)" d="m0 0 3 3-5 8-2-1 1-5z" fill="#3E3E3E"/>
<path transform="translate(1694,463)" d="m0 0h2v3l-8 4-4-1 1-2z" fill="#404040"/>
<path transform="translate(1627,135)" d="m0 0 7 6 1 6-5-5-3-4z" fill="#565656"/>
<path transform="translate(1009,106)" d="m0 0 5 3 3 6-1 2-4-2-3-5z" fill="#545454"/>
<path transform="translate(1036,67)" d="m0 0h13v2l2 1-19-1z" fill="#262626"/>
<path transform="translate(1934,34)" d="m0 0 2 1v13l-3-2v-8z" fill="#3C3C3C"/>
<path transform="translate(975,990)" d="m0 0h13v2l-12 1-1 4z" fill="#5D5D5D"/>
<path transform="translate(555,922)" d="m0 0h1l-1 14-3-2 1-10z" fill="#272727"/>
<path transform="translate(755,629)" d="m0 0h3l-1 16h-1v-12l-6-1 3-2z" fill="#797979"/>
<path transform="translate(162,627)" d="m0 0h1l1 19 4 3-4 1-2-1z" fill="#767676"/>
<path transform="translate(1792,450)" d="m0 0h2v3l2 1-6 4-2 2-1-3 3-5z" fill="#4A4A4A"/>
<path transform="translate(994,431)" d="m0 0 3 1 4 5 3 2v2l-5-2-5-5z" fill="#4A4A4A"/>
<path transform="translate(1212,408)" d="m0 0h10v3h-12l2-1z" fill="#4A4A4A"/>
<path transform="translate(1186,333)" d="m0 0 1 4-2 9-1 2h-2l1-8z" fill="#5F5F5F"/>
<path transform="translate(1196,315)" d="m0 0h3l-1 5-3 5-3-1 3-7z" fill="#535353"/>
<path transform="translate(1842,162)" d="m0 0 4 2-1 8h-5l1-5 1 2h2v-4l-3-1z" fill="#797979"/>
<path transform="translate(1016,79)" d="m0 0 2 2-5 9-3-2 1-5 4-2z" fill="#6C6C6C"/>
<path transform="translate(984,69)" d="m0 0 1 2-4 8-3 1 1-6 3-4z" fill="#5B5B5B"/>
<path transform="translate(1651,68)" d="m0 0 3 1v2l-8 4-3 1 1-4z" fill="#464646"/>
<path transform="translate(1307,862)" d="m0 0 1 3-9 9h-2l2-4z" fill="#323232"/>
<path transform="translate(745,548)" d="m0 0 8 1 8 2v1h-8l-7-1z" fill="#2B2B2B"/>
<path transform="translate(1218,532)" d="m0 0 4 1 6 7-3 1-7-7z" fill="#525252"/>
<path transform="translate(1513,522)" d="m0 0 2 3-3-1zm-5 2 3 2-6 7-4 2 2-4z" fill="#383838"/>
<path transform="translate(1828,449)" d="m0 0h1l1 23 1 3-4-1z" fill="#707070"/>
<path transform="translate(1783,367)" d="m0 0h3 1v7l-3 4-1-2z" fill="#4F4F4F"/>
<path transform="translate(130,340)" d="m0 0 3 1v2l5 5-1 3-5-5-4-3v-2z" fill="#484848"/>
<path transform="translate(1448,236)" d="m0 0 6 2-2 5-7-3 1-3z" fill="#3A3A3A"/>
<path transform="translate(758,162)" d="m0 0 3 3v2h2l-1 4h-5z" fill="#797979"/>
<path transform="translate(573,971)" d="m0 0 3 1 1 4-2 8h-1l-2-11z" fill="#464646"/>
<path transform="translate(1030,750)" d="m0 0 6 1 9 1v2h-9l-6-2z" fill="#393939"/>
<path transform="translate(1068,698)" d="m0 0h1l1 7-4 2-2-6v-2l4 1z" fill="#535353"/>
<path transform="translate(1637,693)" d="m0 0 9 1-1 2-6 3h-2z" fill="#FEFEFE"/>
<path transform="translate(745,652)" d="m0 0 4 1v6l-6-1z" fill="#3F3F3F"/>
<path transform="translate(1176,501)" d="m0 0h2l6 11-1 3-7-11z" fill="#333"/>
<path transform="translate(1084,433)" d="m0 0h2l-1 4-5 4h-3l1-3z" fill="#383838"/>
<path transform="translate(1642,400)" d="m0 0h3v8h-6z" fill="#5B5B5B"/>
<path transform="translate(1695,97)" d="m0 0h1v10l-3 6-2-4 3-7z" fill="#444"/>
<path transform="translate(756,84)" d="m0 0 4 1h-2v2l3 1-9 1-4-2z" fill="#5F5F5F"/>
<path transform="translate(1430,970)" d="m0 0 3 1-2 4h-8l-1-2h6v-2z" fill="#2A2A2A"/>
<path transform="translate(245,938)" d="m0 0 3 1-1 3-6 2v-2h-5l4-2z" fill="#3F3F3F"/>
<path transform="translate(431,922)" d="m0 0 2 1v7l-4 1-1-5 1-3z" fill="#454545"/>
<path transform="translate(238,912)" d="m0 0 6 1v2l-9 1-8-1v-1h11z" fill="#404040"/>
<path transform="translate(1402,861)" d="m0 0 2 4 1 6-1 5-3-1z" fill="#2C2C2C"/>
<path transform="translate(1414,842)" d="m0 0 3 1-3 4-3 8h-2l1-7z" fill="#303030"/>
<path transform="translate(1933,783)" d="m0 0 13 1v2h-13z" fill="#767676"/>
<path transform="translate(1020,744)" d="m0 0 4 1 9 4-3 2-5-2-5-3z" fill="#474747"/>
<path transform="translate(1211,523)" d="m0 0 5 3 4 6-3 1-6-7z" fill="#575757"/>
<path transform="translate(1871,459)" d="m0 0 2 2v5h-4l-1 2v-8z" fill="#5D5D5D"/>
<path transform="translate(1720,436)" d="m0 0 1 4-4 6-4 1 2-4z" fill="#454545"/>
<path transform="translate(1911,433)" d="m0 0v3 3l-2 1h-11l3-3 7-1z" fill="#575757"/>
<path transform="translate(1172,426)" d="m0 0h1l1 12h-2l-1 3-1-9h2z" fill="#5F5F5F"/>
<path transform="translate(1027,362)" d="m0 0 3 1-1 3-6 3h-2l1-4z" fill="#383838"/>
<path transform="translate(751,128)" d="m0 0h11l-1 2 3 1-1 1h-8v-2z" fill="#797979"/>
<path transform="translate(748,96)" d="m0 0h15l-1 3-12-1z" fill="#727272"/>
<path transform="translate(745,55)" d="m0 0 5 2 3 7v4l-3-1h2l-7-10z" fill="#666"/>
<path transform="translate(1069,654)" d="m0 0h1v18l-2 1-1-2v-6h1z" fill="#4F4F4F"/>
<path transform="translate(1519,512)" d="m0 0 3 1-2 5h-3-2l-2 1 2-5h4z" fill="#3E3E3E"/>
<path transform="translate(1866,415)" d="m0 0 5 2 5 7-4-1-6-6z" fill="#373737"/>
<path transform="translate(128,404)" d="m0 0h1v5h2v11l-3-4z" fill="#505050"/>
<path transform="translate(1685,402)" d="m0 0 3 4-1 3-12-1v-1l7-1 2-1z" fill="#636363"/>
<path transform="translate(1038,385)" d="m0 0h7v2l-9 1-6 2v-2z" fill="#494949"/>
<path transform="translate(1911,379)" d="m0 0v3 3l-5 2h-5v-2l7-3z" fill="#5B5B5B"/>
<path transform="translate(1e3 358)" d="m0 0h2l-1 4-5 4-3-1 5-5z" fill="#454545"/>
<path transform="translate(1224,279)" d="m0 0 1 3-2 4-6 2 2-4z" fill="#5C5C5C"/>
<path transform="translate(979,736)" d="m0 0 2 3 3 10-3 1-2-7z" fill="#5C5C5C"/>
<path transform="translate(140,493)" d="m0 0 2 2 1 13h-2l-2-14z" fill="#5F5F5F"/>
<path transform="translate(1875,451)" d="m0 0 3 1-7 8-2 2 1-6z" fill="#404040"/>
<path transform="translate(1054,394)" d="m0 0 5 2 3 4-1 3h-2l-4-6z" fill="#515151"/>
<path transform="translate(1688,369)" d="m0 0 9 5v3l-6-2-2-2 1-1-2-1z" fill="#484848"/>
<path transform="translate(1056,365)" d="m0 0 5 2 4 3-2 2-9-5z" fill="#424242"/>
<path transform="translate(1372,228)" d="m0 0 12 1-2 1v2l-11-1z" fill="#4D4D4D"/>
<path transform="translate(745,170)" d="m0 0 2 4 2 1-6 3-1-7z" fill="#545454"/>
<path transform="translate(1056,123)" d="m0 0h3v2l-7 4-5-1 3-2z" fill="#4A4A4A"/>
<path transform="translate(1673,68)" d="m0 0 5 1 5 4-2 2-5-3-4-2z" fill="#444"/>
<path transform="translate(987,60)" d="m0 0h1l-1 7-5 5 1-6z" fill="#3F3F3F"/>
<path transform="translate(555,978)" d="m0 0h1v8l-1 5-2-2v-7z" fill="#2C2C2C"/>
<path transform="translate(1068,725)" d="m0 0h3l1 6-2 3v-2l-3 1z" fill="#505050"/>
<path transform="translate(1724,411)" d="m0 0h2v3h2l-1 9h-2z" fill="#5C5C5C"/>
<path transform="translate(1650,390)" d="m0 0h2l-2 4-6 7-1-3z" fill="#555"/>
<path transform="translate(1169,390)" d="m0 0h3v14h-1l-1-7h-1z" fill="#6B6B6B"/>
<path transform="translate(1660,385)" d="m0 0h7l1 2-13 2v-2z" fill="#3F3F3F"/>
<path transform="translate(1516,332)" d="m0 0 3 4 1 8h-2l-3-9z" fill="#494949"/>
<path transform="translate(1491,294)" d="m0 0 4 2 2 2 1 5-4-2-3-4z" fill="#444"/>
<path transform="translate(1461,244)" d="m0 0 5 2-1 3-3 1-5-4z" fill="#3D3D3D"/>
<path transform="translate(1416,843)" d="m0 0 2 3-6 9-1-4z" fill="#444"/>
<path transform="translate(982,748)" d="m0 0 3 1 3 5v3l-4-2-2-4z" fill="#393939"/>
<path transform="translate(1694,722)" d="m0 0 1 2h2l-3 9h-2l1-7z" fill="#474747"/>
<path transform="translate(1655,690)" d="m0 0 3 1-1 3h-9v-2z" fill="#545454"/>
<path transform="translate(750,657)" d="m0 0 2 1-1 6h-5v-5z" fill="#A1A1A1"/>
<path transform="translate(1399,582)" d="m0 0h5v2l-5 2h-5l1-3z" fill="#383838"/>
<path transform="translate(1661,356)" d="m0 0 2 1v3l-6 3h-2l1-4z" fill="#444"/>
<path transform="translate(1882,345)" d="m0 0 16 1v1l-10 1-6 1v-3z" fill="#636363"/>
<path transform="translate(760,330)" d="m0 0h1l-1 15h-1l-1-11-3-2z" fill="#343434"/>
<path transform="translate(745,302)" d="m0 0h14v1l-9 1-1 2h-4z" fill="#606060"/>
<path transform="translate(752,178)" d="m0 0h3v3h11v1l-9 1h-4z" fill="#767676"/>
<path transform="translate(766,155)" d="m0 0h7v3l-5-1 1 3-4-2-1-2z" fill="#494949"/>
<path transform="translate(1007,42)" d="m0 0 3 1-5 4-5 3v-3z" fill="#3F3F3F"/>
</svg>
