<svg width="120" height="120" xmlns="http://www.w3.org/2000/svg" xmlns:xlink="http://www.w3.org/1999/xlink" xml:space="preserve" overflow="hidden"><g><path d="M3.8147e-06 3.8147e-06 120 3.8147e-06 120 120 3.8147e-06 120Z" fill="#FFFFFF"/><path d="M27.8843 27.8843 92.1157 27.8843 92.1157 92.1157 27.8843 92.1157Z" fill="#696969"/><path d="M109.729 60C109.729 87.4644 87.4644 109.729 60 109.729 32.5356 109.729 10.2712 87.4644 10.2712 60 10.2712 32.5356 32.5356 10.2712 60 10.2712 87.4644 10.2712 109.729 32.5356 109.729 60Z" stroke="#FF0000" stroke-width="0.271248" fill="#FFFF00" fill-opacity="0.5"/><path d="M27.8843 27.8843 92.1157 27.8843 92.1157 92.1157 27.8843 92.1157Z" stroke="#000000" stroke-width="0.180832" fill="none"/><text fill="#0000CD" font-family="Arial,Arial_MSFontService,sans-serif" font-weight="400" font-size="66" transform="matrix(0.0904159 0 0 0.0904159 49.7378 60)">IMX</text><text fill="#0000CD" font-family="Arial,Arial_MSFontService,sans-serif" font-weight="400" font-size="66" transform="matrix(0.0904159 0 0 0.0904159 60.226 60)">676</text><text fill="#0000CD" font-family="Arial,Arial_MSFontService,sans-serif" font-weight="400" font-size="66" transform="matrix(0.0904159 0 0 0.0904159 52.9928 66)">L</text><text fill="#0000CD" font-family="Arial,Arial_MSFontService,sans-serif" font-weight="400" font-size="66" transform="matrix(0.0904159 0 0 0.0904159 56.3382 66)">16</text><text fill="#0000CD" font-family="Arial,Arial_MSFontService,sans-serif" font-weight="400" font-size="66" transform="matrix(0.0904159 0 0 0.0904159 63.0289 66)">A</text></g></svg>