<svg width="120" height="120" xmlns="http://www.w3.org/2000/svg" xmlns:xlink="http://www.w3.org/1999/xlink" xml:space="preserve" overflow="hidden"><g><path d="M3.8147e-06 3.8147e-06 120 3.8147e-06 120 120 3.8147e-06 120Z" fill="#FFFFFF"/><path d="M27.8843 27.8843 92.1157 27.8843 92.1157 92.1157 27.8843 92.1157Z" fill="#696969"/><path d="M110 60C110 87.6142 87.6142 110 60 110 32.3858 110 10 87.6142 10 60 10 32.3858 32.3858 10 60 10 87.6142 10 110 32.3858 110 60Z" stroke="#FF0000" stroke-width="0.271248" fill="#FFFF00" fill-opacity="0.5"/><path d="M27.8843 27.8843 92.1157 27.8843 92.1157 92.1157 27.8843 92.1157Z" stroke="#000000" stroke-width="0.180832" fill="none"/><text fill="#0000CD" font-family="Arial,Arial_MSFontService,sans-serif" font-weight="400" font-size="66" transform="matrix(0.0904159 0 0 0.0904159 49.7378 60)">IMX</text><text fill="#0000CD" font-family="Arial,Arial_MSFontService,sans-serif" font-weight="400" font-size="66" transform="matrix(0.0904159 0 0 0.0904159 60.226 60)">676</text><text fill="#0000CD" font-family="Arial,Arial_MSFontService,sans-serif" font-weight="400" font-size="66" transform="matrix(0.0904159 0 0 0.0904159 52.9928 66)">L</text><text fill="#0000CD" font-family="Arial,Arial_MSFontService,sans-serif" font-weight="400" font-size="66" transform="matrix(0.0904159 0 0 0.0904159 56.3382 66)">92</text><text fill="#0000CD" font-family="Arial,Arial_MSFontService,sans-serif" font-weight="400" font-size="66" transform="matrix(0.0904159 0 0 0.0904159 63.0289 66)">A</text></g></svg>