<svg width="120" height="69" xmlns="http://www.w3.org/2000/svg" xmlns:xlink="http://www.w3.org/1999/xlink" xml:space="preserve" overflow="hidden"><defs><clipPath id="clip0"><rect x="0" y="0" width="120" height="69"/></clipPath></defs><g clip-path="url(#clip0)"><path d="M0 0.214286 120 0.214286 120 68.7857 0 68.7857Z" fill="#FFFFFF"/><path d="M60 61.9286 5.19506 64.3214C6.5166 34.0534 32.1249 10.5878 62.3929 11.9093 90.8094 13.15 113.564 35.9049 114.805 64.3214L60 61.9286" stroke="#000000" stroke-width="0.285714" fill="#FF0000" fill-opacity="0.2"/><path d="M60 61.9286 5.19506 64.3214C6.5166 34.0534 32.1249 10.5878 62.3929 11.9093 90.8094 13.15 113.564 35.9049 114.805 64.3214L60 61.9286" stroke="#000000" stroke-width="0.285714" fill="#FF0000" fill-opacity="0.2"/><path d="M60 61.9286 5.19506 64.3214C6.5166 34.0534 32.1249 10.5878 62.3929 11.9093 90.8094 13.15 113.564 35.9049 114.805 64.3214L60 61.9286" stroke="#000000" stroke-width="0.285714" fill="#FF0000" fill-opacity="0.2"/><text fill="#0000CD" font-family="Arial,Arial_MSFontService,sans-serif" font-weight="400" font-size="24" transform="matrix(0.285714 0 0 0.285714 50.4286 21)">L</text><text fill="#0000CD" font-family="Arial,Arial_MSFontService,sans-serif" font-weight="400" font-size="24" transform="matrix(0.285714 0 0 0.285714 54.1429 21)">185</text><text fill="#0000CD" font-family="Arial,Arial_MSFontService,sans-serif" font-weight="400" font-size="24" transform="matrix(0.285714 0 0 0.285714 65.2857 21)">A</text><text fill="#0000CD" font-family="Arial,Arial_MSFontService,sans-serif" font-weight="400" font-size="24" transform="matrix(0.285714 0 0 0.285714 39.7143 28)">FOV</text><text fill="#0000CD" font-family="Arial,Arial_MSFontService,sans-serif" font-weight="400" font-size="24" transform="matrix(0.285714 0 0 0.285714 53.7143 28)">_</text><text fill="#0000CD" font-family="Arial,Arial_MSFontService,sans-serif" font-weight="400" font-size="24" transform="matrix(0.285714 0 0 0.285714 57.4286 28)">H</text><text fill="#0000CD" font-family="Arial,Arial_MSFontService,sans-serif" font-weight="400" font-size="24" transform="matrix(0.285714 0 0 0.285714 62.2857 28)">=</text><text fill="#0000CD" font-family="Arial,Arial_MSFontService,sans-serif" font-weight="400" font-size="24" transform="matrix(0.285714 0 0 0.285714 66.2857 28)">185</text><text fill="#0000CD" font-family="Arial,Arial_MSFontService,sans-serif" font-weight="400" font-size="24" transform="matrix(0.285714 0 0 0.285714 77.4286 28)">°</text></g></svg>