<svg width="120" height="69" xmlns="http://www.w3.org/2000/svg" xmlns:xlink="http://www.w3.org/1999/xlink" xml:space="preserve" overflow="hidden"><defs><clipPath id="clip0"><rect x="0" y="0" width="120" height="69"/></clipPath></defs><g clip-path="url(#clip0)"><path d="M0 0.214286 120 0.214286 120 68.7857 0 68.7857Z" fill="#FFFFFF"/><path d="M60 61.9286 20.5391 23.8216C41.5849 2.02793 76.3134 1.42175 98.1069 22.4677 98.566 22.9111 99.0174 23.3624 99.4609 23.8216L60 61.9286" stroke="#000000" stroke-width="0.285714" fill="#FF0000" fill-opacity="0.2"/><path d="M60 61.9286 20.5391 23.8216C41.5849 2.02793 76.3134 1.42175 98.1069 22.4677 98.566 22.9111 99.0174 23.3624 99.4609 23.8216L60 61.9286" stroke="#000000" stroke-width="0.285714" fill="#FF0000" fill-opacity="0.2"/><path d="M60 61.9286 20.5391 23.8216C41.5849 2.02793 76.3134 1.42175 98.1069 22.4677 98.566 22.9111 99.0174 23.3624 99.4609 23.8216L60 61.9286" stroke="#000000" stroke-width="0.285714" fill="#FF0000" fill-opacity="0.2"/><text fill="#0000CD" font-family="Arial,Arial_MSFontService,sans-serif" font-weight="400" font-size="24" transform="matrix(0.285714 0 0 0.285714 52.2857 21)">L</text><text fill="#0000CD" font-family="Arial,Arial_MSFontService,sans-serif" font-weight="400" font-size="24" transform="matrix(0.285714 0 0 0.285714 56 21)">92</text><text fill="#0000CD" font-family="Arial,Arial_MSFontService,sans-serif" font-weight="400" font-size="24" transform="matrix(0.285714 0 0 0.285714 63.4286 21)">A</text><text fill="#0000CD" font-family="Arial,Arial_MSFontService,sans-serif" font-weight="400" font-size="24" transform="matrix(0.285714 0 0 0.285714 41.5714 28)">FOV</text><text fill="#0000CD" font-family="Arial,Arial_MSFontService,sans-serif" font-weight="400" font-size="24" transform="matrix(0.285714 0 0 0.285714 55.5714 28)">_</text><text fill="#0000CD" font-family="Arial,Arial_MSFontService,sans-serif" font-weight="400" font-size="24" transform="matrix(0.285714 0 0 0.285714 59.2857 28)">H</text><text fill="#0000CD" font-family="Arial,Arial_MSFontService,sans-serif" font-weight="400" font-size="24" transform="matrix(0.285714 0 0 0.285714 64.1429 28)">=</text><text fill="#0000CD" font-family="Arial,Arial_MSFontService,sans-serif" font-weight="400" font-size="24" transform="matrix(0.285714 0 0 0.285714 68.1429 28)">92</text><text fill="#0000CD" font-family="Arial,Arial_MSFontService,sans-serif" font-weight="400" font-size="24" transform="matrix(0.285714 0 0 0.285714 75.5714 28)">°</text></g></svg>