<svg width="120" height="69" xmlns="http://www.w3.org/2000/svg" xmlns:xlink="http://www.w3.org/1999/xlink" xml:space="preserve" overflow="hidden"><defs><clipPath id="clip0"><rect x="0" y="0" width="120" height="69"/></clipPath></defs><g clip-path="url(#clip0)"><path d="M0 0.214286 120 0.214286 120 68.7857 0 68.7857Z" fill="#FFFFFF"/><path d="M60 61.9286 15.0637 30.4637C32.4411 5.64614 66.6471-0.38528 91.4649 16.9922 96.7066 20.6627 101.266 25.2219 104.936 30.4637L60 61.9286" stroke="#000000" stroke-width="0.285714" fill="#FF0000" fill-opacity="0.2"/><path d="M60 61.9286 15.0637 30.4637C32.4411 5.64614 66.6471-0.38528 91.4649 16.9922 96.7066 20.6627 101.266 25.2219 104.936 30.4637L60 61.9286" stroke="#000000" stroke-width="0.285714" fill="#FF0000" fill-opacity="0.2"/><path d="M60 61.9286 15.0637 30.4637C32.4411 5.64614 66.6471-0.38528 91.4649 16.9922 96.7066 20.6627 101.266 25.2219 104.936 30.4637L60 61.9286" stroke="#000000" stroke-width="0.285714" fill="#FF0000" fill-opacity="0.2"/><text fill="#0000CD" font-family="Arial,Arial_MSFontService,sans-serif" font-weight="400" font-size="24" transform="matrix(0.285714 0 0 0.285714 50.7143 21)">L</text><text fill="#0000CD" font-family="Arial,Arial_MSFontService,sans-serif" font-weight="400" font-size="24" transform="matrix(0.285714 0 0 0.285714 54.4286 21)">110</text><text fill="#0000CD" font-family="Arial,Arial_MSFontService,sans-serif" font-weight="400" font-size="24" transform="matrix(0.285714 0 0 0.285714 65 21)">A</text><text fill="#0000CD" font-family="Arial,Arial_MSFontService,sans-serif" font-weight="400" font-size="24" transform="matrix(0.285714 0 0 0.285714 40 28)">FOV</text><text fill="#0000CD" font-family="Arial,Arial_MSFontService,sans-serif" font-weight="400" font-size="24" transform="matrix(0.285714 0 0 0.285714 54 28)">_</text><text fill="#0000CD" font-family="Arial,Arial_MSFontService,sans-serif" font-weight="400" font-size="24" transform="matrix(0.285714 0 0 0.285714 57.7143 28)">H</text><text fill="#0000CD" font-family="Arial,Arial_MSFontService,sans-serif" font-weight="400" font-size="24" transform="matrix(0.285714 0 0 0.285714 62.5714 28)">=</text><text fill="#0000CD" font-family="Arial,Arial_MSFontService,sans-serif" font-weight="400" font-size="24" transform="matrix(0.285714 0 0 0.285714 66.5714 28)">110</text><text fill="#0000CD" font-family="Arial,Arial_MSFontService,sans-serif" font-weight="400" font-size="24" transform="matrix(0.285714 0 0 0.285714 77.1429 28)">°</text></g></svg>