<svg width="501" height="227" xmlns="http://www.w3.org/2000/svg" xmlns:xlink="http://www.w3.org/1999/xlink" xml:space="preserve" overflow="hidden"><defs><clipPath id="clip0"><rect x="0" y="0" width="501" height="227"/></clipPath></defs><g clip-path="url(#clip0)"><path d="M0 0-0.551867-0.110373-1.10373-0.220747-1.6556-0.33112-2.0971-0.551867-2.64896-0.772614-3.09046-1.10373-3.53195-1.54523-3.86307-1.98672-4.19419-2.42822-4.41494-2.86971-4.63568-3.42158-4.74606-3.97344-4.85643-4.52531-4.85643-5.07718-4.85643-5.62904-4.74606-6.18091-4.52531-6.73278-4.30456-7.17427-3.97344-7.61577-3.64232-8.05726-3.3112-8.49875-2.86971-8.82987-2.42822-9.16099-1.87635-9.38174-1.32448-9.60249-0.882987-9.71286-0.33112-9.82323 0.33112-9.82323 0.882987-9.71286 1.32448-9.60249 1.87635-9.38174 2.42822-9.16099 2.86971-8.82987 3.3112-8.49875 3.64232-8.05726 3.97344-7.61577 4.30456-7.17427 4.52531-6.73278 4.74606-6.18091 4.85643-5.62904 4.85643-5.07718 4.85643-4.52531 4.74606-3.97344 4.63568-3.42158 4.41494-2.86971 4.19419-2.42822 3.86307-1.98672 3.53195-1.54523 3.09046-1.10373 2.64896-0.772614 2.0971-0.551867 1.6556-0.33112 1.10373-0.220747 0.551867-0.110373 0 0M6.95353-7.72614-6.95353-2.0971" stroke="#808080" stroke-width="0.562904" stroke-miterlimit="10" fill="none" transform="matrix(1 0 0 -1.00044 7.25731 104.156)"/><text fill="#808080" font-family="Century Gothic,Century Gothic_MSFontService,sans-serif" font-weight="400" font-size="13" transform="matrix(0 -1.10422 1.10373 0 12.6687 101)">1</text><text fill="#808080" font-family="Century Gothic,Century Gothic_MSFontService,sans-serif" font-weight="400" font-size="13" transform="matrix(0 -1.10422 1.10373 0 12.6687 93)">7</text><text fill="#808080" font-family="Century Gothic,Century Gothic_MSFontService,sans-serif" font-weight="400" font-size="13" transform="matrix(0 -1.10422 1.10373 0 12.6687 85)">,</text><text fill="#808080" font-family="Century Gothic,Century Gothic_MSFontService,sans-serif" font-weight="400" font-size="13" transform="matrix(0 -1.10422 1.10373 0 12.6687 81)">4</text><text fill="#808080" font-family="Century Gothic,Century Gothic_MSFontService,sans-serif" font-weight="400" font-size="13" transform="matrix(0 -1.10422 1.10373 0 12.6687 73)">0</text><text fill="#808080" font-family="Century Gothic,Century Gothic_MSFontService,sans-serif" font-weight="400" font-size="13" transform="matrix(0 -1.10422 1.10373 0 12.6687 65)"> </text><text fill="#808080" font-family="Century Gothic,Century Gothic_MSFontService,sans-serif" font-weight="400" font-size="13" transform="matrix(0 -1.10422 1.10373 0 244.043 199)">0</text><text fill="#808080" font-family="Century Gothic,Century Gothic_MSFontService,sans-serif" font-weight="400" font-size="13" transform="matrix(0 -1.10422 1.10373 0 244.043 191)"> </text><text fill="#808080" font-family="Century Gothic,Century Gothic_MSFontService,sans-serif" font-weight="400" font-size="13" transform="matrix(0 -1.10422 1.10373 0 202.665 219)">6</text><text fill="#808080" font-family="Century Gothic,Century Gothic_MSFontService,sans-serif" font-weight="400" font-size="13" transform="matrix(0 -1.10422 1.10373 0 202.665 211)">,</text><text fill="#808080" font-family="Century Gothic,Century Gothic_MSFontService,sans-serif" font-weight="400" font-size="13" transform="matrix(0 -1.10422 1.10373 0 202.665 207)">6</text><text fill="#808080" font-family="Century Gothic,Century Gothic_MSFontService,sans-serif" font-weight="400" font-size="13" transform="matrix(0 -1.10422 1.10373 0 202.665 199)">1</text><text fill="#808080" font-family="Century Gothic,Century Gothic_MSFontService,sans-serif" font-weight="400" font-size="13" transform="matrix(0 -1.10422 1.10373 0 202.665 191)"> </text><text fill="#808080" font-family="Century Gothic,Century Gothic_MSFontService,sans-serif" font-weight="400" font-size="13" transform="matrix(0 -1.10422 1.10373 0 155.739 228)">1</text><text fill="#808080" font-family="Century Gothic,Century Gothic_MSFontService,sans-serif" font-weight="400" font-size="13" transform="matrix(0 -1.10422 1.10373 0 155.739 219)">4</text><text fill="#808080" font-family="Century Gothic,Century Gothic_MSFontService,sans-serif" font-weight="400" font-size="13" transform="matrix(0 -1.10422 1.10373 0 155.739 211)">,</text><text fill="#808080" font-family="Century Gothic,Century Gothic_MSFontService,sans-serif" font-weight="400" font-size="13" transform="matrix(0 -1.10422 1.10373 0 155.739 207)">1</text><text fill="#808080" font-family="Century Gothic,Century Gothic_MSFontService,sans-serif" font-weight="400" font-size="13" transform="matrix(0 -1.10422 1.10373 0 155.739 199)">1</text><text fill="#808080" font-family="Century Gothic,Century Gothic_MSFontService,sans-serif" font-weight="400" font-size="13" transform="matrix(0 -1.10422 1.10373 0 155.739 191)"> </text><text fill="#808080" font-family="Century Gothic,Century Gothic_MSFontService,sans-serif" font-weight="400" font-size="13" transform="matrix(0 -1.10422 1.10373 0 83.1454 228)">3</text><text fill="#808080" font-family="Century Gothic,Century Gothic_MSFontService,sans-serif" font-weight="400" font-size="13" transform="matrix(0 -1.10422 1.10373 0 83.1454 219)">0</text><text fill="#808080" font-family="Century Gothic,Century Gothic_MSFontService,sans-serif" font-weight="400" font-size="13" transform="matrix(0 -1.10422 1.10373 0 83.1454 211)">,</text><text fill="#808080" font-family="Century Gothic,Century Gothic_MSFontService,sans-serif" font-weight="400" font-size="13" transform="matrix(0 -1.10422 1.10373 0 83.1454 207)">2</text><text fill="#808080" font-family="Century Gothic,Century Gothic_MSFontService,sans-serif" font-weight="400" font-size="13" transform="matrix(0 -1.10422 1.10373 0 83.1454 199)">8</text><text fill="#808080" font-family="Century Gothic,Century Gothic_MSFontService,sans-serif" font-weight="400" font-size="13" transform="matrix(0 -1.10422 1.10373 0 83.1454 191)"> </text><text fill="#808080" font-family="Century Gothic,Century Gothic_MSFontService,sans-serif" font-weight="400" font-size="13" transform="matrix(0 -1.10422 1.10373 0 42.0887 228)">3</text><text fill="#808080" font-family="Century Gothic,Century Gothic_MSFontService,sans-serif" font-weight="400" font-size="13" transform="matrix(0 -1.10422 1.10373 0 42.0887 219)">2</text><text fill="#808080" font-family="Century Gothic,Century Gothic_MSFontService,sans-serif" font-weight="400" font-size="13" transform="matrix(0 -1.10422 1.10373 0 42.0887 211)">,</text><text fill="#808080" font-family="Century Gothic,Century Gothic_MSFontService,sans-serif" font-weight="400" font-size="13" transform="matrix(0 -1.10422 1.10373 0 42.0887 207)">2</text><text fill="#808080" font-family="Century Gothic,Century Gothic_MSFontService,sans-serif" font-weight="400" font-size="13" transform="matrix(0 -1.10422 1.10373 0 42.0887 199)">7</text><text fill="#808080" font-family="Century Gothic,Century Gothic_MSFontService,sans-serif" font-weight="400" font-size="13" transform="matrix(0 -1.10422 1.10373 0 42.0887 191)"> </text><text fill="#808080" font-family="Century Gothic,Century Gothic_MSFontService,sans-serif" font-weight="400" font-size="12" transform="matrix(1.10373 0 0 1.10422 39.578 11)">M</text><text fill="#808080" font-family="Century Gothic,Century Gothic_MSFontService,sans-serif" font-weight="400" font-size="12" transform="matrix(1.10373 0 0 1.10422 51.4899 11)">1</text><text fill="#808080" font-family="Century Gothic,Century Gothic_MSFontService,sans-serif" font-weight="400" font-size="12" transform="matrix(1.10373 0 0 1.10422 58.9016 11)">2</text><text fill="#808080" font-family="Century Gothic,Century Gothic_MSFontService,sans-serif" font-weight="400" font-size="12" transform="matrix(1.10373 0 0 1.10422 66.3134 11)"> </text><text fill="#808080" font-family="Century Gothic,Century Gothic_MSFontService,sans-serif" font-weight="400" font-size="12" transform="matrix(1.10373 0 0 1.10422 70.0193 11)">P</text><text fill="#808080" font-family="Century Gothic,Century Gothic_MSFontService,sans-serif" font-weight="400" font-size="12" transform="matrix(1.10373 0 0 1.10422 77.4311 11)">0</text><text fill="#808080" font-family="Century Gothic,Century Gothic_MSFontService,sans-serif" font-weight="400" font-size="12" transform="matrix(1.10373 0 0 1.10422 84.8428 11)">.</text><text fill="#808080" font-family="Century Gothic,Century Gothic_MSFontService,sans-serif" font-weight="400" font-size="12" transform="matrix(1.10373 0 0 1.10422 88.5487 11)">5</text><text fill="#808080" font-family="Century Gothic,Century Gothic_MSFontService,sans-serif" font-weight="400" font-size="13" transform="matrix(1.10373 0 0 1.10422 351.615 195)">2</text><text fill="#808080" font-family="Century Gothic,Century Gothic_MSFontService,sans-serif" font-weight="400" font-size="13" transform="matrix(1.10373 0 0 1.10422 359.706 195)">0</text><text fill="#808080" font-family="Century Gothic,Century Gothic_MSFontService,sans-serif" font-weight="400" font-size="13" transform="matrix(1.10373 0 0 1.10422 367.797 195)">,</text><text fill="#808080" font-family="Century Gothic,Century Gothic_MSFontService,sans-serif" font-weight="400" font-size="13" transform="matrix(1.10373 0 0 1.10422 371.843 195)">0</text><text fill="#808080" font-family="Century Gothic,Century Gothic_MSFontService,sans-serif" font-weight="400" font-size="13" transform="matrix(1.10373 0 0 1.10422 379.934 195)">0</text><text fill="#808080" font-family="Century Gothic,Century Gothic_MSFontService,sans-serif" font-weight="400" font-size="13" transform="matrix(1.10373 0 0 1.10422 388.025 195)"> </text><text fill="#808080" font-family="Century Gothic,Century Gothic_MSFontService,sans-serif" font-weight="400" font-size="13" transform="matrix(1.10373 0 0 1.10422 351.615 213)">2</text><text fill="#808080" font-family="Century Gothic,Century Gothic_MSFontService,sans-serif" font-weight="400" font-size="13" transform="matrix(1.10373 0 0 1.10422 359.706 213)">6</text><text fill="#808080" font-family="Century Gothic,Century Gothic_MSFontService,sans-serif" font-weight="400" font-size="13" transform="matrix(1.10373 0 0 1.10422 367.797 213)">,</text><text fill="#808080" font-family="Century Gothic,Century Gothic_MSFontService,sans-serif" font-weight="400" font-size="13" transform="matrix(1.10373 0 0 1.10422 371.843 213)">5</text><text fill="#808080" font-family="Century Gothic,Century Gothic_MSFontService,sans-serif" font-weight="400" font-size="13" transform="matrix(1.10373 0 0 1.10422 379.934 213)">0</text><text fill="#808080" font-family="Century Gothic,Century Gothic_MSFontService,sans-serif" font-weight="400" font-size="13" transform="matrix(1.10373 0 0 1.10422 388.025 213)"> </text><text fill="#808080" font-family="Century Gothic,Century Gothic_MSFontService,sans-serif" font-weight="400" font-size="13" transform="matrix(0 -1.10422 1.10373 0 475.494 107)">2</text><text fill="#808080" font-family="Century Gothic,Century Gothic_MSFontService,sans-serif" font-weight="400" font-size="13" transform="matrix(0 -1.10422 1.10373 0 475.494 99)">0</text><text fill="#808080" font-family="Century Gothic,Century Gothic_MSFontService,sans-serif" font-weight="400" font-size="13" transform="matrix(0 -1.10422 1.10373 0 475.494 90)">,</text><text fill="#808080" font-family="Century Gothic,Century Gothic_MSFontService,sans-serif" font-weight="400" font-size="13" transform="matrix(0 -1.10422 1.10373 0 475.494 86)">0</text><text fill="#808080" font-family="Century Gothic,Century Gothic_MSFontService,sans-serif" font-weight="400" font-size="13" transform="matrix(0 -1.10422 1.10373 0 475.494 78)">0</text><text fill="#808080" font-family="Century Gothic,Century Gothic_MSFontService,sans-serif" font-weight="400" font-size="13" transform="matrix(0 -1.10422 1.10373 0 475.494 70)"> </text><text fill="#808080" font-family="Century Gothic,Century Gothic_MSFontService,sans-serif" font-weight="400" font-size="13" transform="matrix(0 -1.10422 1.10373 0 494.27 107)">2</text><text fill="#808080" font-family="Century Gothic,Century Gothic_MSFontService,sans-serif" font-weight="400" font-size="13" transform="matrix(0 -1.10422 1.10373 0 494.27 99)">6</text><text fill="#808080" font-family="Century Gothic,Century Gothic_MSFontService,sans-serif" font-weight="400" font-size="13" transform="matrix(0 -1.10422 1.10373 0 494.27 90)">,</text><text fill="#808080" font-family="Century Gothic,Century Gothic_MSFontService,sans-serif" font-weight="400" font-size="13" transform="matrix(0 -1.10422 1.10373 0 494.27 86)">5</text><text fill="#808080" font-family="Century Gothic,Century Gothic_MSFontService,sans-serif" font-weight="400" font-size="13" transform="matrix(0 -1.10422 1.10373 0 494.27 78)">0</text><text fill="#808080" font-family="Century Gothic,Century Gothic_MSFontService,sans-serif" font-weight="400" font-size="13" transform="matrix(0 -1.10422 1.10373 0 494.27 70)"> </text><path d="M0 0-7.83651 6.84315-5.4083 8.94025 0 0" stroke="#000000" stroke-width="0.562904" stroke-miterlimit="10" fill="none" transform="matrix(1 0 0 -1.00044 128.448 51.0429)"/><path d="M0 0 0 0.33112-0.110373 0.662241-0.33112 0.993361-0.551867 1.32448-0.772614 1.54523-1.10373 1.76597-1.43485 1.98672-1.76597 2.0971-2.0971 2.0971-2.53859 2.0971-2.86971 1.98672-3.20083 1.76597-3.53195 1.54523-3.7527 1.32448-3.97344 0.993361-4.08382 0.662241-4.19419 0.33112-4.19419 0-4.19419-0.441494-4.08382-0.772614-3.97344-1.10373-3.7527-1.43485-3.53195-1.6556-3.20083-1.87635-2.86971-1.98672-2.53859-2.0971-2.0971-2.20747-1.76597-2.0971-1.43485-1.98672-1.10373-1.87635-0.772614-1.6556-0.551867-1.43485-0.33112-1.10373-0.110373-0.772614 3.36982e-16-0.441494 3.36982e-16 0M-43.4871 0-33.112 1.54523-33.112-1.6556-43.4871 0M-90.3958 0-80.1311 1.54523-80.1311-1.6556-90.3958 0M-163.022 0-152.646 1.54523-152.646-1.6556-163.022 0M-204.08 0-193.705 1.54523-193.705-1.6556-204.08 0" stroke="#808080" stroke-width="0.562904" stroke-miterlimit="10" fill="none" transform="matrix(1 0 0 -1.00044 240.588 183.882)"/><path d="M0 0 10.2647 1.54523 10.2647-1.6556 0 0M165.781 0 155.406-1.6556 155.406 1.54523 165.781 0" stroke="#808080" stroke-width="0.562904" stroke-miterlimit="10" fill="none" transform="matrix(1 0 0 -1.00044 285.399 215.904)"/><path d="M0 0 10.2647 1.54523 10.2647-1.6556 0 0M125.163 0 114.788-1.6556 114.788 1.54523 125.163 0" stroke="#808080" stroke-width="0.562904" stroke-miterlimit="10" fill="none" transform="matrix(1 0 0 -1.00044 305.708 198.457)"/><path d="M0 0-1.6556 10.2647 1.54523 10.2647 0 0M0 108.828 1.54523 98.5635-1.6556 98.5635 0 108.828M462.685-8.16763 461.03 2.20747 464.231 2.20747 462.685-8.16763M462.685 116.996 464.231 106.621 461.03 106.621 462.685 116.996M481.449-28.4763 479.793-18.2116 482.994-18.2116 481.449-28.4763M481.449 137.305 482.994 127.04 479.793 127.04 481.449 137.305" stroke="#808080" stroke-width="0.562904" stroke-miterlimit="10" fill="none" transform="matrix(1 0 0 -1.00044 15.9774 143.025)"/><path d="M0 0 224.661 0" stroke="#000000" stroke-width="0.562904" stroke-linecap="round" stroke-linejoin="round" stroke-miterlimit="10" stroke-dasharray="47.6813 3.97344 3.97344 3.97344" fill="none" transform="matrix(1 0 0 -1.00044 30.2901 88.5392)"/><path d="M0 0-181.518 0" stroke="#000000" stroke-width="0.562904" stroke-linecap="round" stroke-linejoin="round" stroke-miterlimit="10" stroke-dasharray="47.6813 3.97344 3.97344 3.97344" fill="none" transform="matrix(1 0 0 -1.00044 457.589 88.5392)"/><path d="M0 0 0-177.379" stroke="#000000" stroke-width="0.562904" stroke-linecap="round" stroke-linejoin="round" stroke-miterlimit="10" stroke-dasharray="47.6813 3.97344 3.97344 3.97344" fill="none" transform="matrix(1 0 0 -1.00044 368.317 0.28187)"/><path d="M0 0 56.6216 0M56.6216 0 87.4157-36.644" stroke="#000000" stroke-width="0.562904" stroke-linecap="round" stroke-linejoin="round" stroke-miterlimit="10" fill="none" transform="matrix(1 0 0 -1.00044 41.0317 14.3823)"/><path d="M0 0 0-12.3618M-41.39 20.4191-41.39-12.3618M0-9.16099-41.39-9.16099M-88.2987 40.8382-88.2987-12.3618M-41.39-9.16099-88.2987-9.16099M-160.924 3.3112-160.924-12.3618M-88.2987-9.16099-160.924-9.16099M-160.924 3.3112-189.511 18.8739M-189.511 18.8739-189.511 29.8008M-201.983 83.0008-201.983-12.3618M-160.924-9.16099-201.983-9.16099" stroke="#808080" stroke-width="0.562904" stroke-linecap="round" stroke-linejoin="round" stroke-miterlimit="10" fill="none" transform="matrix(1 0 0 -1.00044 238.491 174.716)"/><path d="M0 0 0 0" stroke="#808080" stroke-width="0.562904" stroke-linecap="round" stroke-linejoin="round" stroke-miterlimit="10" fill="none" transform="matrix(1 0 0 -1.00044 238.491 183.882)"/><path d="M0 0 0-58.1668M165.781 0 165.781-58.1668M0-54.966 165.781-54.966" stroke="#808080" stroke-width="0.562904" stroke-linecap="round" stroke-linejoin="round" stroke-miterlimit="10" fill="none" transform="matrix(1 0 0 -1.00044 285.399 160.914)"/><path d="M0 0 0-56.6216M125.163 0 125.163-56.6216M0-53.5311 125.163-53.5311" stroke="#808080" stroke-width="0.562904" stroke-linecap="round" stroke-linejoin="round" stroke-miterlimit="10" fill="none" transform="matrix(1 0 0 -1.00044 305.708 144.902)"/><path d="M0 0-34.3261 0M0 108.828-34.3261 108.828M-31.1253 0-31.1253 108.828M377.477-8.16763 434.651-8.16763M377.477 116.996 434.651 116.996M431.56-8.16763 431.56 116.996M393.481-28.4763 453.414-28.4763M393.481 137.305 453.414 137.305M450.324-28.4763 450.324 137.305" stroke="#808080" stroke-width="0.562904" stroke-linecap="round" stroke-linejoin="round" stroke-miterlimit="10" fill="none" transform="matrix(1 0 0 -1.00044 47.1028 143.025)"/><path d="M0 0-7.83651 6.84315-5.4083 8.94025" transform="matrix(1 0 0 -1.00044 128.448 51.0429)"/><path d="M0 0 10.3751 1.54523 10.3751-1.6556M-46.9087 0-36.644 1.54523-36.644-1.6556M-119.534 0-109.159 1.54523-109.159-1.6556M-160.593 0-150.218 1.54523-150.218-1.6556" fill="#808080" transform="matrix(1 0 0 -1.00044 197.101 183.882)"/><path d="M0 0 10.2647 1.54523 10.2647-1.6556M165.781 0 155.406-1.6556 155.406 1.54523" fill="#808080" transform="matrix(1 0 0 -1.00044 285.399 215.904)"/><path d="M0 0 10.2647 1.54523 10.2647-1.6556M125.163 0 114.788-1.6556 114.788 1.54523" fill="#808080" transform="matrix(1 0 0 -1.00044 305.708 198.457)"/><path d="M0 0-1.6556 10.2647 1.54523 10.2647M0 108.828 1.54523 98.5635-1.6556 98.5635M462.685-8.16763 461.03 2.20747 464.231 2.20747M462.685 116.996 464.231 106.621 461.03 106.621M481.449-28.4763 479.793-18.2116 482.994-18.2116M481.449 137.305 482.994 127.04 479.793 127.04" fill="#808080" transform="matrix(1 0 0 -1.00044 15.9774 143.025)"/><path d="M0 0 3.20083 0M3.20083 108.828 0 108.828M-22.8473 0-3.09046 0M-3.09046 108.828-22.8473 108.828M-22.8473 108.828-24.0614 107.614M-24.0614 1.21411-22.8473-6.37203e-15M-3.09046 1.87635 0 1.87635M0 106.952-3.09046 106.952M-24.0614 96.6871-24.5029 96.0249-26.6 92.3826-28.5867 88.7402-30.3527 84.8772-31.8979 81.0141-33.2224 77.0407-34.3261 73.0672-35.2091 68.9834-35.8714 64.7892-36.3129 60.7054-36.5336 56.5112-36.5336 52.317-36.3129 48.1228-35.8714 44.039-35.2091 39.8448-34.3261 35.761-33.2224 31.7875-31.8979 27.8141-30.3527 23.951-28.5867 20.088-26.6 16.4456-24.5029 12.8033-24.0614 12.1411M3.20083 9.38174 23.6199 9.38174M23.6199 99.4465 3.20083 99.4465M23.6199 9.38174 24.2822 9.93361M24.2822 98.7842 23.6199 99.4465M38.9618 90.0647 38.0788 91.6099M39.6241 17.2183 40.507 18.7635M36.7543 17.6597 37.4166 18.7635M54.6348 90.0647 54.1934 90.8373 53.7519 91.6099M57.7253 90.0647 57.2838 90.8373 56.8423 91.6099M60.8158 90.0647 60.3743 90.8373 60.0431 91.6099M64.0166 90.0647 63.5751 90.8373 63.1336 91.6099M64.6788 17.2183 65.1203 17.9909 65.5618 18.7635M61.5884 17.2183 62.0299 17.9909 62.361 18.7635M58.3875 17.2183 58.829 17.9909 59.2705 18.7635M55.2971 17.2183 55.7386 17.9909 56.1801 18.7635M55.4075 91.6099 54.966 90.8373 54.6348 90.0647M58.6083 91.6099 58.1668 90.8373 57.7253 90.0647M61.6987 91.6099 61.2573 90.8373 60.8158 90.0647M64.7892 91.6099 64.3477 90.8373 64.0166 90.0647M65.5618 18.7635 66.0033 17.9909 66.4448 17.2183M62.361 18.7635 62.8025 17.9909 63.244 17.2183M59.2705 18.7635 59.712 17.9909 60.1535 17.2183M56.1801 18.7635 56.6216 17.9909 57.0631 17.2183M67.107 90.0647 66.6656 90.8373 66.2241 91.6099M70.1975 90.0647 69.8664 90.8373 69.4249 91.6099M73.3983 90.0647 72.9568 90.8373 72.5153 91.6099M76.4888 90.0647 76.0473 90.8373 75.6058 91.6099M77.151 17.2183 77.2614 17.3286M74.0606 17.2183 74.5021 17.9909 74.9436 18.7635M70.9701 17.2183 71.4116 17.9909 71.8531 18.7635M67.7693 17.2183 68.2108 17.9909 68.6523 18.7635M67.99 91.6099 67.5485 90.8373 67.107 90.0647M71.0805 91.6099 70.639 90.8373 70.1975 90.0647M74.2813 91.6099 73.8398 90.8373 73.3983 90.0647M77.151 91.1684 76.9303 90.8373 76.4888 90.0647M74.9436 18.7635 75.3851 17.9909 75.8265 17.2183M71.7427 18.7635 72.1842 17.9909 72.6257 17.2183M68.6523 18.7635 69.0938 17.9909 69.5353 17.2183M42.0523 90.0647 41.6108 90.8373 41.1693 91.6099M45.2531 90.0647 44.8116 90.8373 44.3701 91.6099M48.3436 90.0647 47.9021 90.8373 47.4606 91.6099M51.434 90.0647 50.9925 90.8373 50.551 91.6099M52.2066 17.2183 52.6481 17.9909 52.9792 18.7635M49.0058 17.2183 49.4473 17.9909 49.8888 18.7635M45.9153 17.2183 46.3568 17.9909 46.7983 18.7635M42.8249 17.2183 43.2664 17.9909 43.5975 18.7635M42.9353 91.6099 42.4938 90.8373 42.0523 90.0647M46.0257 91.6099 45.5842 90.8373 45.2531 90.0647M49.2265 91.6099 48.7851 90.8373 48.3436 90.0647M52.317 91.6099 51.8755 90.8373 51.434 90.0647M52.9792 18.7635 53.4207 17.9909 53.8622 17.2183M49.8888 18.7635 50.3303 17.9909 50.7718 17.2183M46.7983 18.7635 47.2398 17.9909 47.6813 17.2183M43.5975 18.7635 44.039 17.9909 44.4805 17.2183M39.8448 91.6099 39.4033 90.8373 38.9618 90.0647M40.507 18.7635 40.9485 17.9909 41.39 17.2183M37.4166 18.7635 37.8581 17.9909 38.2996 17.2183M75.8265 17.2183 77.151 17.2183M72.6257 17.2183 74.0606 17.2183M69.5353 17.2183 70.9701 17.2183M66.4448 17.2183 67.7693 17.2183M63.244 17.2183 64.6788 17.2183M60.1535 17.2183 61.5884 17.2183M57.0631 17.2183 58.3875 17.2183M53.8622 17.2183 55.2971 17.2183M50.7718 17.2183 52.2066 17.2183M47.6813 17.2183 49.0058 17.2183M44.4805 17.2183 45.9153 17.2183M41.39 17.2183 42.8249 17.2183M38.2996 17.2183 39.6241 17.2183M38.0788 91.6099 36.7543 91.6099M41.1693 91.6099 39.8448 91.6099M44.3701 91.6099 42.9353 91.6099M47.4606 91.6099 46.0257 91.6099M50.551 91.6099 49.2265 91.6099M53.7519 91.6099 52.317 91.6099M56.8423 91.6099 55.4075 91.6099M59.9328 91.6099 58.6083 91.6099M63.1336 91.6099 61.6987 91.6099M66.2241 91.6099 64.8996 91.6099M69.3145 91.6099 67.99 91.6099M72.5153 91.6099 71.0805 91.6099M75.6058 91.6099 74.2813 91.6099M24.2822 18.8739 36.7543 18.8739M36.7543 89.844 24.2822 89.844M174.39 63.7958 166.333 63.7958M166.333 45.0324 174.39 45.0324M166.333 63.7958 165.45 62.9129M165.45 45.9153 166.333 45.0324M174.39 45.0324 175.383 46.0257M175.383 62.8025 174.39 63.7958M116.554 59.3809 116.444 59.3809M116.444 49.4473 116.554 49.4473M116.444 59.3809 115.34 58.2772M115.34 50.4407 116.444 49.4473M77.151 12.3618 124.06 12.3618M124.06 96.4664 77.151 96.4664M77.151 11.2581 124.06 11.2581M124.06 97.5701 77.151 97.5701M165.45 7.94689 165.45 7.94689M165.671 129.137 165.45 129.137M165.45 122.956 165.671 122.956M165.45 35.0987 165.45 35.0987M165.671 75.6058 165.45 75.6058M165.45 69.4249 165.45 69.4249M165.45 86.0913 165.671 86.0913M0 108.828 0 108.828 0 108.607 0 108.166 0 107.504 0 106.621 0 105.517 0 104.303 0 102.758 0 101.102 0 99.2257 0 97.239 0 95.0315 0 92.6033 0 90.0647 0 87.4157 0 84.546 0 81.6763 0 78.5859 0 75.3851 0 72.1842 0 68.873 0 65.5618 0 62.1402 0 58.7187 0 55.2971 0 51.7651 0 48.3436 0 44.922 0 41.6108 0 38.1892 0 34.9884 0 31.7875 0 28.6971 0 25.717 0 22.8473 0 20.088 0 17.439 0 15.0108 0 12.6929 0 10.5958 0 8.60913 0 6.84315 0 5.29792 0 3.86307 0 2.64896 0 1.76597 0 0.993361 0 0.441494 0 0.110373 0 0M3.20083 0 3.20083 0.110373 3.20083 0.441494 3.20083 0.993361 3.20083 1.76597 3.20083 2.64896 3.20083 3.86307 3.20083 5.29792 3.20083 6.84315 3.20083 8.60913 3.20083 10.5958 3.20083 12.6929 3.20083 15.0108 3.20083 17.439 3.20083 20.088 3.20083 22.8473 3.20083 25.717 3.20083 28.6971 3.20083 31.7875 3.20083 34.9884 3.20083 38.1892 3.20083 41.6108 3.20083 44.922 3.20083 48.3436 3.20083 51.7651 3.20083 55.2971 3.20083 58.7187 3.20083 62.1402 3.20083 65.5618 3.20083 68.873 3.20083 72.1842 3.20083 75.3851 3.20083 78.5859 3.20083 81.6763 3.20083 84.546 3.20083 87.4157 3.20083 90.0647 3.20083 92.6033 3.20083 95.0315 3.20083 97.239 3.20083 99.2257 3.20083 101.102 3.20083 102.758 3.20083 104.303 3.20083 105.517 3.20083 106.621 3.20083 107.504 3.20083 108.166 3.20083 108.607 3.20083 108.828M-22.8473 0-22.8473 0.110373-22.8473 0.441494-22.8473 0.993361-22.8473 1.76597-22.8473 2.64896-22.8473 3.86307-22.8473 5.29792-22.8473 6.84315-22.8473 8.60913-22.8473 10.5958-22.8473 12.6929-22.8473 15.0108-22.8473 17.439-22.8473 20.088-22.8473 22.8473-22.8473 25.717-22.8473 28.6971-22.8473 31.7875-22.8473 34.9884-22.8473 38.1892-22.8473 41.6108-22.8473 44.922-22.8473 48.3436-22.8473 51.7651-22.8473 55.2971-22.8473 58.7187-22.8473 62.1402-22.8473 65.5618-22.8473 68.873-22.8473 72.1842-22.8473 75.3851-22.8473 78.5859-22.8473 81.6763-22.8473 84.546-22.8473 87.4157-22.8473 90.0647-22.8473 92.6033-22.8473 95.0315-22.8473 97.239-22.8473 99.2257-22.8473 101.102-22.8473 102.758-22.8473 104.303-22.8473 105.517-22.8473 106.621-22.8473 107.504-22.8473 108.166-22.8473 108.607-22.8473 108.828M-3.09046 0-3.09046 0.110373-3.09046 0.441494-3.09046 0.993361-3.09046 1.76597-3.09046 2.64896-3.09046 3.86307-3.09046 5.29792-3.09046 6.84315-3.09046 8.60913-3.09046 10.5958-3.09046 12.6929-3.09046 15.0108-3.09046 17.439-3.09046 20.088-3.09046 22.8473-3.09046 25.717-3.09046 28.6971-3.09046 31.7875-3.09046 34.9884-3.09046 38.1892-3.09046 41.6108-3.09046 44.922-3.09046 48.3436-3.09046 51.7651-3.09046 55.2971-3.09046 58.7187-3.09046 62.1402-3.09046 65.5618-3.09046 68.873-3.09046 72.1842-3.09046 75.3851-3.09046 78.5859-3.09046 81.6763-3.09046 84.546-3.09046 87.4157-3.09046 90.0647-3.09046 92.6033-3.09046 95.0315-3.09046 97.239-3.09046 99.2257-3.09046 101.102-3.09046 102.758-3.09046 104.303-3.09046 105.517-3.09046 106.621-3.09046 107.504-3.09046 108.166-3.09046 108.607-3.09046 108.828M-24.0614 107.614-24.0614 107.504-24.0614 107.173-24.0614 106.621-24.0614 105.848-24.0614 104.855-24.0614 103.751-24.0614 102.316-24.0614 100.771-24.0614 99.005-24.0614 97.0182-24.0614 94.9211-24.0614 92.6033-24.0614 90.1751-24.0614 87.5261-24.0614 84.8772-24.0614 82.0075-24.0614 79.0274-24.0614 75.9369-24.0614 72.7361-24.0614 69.5353-24.0614 66.2241-24.0614 62.9129-24.0614 59.4913-24.0614 56.0697-24.0614 52.6481-24.0614 49.3369-24.0614 45.9153-24.0614 42.6041-24.0614 39.2929-24.0614 36.0921-24.0614 32.8913-24.0614 29.8008-24.0614 26.8207-24.0614 23.951-24.0614 21.1917-24.0614 18.6531-24.0614 16.2249-24.0614 13.9071-24.0614 11.81-24.0614 9.82323-24.0614 8.05726-24.0614 6.51203-24.0614 5.07718-24.0614 3.97344-24.0614 2.98008-24.0614 2.20747-24.0614 1.6556-24.0614 1.32448-24.0614 1.21411M23.6199 9.38174 23.6199 9.49212 23.6199 9.82323 23.6199 10.3751 23.6199 11.1477 23.6199 12.0307 23.6199 13.2448 23.6199 14.6797 23.6199 16.2249 23.6199 17.9909 23.6199 19.8672 23.6199 21.9643 23.6199 24.2822 23.6199 26.7104 23.6199 29.249 23.6199 31.8979 23.6199 34.6573 23.6199 37.527 23.6199 40.507 23.6199 43.4871 23.6199 46.5776 23.6199 49.668 23.6199 52.8689 23.6199 55.9593 23.6199 59.1602 23.6199 62.2506 23.6199 65.3411 23.6199 68.3212 23.6199 71.3012 23.6199 74.1709 23.6199 76.9303 23.6199 79.5792 23.6199 82.1178 23.6199 84.546 23.6199 86.8639 23.6199 88.961 23.6199 90.8373 23.6199 92.6033 23.6199 94.1485 23.6199 95.5834 23.6199 96.7975 23.6199 97.6805 23.6199 98.4531 23.6199 99.005 23.6199 99.3361 23.6199 99.4465M24.2822 98.7842 24.2822 98.6738 24.2822 98.4531 24.2822 97.9012 24.2822 97.1286 24.2822 96.1353 24.2822 95.0315 24.2822 93.5967 24.2822 92.0514 24.2822 90.3958 24.2822 88.4091 24.2822 86.312 24.2822 84.1045 24.2822 81.7867 24.2822 79.2481 24.2822 76.5992 24.2822 73.8398 24.2822 71.0805 24.2822 68.1004 24.2822 65.1203 24.2822 62.1402 24.2822 59.0498 24.2822 55.9593 24.2822 52.8689 24.2822 49.7784 24.2822 46.688 24.2822 43.7079 24.2822 40.7278 24.2822 37.7477 24.2822 34.878 24.2822 32.229 24.2822 29.5801 24.2822 27.0415 24.2822 24.7236 24.2822 22.4058 24.2822 20.4191 24.2822 18.4324 24.2822 16.7768 24.2822 15.2315 24.2822 13.7967 24.2822 12.6929 24.2822 11.6996 24.2822 10.927 24.2822 10.3751 24.2822 10.044 24.2822 9.93361M39.6241 17.2183 39.6241 17.5494 39.5137 18.5427 39.4033 20.088 39.4033 22.1851 39.2929 24.9444 39.2929 28.1452 39.1826 31.7875 39.0722 35.8714 39.0722 40.1759 38.9618 44.8116 38.9618 49.5577 38.8514 54.4141 38.8514 59.2705 38.7411 64.0166 38.6307 68.6523 38.6307 72.9568 38.5203 77.0407 38.5203 80.683 38.41 83.8838 38.2996 86.6431 38.2996 88.7402 38.1892 90.2855 38.1892 91.2788 38.0788 91.6099M36.7543 17.6597 36.7543 17.6597 36.7543 18.1012 36.7543 19.0946 36.7543 19.7568 36.7543 20.5295 36.7543 21.4124 36.7543 22.5162 36.7543 24.6133 36.7543 27.0415 36.7543 28.0348 36.7543 29.1386 36.7543 30.2423 36.7543 31.4564 36.7543 32.7809 36.7543 36.0921 36.7543 39.6241 36.7543 43.3768M40.507 18.8739 40.507 18.9842 40.3967 19.7568 40.2863 21.3021 40.2863 23.3992 40.1759 26.0481 40.1759 29.1386 40.0656 32.7809 39.9552 36.8647 39.9552 41.1693 39.8448 45.805 39.7344 50.4407 39.7344 55.2971 39.6241 60.0431 39.6241 64.7892 39.5137 69.3145 39.4033 73.5087 39.4033 77.3718 39.2929 80.9037 39.2929 83.8838 39.1826 86.312 39.0722 88.1884 39.0722 89.4025 38.9618 89.9543M37.4166 18.7635 37.4166 18.7635 37.3062 19.3153 37.1958 20.4191 37.1958 22.1851 37.0855 24.6133 36.9751 27.483 36.9751 30.9046 36.8647 34.7676 36.8647 38.9618 36.7543 43.3768M39.6241 17.3286 39.6241 17.2183M64.6788 17.2183 64.5685 17.5494 64.5685 18.5427 64.4581 20.088 64.4581 22.1851 64.3477 24.9444 64.2373 28.1452 64.2373 31.7875 64.127 35.8714 64.127 40.1759 64.0166 44.8116 63.9062 49.5577 63.9062 54.4141 63.7958 59.2705 63.7958 64.0166 63.6855 68.6523 63.6855 72.9568 63.5751 77.0407 63.4647 80.683 63.4647 83.8838 63.3543 86.6431 63.3543 88.7402 63.244 90.2855 63.1336 91.2788 63.1336 91.6099M61.5884 17.3286 61.5884 17.2183M61.5884 17.2183 61.478 17.5494 61.3676 18.5427 61.3676 20.088 61.2573 22.1851 61.2573 24.9444 61.1469 28.1452 61.0365 31.7875 61.0365 35.8714 60.9261 40.1759 60.9261 44.8116 60.8158 49.5577 60.8158 54.4141 60.7054 59.2705 60.595 64.0166 60.595 68.6523 60.4846 72.9568 60.4846 77.0407 60.3743 80.683 60.2639 83.8838 60.2639 86.6431 60.1535 88.7402 60.1535 90.2855 60.0431 91.2788 59.9328 91.6099M58.3875 17.3286 58.3875 17.2183M58.3875 17.2183 58.3875 17.5494 58.2772 18.5427 58.2772 20.088 58.1668 22.1851 58.0564 24.9444 58.0564 28.1452 57.946 31.7875 57.946 35.8714 57.8357 40.1759 57.7253 44.8116 57.7253 49.5577 57.6149 54.4141 57.6149 59.2705 57.5046 64.0166 57.3942 68.6523 57.3942 72.9568 57.2838 77.0407 57.2838 80.683 57.1734 83.8838 57.0631 86.6431 57.0631 88.7402 56.9527 90.2855 56.9527 91.2788 56.8423 91.6099M55.2971 17.3286 55.2971 17.2183M55.2971 17.2183 55.1867 17.5494 55.1867 18.5427 55.0763 20.088 55.0763 22.1851 54.966 24.9444 54.8556 28.1452 54.8556 31.7875 54.7452 35.8714 54.7452 40.1759 54.6348 44.8116 54.5245 49.5577 54.5245 54.4141 54.4141 59.2705 54.4141 64.0166 54.3037 68.6523 54.1934 72.9568 54.1934 77.0407 54.083 80.683 54.083 83.8838 53.9726 86.6431 53.9726 88.7402 53.8622 90.2855 53.7519 91.2788 53.7519 91.6099M65.5618 18.7635 65.4514 18.9842 65.4514 19.7568 65.3411 21.1917 65.3411 23.1784 65.2307 25.717 65.1203 28.6971 65.1203 32.0083 65.0099 35.8714 65.0099 39.9552 64.8996 44.2597 64.7892 48.7851 64.7892 53.4207 64.6788 58.0564 64.6788 62.5817 64.5685 66.9967 64.5685 71.1909 64.4581 75.1643 64.3477 78.6963 64.3477 81.8971 64.2373 84.546 64.2373 86.7535 64.127 88.4091 64.0166 89.5128 64.0166 90.0647M62.361 18.7635 62.361 18.7635 62.361 19.4257 62.2506 20.5295 62.1402 22.2954 62.1402 24.5029 62.0299 27.3726 62.0299 30.5734 61.9195 34.2158 61.9195 38.1892 61.8091 42.3834 61.6987 46.7983 61.6987 51.434 61.5884 56.0697 61.5884 60.595 61.478 65.1203 61.3676 69.4249 61.3676 73.5087 61.2573 77.2614 61.2573 80.5726 61.1469 83.5527 61.0365 85.9809 61.0365 87.8572 60.9261 89.1817 60.9261 89.9543 60.8158 89.9543M59.2705 18.7635 59.2705 19.0946 59.1602 19.9776 59.0498 21.4124 59.0498 23.5095 58.9394 26.0481 58.9394 29.1386 58.829 32.5602 58.7187 36.4232 58.7187 40.507 58.6083 44.922 58.6083 49.4473 58.4979 54.083 58.3875 58.7187 58.3875 63.244 58.2772 67.6589 58.2772 71.8531 58.1668 75.7162 58.1668 79.2481 58.0564 82.3386 57.946 84.9875 57.946 87.0846 57.8357 88.6299 57.8357 89.6232 57.7253 90.0647M56.1801 18.8739 56.0697 18.8739 56.0697 19.5361 55.9593 20.7502 55.9593 22.6266 55.849 24.9444 55.7386 27.8141 55.7386 31.0149 55.6282 34.7676 55.6282 38.7411 55.5178 43.0456 55.5178 47.4606 55.4075 52.0963 55.2971 56.7319 55.2971 61.2573 55.1867 65.7826 55.1867 70.0871 55.0763 74.0606 54.966 77.7029 54.966 81.0141 54.8556 83.8838 54.8556 86.2016 54.7452 88.078 54.7452 89.2921 54.6348 89.9543M64.6788 17.3286 64.6788 17.2183M58.6083 91.6099 58.6083 91.2788 58.7187 90.2855 58.829 88.7402 58.829 86.6431 58.9394 83.8838 58.9394 80.683 59.0498 77.0407 59.1602 72.9568 59.1602 68.6523 59.2705 64.0166 59.2705 59.2705 59.3809 54.4141 59.3809 49.5577 59.4913 44.8116 59.6017 40.1759 59.6017 35.8714 59.712 31.7875 59.712 28.1452 59.8224 24.9444 59.9328 22.1851 59.9328 20.088 60.0431 18.5427 60.0431 17.5494 60.1535 17.2183M61.6987 91.4996 61.6987 91.6099M61.6987 91.6099 61.8091 91.2788 61.8091 90.2855 61.9195 88.7402 62.0299 86.6431 62.0299 83.8838 62.1402 80.683 62.1402 77.0407 62.2506 72.9568 62.2506 68.6523 62.361 64.0166 62.4714 59.2705 62.4714 54.4141 62.5817 49.5577 62.5817 44.8116 62.6921 40.1759 62.8025 35.8714 62.8025 31.7875 62.9129 28.1452 62.9129 24.9444 63.0232 22.1851 63.1336 20.088 63.1336 18.5427 63.244 17.5494 63.244 17.2183M64.7892 91.4996 64.8996 91.6099M64.8996 91.6099 64.8996 91.2788 65.0099 90.2855 65.0099 88.7402 65.1203 86.6431 65.1203 83.8838 65.2307 80.683 65.3411 77.0407 65.3411 72.9568 65.4514 68.6523 65.4514 64.0166 65.5618 59.2705 65.6722 54.4141 65.6722 49.5577 65.7826 44.8116 65.7826 40.1759 65.8929 35.8714 66.0033 31.7875 66.0033 28.1452 66.1137 24.9444 66.1137 22.1851 66.2241 20.088 66.3344 18.5427 66.3344 17.5494 66.4448 17.2183M55.4075 91.4996 55.4075 91.6099M55.4075 91.6099 55.5178 91.2788 55.6282 90.2855 55.6282 88.7402 55.7386 86.6431 55.7386 83.8838 55.849 80.683 55.9593 77.0407 55.9593 72.9568 56.0697 68.6523 56.0697 64.0166 56.1801 59.2705 56.2904 54.4141 56.2904 49.5577 56.4008 44.8116 56.4008 40.1759 56.5112 35.8714 56.6216 31.7875 56.6216 28.1452 56.7319 24.9444 56.7319 22.1851 56.8423 20.088 56.8423 18.5427 56.9527 17.5494 57.0631 17.2183M58.6083 91.4996 58.6083 91.6099M77.151 17.2183 77.151 17.5494 77.0407 18.5427 77.0407 20.088 76.9303 22.1851 76.8199 24.9444 76.8199 28.1452 76.7095 31.7875 76.7095 35.8714 76.5992 40.1759 76.4888 44.8116 76.4888 49.5577 76.3784 54.4141 76.3784 59.2705 76.268 64.0166 76.1577 68.6523 76.1577 72.9568 76.0473 77.0407 76.0473 80.683 75.9369 83.8838 75.9369 86.6431 75.8265 88.7402 75.7162 90.2855 75.7162 91.2788 75.6058 91.6099M74.0606 17.3286 74.0606 17.2183M74.0606 17.2183 73.9502 17.5494 73.9502 18.5427 73.8398 20.088 73.8398 22.1851 73.7295 24.9444 73.6191 28.1452 73.6191 31.7875 73.5087 35.8714 73.5087 40.1759 73.3983 44.8116 73.3983 49.5577 73.288 54.4141 73.1776 59.2705 73.1776 64.0166 73.0672 68.6523 73.0672 72.9568 72.9568 77.0407 72.8465 80.683 72.8465 83.8838 72.7361 86.6431 72.7361 88.7402 72.6257 90.2855 72.5153 91.2788 72.5153 91.6099M70.9701 17.3286 70.9701 17.2183M70.9701 17.2183 70.8597 17.5494 70.7494 18.5427 70.7494 20.088 70.639 22.1851 70.639 24.9444 70.5286 28.1452 70.5286 31.7875 70.4182 35.8714 70.3079 40.1759 70.3079 44.8116 70.1975 49.5577 70.1975 54.4141 70.0871 59.2705 69.9768 64.0166 69.9768 68.6523 69.8664 72.9568 69.8664 77.0407 69.756 80.683 69.6456 83.8838 69.6456 86.6431 69.5353 88.7402 69.5353 90.2855 69.4249 91.2788 69.3145 91.6099M67.7693 17.3286 67.7693 17.2183M67.7693 17.2183 67.7693 17.5494 67.6589 18.5427 67.6589 20.088 67.5485 22.1851 67.4382 24.9444 67.4382 28.1452 67.3278 31.7875 67.3278 35.8714 67.2174 40.1759 67.107 44.8116 67.107 49.5577 66.9967 54.4141 66.9967 59.2705 66.8863 64.0166 66.7759 68.6523 66.7759 72.9568 66.6656 77.0407 66.6656 80.683 66.5552 83.8838 66.5552 86.6431 66.4448 88.7402 66.3344 90.2855 66.3344 91.2788 66.2241 91.6099M77.2614 58.3875 77.151 61.2573 77.151 65.6722 77.0407 69.9768 76.9303 74.0606 76.9303 77.7029 76.8199 81.0141 76.8199 83.8838 76.7095 86.2016 76.7095 88.078 76.5992 89.2921 76.4888 89.9543M74.9436 18.7635 74.8332 19.0946 74.8332 20.088 74.7228 21.7436 74.6124 23.8407 74.6124 26.4896 74.5021 29.5801 74.5021 33.112 74.3917 36.9751 74.2813 41.1693 74.2813 45.4739 74.1709 50.1095 74.1709 54.6348 74.0606 59.2705 74.0606 63.7958 73.9502 68.2108 73.8398 72.2946 73.8398 76.1577 73.7295 79.6896 73.7295 82.6697 73.6191 85.3187 73.5087 87.3054 73.5087 88.8506 73.3983 89.7336 73.3983 90.0647M71.7427 18.8739 71.7427 18.8739 71.6324 19.6465 71.6324 20.971 71.522 22.8473 71.522 25.2755 71.4116 28.1452 71.4116 31.5668 71.3012 35.2091 71.1909 39.2929 71.1909 43.5975 71.0805 48.1228 71.0805 52.7585 70.9701 57.2838 70.8597 61.9195 70.8597 66.3344 70.7494 70.639 70.7494 74.6124 70.639 78.2548 70.639 81.4556 70.5286 84.2149 70.4182 86.5328 70.4182 88.2987 70.3079 89.4025 70.3079 89.9543 70.1975 89.9543M68.6523 18.7635 68.6523 18.7635 68.5419 19.205 68.5419 20.3087 68.4315 21.9643 68.4315 24.1718 68.3212 26.9311 68.2108 30.0216 68.2108 33.6639 68.1004 37.527 68.1004 41.7212 67.99 46.1361 67.99 50.7718 67.8797 55.4075 67.7693 59.9328 67.7693 64.4581 67.6589 68.873 67.6589 72.9568 67.5485 76.7095 67.4382 80.1311 67.4382 83.1112 67.3278 85.6498 67.3278 87.5261 67.2174 88.961 67.2174 89.844 67.107 89.9543M77.151 17.3286 77.151 17.2183M67.99 91.4996 67.99 91.6099M67.99 91.6099 67.99 91.2788 68.1004 90.2855 68.2108 88.7402 68.2108 86.6431 68.3212 83.8838 68.3212 80.683 68.4315 77.0407 68.5419 72.9568 68.5419 68.6523 68.6523 64.0166 68.6523 59.2705 68.7626 54.4141 68.873 49.5577 68.873 44.8116 68.9834 40.1759 68.9834 35.8714 69.0938 31.7875 69.0938 28.1452 69.2041 24.9444 69.3145 22.1851 69.3145 20.088 69.4249 18.5427 69.4249 17.5494 69.5353 17.2183M71.0805 91.4996 71.0805 91.6099M71.0805 91.6099 71.1909 91.2788 71.1909 90.2855 71.3012 88.7402 71.4116 86.6431 71.4116 83.8838 71.522 80.683 71.522 77.0407 71.6324 72.9568 71.7427 68.6523 71.7427 64.0166 71.8531 59.2705 71.8531 54.4141 71.9635 49.5577 71.9635 44.8116 72.0739 40.1759 72.1842 35.8714 72.1842 31.7875 72.2946 28.1452 72.2946 24.9444 72.405 22.1851 72.5153 20.088 72.5153 18.5427 72.6257 17.5494 72.6257 17.2183M74.1709 91.4996 74.2813 91.6099M74.2813 91.6099 74.2813 91.2788 74.3917 90.2855 74.3917 88.7402 74.5021 86.6431 74.6124 83.8838 74.6124 80.683 74.7228 77.0407 74.7228 72.9568 74.8332 68.6523 74.8332 64.0166 74.9436 59.2705 75.0539 54.4141 75.0539 49.5577 75.1643 44.8116 75.1643 40.1759 75.2747 35.8714 75.3851 31.7875 75.3851 28.1452 75.4954 24.9444 75.4954 22.1851 75.6058 20.088 75.7162 18.5427 75.7162 17.5494 75.8265 17.2183M49.0058 17.2183 49.0058 17.5494 48.8954 18.5427 48.7851 20.088 48.7851 22.1851 48.6747 24.9444 48.6747 28.1452 48.5643 31.7875 48.5643 35.8714 48.4539 40.1759 48.3436 44.8116 48.3436 49.5577 48.2332 54.4141 48.2332 59.2705 48.1228 64.0166 48.0124 68.6523 48.0124 72.9568 47.9021 77.0407 47.9021 80.683 47.7917 83.8838 47.6813 86.6431 47.6813 88.7402 47.5709 90.2855 47.5709 91.2788 47.4606 91.6099M45.9153 17.3286 45.9153 17.2183M45.9153 17.2183 45.805 17.5494 45.805 18.5427 45.6946 20.088 45.6946 22.1851 45.5842 24.9444 45.4739 28.1452 45.4739 31.7875 45.3635 35.8714 45.3635 40.1759 45.2531 44.8116 45.1427 49.5577 45.1427 54.4141 45.0324 59.2705 45.0324 64.0166 44.922 68.6523 44.8116 72.9568 44.8116 77.0407 44.7012 80.683 44.7012 83.8838 44.5909 86.6431 44.4805 88.7402 44.4805 90.2855 44.3701 91.2788 44.3701 91.6099M42.8249 17.3286 42.8249 17.2183M42.8249 17.2183 42.7145 17.5494 42.6041 18.5427 42.6041 20.088 42.4938 22.1851 42.4938 24.9444 42.3834 28.1452 42.273 31.7875 42.273 35.8714 42.1627 40.1759 42.1627 44.8116 42.0523 49.5577 41.9419 54.4141 41.9419 59.2705 41.8315 64.0166 41.8315 68.6523 41.7212 72.9568 41.7212 77.0407 41.6108 80.683 41.5004 83.8838 41.5004 86.6431 41.39 88.7402 41.39 90.2855 41.2797 91.2788 41.1693 91.6099M52.9792 18.7635 52.9792 18.7635 52.9792 19.205 52.8689 20.1983 52.8689 21.7436 52.7585 23.8407 52.6481 26.4896 52.6481 29.5801 52.5378 33.112 52.5378 36.9751 52.4274 41.1693 52.317 45.5842 52.317 50.1095 52.2066 54.7452 52.2066 59.3809 52.0963 63.9062 52.0963 68.2108 51.9859 72.405 51.8755 76.268 51.8755 79.6896 51.7651 82.7801 51.7651 85.3187 51.6548 87.3054 51.5444 88.8506 51.5444 89.7336 51.434 90.0647M49.8888 18.8739 49.8888 18.8739 49.7784 19.6465 49.668 20.971 49.668 22.8473 49.5577 25.2755 49.5577 28.2556 49.4473 31.5668 49.4473 35.3195 49.3369 39.4033 49.2265 43.7079 49.2265 48.2332 49.1162 52.7585 49.1162 57.3942 49.0058 62.0299 48.8954 66.4448 48.8954 70.639 48.7851 74.6124 48.7851 78.2548 48.6747 81.4556 48.6747 84.3253 48.5643 86.5328 48.4539 88.2987 48.4539 89.4025 48.3436 90.0647 48.3436 89.9543M46.7983 18.7635 46.7983 18.7635 46.688 19.3153 46.5776 20.3087 46.5776 21.9643 46.4672 24.1718 46.4672 26.9311 46.3568 30.1319 46.2465 33.6639 46.2465 37.6373 46.1361 41.8315 46.1361 46.2465 46.0257 50.7718 46.0257 55.4075 45.9153 60.0431 45.805 64.5685 45.805 68.873 45.6946 72.9568 45.6946 76.8199 45.5842 80.1311 45.4739 83.1112 45.4739 85.6498 45.3635 87.6365 45.3635 88.961 45.2531 89.844 45.2531 89.9543M43.5975 18.7635 43.5975 18.9842 43.4871 19.8672 43.4871 21.1917 43.3768 23.1784 43.3768 25.717 43.2664 28.6971 43.156 32.1187 43.156 35.8714 43.0456 39.9552 43.0456 44.3701 42.9353 48.8954 42.8249 53.4207 42.8249 58.0564 42.7145 62.6921 42.7145 67.107 42.6041 71.3012 42.4938 75.1643 42.4938 78.8066 42.3834 81.8971 42.3834 84.6564 42.273 86.8639 42.273 88.5195 42.1627 89.5128 42.0523 90.0647M52.2066 17.3286 52.2066 17.2183M52.2066 17.2183 52.0963 17.5494 51.9859 18.5427 51.9859 20.088 51.8755 22.1851 51.8755 24.9444 51.7651 28.1452 51.6548 31.7875 51.6548 35.8714 51.5444 40.1759 51.5444 44.8116 51.434 49.5577 51.3236 54.4141 51.3236 59.2705 51.2133 64.0166 51.2133 68.6523 51.1029 72.9568 51.1029 77.0407 50.9925 80.683 50.8821 83.8838 50.8821 86.6431 50.7718 88.7402 50.7718 90.2855 50.6614 91.2788 50.551 91.6099M49.0058 17.3286 49.0058 17.2183M52.317 91.6099 52.4274 91.2788 52.4274 90.2855 52.5378 88.7402 52.5378 86.6431 52.6481 83.8838 52.7585 80.683 52.7585 77.0407 52.8689 72.9568 52.8689 68.6523 52.9792 64.0166 53.0896 59.2705 53.0896 54.4141 53.2 49.5577 53.2 44.8116 53.3104 40.1759 53.4207 35.8714 53.4207 31.7875 53.5311 28.1452 53.5311 24.9444 53.6415 22.1851 53.7519 20.088 53.7519 18.5427 53.8622 17.5494 53.8622 17.2183M42.9353 91.4996 42.9353 91.6099M42.9353 91.6099 43.0456 91.2788 43.0456 90.2855 43.156 88.7402 43.156 86.6431 43.2664 83.8838 43.3768 80.683 43.3768 77.0407 43.4871 72.9568 43.4871 68.6523 43.5975 64.0166 43.7079 59.2705 43.7079 54.4141 43.8183 49.5577 43.8183 44.8116 43.9286 40.1759 44.039 35.8714 44.039 31.7875 44.1494 28.1452 44.1494 24.9444 44.2597 22.1851 44.2597 20.088 44.3701 18.5427 44.4805 17.5494 44.4805 17.2183M46.0257 91.4996 46.0257 91.6099M46.0257 91.6099 46.1361 91.2788 46.2465 90.2855 46.2465 88.7402 46.3568 86.6431 46.3568 83.8838 46.4672 80.683 46.5776 77.0407 46.5776 72.9568 46.688 68.6523 46.688 64.0166 46.7983 59.2705 46.9087 54.4141 46.9087 49.5577 47.0191 44.8116 47.0191 40.1759 47.1295 35.8714 47.1295 31.7875 47.2398 28.1452 47.3502 24.9444 47.3502 22.1851 47.4606 20.088 47.4606 18.5427 47.5709 17.5494 47.6813 17.2183M49.2265 91.4996 49.2265 91.6099M49.2265 91.6099 49.2265 91.2788 49.3369 90.2855 49.4473 88.7402 49.4473 86.6431 49.5577 83.8838 49.5577 80.683 49.668 77.0407 49.7784 72.9568 49.7784 68.6523 49.8888 64.0166 49.8888 59.2705 49.9992 54.4141 49.9992 49.5577 50.1095 44.8116 50.2199 40.1759 50.2199 35.8714 50.3303 31.7875 50.3303 28.1452 50.4407 24.9444 50.551 22.1851 50.551 20.088 50.6614 18.5427 50.6614 17.5494 50.7718 17.2183M52.317 91.4996 52.317 91.6099M39.8448 91.6099 39.8448 91.2788 39.9552 90.2855 40.0656 88.7402 40.0656 86.6431 40.1759 83.8838 40.1759 80.683 40.2863 77.0407 40.2863 72.9568 40.3967 68.6523 40.507 64.0166 40.507 59.2705 40.6174 54.4141 40.6174 49.5577 40.7278 44.8116 40.8382 40.1759 40.8382 35.8714 40.9485 31.7875 40.9485 28.1452 41.0589 24.9444 41.1693 22.1851 41.1693 20.088 41.2797 18.5427 41.2797 17.5494 41.39 17.2183M36.7543 91.1684 36.8647 90.2855 36.8647 88.7402 36.9751 86.6431 36.9751 84.1045 37.0855 81.1245 37.0855 77.7029 37.1958 73.9502 37.3062 69.8664 37.3062 65.4514 37.4166 61.0365 37.4166 56.4008 37.527 51.7651 37.527 47.1295 37.6373 42.6041 37.6373 38.2996 37.7477 34.3261 37.8581 30.5734 37.8581 27.1519 37.9685 24.2822 37.9685 21.7436 38.0788 19.8672 38.0788 18.4324 38.1892 17.5494 38.2996 17.2183M39.8448 91.4996 39.8448 91.6099M36.7543 43.3768 36.7543 47.7917 36.7543 51.7651 36.7543 55.849 36.7543 59.8224 36.7543 63.7958 36.7543 67.6589 36.7543 71.4116 36.7543 74.9436 36.7543 78.1444 36.7543 81.2348 36.7543 83.8838 36.7543 86.2016 36.7543 88.1884 36.7543 90.0647 36.7543 91.1684M36.7543 91.1684 36.7543 91.4996 36.7543 91.6099M166.333 63.7958 166.333 63.6855 166.333 63.4647 166.333 63.0232 166.333 62.2506 166.333 61.3676 166.333 60.3743 166.333 59.1602 166.333 57.946 166.333 56.5112 166.333 55.0763 166.333 53.6415 166.333 52.317 166.333 50.8821 166.333 49.5577 166.333 48.4539 166.333 47.3502 166.333 46.5776 166.333 45.805 166.333 45.3635 166.333 45.0324M174.39 63.7958 174.39 63.6855 174.39 63.4647 174.39 63.0232 174.39 62.2506 174.39 61.3676 174.39 60.3743 174.39 59.1602 174.39 57.946 174.39 56.5112 174.39 55.0763 174.39 53.6415 174.39 52.317 174.39 50.8821 174.39 49.5577 174.39 48.4539 174.39 47.3502 174.39 46.5776 174.39 45.805 174.39 45.3635 174.39 45.0324M175.383 62.8025 175.383 62.8025 175.383 62.5817 175.383 62.2506 175.383 61.6987 175.383 60.9261 175.383 59.9328 175.383 58.9394 175.383 57.7253 175.383 56.4008 175.383 55.0763 175.383 53.7519 175.383 52.4274 175.383 51.1029 175.383 49.8888 175.383 48.8954 175.383 47.9021 175.383 47.1295 175.383 46.5776 175.383 46.1361 175.383 46.0257M116.444 59.3809 116.444 59.3809 116.444 59.1602 116.444 58.7187 116.444 58.1668 116.444 57.3942 116.444 56.4008 116.444 55.4075 116.444 54.4141 116.444 53.4207 116.444 52.317 116.444 51.434 116.444 50.6614 116.444 50.1095 116.444 49.668 116.444 49.4473M115.34 58.2772 115.34 58.2772 115.34 58.0564 115.34 57.6149 115.34 56.9527 115.34 56.1801 115.34 55.2971 115.34 54.4141 115.34 53.4207 115.34 52.5378 115.34 51.7651 115.34 51.2133 115.34 50.7718 115.34 50.551 115.34 50.4407M116.554 60.1535 124.06 60.1535M116.554 60.1535 116.554 66.0033M116.554 66.0033 124.06 66.0033M116.554 48.6747 124.06 48.6747M116.554 48.6747 116.554 60.1535M116.554 42.8249 124.06 42.8249M116.554 42.8249 116.554 48.6747M124.06 40.6174 124.06 40.7278 124.06 41.0589 124.06 41.6108 124.06 42.3834 124.06 43.2664 124.06 44.3701 124.06 45.5842 124.06 47.0191 124.06 48.5643 124.06 50.1095 124.06 51.8755 124.06 53.5311 124.06 55.2971 124.06 56.9527 124.06 58.6083 124.06 60.2639 124.06 61.8091 124.06 63.1336 124.06 64.4581 124.06 65.5618 124.06 66.4448 124.06 67.2174 124.06 67.7693 124.06 68.1004 124.06 68.2108M124.06 68.2108 155.295 68.2108M124.06 40.6174 155.295 40.6174M124.06-8.16763 155.295-8.16763M124.06 1.21411 155.295 1.21411M124.06-8.16763 124.06-8.05726 124.06-7.72614 124.06-7.17427 124.06-6.40166 124.06-5.4083 124.06-4.30456 124.06-3.09046 124.06-1.6556 124.06-0.220747 124.06 1.21411M124.06 40.6174 124.06 1.21411M124.06 107.614 155.295 107.614M124.06 107.614 124.06 68.2108M124.06 116.996 155.295 116.996M124.06 107.614 124.06 109.049 124.06 110.484 124.06 111.808 124.06 113.133 124.06 114.236 124.06 115.23 124.06 116.002 124.06 116.554 124.06 116.885 124.06 116.996M116.554 48.8954 77.151 48.8954M77.151 59.9328 77.151 58.6083 77.151 57.2838 77.151 55.849 77.151 54.4141 77.151 52.9792 77.151 51.5444 77.151 50.2199 77.151 48.8954M116.554 59.9328 77.151 59.9328M124.06 38.2996 77.151 38.2996M77.151 48.8954 77.151 47.4606 77.151 46.0257 77.151 44.5909 77.151 43.2664 77.151 41.9419 77.151 40.6174 77.151 39.4033 77.151 38.2996M124.06 70.5286 77.151 70.5286M77.151 70.5286 77.151 69.4249 77.151 68.2108 77.151 66.8863 77.151 65.5618 77.151 64.127 77.151 62.8025 77.151 61.3676 77.151 59.9328M124.06 28.6971 77.151 28.6971M77.151 38.2996 77.151 36.8647 77.151 35.4299 77.151 34.1054 77.151 32.8913 77.151 31.6772 77.151 30.5734 77.151 29.5801 77.151 28.6971M124.06 80.1311 77.151 80.1311M77.151 80.1311 77.151 79.2481 77.151 78.2548 77.151 77.151 77.151 75.9369 77.151 74.7228 77.151 73.3983 77.151 71.9635 77.151 70.5286M124.06 20.971 77.151 20.971M77.151 28.6971 77.151 27.3726 77.151 26.1585 77.151 24.9444 77.151 23.951 77.151 22.9577 77.151 22.1851 77.151 21.4124 77.151 20.971M124.06 87.8572 77.151 87.8572M77.151 87.8572 77.151 87.3054 77.151 86.6431 77.151 85.8705 77.151 84.8772 77.151 83.8838 77.151 82.6697 77.151 81.4556 77.151 80.1311M124.06 15.4523 77.151 15.4523M77.151 20.971 77.151 19.7568 77.151 18.7635 77.151 17.8805 77.151 17.1079 77.151 16.4456 77.151 15.8938 77.151 15.5627 77.151 15.4523M124.06 93.3759 77.151 93.3759M77.151 93.3759 77.151 93.2655 77.151 92.8241 77.151 92.3826 77.151 91.7203 77.151 90.9477 77.151 90.0647 77.151 89.0714 77.151 87.8572M77.151 15.4523 77.151 14.5693 77.151 13.7967 77.151 13.2448 77.151 12.8033 77.151 12.4722 77.151 12.3618M77.151 96.4664 77.151 96.4664 77.151 96.356 77.151 96.0249 77.151 95.5834 77.151 95.0315 77.151 94.2589 77.151 93.3759M77.151 12.3618 77.151 12.0307 77.151 11.5892 77.151 11.3685 77.151 11.2581M77.151 97.5701 77.151 97.4597 77.151 97.239 77.151 96.7975 77.151 96.4664M170.417 105.186 170.417 105.186M170.417 105.186 170.417 103.641M170.417 105.186 170.417 105.186M170.417 105.186 170.417 105.186M170.417 105.186 170.417 105.186M170.417 105.186 168.54 105.186M165.671 12.6929 165.671 11.9203 165.671 11.5892M165.671 126.046 165.45 126.046M165.671 129.137 165.671 129.137 165.671 128.916 165.671 128.364 165.671 127.702 165.671 126.929 165.671 126.046M165.671 126.046 165.671 125.163 165.671 124.391 165.671 123.618 165.671 123.177 165.671 122.956M165.45 45.1427 165.45 45.1427M165.45 45.1427 166.222 45.1427M165.45 45.1427 165.45 45.1427M165.45 45.1427 165.45 45.1427M167.547 106.731 167.547 106.841M167.547 106.841 167.547 106.841 167.657 106.841 167.657 106.731M167.657 106.731 167.657 106.731 167.547 106.731M165.45 106.731 165.45 106.841M165.45 106.841 165.45 106.841 165.45 106.731M165.45 106.731 165.45 106.731M167.547 106.731 165.45 106.731M165.45 106.841 167.547 106.841M167.657 106.731 167.657 105.517M165.45 103.751 165.45 103.751M165.45 103.641 165.45 103.641M165.45 103.751 165.45 103.751 165.45 103.641M165.45 103.641 165.45 103.641 165.45 103.751M167.547 106.841 167.547 106.841 167.657 106.841 167.657 106.731M167.436 106.841 167.547 106.841M165.45 106.841 165.56 106.841M165.45 106.731 165.45 106.841M167.657 106.841 167.436 106.841M167.436 106.841 167.657 106.841M167.657 106.731 167.657 106.841M167.436 106.841 165.56 106.841M172.293-13.3552 172.514-13.6863M172.293-2.98008 172.293-13.3552M172.293-2.98008 172.514-2.64896M172.514-13.6863 172.514-2.64896M172.514-2.64896 172.293-2.42822M165.781-2.98008 172.293-2.98008M165.781-2.86971 165.781-2.98008M166.333-2.86971 165.781-2.86971M166.333-2.42822 166.333-2.86971M172.293-2.42822 166.333-2.42822M165.781-13.3552 165.781-2.98008M165.781-13.3552 172.293-13.3552M172.293-13.9071 172.514-13.6863M172.293-13.9071 166.333-13.9071M166.333-13.9071 166.333-13.4656M166.333-13.4656 165.781-13.4656M165.781-13.4656 165.781-13.3552M165.781-2.86971 166.333-2.86971M172.293-2.42822 172.514-2.64896M172.293-2.42822 172.293-2.42822M172.514-10.7062 172.514-12.6929M172.514-5.62904 172.514-10.7062M172.514-5.62904 172.514-3.64232M172.514-5.62904 172.514-3.64232M172.514-10.7062 172.514-5.62904M172.514-12.6929 172.514-10.7062M172.514-2.64896 172.514-13.6863M166.333-2.42822 166.995-2.42822M166.333-2.42822 166.995-2.42822M166.333-2.42822 166.995-2.42822M166.333-2.42822 166.995-2.42822M166.333-2.42822 166.995-2.42822M166.333-2.42822 166.995-2.42822M166.333-2.42822 166.995-2.42822M166.333-2.42822 166.995-2.42822M166.333-2.42822 166.995-2.42822M166.333-2.42822 166.995-2.42822M166.333-2.42822 166.995-2.42822M166.333-2.42822 166.995-2.42822M166.333-2.42822 166.995-2.42822M166.333-2.42822 166.995-2.42822M166.333-2.42822 166.995-2.42822M166.333-2.42822 166.995-2.42822M166.333-2.42822 166.995-2.42822M166.333-2.42822 166.995-2.42822M166.333-2.42822 166.995-2.42822M166.333-2.42822 166.995-2.42822M166.333-2.42822 166.995-2.42822M166.333-2.42822 166.995-2.42822M166.333-2.42822 166.995-2.42822M166.333-2.42822 166.995-2.42822M166.333-2.42822 166.995-2.42822M166.333-2.42822 166.995-2.42822M166.995-2.42822 166.995-2.42822M166.333-2.42822 166.995-2.42822M166.333-2.42822 166.995-2.42822M166.333-2.42822 166.995-2.42822M166.333-2.42822 166.995-2.42822M166.333-2.42822 166.995-2.42822M166.333-2.42822 172.293-2.42822M166.333-2.42822 166.995-2.42822M166.333-2.42822 166.333-2.42822M166.333-1.76597 166.333-1.6556 166.333-1.54523 166.222-1.54523 166.222-1.43485M166.222-1.43485 165.891-1.32448M165.45-0.551867 165.45-0.662241 165.45-0.772614 165.45-0.882987 165.56-0.993361 165.671-1.10373 165.671-1.21411 165.781-1.21411 165.891-1.32448M165.45 1.10373 166.002 1.10373M166.002 1.10373 166.002-0.551867M166.002-0.551867 166.002-0.551867 166.112-0.551867 166.112-0.662241 166.112-0.772614 166.222-0.772614M166.222-0.772614 166.443-0.882987M166.995-1.76597 166.995-1.6556 166.995-1.54523 166.885-1.43485 166.885-1.32448 166.774-1.21411 166.664-1.10373 166.553-0.993361 166.443-0.882987M166.995-1.76597 166.995-2.42822M166.333-2.42822 166.333-1.76597M166.002-0.551867 166.002 1.10373M166.002 1.10373 165.45 1.10373M166.995-1.76597 166.995-1.6556 166.995-1.54523 166.885-1.43485 166.885-1.32448 166.774-1.21411 166.664-1.10373 166.553-0.993361 166.443-0.882987M166.443-0.882987 166.222-0.772614M166.002-0.551867 166.002-0.551867 166.112-0.551867 166.112-0.662241 166.112-0.772614 166.222-0.772614M166.995-2.42822 166.995-1.76597M166.995-14.5693 166.995-13.9071M166.995-14.5693 166.995-14.6797 166.995-14.79 166.885-14.9004 166.885-15.0108 166.774-15.1212 166.664-15.2315 166.553-15.3419 166.443-15.4523M166.222-15.5627 166.443-15.4523M166.002-15.7834 166.002-15.7834 166.112-15.7834 166.112-15.673 166.112-15.5627 166.222-15.5627M166.002-17.439 166.002-15.7834M165.45-17.439 166.002-17.439M165.45-15.7834 165.45-15.673 165.45-15.5627 165.45-15.4523 165.56-15.3419 165.671-15.2315 165.671-15.1212 165.781-15.1212 165.891-15.0108M166.222-14.9004 165.891-15.0108M166.333-14.5693 166.333-14.5693 166.333-14.6797 166.333-14.79 166.222-14.79 166.222-14.9004M166.333-13.9071 166.333-14.5693M166.995-13.9071 166.995-14.5693M166.995-14.5693 166.995-14.6797 166.995-14.79 166.885-14.9004 166.885-15.0108 166.774-15.1212 166.664-15.2315M166.222-14.79 166.222-14.79 166.222-14.9004M165.891-15.0108 166.222-14.9004M165.671-15.1212 165.671-15.1212 165.781-15.1212 165.891-15.0108M166.002-15.7834 166.002-15.7834 166.112-15.7834 166.112-15.673 166.112-15.5627M166.002-15.7834 166.002-17.439M166.333-2.42822 166.333-1.76597M166.333-13.9071 166.333-14.5693M165.45 17.8805 165.45 17.8805M165.45 105.186 168.54 105.186M168.54 105.186 168.54 105.186M168.54 105.186 165.45 105.186M165.45 105.186 165.45 105.186M168.54 103.972 168.54 105.186M168.54 103.972 165.45 103.972M165.45 105.186 165.45 103.972M168.54 105.186 168.54 105.186M168.54 105.186 168.54 105.186M168.54 105.186 168.54 103.972M168.54 103.972 168.54 103.972M165.45 105.186 165.45 105.186M165.45 105.186 165.45 105.186M165.45 103.972 165.45 103.972M165.45 99.005 165.45 100.219M168.54 100.219 165.45 100.219M168.54 100.219 168.54 99.005M168.54 99.005 165.45 99.005M168.54 99.005 168.54 100.219M168.54 99.005 168.54 99.005M168.54 100.219 168.54 100.219M165.45 100.219 165.45 100.219M165.45 100.219 165.45 100.219M168.54 100.219 165.45 100.219M168.54 100.219 168.54 100.219M168.54 100.219 165.45 100.219M165.45 99.005 165.45 99.005M168.54 99.005 168.54 99.005M165.45 99.005 168.54 99.005M165.45 99.005 165.45 99.005M168.54 99.005 168.54 99.005M165.45 99.005 165.45 99.005M168.54 105.186 168.54 105.186M168.54 105.186 165.45 105.186M165.45 105.186 165.45 105.186M165.45 103.972 165.45 100.219M168.54 103.972 168.54 100.219M165.56 65.6722 167.988 65.6722M168.319 65.6722 168.319 65.6722M168.319 65.6722 168.319 63.7958M168.319 65.6722 168.319 63.7958M168.319 65.7826 168.319 65.7826 168.209 65.7826 168.099 65.7826M168.319 65.6722 168.319 65.6722 168.319 65.7826M168.319 65.6722 168.319 65.6722 168.209 65.6722 168.099 65.6722M168.099 65.6722 168.099 65.6722 168.099 65.7826M165.56 65.6722 165.45 65.6722M165.56 65.7826 165.56 65.6722M165.45 62.5817 165.45 62.5817 165.56 62.5817M168.099 65.7826 165.56 65.7826M168.099 65.6722 165.56 65.6722M168.319 66.8863 168.319 66.9967 168.319 67.107 168.209 67.2174 168.099 67.2174M168.319 66.8863 168.319 66.8863 168.209 66.8863 168.099 66.8863M168.099 66.8863 168.099 66.9967 168.099 67.107 168.099 67.2174M168.099 67.2174 165.56 67.2174M168.099 66.8863 165.56 66.8863M165.56 67.2174 165.56 67.2174 165.56 67.107 165.56 66.9967 165.56 66.8863M168.099 65.7826 168.099 66.8863M165.56 66.8863 165.56 65.7826M168.319 65.7826 168.319 66.8863M165.45 67.2174 165.45 67.2174 165.56 67.2174M168.319 65.6722 168.319 65.6722 168.319 65.7826M168.319 66.8863 168.319 66.9967 168.319 67.107 168.209 67.2174 168.099 67.2174M168.319 65.7826 168.319 66.8863M165.56 67.2174 168.099 67.2174M165.45 67.2174 165.45 67.2174 165.56 67.2174M168.54 71.6324 168.54 71.6324M165.45 71.6324 165.45 71.6324M168.54 77.9236 168.54 77.9236M168.54 77.9236 168.54 77.9236M168.54 77.9236 168.54 77.9236M165.45 77.9236 168.54 77.9236M165.45 77.9236 165.45 77.9236M168.54 77.9236 165.45 77.9236M168.54 77.9236 168.54 78.2548M165.45 77.9236 165.45 77.9236M165.45 77.9236 165.45 77.9236M168.54 84.8772 168.54 85.2083M168.54 84.8772 168.54 84.8772M168.54 84.8772 165.45 84.8772M165.45 84.7668 168.54 84.7668M165.45 84.8772 165.45 84.8772 165.45 84.7668M168.54 84.7668 168.54 84.7668 168.54 84.8772M168.54 84.8772 168.54 84.8772 168.54 84.7668M165.45 84.8772 165.45 84.8772M165.45 84.7668 165.45 84.7668 165.45 84.8772M168.54 129.247 168.54 129.247 168.54 129.358M168.54 129.247 168.54 129.247 168.54 129.358M168.54 129.247 168.54 129.247M165.45 129.358 168.54 129.358M168.54 129.247 165.45 129.247M165.45 129.358 165.45 129.358 165.45 129.247M168.54 128.033 168.54 129.247M168.54 129.247 168.54 128.033M168.54 128.033 168.54 128.033M168.54 128.033 165.671 128.033M165.45 129.247 165.45 129.247M165.45 129.358 165.45 129.358 165.45 129.247M168.54 124.28 165.671 124.28M168.54 124.28 168.54 123.066M168.54 124.28 165.671 124.28M168.54 124.28 168.54 124.28M168.54 124.28 168.54 124.28M168.54 124.28 165.671 124.28M168.54 123.066 168.54 124.28M168.54 123.066 168.54 123.066M168.54 123.066 168.54 123.066M165.671 123.066 168.54 123.066M168.54 123.066 168.54 123.066M168.54 129.358 165.45 129.358M168.54 129.247 168.54 129.247 168.54 129.358M165.45 129.358 165.45 129.358 165.45 129.247M168.54 128.033 168.54 124.28M168.54 63.7958 168.54 64.6788M165.45 17.7701 165.45 17.7701M168.54 71.6324 168.54 71.9635M168.54 71.6324 168.54 71.6324M168.54 71.6324 168.54 71.6324M165.45 71.6324 165.45 71.6324M165.45 71.6324 165.45 71.6324M168.54 68.2108 168.54 68.2108M168.54 68.2108 168.54 68.2108M165.45 68.2108 165.45 68.2108M165.45 68.2108 165.45 68.2108M168.54 68.2108 168.54 68.2108M165.45 78.2548 170.417 78.2548M170.417 78.3651 170.417 78.3651M170.417 78.3651 170.417 78.3651 170.417 78.2548M165.45 78.2548 165.45 78.2548 165.45 78.3651M168.319 64.6788 168.54 64.6788M168.54 64.6788 168.54 64.6788 168.54 64.7892M168.54 64.7892 168.54 64.7892M168.54 64.7892 168.54 64.7892 168.54 64.6788M168.54 64.7892 168.54 66.9967M168.54 43.4871 168.54 40.507M168.54 43.4871 168.54 43.4871M168.54 43.5975 168.54 43.5975 168.54 43.4871M168.54 43.4871 168.54 43.4871 168.54 43.5975M168.54 43.4871 165.45 43.4871M165.45 43.4871 165.45 43.4871 165.45 43.5975M165.45 43.5975 168.54 43.5975M165.45 43.4871 165.45 43.4871M165.45 43.5975 165.45 43.5975 165.45 43.4871M168.54 40.507 168.54 40.507M168.54 43.5975 168.54 43.5975 168.54 43.4871M168.54 43.5975 165.45 43.5975M165.45 43.4871 165.45 43.4871 165.45 43.5975M168.54 75.1643 168.54 72.1842M168.54 72.1842 168.54 72.1842M168.54 72.1842 168.54 75.1643M168.54 75.1643 168.54 75.1643M168.54 75.1643 165.45 75.1643M165.45 72.1842 168.54 72.1842M165.45 75.1643 165.45 72.1842M165.45 75.1643 165.45 75.1643 165.45 75.2747M165.45 75.2747 168.54 75.2747M168.54 75.2747 168.54 75.2747 168.54 75.1643M168.54 75.1643 168.54 75.1643 168.54 75.2747M165.45 75.1643 165.45 75.1643M165.45 75.2747 165.45 75.2747 165.45 75.1643M165.45 72.1842 165.45 72.1842M168.54 72.0739 168.54 72.0739 168.54 72.1842M168.54 72.0739 168.54 72.0739 168.54 72.1842M168.54 72.0739 165.45 72.0739M165.45 72.1842 165.45 72.1842 165.45 72.0739M165.45 72.1842 165.45 72.1842 165.45 72.0739M168.54 75.2747 168.54 75.2747 168.54 75.1643M168.54 75.2747 165.45 75.2747M165.45 75.1643 165.45 75.1643 165.45 75.2747M165.671 75.6058 165.671 75.6058 165.671 75.3851 165.671 75.2747M165.671 87.4157 165.671 86.8639 165.671 86.4224 165.671 86.0913M165.45 7.83651 165.45 7.83651M165.45 7.94689 165.45 7.94689 165.45 7.83651M165.45 7.94689 165.45 7.94689M165.45 7.83651 165.45 7.83651 165.45 7.94689M165.45 18.9842 165.45 18.9842M165.45 18.9842 165.45 18.9842M165.45 18.9842 165.45 18.9842M165.45 18.9842 165.45 18.9842M168.54 68.4315 168.54 68.4315M168.54 68.5419 168.54 68.5419 168.54 68.4315M168.54 68.2108 168.54 68.4315M165.45 68.4315 165.45 68.5419M165.45 68.4315 165.45 68.4315M170.417 83.2216 170.417 78.3651M170.417 78.3651 170.417 78.3651M170.417 78.3651 170.417 83.2216M170.417 83.2216 170.417 83.2216M170.417 83.2216 165.45 83.2216M165.45 83.2216 165.45 83.3319M165.45 83.3319 170.417 83.3319M170.417 83.3319 170.417 83.3319 170.417 83.2216M170.417 83.2216 170.417 83.3319M165.45 78.3651 170.417 78.3651M165.45 83.2216 165.45 78.3651M165.45 78.3651 165.45 78.3651M165.45 83.2216 165.45 83.2216M165.45 83.3319 165.45 83.3319 165.45 83.2216M170.417 78.3651 170.417 78.3651M170.417 78.3651 165.45 78.3651M165.45 78.3651 165.45 78.3651M170.417 78.3651 170.417 78.3651M165.45 78.3651 165.45 78.3651M170.417 83.3319 165.45 83.3319M170.417 83.3319 170.417 83.3319 170.417 83.2216M165.45 83.2216 165.45 83.3319M168.54 71.9635 168.54 72.1842M168.54 71.9635 168.54 71.9635M168.54 71.9635 165.45 71.9635M165.45 71.9635 165.45 71.9635M168.54 68.2108 168.54 68.2108M168.54 68.2108 168.54 68.2108M168.54 68.2108 165.45 68.2108M165.45 68.2108 165.45 68.2108M165.45 68.2108 165.45 68.2108M168.54 68.2108 165.45 68.2108M165.45 68.2108 168.54 68.2108M168.54 68.2108 168.54 66.9967M168.54 66.9967 168.54 66.9967M168.54 66.9967 168.54 68.2108M168.54 66.8863 168.319 66.8863M168.54 66.9967 168.54 66.9967 168.54 66.8863M168.54 66.9967 168.54 66.9967 168.54 66.8863M165.45 68.2108 165.45 71.9635M168.54 68.2108 168.54 71.9635M168.54 64.7892 168.54 63.7958M170.417 85.5394 170.417 83.2216M165.45 83.8838 165.45 83.8838M170.417 33.7743 170.417 33.7743 170.417 33.6639M170.417 33.6639 170.417 29.9112M170.417 27.7037 170.417 22.6266M170.417 20.4191 170.417 15.4523M165.781 22.6266 165.781 27.7037M170.417 15.4523 170.417 15.4523 170.417 15.3419M170.417 33.6639 170.417 33.6639 170.417 33.7743M165.45 34.2158 165.45 34.2158M165.45 31.4564 165.45 31.4564M165.45 34.2158 165.45 34.2158M165.45 19.8672 165.45 19.8672M165.45 14.9004 165.45 14.9004M165.45 17.6597 165.45 17.6597M165.45 17.6597 165.45 17.6597M166.333 112.581 166.333 111.698M166.333 111.698 166.443 111.698M166.333 118.762 166.333 120.086M166.443 120.086 166.333 120.086M165.45 111.698 166.333 111.698M165.45 114.236 165.45 114.236M166.333 120.086 165.45 120.086M166.443 111.698 166.443 111.698 166.553 111.698 166.664 111.698 166.774 111.698M166.774 120.086 166.774 120.086 166.664 120.086 166.553 120.086 166.443 120.086M170.527 126.046 170.527 123.618M168.54 126.046 170.527 126.046M168.54 123.618 170.527 123.618M170.527 114.236 170.527 111.698M166.774 111.698 170.527 111.698M170.527 114.236 168.54 114.236M170.527 117.658 170.527 120.086M168.54 117.658 170.527 117.658M170.527 120.086 166.774 120.086M171.851 114.236 171.851 111.698M170.527 111.698 170.858 111.698 171.079 111.698 171.3 111.698 171.52 111.698 171.631 111.698 171.741 111.698 171.851 111.698M171.851 114.236 171.851 114.236 171.741 114.236 171.631 114.236 171.52 114.236 171.3 114.236 171.079 114.236 170.858 114.236 170.527 114.236M171.851 120.086 171.851 117.658M170.527 117.658 170.858 117.658 171.079 117.658 171.3 117.658 171.52 117.658 171.631 117.658 171.741 117.658 171.851 117.658M171.851 120.086 171.851 120.086 171.741 120.086 171.631 120.086 171.52 120.086 171.3 120.086 171.079 120.086 170.858 120.086 170.527 120.086M171.851 126.046 171.851 123.618M170.527 126.046 170.858 126.046 171.079 126.046 171.3 126.046 171.52 126.046 171.631 126.046 171.741 126.046 171.851 126.046M170.527 123.618 170.858 123.618 171.079 123.618 171.3 123.618 171.52 123.618 171.631 123.618 171.741 123.618 171.851 123.618M170.858 120.086 170.858 123.618M170.858 126.046 170.858 127.923M170.858 127.923 173.176 127.371M173.176 127.371 173.176 110.373M170.858 109.822 170.858 111.698M170.858 114.236 170.858 117.658M173.176 110.373 170.858 109.822M170.858 109.822 166.443 110.484M170.858 127.923 168.54 127.592M166.333 110.594 166.333 110.484 166.443 110.484M166.333 110.594 166.333 111.698M166.333 120.086 166.333 123.066M166.443 110.484 166.443 110.484M173.286 127.15 173.286 127.261 173.176 127.261 173.176 127.371M173.286 127.15 173.286 110.594M173.176 110.484 173.176 110.484 173.286 110.594M173.176 127.371 173.176 127.371M173.176 110.373 173.176 110.484M166.995 95.8041 166.995 94.59M165.45 95.8041 166.995 95.8041M166.995 87.4157 165.45 87.4157M166.995 88.2987 166.995 87.4157M165.45 89.844 165.45 89.844M165.45 101.764 165.45 101.764M170.085 85.5394 170.085 85.429 170.085 85.3187 170.085 85.2083M170.085 85.5394 170.196 85.5394 170.306 85.5394 170.417 85.5394M170.417 85.5394 170.417 85.429 170.417 85.3187 170.306 85.3187 170.306 85.2083 170.196 85.2083 170.085 85.2083M170.417 103.641 170.417 103.641 170.306 103.641 170.196 103.641 170.085 103.641M170.085 103.972 170.085 103.972 170.085 103.861 170.085 103.751 170.085 103.641M170.085 103.972 170.196 103.972 170.306 103.972 170.306 103.861 170.417 103.861 170.417 103.751 170.417 103.641M170.085 103.972 168.54 103.972M170.417 103.641 170.417 85.5394M170.085 103.641 170.085 85.5394M165.781 85.2083 170.085 85.2083M165.781 85.5394 165.781 85.429 165.781 85.3187 165.781 85.2083M170.085 85.5394 165.781 85.5394M165.781 95.8041 165.781 99.005M165.781 85.5394 165.781 87.4157M170.748 22.0747 170.417 22.0747M170.417 21.9643 170.748 21.9643M170.637 41.9419 170.637 21.9643M170.748 41.9419 170.748 21.9643M170.748 41.9419 168.54 41.9419M168.54 41.9419 170.748 41.9419M170.748 25.8274 170.748 25.717 170.748 25.3859 170.748 24.9444 170.748 24.5029M170.748 24.5029 170.748 23.951 170.748 23.5095 170.748 23.2888 170.748 23.1784M166.333 120.086 166.333 120.086M166.333 120.086 166.333 120.086M165.45 114.236 165.45 114.236M166.333 120.086 165.45 120.086M170.858 127.923 170.858 127.923M170.858 127.923 173.176 127.371M170.858 127.923 168.54 127.592M173.286 127.15 173.286 127.15M165.45 68.9834 165.45 68.9834M165.45 68.9834 165.45 68.9834M165.45 68.9834 165.45 68.9834M165.45 19.8672 165.45 19.8672M165.45 19.8672 165.45 19.8672M165.45 10.044 165.45 10.044M165.45 10.044 165.45 10.044M165.45 11.5892 165.45 11.5892M165.45 10.044 165.45 10.044M165.45 10.044 165.45 10.044M165.45 11.5892 165.45 11.5892M165.45 11.5892 165.45 11.5892M167.547 40.507 165.45 40.507M167.547 40.507 167.547 40.507M165.45 40.507 167.547 40.507M165.45 40.507 165.45 40.507M167.547 40.507 167.547 40.507 167.657 40.507M167.547 40.507 167.547 40.507 167.657 40.507M167.657 40.507 167.657 37.7477M165.45 40.507 165.45 40.507M165.45 40.507 165.45 40.507M167.657 40.507 167.657 40.507M167.657 40.507 167.547 40.507M165.56 105.407 167.436 105.407M165.45 105.517 167.547 105.517M165.45 103.972 165.45 103.972M167.657 105.517 167.657 105.517 167.547 105.517M167.657 105.517 167.657 105.517 167.547 105.517M167.547 105.517 167.547 105.517M165.45 105.517 165.45 105.517M165.45 105.517 165.45 105.517M165.45 105.517 165.45 105.517M167.547 105.517 165.45 105.517M167.657 105.186 167.657 105.517M167.547 105.517 165.45 105.517M167.657 105.517 167.657 105.517 167.547 105.517M165.45 105.517 165.45 105.517M167.547 93.707 167.436 93.707M167.436 94.4797 167.436 93.707M165.56 94.4797 167.436 94.4797M165.56 93.0448 165.56 94.4797M165.56 93.0448 165.45 93.0448M165.45 93.0448 165.45 94.59M165.45 94.59 167.547 94.59M167.547 94.59 167.547 93.707M167.436 93.707 167.436 93.4863M167.436 93.4863 167.436 89.4025M167.436 89.4025 167.436 89.2921M167.436 89.2921 167.436 88.5195M167.436 88.5195 165.56 88.5195M165.56 88.5195 165.56 89.844M165.56 89.844 165.56 93.0448M167.436 93.707 167.547 93.707M167.547 93.707 167.547 93.707M165.45 93.0448 165.45 93.0448M165.45 93.0448 165.56 93.0448M165.45 89.844 165.56 89.844M167.436 89.2921 167.547 89.2921M167.547 89.2921 167.547 88.4091M167.547 88.4091 165.45 88.4091M165.45 88.4091 165.45 89.844M165.56 89.844 165.45 89.844M165.45 89.844 165.45 89.844M167.547 89.2921 167.547 89.2921M167.547 89.2921 167.436 89.2921M167.436 93.4863 167.657 93.3759M167.657 93.3759 167.657 89.6232M167.657 89.6232 167.436 89.4025M167.657 93.3759 167.547 93.3759M165.45 94.59 165.45 94.59M165.45 94.59 165.45 94.59M165.45 94.59 165.45 94.59M167.657 94.59 167.657 94.59 167.547 94.59M167.657 94.59 167.657 94.59 167.547 94.59M167.547 94.59 167.547 94.59M167.657 93.707 167.657 94.59M167.547 93.707 167.547 93.707 167.657 93.707M167.547 94.59 165.45 94.59M165.45 93.0448 165.45 93.0448M167.547 93.707 167.547 93.707 167.657 93.707M165.45 93.0448 165.45 93.0448M165.45 89.844 165.45 89.844M165.45 89.844 165.45 89.844M165.45 88.4091 165.45 88.4091M167.657 89.2921 167.657 89.2921 167.547 89.2921M167.657 89.2921 167.657 89.2921 167.547 89.2921M167.657 88.4091 167.657 89.2921M167.547 88.4091 167.547 88.4091 167.657 88.4091M167.547 88.2987 167.547 88.2987 167.547 88.4091M165.45 88.2987 167.547 88.2987M165.45 88.4091 165.45 88.4091 165.45 88.2987M167.547 88.2987 167.547 88.2987 167.657 88.2987 167.657 88.4091M165.45 88.4091 165.45 88.4091 165.45 88.2987M165.56 89.844 165.45 89.844M167.547 89.2921 167.436 89.2921M167.657 94.59 167.657 94.59 167.547 94.59M167.547 94.59 165.45 94.59M165.45 94.59 165.45 94.59M165.45 89.844 165.45 89.844M167.547 93.707 167.547 93.3759M167.657 93.707 167.657 93.3759M167.547 93.3759 167.436 93.4863M167.657 89.6232 167.657 89.6232 167.547 89.5128M167.547 89.5128 167.547 89.5128 167.657 89.6232M167.547 89.5128 167.547 89.2921M167.657 89.6232 167.657 89.2921M165.45 130.241 167.547 130.241M167.547 130.241 167.547 130.241M167.547 130.241 165.45 130.241M165.45 130.241 165.45 130.241M167.547 133.331 167.547 133.331 167.657 133.331M167.547 133.331 167.547 133.331 167.657 133.331M167.547 133.331 167.547 133.331M167.547 133.331 165.45 133.331M165.45 133.331 167.547 133.331M165.45 133.331 165.45 133.331M167.657 130.241 167.657 130.241 167.547 130.241M167.547 130.241 167.547 130.241 167.657 130.241M167.657 133.331 167.657 130.241M167.547 130.241 167.547 133.331M165.45 133.331 165.45 130.241M165.45 130.241 165.45 130.241M165.45 130.241 165.45 130.241M165.45 133.331 165.45 133.331M165.45 133.331 165.45 133.331M167.657 130.241 167.657 130.241M167.657 133.331 167.657 133.331M167.547 130.241 167.657 130.241M167.657 133.331 167.547 133.331M168.54 133.331 168.54 133.331 168.54 133.221M168.54 133.221 168.54 133.221M168.54 133.221 168.54 133.331M168.54 133.221 168.54 130.241M168.54 130.241 168.54 130.241M168.54 130.241 168.54 133.221M168.54 130.241 168.54 130.241M168.54 130.241 168.54 130.241M168.54 130.241 167.657 130.241M168.54 133.331 168.54 133.331 168.54 133.221M168.54 133.331 167.657 133.331M168.54 70.1975 168.54 70.1975M168.54 70.1975 168.54 70.1975M168.54 68.9834 168.54 70.1975M168.54 68.9834 168.54 68.9834M165.45 68.9834 165.45 68.9834M168.54 68.9834 168.54 68.9834M165.45 68.9834 165.45 68.9834M170.417 83.3319 170.417 85.3187M165.45 84.7668 165.45 83.3319M168.54 84.7668 168.54 83.3319M168.54 40.507 165.45 40.507M168.54 40.507 168.54 40.507 168.54 40.3967M168.54 40.3967 168.54 40.3967M168.54 40.507 168.54 40.507 168.54 40.3967M168.54 37.7477 168.54 40.3967M165.45 40.507 165.45 40.507M168.54 10.3751 168.54 11.5892M168.54 10.3751 165.45 10.3751M165.45 11.5892 165.45 10.3751M168.54 11.5892 165.45 11.5892M168.54 11.5892 168.54 11.5892M168.54 11.5892 168.54 10.3751M168.54 10.3751 168.54 10.3751M165.45 11.5892 168.54 11.5892M168.54 11.5892 168.54 11.5892M165.45 11.5892 165.45 11.5892M168.54 11.5892 168.54 11.5892M165.45 11.5892 165.45 11.5892M165.45 10.3751 165.45 10.3751M165.45 11.5892 165.45 11.5892M168.54 11.5892 168.54 11.5892M168.54 11.5892 165.45 11.5892M165.45 11.5892 165.45 11.5892M165.45 10.3751 165.45 7.50539M168.54 10.3751 168.54 7.50539M170.417 22.6266 170.417 20.4191M170.417 22.6266 170.417 22.6266M170.417 20.4191 170.417 22.6266M170.417 20.4191 170.417 20.4191M170.417 22.6266 170.417 22.6266M170.417 22.6266 170.417 22.6266M165.45 20.4191 165.45 22.6266M165.45 22.6266 170.417 22.6266M170.417 20.4191 165.45 20.4191M165.45 22.6266 165.45 22.6266M170.417 22.6266 165.45 22.6266M165.45 22.6266 165.45 22.6266M165.45 22.6266 165.45 22.6266M165.45 20.4191 165.45 20.4191M170.417 14.79 170.417 14.79M170.417 14.79 170.417 14.79M170.417 14.79 165.45 14.79M165.45 14.79 165.45 14.79M165.45 14.79 165.45 14.79M170.417 14.79 165.45 14.79M165.45 14.79 170.417 14.79M170.417 12.6929 170.417 14.79M165.45 12.6929 170.417 12.6929M165.45 14.79 165.45 12.6929M170.417 14.79 170.417 12.6929M170.417 12.6929 170.417 12.6929M165.45 12.6929 165.45 12.6929M170.417 12.6929 165.45 12.6929M165.45 12.6929 165.45 12.6929M170.417 12.6929 170.417 12.6929M170.417 12.6929 170.417 12.6929M165.45 12.6929 165.45 12.6929M170.417 22.6266 170.417 22.6266M165.45 22.6266 170.417 22.6266M165.45 22.6266 165.45 22.6266M165.45 14.79 165.45 20.4191M170.417 14.79 170.417 20.4191M168.54 7.50539 165.45 7.50539M165.45 7.50539 165.45 7.50539M165.45 7.50539 168.54 7.50539M168.54 7.50539 168.54 7.50539M168.54 4.52531 168.54 7.50539M165.45 4.52531 168.54 4.52531M165.45 7.50539 165.45 4.52531M168.54 7.50539 168.54 7.50539M168.54 7.50539 168.54 7.50539M168.54 7.50539 168.54 4.52531M168.54 4.52531 168.54 4.52531M165.45 4.52531 165.45 4.52531M165.45 7.50539 165.45 7.50539M165.45 7.50539 165.45 7.50539M168.54 4.41494 168.54 4.41494 168.54 4.52531M168.54 4.41494 168.54 4.41494 168.54 4.52531M168.54 4.41494 165.45 4.41494M165.45 4.52531 165.45 4.41494M165.45 4.52531 165.45 4.41494M168.54 7.50539 168.54 7.50539M168.54 7.50539 165.45 7.50539M165.45 7.50539 165.45 7.50539M170.417 37.6373 170.417 37.6373 170.417 37.7477M170.417 37.6373 170.417 37.6373 170.417 37.7477M170.417 37.6373 170.417 37.6373M170.417 35.5402 170.417 37.6373M170.417 35.5402 165.45 35.5402M165.45 37.6373 165.45 35.5402M170.417 37.6373 165.45 37.6373M170.417 37.6373 170.417 35.5402M170.417 35.5402 170.417 35.5402M165.45 37.7477 170.417 37.7477M165.45 37.7477 165.45 37.7477 165.45 37.6373M165.45 37.6373 165.45 37.6373M165.45 35.5402 165.45 35.5402M165.45 37.7477 165.45 37.7477 165.45 37.6373M165.45 29.9112 165.45 29.9112M165.45 29.9112 165.45 29.9112M170.417 29.9112 165.45 29.9112M170.417 29.9112 170.417 29.9112M170.417 29.9112 170.417 29.9112M170.417 29.9112 165.45 29.9112M170.417 29.9112 165.45 29.9112M170.417 27.7037 170.417 29.9112M170.417 27.7037 170.417 27.7037M170.417 29.9112 170.417 27.7037M165.45 27.7037 165.45 29.9112M170.417 27.7037 165.45 27.7037M165.45 27.7037 165.45 27.7037M170.417 27.7037 170.417 27.7037M165.45 27.7037 170.417 27.7037M165.45 27.7037 165.45 27.7037M170.417 27.7037 170.417 27.7037M165.45 27.7037 165.45 27.7037M170.417 37.7477 165.45 37.7477M170.417 37.6373 170.417 37.6373 170.417 37.7477M165.45 37.7477 165.45 37.7477 165.45 37.6373M165.45 35.5402 165.45 29.9112M170.417 35.5402 170.417 29.9112M165.45 137.305 165.45 137.194 165.45 136.863 165.45 136.311 165.45 135.428 165.45 134.435 165.45 133.331 165.45 131.896 165.45 130.461 165.45 128.806 165.45 127.15 165.45 125.384 165.45 123.508M165.45 123.508 155.295 123.508M155.295 137.305 155.295 137.194 155.295 136.863 155.295 136.311 155.295 135.428 155.295 134.435 155.295 133.331 155.295 131.896 155.295 130.461 155.295 128.806 155.295 127.15 155.295 125.384 155.295 123.508M165.45 137.305 155.295 137.305M165.45-14.79 165.45-16.556 165.45-18.322 165.45-19.9776 165.45-21.6332 165.45-23.068 165.45-24.5029 165.45-25.6066 165.45-26.7104 165.45-27.483 165.45-28.0348 165.45-28.366 165.45-28.4763M165.45-28.4763 155.295-28.4763M155.295-14.79 155.295-16.556 155.295-18.322 155.295-19.9776 155.295-21.6332 155.295-23.068 155.295-24.5029 155.295-25.6066 155.295-26.7104 155.295-27.483 155.295-28.0348 155.295-28.366 155.295-28.4763M165.45-14.79 155.295-14.79M155.295 123.508 155.295-14.79M165.45 123.508 165.45-14.79M168.54 118.762 168.54 118.762M168.54 118.762 168.54 118.762M168.54 118.762 168.54 118.762M165.45 118.762 168.54 118.762M168.54 118.762 165.45 118.762M165.45 118.762 165.45 118.762M168.54 117.548 168.54 118.762M168.54 117.548 165.45 117.548M165.45 118.762 165.45 117.548M168.54 118.762 168.54 117.548M168.54 117.548 168.54 117.548M165.45 118.762 165.45 118.762M165.45 118.762 165.45 118.762M165.45 117.548 165.45 117.548M165.45 112.581 165.45 113.795M168.54 113.795 165.45 113.795M168.54 113.795 168.54 112.581M168.54 112.581 165.45 112.581M168.54 112.581 168.54 113.795M168.54 112.581 168.54 112.581M168.54 113.795 168.54 113.795M165.45 113.795 165.45 113.795M165.45 113.795 165.45 113.795M168.54 113.795 165.45 113.795M168.54 113.795 168.54 113.795M168.54 113.795 165.45 113.795M165.45 112.581 165.45 112.581M168.54 112.581 168.54 112.581M165.45 112.581 168.54 112.581M165.45 112.581 165.45 112.581M168.54 112.581 168.54 112.581M165.45 112.581 165.45 112.581M168.54 118.762 168.54 118.762M168.54 118.762 165.45 118.762M165.45 118.762 165.45 118.762M165.45 117.548 165.45 113.795M168.54 117.548 168.54 113.795M165.45 102.537 165.45 102.537M170.417 103.861 170.417 105.186M170.417 105.186 168.54 105.186M168.54 105.186 170.417 105.186M165.45 17.7701 165.45 17.6597M166.002 45.2531 165.56 45.2531M165.56 45.2531 165.56 45.6946M166.222 45.1427 165.45 45.1427M165.45 45.1427 165.45 45.805M167.547 105.517 167.547 106.731M165.45 103.751 165.45 103.751M165.45 106.731 165.45 105.517M165.45 103.972 165.45 103.751M167.988 65.6722 167.988 63.7958M165.56 65.6722 165.56 63.1336M165.56 65.7826 165.45 65.7826M165.56 66.8863 165.45 66.8863M168.54 78.2548 168.54 77.9236M165.45 77.9236 165.45 78.2548M168.54 85.2083 168.54 84.8772M165.45 84.8772 165.45 86.0913M165.45 129.247 165.45 129.137M168.54 123.066 165.671 123.066M165.45 78.3651 165.45 78.3651 165.45 78.2548M170.417 78.2548 170.417 78.2548 170.417 78.3651M170.417 78.3651 170.417 78.3651M165.45 78.3651 165.45 78.3651M168.54 64.7892 168.319 64.7892M168.54 66.8863 168.54 64.7892M168.54 40.507 168.54 40.507M168.54 40.507 168.54 43.4871M165.45 43.4871 165.45 40.507M165.45 7.94689 165.45 7.94689M165.45 10.044 165.45 7.94689M165.45 18.9842 165.45 18.9842M165.45 19.8672 165.45 18.9842M168.54 72.0739 168.54 71.9635M165.45 71.9635 165.45 72.0739M168.319 66.9967 168.54 66.9967M165.45 68.2108 165.45 67.2174M170.417 33.6639 170.417 33.6639M170.417 15.4523 170.417 15.4523M170.085 27.7037 170.085 22.6266M166.443 111.698 166.443 112.581M166.443 118.762 166.443 120.086M166.774 112.581 166.774 111.698M166.774 120.086 166.774 118.762M166.443 110.484 166.443 111.698M166.443 120.086 166.443 123.066M168.54 103.641 170.085 103.641M168.54 41.9419 170.748 41.9419M173.176 127.371 173.176 127.371M165.45 68.9834 165.45 68.9834M165.45 68.9834 165.45 68.9834M165.45 68.9834 165.45 68.9834M165.45 19.8672 165.45 19.8672M165.45 10.044 165.45 10.044M165.45 10.3751 165.45 10.044M165.45 11.5892 165.45 11.5892M165.45 11.5892 165.45 11.5892M165.45 11.5892 165.45 11.5892M167.547 37.7477 167.547 40.507M165.45 40.507 165.45 37.7477M167.436 105.407 167.436 105.186M165.56 105.186 165.56 105.407M165.45 105.186 165.45 105.517M167.547 105.517 167.547 105.186M165.45 103.972 165.45 103.972M168.54 133.221 167.657 133.221M167.657 133.331 168.54 133.331M167.657 130.241 168.54 130.241M167.657 40.3967 168.54 40.3967M165.45 40.507 165.45 40.507M168.54 40.3967 168.54 37.7477" stroke="#000000" stroke-width="0.782548" stroke-linecap="round" stroke-linejoin="round" stroke-miterlimit="10" fill="none" transform="matrix(1 0 0 -1.00044 73.0403 143.025)"/><path d="M0 0 0 0M-0.993361 0.110373-0.993361 0.110373M1.6556 80.9037 1.6556 80.9037M3.7527 112.581 3.7527 112.581M3.7527 120.417 3.7527 120.417M3.7527 120.417 3.7527 120.417M0.993361 121.411 0.993361 121.411M0.993361 122.073 0.993361 122.073M-0.882987 12.3618-0.882987 12.3618M5.84979 12.5826 5.84979 12.5826M5.84979 4.52531 5.84979 4.52531M5.84979 9.60249 5.84979 9.60249M5.84979 11.5892 5.84979 11.5892M5.84979 9.60249 5.84979 9.60249M5.84979 4.52531 5.84979 4.52531M5.84979 2.53859 5.84979 2.53859M0.33112 12.8033 0.33112 12.8033M0.33112 12.8033 0.33112 12.8033M0.33112 12.8033 0.33112 12.8033M0.33112 12.8033 0.33112 12.8033M0.33112 12.8033 0.33112 12.8033M0.33112 12.8033 0.33112 12.8033M0.33112 12.8033 0.33112 12.8033M0.33112 12.8033 0.33112 12.8033M0.33112 12.8033 0.33112 12.8033M0.33112 12.8033 0.33112 12.8033M0.33112 12.8033 0.33112 12.8033M0.33112 12.8033 0.33112 12.8033M0.33112 12.8033 0.33112 12.8033M0.33112 12.8033 0.33112 12.8033M0.33112 12.8033 0.33112 12.8033M0.33112 12.8033 0.33112 12.8033M0.33112 12.8033 0.33112 12.8033M0.33112 12.8033 0.33112 12.8033M0.33112 12.8033 0.33112 12.8033M0.33112 12.8033 0.33112 12.8033M0.33112 12.8033 0.33112 12.8033M0.33112 12.8033 0.33112 12.8033M0.33112 12.8033 0.33112 12.8033M0.33112 12.8033 0.33112 12.8033M0.33112 12.8033 0.33112 12.8033M0.33112 12.8033 0.33112 12.8033M0.33112 12.8033 0.33112 12.8033M0.33112 12.8033 0.33112 12.8033M0.33112 12.8033 0.33112 12.8033M0.33112 12.8033 0.33112 12.8033M0.33112 12.8033 0.33112 12.8033M-0.33112 12.8033-0.33112 12.8033M-0.33112 12.8033-0.33112 12.8033M-0.33112 12.8033-0.33112 12.8033M-0.33112 12.8033-0.33112 12.8033M-0.33112 12.8033-0.33112 12.8033M-0.33112 12.8033-0.33112 12.8033M-0.33112 12.8033-0.33112 12.8033M-0.33112 12.8033-0.33112 12.8033M-0.33112 12.8033-0.33112 12.8033M-0.33112 12.8033-0.33112 12.8033M-0.33112 12.8033-0.33112 12.8033M-0.33112 12.8033-0.33112 12.8033M-0.33112 12.8033-0.33112 12.8033M-0.33112 12.8033-0.33112 12.8033M-0.33112 12.8033-0.33112 12.8033M-0.33112 12.8033-0.33112 12.8033M-0.33112 12.8033-0.33112 12.8033M-0.33112 12.8033-0.33112 12.8033M-0.33112 12.8033-0.33112 12.8033M-0.33112 12.8033-0.33112 12.8033M-0.33112 12.8033-0.33112 12.8033M-0.33112 12.8033-0.33112 12.8033M-0.33112 12.8033-0.33112 12.8033M-0.33112 12.8033-0.33112 12.8033M-0.33112 12.8033-0.33112 12.8033M-0.33112 12.8033-0.33112 12.8033M-0.33112 12.8033-0.33112 12.8033M-0.33112 12.8033-0.33112 12.8033M-0.33112 12.8033-0.33112 12.8033M-0.33112 12.8033-0.33112 12.8033M-0.33112 12.8033-0.33112 12.8033M-0.33112 12.8033-0.33112 12.8033M-0.662241 16.3353-0.662241 16.3353M-0.662241 14.6797-0.662241 14.6797M-0.220747 14.3485-0.220747 14.3485M0.33112 13.4656 0.33112 13.4656M-0.441494 14.4589-0.441494 14.4589M0.33112 0.662241 0.33112 0.662241M-0.441494 0.33112-0.441494 0.33112M-0.772614 0.220747-0.772614 0.220747M-0.662241-0.551867-0.662241-0.551867M-0.662241-2.20747-0.662241-2.20747M1.87635 115.451 1.87635 115.451M1.87635 115.451 1.87635 115.451M-1.21411 115.451-1.21411 115.451M1.87635 120.417 1.87635 120.417M1.87635 120.417 1.87635 120.417M-1.21411 120.417-1.21411 120.417M1.6556 80.9037 1.6556 80.9037M1.87635 139.512 1.87635 139.512M1.87635 139.512 1.87635 139.512M1.87635 144.589 1.87635 144.589M-1.21411 144.589-1.21411 144.589M1.87635 144.479 1.87635 144.479M1.87635 83.4423 1.87635 83.4423M1.87635 58.7187 1.87635 58.7187M1.87635 58.829 1.87635 58.829M-1.21411 58.829-1.21411 58.829M1.87635 58.829 1.87635 58.829M-1.21411 58.829-1.21411 58.829M1.87635 90.3958 1.87635 90.3958M1.87635 90.5062 1.87635 90.5062M-1.21411 90.5062-1.21411 90.5062M1.87635 90.5062 1.87635 90.5062M-1.21411 90.5062-1.21411 90.5062M3.7527 98.5635 3.7527 98.5635M-1.21411 98.5635-1.21411 98.5635M3.7527 98.4531 3.7527 98.4531M3.7527 98.5635 3.7527 98.5635M-1.21411 98.5635-1.21411 98.5635M1.87635 83.4423 1.87635 83.4423M1.87635 83.4423 1.87635 83.4423M-1.21411 83.4423-1.21411 83.4423M3.97344 57.1734 3.97344 57.1734M0.993361 108.607 0.993361 108.607M0.772614 108.718 0.772614 108.718M0.993361 104.855 0.993361 104.855M0.772614 104.634 0.772614 104.634M1.87635 148.452 1.87635 148.452M1.87635 148.563 1.87635 148.563M-1.21411 148.563-1.21411 148.563M1.87635 148.563 1.87635 148.563M-1.21411 148.563-1.21411 148.563M1.87635 85.429 1.87635 85.429M3.7527 103.641 3.7527 103.641M1.87635 26.8207 1.87635 26.8207M1.87635 26.8207 1.87635 26.8207M-1.21411 26.8207-1.21411 26.8207M3.7527 30.0216 3.7527 30.0216M3.7527 30.0216 3.7527 30.0216M-1.21411 30.0216-1.21411 30.0216M3.7527 37.8581 3.7527 37.8581M3.7527 37.8581 3.7527 37.8581M-1.21411 37.8581-1.21411 37.8581M1.87635 22.7369 1.87635 22.7369M1.87635 22.7369 1.87635 22.7369M-1.21411 22.7369-1.21411 22.7369M1.87635 22.7369 1.87635 22.7369M-1.21411 22.7369-1.21411 22.7369M3.7527 45.1427 3.7527 45.1427M3.7527 45.1427 3.7527 45.1427M-1.21411 45.1427-1.21411 45.1427M3.7527 52.9792 3.7527 52.9792M-1.21411 52.9792-1.21411 52.9792M3.7527 52.8689 3.7527 52.8689M1.87635 129.027 1.87635 129.027M1.87635 129.027 1.87635 129.027M-1.21411 129.027-1.21411 129.027M1.87635 133.993 1.87635 133.993M1.87635 133.993 1.87635 133.993M-1.21411 133.993-1.21411 133.993" stroke="#000000" stroke-width="0.782548" stroke-linecap="round" stroke-linejoin="round" stroke-miterlimit="10" fill="none" transform="matrix(1 0 0 -1.00044 239.704 158.264)"/><path d="M0 0-3.20083 0.110373-6.29129 0.441494-9.38174 0.993361-12.4722 1.76597-15.4523 2.64896-18.322 3.86307-21.1917 5.29792-23.951 6.84315-26.4896 8.60913-29.0282 10.4855-31.3461 12.5826-33.5535 14.9004-35.5402 17.3286-37.4166 19.8672-39.0722 22.5162-40.507 25.2755-41.8315 28.1452-42.8249 31.1253-43.7079 34.1054-44.3701 37.1958-44.8116 40.2863-45.0324 43.4871-45.0324 46.5776-44.8116 49.7784-44.3701 52.8689-43.7079 55.9593-42.8249 58.9394-41.8315 61.9195-40.507 64.7892-39.0722 67.5485-37.4166 70.1975-35.5402 72.7361-33.5535 75.1643-31.3461 77.4821-29.0282 79.5792-26.4896 81.4556-23.951 83.2216-21.1917 84.7668-18.322 86.2016-15.4523 87.4157-12.4722 88.2987-9.38174 89.0714-6.29129 89.6232-3.20083 89.9543 3.43109e-15 90.0647 3.09046 89.9543 6.29129 89.6232 9.38174 89.0714 12.3618 88.2987 15.3419 87.4157 18.322 86.2016 21.0813 84.7668 23.8407 83.2216 26.4896 81.4556 28.9178 79.5792 31.2357 77.4821 33.4431 75.1643 35.4299 72.7361 37.3062 70.1975 38.9618 67.5485 40.507 64.7892 41.7212 61.9195 42.8249 58.9394 43.7079 55.9593 44.3701 52.8689 44.8116 49.7784 45.0324 46.5776 45.0324 43.4871 44.8116 40.2863 44.3701 37.1958 43.7079 34.1054 42.8249 31.1253 41.7212 28.1452 40.507 25.2755 38.9618 22.5162 37.3062 19.8672 35.4299 17.3286 33.4431 14.9004 31.2357 12.5826 28.9178 10.4855 26.4896 8.60913 23.8407 6.84315 21.0813 5.29792 18.322 3.86307 15.3419 2.64896 12.3618 1.76597 9.38174 0.993361 6.29129 0.441494 3.09046 0.110373 0 0M0-8.16763-3.42158-8.05726-6.84315-7.72614-10.1544-7.17427-13.4656-6.40166-16.7768-5.4083-19.9776-4.30456-23.068-2.86971-26.1585-1.32448-29.0282 0.441494-31.7875 2.42822-34.5469 4.52531-36.9751 6.84315-39.4033 9.27137-41.6108 11.81-43.5975 14.5693-45.4739 17.439-47.1295 20.4191-48.6747 23.5095-49.8888 26.7104-50.9925 29.9112-51.8755 33.2224-52.5378 36.5336-52.9792 39.9552-53.2 43.2664-53.2 46.688-52.9792 50.1095-52.5378 53.5311-51.8755 56.8423-50.9925 60.1535-49.8888 63.3543-48.6747 66.5552-47.1295 69.6456-45.4739 72.6257-43.5975 75.4954-41.6108 78.1444-39.4033 80.7933-36.9751 83.2216-34.5469 85.5394-31.7875 87.6365-29.0282 89.6232-26.1585 91.3892-23.068 92.9344-19.9776 94.3693-16.7768 95.473-13.4656 96.4664-10.1544 97.239-6.84315 97.7909-3.42158 98.122 2.94094e-15 98.2323 3.42158 98.122 6.73278 97.7909 10.1544 97.239 13.4656 96.4664 16.7768 95.473 19.9776 94.3693 23.068 92.9344 26.0481 91.3892 29.0282 89.6232 31.7875 87.6365 34.4365 85.5394 36.9751 83.2216 39.2929 80.7933 41.6108 78.1444 43.5975 75.4954 45.4739 72.6257 47.1295 69.6456 48.5643 66.5552 49.8888 63.3543 50.9925 60.1535 51.8755 56.8423 52.4274 53.5311 52.8689 50.1095 53.0896 46.688 53.0896 43.2664 52.8689 39.9552 52.4274 36.5336 51.8755 33.2224 50.9925 29.9112 49.8888 26.7104 48.5643 23.5095 47.1295 20.4191 45.4739 17.439 43.5975 14.5693 41.6108 11.81 39.2929 9.27137 36.9751 6.84315 34.4365 4.52531 31.7875 2.42822 29.0282 0.441494 26.0481-1.32448 23.068-2.86971 19.9776-4.30456 16.7768-5.4083 13.4656-6.40166 10.1544-7.17427 6.73278-7.72614 3.42158-8.05726 0-8.16763M0-9.38174 3.42158-9.27137 6.84315-8.94025 10.2647-8.38838 13.6863-7.61577 16.9975-6.73278 20.1983-5.51867 23.3992-4.08382 26.4896-2.53859 29.3593-0.772614 32.229 1.21411 34.9884 3.3112 37.527 5.62904 39.9552 8.05726 42.273 10.7062 44.3701 13.4656 46.2465 16.3353 48.0124 19.3153 49.4473 22.4058 50.7718 25.6066 51.9859 28.8075 52.8689 32.229 53.5311 35.5402 54.083 38.9618 54.3037 42.3834 54.4141 45.9153 54.1934 49.3369 53.8622 52.7585 53.3104 56.1801 52.4274 59.4913 51.434 62.8025 50.2199 66.0033 48.7851 69.2041 47.1295 72.2946 45.2531 75.1643 43.2664 78.034 41.1693 80.683 38.7411 83.2216 36.3129 85.6498 33.6639 87.8572 30.7942 89.844 27.9245 91.7203 24.9444 93.3759 21.7436 94.9211 18.5427 96.1353 15.3419 97.239 11.9203 98.122 8.60913 98.7842 5.18755 99.2257 1.6556 99.4465-1.76597 99.4465-5.18755 99.2257-8.60913 98.7842-12.0307 98.122-15.3419 97.239-18.6531 96.1353-21.8539 94.9211-24.9444 93.3759-28.0348 91.7203-30.9046 89.844-33.6639 87.8572-36.3129 85.6498-38.8514 83.2216-41.1693 80.683-43.3768 78.034-45.3635 75.1643-47.1295 72.2946-48.7851 69.2041-50.2199 66.0033-51.434 62.8025-52.5378 59.4913-53.3104 56.1801-53.8622 52.7585-54.3037 49.3369-54.4141 45.9153-54.4141 42.3834-54.083 38.9618-53.6415 35.5402-52.9792 32.229-51.9859 28.8075-50.8821 25.6066-49.5577 22.4058-48.0124 19.3153-46.2465 16.3353-44.3701 13.4656-42.273 10.7062-40.0656 8.05726-37.6373 5.62904-34.9884 3.3112-32.3394 1.21411-29.4697-0.772614-26.4896-2.53859-23.3992-4.08382-20.3087-5.51867-16.9975-6.73278-13.6863-7.61577-10.3751-8.38838-6.95353-8.94025-3.53195-9.27137 2.10767e-14-9.38174M-72.7361 45.0324-72.6257 45.9153-72.2946 46.7983-71.7427 47.5709-71.0805 48.2332-70.1975 48.6747-69.3145 48.8954-68.4315 48.8954-67.4382 48.6747-66.6656 48.2332-65.8929 47.5709-65.4514 46.7983-65.0099 45.9153-64.8996 45.0324-65.0099 44.039-65.4514 43.156-65.8929 42.3834-66.6656 41.8315-67.4382 41.39-68.4315 41.1693-69.3145 41.1693-70.1975 41.39-71.0805 41.8315-71.7427 42.3834-72.2946 43.156-72.6257 44.039-72.7361 45.0324M-73.8398 45.0324-73.7295 46.0257-73.3983 47.0191-72.9568 48.0124-72.1842 48.7851-71.4116 49.3369-70.4182 49.7784-69.4249 49.9992-68.3212 49.9992-67.3278 49.7784-66.3344 49.3369-65.5618 48.7851-64.7892 48.0124-64.2373 47.0191-64.0166 46.0257-63.9062 45.0324-64.0166 44.039-64.2373 42.9353-64.7892 42.0523-65.5618 41.2797-66.3344 40.7278-67.3278 40.2863-68.3212 40.0656-69.4249 40.0656-70.4182 40.2863-71.4116 40.7278-72.1842 41.2797-72.9568 42.0523-73.3983 42.9353-73.7295 44.039-73.8398 45.0324M64.8996 45.0324 65.0099 45.9153 65.3411 46.7983 65.8929 47.5709 66.5552 48.2332 67.4382 48.6747 68.3212 48.8954 69.3145 48.8954 70.1975 48.6747 70.9701 48.2332 71.7427 47.5709 72.2946 46.7983 72.6257 45.9153 72.7361 45.0324 72.6257 44.039 72.2946 43.156 71.7427 42.3834 70.9701 41.8315 70.1975 41.39 69.3145 41.1693 68.3212 41.1693 67.4382 41.39 66.5552 41.8315 65.8929 42.3834 65.3411 43.156 65.0099 44.039 64.8996 45.0324M63.7958 45.0324 63.9062 46.0257 64.2373 47.0191 64.7892 48.0124 65.4514 48.7851 66.3344 49.3369 67.2174 49.7784 68.3212 49.9992 69.3145 49.9992 70.3079 49.7784 71.3012 49.3369 72.1842 48.7851 72.8465 48.0124 73.3983 47.0191 73.7295 46.0257 73.8398 45.0324 73.7295 44.039 73.3983 42.9353 72.8465 42.0523 72.1842 41.2797 71.3012 40.7278 70.3079 40.2863 69.3145 40.0656 68.3212 40.0656 67.2174 40.2863 66.3344 40.7278 65.4514 41.2797 64.7892 42.0523 64.2373 42.9353 63.9062 44.039 63.7958 45.0324M58.829 39.2929 68.7626 33.4431M58.829 50.7718 58.829 39.2929M68.7626 56.6216 58.829 50.7718M78.8066 50.7718 68.7626 56.6216M68.7626 33.4431 78.8066 39.2929M78.8066 39.2929 78.8066 50.7718M-58.829 39.2929-58.829 50.7718M-68.873 33.4431-58.829 39.2929M-78.917 39.2929-68.873 33.4431M-58.829 50.7718-68.873 56.6216M-68.873 56.6216-78.917 50.7718M-78.917 50.7718-78.917 39.2929M62.5817 31.2357 62.5817-8.16763M53.2-17.5494 54.6348-17.439 56.0697-17.1079 57.3942-16.556 58.7187-15.7834 59.8224-14.79 60.7054-13.6863 61.478-12.4722 62.1402-11.0373 62.4714-9.60249 62.5817-8.16763M-53.2-17.5494 53.2-17.5494M-62.5817-8.16763-62.4714-9.60249-62.1402-11.0373-61.5884-12.4722-60.8158-13.6863-59.8224-14.79-58.7187-15.7834-57.5046-16.556-56.0697-17.1079-54.6348-17.439-53.2-17.5494M-62.5817 31.2357-62.5817-8.16763M-68.873 31.2357-62.5817 31.2357M-68.873 58.829-70.639 58.7187-72.2946 58.3875-73.9502 57.8357-75.4954 57.0631-76.9303 56.1801-78.2548 55.0763-79.4689 53.7519-80.4622 52.4274-81.3452 50.8821-81.8971 49.2265-82.3386 47.5709-82.5593 45.9153-82.5593 44.1494-82.3386 42.4938-81.8971 40.7278-81.3452 39.1826-80.4622 37.6373-79.4689 36.2025-78.2548 34.9884-76.9303 33.8846-75.4954 33.0017-73.9502 32.229-72.2946 31.6772-70.639 31.3461-68.873 31.2357M-68.873 58.829-62.5817 58.829M-62.5817 98.2323-62.5817 58.829M-53.2 107.614-54.6348 107.504-56.0697 107.173-57.5046 106.621-58.7187 105.848-59.8224 104.855-60.8158 103.751-61.5884 102.427-62.1402 101.102-62.4714 99.6672-62.5817 98.2323M-53.2 107.614 53.2 107.614M62.5817 98.2323 62.4714 99.6672 62.1402 101.102 61.478 102.427 60.7054 103.751 59.8224 104.855 58.7187 105.848 57.3942 106.621 56.0697 107.173 54.6348 107.504 53.2 107.614M62.5817 98.2323 62.5817 58.829M68.7626 58.829 62.5817 58.829M68.7626 31.2357 70.5286 31.3461 72.1842 31.6772 73.8398 32.229 75.3851 33.0017 76.9303 33.8846 78.2548 34.9884 79.3585 36.2025 80.4622 37.6373 81.2348 39.1826 81.8971 40.7278 82.3386 42.4938 82.5593 44.1494 82.5593 45.9153 82.3386 47.5709 81.8971 49.2265 81.2348 50.8821 80.4622 52.4274 79.3585 53.7519 78.2548 55.0763 76.9303 56.1801 75.3851 57.0631 73.8398 57.8357 72.1842 58.3875 70.5286 58.7187 68.7626 58.829M68.7626 31.2357 62.5817 31.2357M-82.8904 114.126-82.7801 116.002-82.4489 117.768-81.8971 119.424-81.1245 121.08-80.1311 122.515-78.917 123.949-77.5925 125.053-76.0473 126.046-74.3917 126.929-72.7361 127.481-70.9701 127.812-69.2041 127.923M-69.2041 127.923 69.0938 127.923M69.0938 127.923 70.8597 127.812 72.6257 127.481 74.3917 126.929 76.0473 126.046 77.4821 125.053 78.8066 123.949 80.0207 122.515 81.0141 121.08 81.7867 119.424 82.4489 117.768 82.7801 116.002 82.8904 114.126M82.8904 114.126 82.8904-24.1718M82.8904-24.1718 82.7801-25.9378 82.4489-27.7037 81.7867-29.3593 81.0141-31.0149 80.0207-32.4498 78.8066-33.8846 77.4821-34.9884 76.0473-36.0921 74.3917-36.8647 72.6257-37.4166 70.8597-37.7477 69.0938-37.8581M69.0938-37.8581-69.2041-37.8581M-82.8904-24.1718-82.8904 114.126M-69.2041-37.8581-70.9701-37.7477-72.7361-37.4166-74.3917-36.8647-76.0473-36.0921-77.5925-34.9884-78.917-33.8846-80.1311-32.4498-81.1245-31.0149-81.8971-29.3593-82.4489-27.7037-82.7801-25.9378-82.8904-24.1718M75.7162 113.905 75.6058 115.119 75.2747 116.223 74.7228 117.437 73.9502 118.431 73.0672 119.203 72.0739 119.866 70.9701 120.417 69.756 120.638 68.5419 120.749 67.2174 120.528 66.1137 120.197 65.0099 119.645 64.0166 118.872 63.244 117.879 62.5817 116.885 62.1402 115.671 61.9195 114.457 61.9195 113.243 62.1402 112.029 62.5817 110.815 63.244 109.822 64.0166 108.828 65.0099 108.166 66.1137 107.504 67.2174 107.173 68.5419 106.952 69.756 107.062 70.9701 107.283 72.0739 107.835 73.0672 108.497 73.9502 109.38 74.7228 110.373 75.2747 111.477 75.6058 112.581 75.7162 113.905M-62.0299 113.905-62.1402 115.119-62.361 116.223-62.9129 117.437-63.6855 118.431-64.5685 119.203-65.5618 119.866-66.7759 120.417-67.99 120.638-69.2041 120.749-70.4182 120.528-71.522 120.197-72.6257 119.645-73.6191 118.872-74.3917 117.879-75.0539 116.885-75.4954 115.671-75.7162 114.457-75.7162 113.243-75.4954 112.029-75.0539 110.815-74.3917 109.822-73.6191 108.828-72.6257 108.166-71.522 107.504-70.4182 107.173-69.2041 106.952-67.99 107.062-66.7759 107.283-65.5618 107.835-64.5685 108.497-63.6855 109.38-62.9129 110.373-62.361 111.477-62.1402 112.581-62.0299 113.905M75.7162-23.8407 75.6058-22.6266 75.2747-21.4124 74.7228-20.3087 73.9502-19.3153 73.0672-18.4324 72.0739-17.7701 70.9701-17.2183 69.756-16.9975 68.5419-16.8871 67.2174-17.1079 66.1137-17.439 65.0099-18.1012 64.0166-18.8739 63.244-19.7568 62.5817-20.8606 62.1402-21.9643 61.9195-23.1784 61.9195-24.3925 62.1402-25.6066 62.5817-26.8207 63.244-27.8141 64.0166-28.8075 65.0099-29.5801 66.1137-30.1319 67.2174-30.4631 68.5419-30.6838 69.756-30.5734 70.9701-30.3527 72.0739-29.9112 73.0672-29.1386 73.9502-28.366 74.7228-27.3726 75.2747-26.2689 75.6058-25.0548 75.7162-23.8407M-62.0299-23.8407-62.1402-22.6266-62.361-21.4124-62.9129-20.3087-63.6855-19.3153-64.5685-18.4324-65.5618-17.7701-66.7759-17.2183-67.99-16.9975-69.2041-16.8871-70.4182-17.1079-71.522-17.439-72.6257-18.1012-73.6191-18.8739-74.3917-19.7568-75.0539-20.8606-75.4954-21.9643-75.7162-23.1784-75.7162-24.3925-75.4954-25.6066-75.0539-26.8207-74.3917-27.8141-73.6191-28.8075-72.6257-29.5801-71.522-30.1319-70.4182-30.4631-69.2041-30.6838-67.99-30.5734-66.7759-30.3527-65.5618-29.9112-64.5685-29.1386-63.6855-28.366-62.9129-27.3726-62.361-26.2689-62.1402-25.0548-62.0299-23.8407" stroke="#000000" stroke-width="0.782548" stroke-linecap="round" stroke-linejoin="round" stroke-miterlimit="10" fill="none" transform="matrix(1 0 0 -1.00044 368.29 133.639)"/></g></svg>