<svg width="120" height="120" xmlns="http://www.w3.org/2000/svg" xmlns:xlink="http://www.w3.org/1999/xlink" xml:space="preserve" overflow="hidden"><g><path d="M3.8147e-06 3.8147e-06 120 3.8147e-06 120 120 3.8147e-06 120Z" fill="#FFFFFF"/><path d="M25.2803 40.4702 94.7197 40.4702 94.7197 79.5298 25.2803 79.5298Z" fill="#696969"/><path d="M110 60C110 87.6142 87.6142 110 60 110 32.3858 110 10 87.6142 10 60 10 32.3858 32.3858 10 60 10 87.6142 10 110 32.3858 110 60Z" stroke="#FF0000" stroke-width="0.271248" fill="#FFFF00" fill-opacity="0.5"/><path d="M25.2803 40.4702 94.7197 40.4702 94.7197 79.5298 25.2803 79.5298Z" stroke="#000000" stroke-width="0.180832" fill="none"/><text fill="#0000CD" font-family="Arial,Arial_MSFontService,sans-serif" font-weight="400" font-size="66" transform="matrix(0.0904159 0 0 0.0904159 49.7378 60)">IMX</text><text fill="#0000CD" font-family="Arial,Arial_MSFontService,sans-serif" font-weight="400" font-size="66" transform="matrix(0.0904159 0 0 0.0904159 60.226 60)">678</text><text fill="#0000CD" font-family="Arial,Arial_MSFontService,sans-serif" font-weight="400" font-size="66" transform="matrix(0.0904159 0 0 0.0904159 51.3201 66)">L</text><text fill="#0000CD" font-family="Arial,Arial_MSFontService,sans-serif" font-weight="400" font-size="66" transform="matrix(0.0904159 0 0 0.0904159 54.6655 66)">100</text><text fill="#0000CD" font-family="Arial,Arial_MSFontService,sans-serif" font-weight="400" font-size="66" transform="matrix(0.0904159 0 0 0.0904159 64.7016 66)">A</text></g></svg>