<svg width="120" height="120" xmlns="http://www.w3.org/2000/svg" xmlns:xlink="http://www.w3.org/1999/xlink" xml:space="preserve" overflow="hidden"><g><path d="M3.8147e-06 3.8147e-06 120 3.8147e-06 120 120 3.8147e-06 120Z" fill="#FFFFFF"/><path d="M25.2803 40.4702 94.7197 40.4702 94.7197 79.5298 25.2803 79.5298Z" fill="#696969"/><path d="M101.953 60C101.953 83.17 83.17 101.953 60 101.953 36.83 101.953 18.047 83.17 18.047 60 18.047 36.83 36.83 18.047 60 18.047 83.17 18.047 101.953 36.83 101.953 60Z" stroke="#FF0000" stroke-width="0.271248" fill="#FFFF00" fill-opacity="0.5"/><path d="M25.2803 40.4702 94.7197 40.4702 94.7197 79.5298 25.2803 79.5298Z" stroke="#000000" stroke-width="0.180832" fill="none"/><text fill="#0000CD" font-family="Arial,Arial_MSFontService,sans-serif" font-weight="400" font-size="66" transform="matrix(0.0904159 0 0 0.0904159 49.7378 60)">IMX</text><text fill="#0000CD" font-family="Arial,Arial_MSFontService,sans-serif" font-weight="400" font-size="66" transform="matrix(0.0904159 0 0 0.0904159 60.226 60)">678</text><text fill="#0000CD" font-family="Arial,Arial_MSFontService,sans-serif" font-weight="400" font-size="66" transform="matrix(0.0904159 0 0 0.0904159 51.5461 66)">L</text><text fill="#0000CD" font-family="Arial,Arial_MSFontService,sans-serif" font-weight="400" font-size="66" transform="matrix(0.0904159 0 0 0.0904159 54.8915 66)">110</text><text fill="#0000CD" font-family="Arial,Arial_MSFontService,sans-serif" font-weight="400" font-size="66" transform="matrix(0.0904159 0 0 0.0904159 64.4756 66)">A</text></g></svg>