<svg width="120" height="120" xmlns="http://www.w3.org/2000/svg" xmlns:xlink="http://www.w3.org/1999/xlink" xml:space="preserve" overflow="hidden"><g><path d="M3.8147e-06 3.8147e-06 120 3.8147e-06 120 120 3.8147e-06 120Z" fill="#FFFFFF"/><path d="M25.2803 40.4702 94.7197 40.4702 94.7197 79.5298 25.2803 79.5298Z" fill="#696969"/><path d="M102.495 60C102.495 83.4696 83.4696 102.495 60 102.495 36.5304 102.495 17.5045 83.4696 17.5045 60 17.5045 36.5304 36.5304 17.5045 60 17.5045 83.4696 17.5045 102.495 36.5304 102.495 60Z" stroke="#FF0000" stroke-width="0.271248" fill="#FFFF00" fill-opacity="0.5"/><path d="M25.2803 40.4702 94.7197 40.4702 94.7197 79.5298 25.2803 79.5298Z" stroke="#000000" stroke-width="0.180832" fill="none"/><text fill="#0000CD" font-family="Arial,Arial_MSFontService,sans-serif" font-weight="400" font-size="66" transform="matrix(0.0904159 0 0 0.0904159 49.7378 60)">IMX</text><text fill="#0000CD" font-family="Arial,Arial_MSFontService,sans-serif" font-weight="400" font-size="66" transform="matrix(0.0904159 0 0 0.0904159 60.226 60)">678</text><text fill="#0000CD" font-family="Arial,Arial_MSFontService,sans-serif" font-weight="400" font-size="66" transform="matrix(0.0904159 0 0 0.0904159 52.9928 66)">L</text><text fill="#0000CD" font-family="Arial,Arial_MSFontService,sans-serif" font-weight="400" font-size="66" transform="matrix(0.0904159 0 0 0.0904159 56.3382 66)">54</text><text fill="#0000CD" font-family="Arial,Arial_MSFontService,sans-serif" font-weight="400" font-size="66" transform="matrix(0.0904159 0 0 0.0904159 63.0289 66)">A</text></g></svg>